<svg xmlns="http://www.w3.org/2000/svg" width="289.199" height="276.28" viewBox="0 0 289.199 276.28">
  <g id="Grupo_32394" data-name="Grupo 32394" transform="translate(-871.772 -4109.667)">
    <circle id="Elipse_25" data-name="Elipse 25" cx="121.669" cy="121.669" r="121.669" transform="translate(885.43 4142.607)" fill="#e5c3d1" opacity="0.3"/>
    <g id="Grupo_13017" data-name="Grupo 13017" transform="translate(1089.115 4234.598)" opacity="0.5" style="mix-blend-mode: multiply;isolation: isolate">
      <rect id="Rectángulo_2867" data-name="Rectángulo 2867" width="27.871" height="12.121" transform="translate(0 13.321)" fill="#e5c3d1"/>
      <rect id="Rectángulo_2868" data-name="Rectángulo 2868" width="27.871" height="12.121" transform="translate(30.049 13.321)" fill="#e5c3d1"/>
      <rect id="Rectángulo_2869" data-name="Rectángulo 2869" width="27.871" height="12.121" transform="translate(14.834 27.654)" fill="#e5c3d1"/>
      <rect id="Rectángulo_2870" data-name="Rectángulo 2870" width="27.871" height="12.121" transform="translate(43.985)" fill="#e5c3d1"/>
    </g>
    <g id="Grupo_13018" data-name="Grupo 13018" transform="translate(1001.075 4323.504)" opacity="0.5" style="mix-blend-mode: multiply;isolation: isolate">
      <rect id="Rectángulo_2871" data-name="Rectángulo 2871" width="27.871" height="12.121" transform="translate(71.856 25.442) rotate(180)" fill="#e5c3d1"/>
      <rect id="Rectángulo_2872" data-name="Rectángulo 2872" width="27.871" height="12.121" transform="translate(41.807 25.442) rotate(180)" fill="#e5c3d1"/>
      <rect id="Rectángulo_2873" data-name="Rectángulo 2873" width="27.871" height="12.121" transform="translate(57.022 39.775) rotate(180)" fill="#e5c3d1"/>
      <rect id="Rectángulo_2874" data-name="Rectángulo 2874" width="27.871" height="12.121" transform="translate(27.871 12.121) rotate(180)" fill="#e5c3d1"/>
    </g>
    <g id="Grupo_13019" data-name="Grupo 13019" transform="translate(871.772 4285.271)" opacity="0.5" style="mix-blend-mode: multiply;isolation: isolate">
      <rect id="Rectángulo_2875" data-name="Rectángulo 2875" width="27.871" height="12.121" transform="translate(0 13.321)" fill="#e5c3d1"/>
      <rect id="Rectángulo_2876" data-name="Rectángulo 2876" width="27.871" height="12.121" transform="translate(30.049 13.321)" fill="#e5c3d1"/>
      <rect id="Rectángulo_2877" data-name="Rectángulo 2877" width="27.871" height="12.121" transform="translate(14.834 27.654)" fill="#e5c3d1"/>
      <rect id="Rectángulo_2878" data-name="Rectángulo 2878" width="27.871" height="12.121" transform="translate(43.985)" fill="#e5c3d1"/>
    </g>
    <g id="Grupo_13024" data-name="Grupo 13024" transform="translate(974.595 4109.667)">
      <path id="Trazado_29845" data-name="Trazado 29845" d="M248.193,336.147l93.1,19.132-9.04-45.2-43.346-11.749Z" transform="translate(-243.801 -145.677)" fill="#c6556c"/>
      <rect id="Rectángulo_2908" data-name="Rectángulo 2908" width="7.225" height="76.331" transform="translate(67.596 192.182)" fill="#613f75"/>
      <g id="Grupo_13023" data-name="Grupo 13023" transform="translate(22.435 0)">
        <path id="Trazado_29846" data-name="Trazado 29846" d="M287.668,147.091a27.549,27.549,0,0,0,.764-9.281,34.457,34.457,0,0,0-4.29-14.948,24.612,24.612,0,0,0-10.067-9.722l-.3.014v50.188l.1.171a47.7,47.7,0,0,0,4.853-3.532C282.8,156.574,286.233,152.2,287.668,147.091Z" transform="translate(-273.778 -91.091)" fill="#e5c3d1"/>
        <path id="Trazado_29847" data-name="Trazado 29847" d="M327.589,118.219c5.858,9.933,8.936,21.251,11.181,32.562a149.253,149.253,0,0,0,6.8-54.337,13.956,13.956,0,0,1-1.646-.993C339.8,92.543,339.8,81.875,339.8,81.875H313.373s-.243,11.153-6.062,16.244c-.118.1-.248.2-.377.3C315.593,102.571,322.675,109.888,327.589,118.219Z" transform="translate(-283.551 -81.875)" fill="#e5c3d1"/>
        <g id="Grupo_13022" data-name="Grupo 13022" transform="translate(0.097 14.57)">
          <path id="Trazado_29848" data-name="Trazado 29848" d="M322.485,195.388c7.233.245,14.534.118,21.611-1.392a47.741,47.741,0,0,0,10-3.278l4.825-31.581s8.728-11.638,8-17.214-23.033-36.61-23.033-36.61a22.144,22.144,0,0,1-4.1-.682,125.37,125.37,0,0,1-12.545,62.986c-1.7-12.611-4.276-25.286-9.948-36.679-5.006-10.056-12.679-19.1-22.531-24.346-6.727,3.2-18.649,3.937-20.644,4.04a24.612,24.612,0,0,1,10.067,9.722,34.456,34.456,0,0,1,4.29,14.948,27.547,27.547,0,0,1-.764,9.281c-1.434,5.112-4.868,9.483-8.94,12.89A47.71,47.71,0,0,1,273.915,161l14.23,24.977a42.5,42.5,0,0,0,15.155,7.058A88.646,88.646,0,0,0,322.485,195.388Z" transform="translate(-273.915 -103.153)" fill="#ef798a"/>
          <path id="Trazado_29849" data-name="Trazado 29849" d="M326,130.319c5.672,11.392,8.244,24.068,9.948,36.679A125.372,125.372,0,0,0,348.5,104.012a19.069,19.069,0,0,1-3.949-1.477,149.254,149.254,0,0,1-6.8,54.337c-2.245-11.311-5.323-22.629-11.181-32.562-4.913-8.332-12-15.649-20.654-19.8a13.188,13.188,0,0,1-2.442,1.463C313.323,111.223,321,120.263,326,130.319Z" transform="translate(-282.627 -102.535)" fill="#eb3059"/>
          <path id="Trazado_29850" data-name="Trazado 29850" d="M350.044,228c-7.078,1.51-14.378,1.638-21.611,1.392a88.642,88.642,0,0,1-19.185-2.349,42.5,42.5,0,0,1-15.155-7.058l4.186,7.346c7.791,5.222,17.4,7.635,26.834,8.521a68.888,68.888,0,0,0,23.271-1.366,46.847,46.847,0,0,0,10.8-4.167l.855-5.6A47.741,47.741,0,0,1,350.044,228Z" transform="translate(-279.862 -137.154)" fill="#eb3059"/>
          <path id="Trazado_29851" data-name="Trazado 29851" d="M326.861,238.919c-9.432-.887-19.043-3.3-26.834-8.521l1.494,2.621,33.819,16.173,25.514-15.263.083-.543a46.848,46.848,0,0,1-10.8,4.167A68.888,68.888,0,0,1,326.861,238.919Z" transform="translate(-281.612 -140.224)" fill="#ef798a"/>
        </g>
      </g>
      <path id="Trazado_29852" data-name="Trazado 29852" d="M284.407,234.115c1.493.719,15.625,7.455,31.4,6.88a83.585,83.585,0,0,0,27.935-5.97l26.949,101.03s-11.182,6.541-31.228.3a87.3,87.3,0,0,1-33.185-19.687l-9.7-10.4-8.8-1.467s-7.662,4.669-22.255,7.59a168.262,168.262,0,0,1-23.558,3.286Z" transform="translate(-241.966 -126.75)" fill="#ef798a"/>
      <path id="Trazado_29853" data-name="Trazado 29853" d="M380.209,256.414l23.009,88.722-3.8.406Z" transform="translate(-282.714 -133.322)" fill="#ef798a" style="mix-blend-mode: multiply;isolation: isolate"/>
      <path id="Trazado_29854" data-name="Trazado 29854" d="M376.975,344.368l-7.737-83.057L372,342.624Z" transform="translate(-279.481 -134.766)" fill="#ef798a" style="mix-blend-mode: multiply;isolation: isolate"/>
      <path id="Trazado_29855" data-name="Trazado 29855" d="M343.665,263.336l-10.511,61.942,4.747,4.2Z" transform="translate(-268.844 -135.363)" fill="#ef798a" style="mix-blend-mode: multiply;isolation: isolate"/>
      <path id="Trazado_29856" data-name="Trazado 29856" d="M319.528,257.064c-.237,1.393-19.5,56.874-19.5,56.874l4.865-2.37Z" transform="translate(-259.08 -133.514)" fill="#ef798a" style="mix-blend-mode: multiply;isolation: isolate"/>
      <path id="Trazado_29857" data-name="Trazado 29857" d="M300.036,248.677l-33.057,69.112,5.918-1.1Z" transform="translate(-249.339 -131.042)" fill="#ef798a" style="mix-blend-mode: multiply;isolation: isolate"/>
    </g>
    <path id="Trazado_29858" data-name="Trazado 29858" d="M342.491,81.875s-2.746,6.666-12.382,6.6-14.046-6.6-14.046-6.6Z" transform="translate(710.788 4027.792)" fill="#d2aad1"/>
    <circle id="Elipse_26" data-name="Elipse 26" cx="121.669" cy="121.669" r="121.669" transform="translate(885.43 4142.607)" fill="none"/>
  </g>
</svg>
