<svg xmlns="http://www.w3.org/2000/svg" xmlns:xlink="http://www.w3.org/1999/xlink" width="1030" height="3092.687" viewBox="0 0 1030 3092.687">
  <defs>
    <linearGradient id="linear-gradient" x1="0.5" x2="0.5" y2="1" gradientUnits="objectBoundingBox">
      <stop offset="0" stop-color="#fff"/>
      <stop offset="0.586" stop-color="#f7f4ff" stop-opacity="0.878"/>
      <stop offset="0.858" stop-color="#e9dfff" stop-opacity="0.565"/>
      <stop offset="1" stop-color="#d1bcff" stop-opacity="0.051"/>
    </linearGradient>
  </defs>
  <g id="Grupo_1078642" data-name="Grupo 1078642" transform="translate(-284.668 -1742)">
    <g id="Grupo_1076356" data-name="Grupo 1076356" transform="translate(19.668 -201.718)">
      <path id="Trazado_774834" data-name="Trazado 774834" d="M0,0H1030V3092.687H0V0Z" transform="translate(1295 5036.405) rotate(180)" fill="url(#linear-gradient)"/>
    </g>
    <g id="Grupo_1076880" data-name="Grupo 1076880" transform="translate(99 -928.985)">
      <text id="Pieles_pelo_de_animales_hojas_huesos_y_conchas." data-name="Pieles, pelo de animales, hojas, huesos y conchas." transform="translate(727.668 2813.539)" fill="#12263f" font-size="16" font-family="Roboto-Regular, Roboto"><tspan x="0" y="15">Pieles, pelo de animales, hojas, huesos y </tspan><tspan x="0" y="39">conchas.</tspan></text>
      <text id="Vestimenta_de_fibras_animales_y_vegetales_pulseras_de_marfil." data-name="Vestimenta de fibras animales y vegetales, pulseras de marfil." transform="translate(729.668 3160.077)" fill="#12263f" font-size="16" font-family="Roboto-Regular, Roboto"><tspan x="0" y="15">Vestimenta de fibras animales y vegetales, </tspan><tspan x="0" y="39">pulseras de marfil.</tspan></text>
      <text id="Traje_de_lujo_faldón_chal_kaunake_traje_militar." data-name="Traje de lujo, faldón, chal, kaunake, traje militar." transform="translate(730.668 3563.878)" fill="#12263f" font-size="16" font-family="Roboto-Regular, Roboto"><tspan x="0" y="15">Traje de lujo, faldón, chal, kaunake, traje militar.</tspan></text>
      <text id="Primer_corsé_falda_sujeta_con_un_cinturón_metal_cubierto_con_un_delantal_mangas_ceñidas_anillos_pulseras_y_collares." data-name="Primer corsé, falda sujeta con un cinturón metal cubierto con un delantal, mangas ceñidas, anillos, pulseras y collares." transform="translate(730.668 3958.039)" fill="#12263f" font-size="16" font-family="Roboto-Regular, Roboto"><tspan x="0" y="15">Primer corsé, falda sujeta con un cinturón metal </tspan><tspan x="0" y="39">cubierto con un delantal, mangas ceñidas, </tspan><tspan x="0" y="63">anillos, pulseras y collares.</tspan></text>
      <text id="Túnica_que_los_hombres_usaban_hasta_las_rodillas_y_las_mujeres_hasta_los_pies_bordados_en_hilos_de_oro." data-name="Túnica que los hombres usaban hasta las rodillas y las mujeres hasta los pies, bordados en hilos de oro." transform="translate(730.668 4423.039)" fill="#12263f" font-size="16" font-family="Roboto-Regular, Roboto"><tspan x="0" y="15">Túnica que los hombres usaban hasta las </tspan><tspan x="0" y="39">rodillas y las mujeres hasta los pies, bordados </tspan><tspan x="0" y="63">en hilos de oro.</tspan></text>
      <text id="Prendas_confeccionadas_por_sastres_faldas_acampanadas_cuellos_de_encaje_crinolina_gorguera_prendas_ajustadas_corsé_desde_el_busto_hasta_la_cadera." data-name="Prendas confeccionadas por sastres, faldas acampanadas, cuellos de encaje, crinolina, gorguera, prendas ajustadas, corsé desde el busto hasta la cadera." transform="translate(730.668 4822.039)" fill="#12263f" font-size="16" font-family="Roboto-Regular, Roboto"><tspan x="0" y="15">Prendas confeccionadas por sastres, faldas </tspan><tspan x="0" y="39">acampanadas, cuellos de encaje, crinolina, </tspan><tspan x="0" y="63">gorguera, prendas ajustadas, corsé desde el </tspan><tspan x="0" y="87">busto hasta la cadera.</tspan></text>
      <text id="Silueta_reloj_de_arena_el_corsé_de_metal_o_de_ballenas_faldas_largas_o_blazers_sujetador_estética_flapper_traje_de_baño_el_uso_del_pantalón." data-name="Silueta reloj de arena, el corsé de metal o de ballenas, faldas largas o blazers, sujetador, estética flapper, traje de baño, el uso del pantalón." transform="translate(730.668 5285.039)" fill="#12263f" font-size="16" font-family="Roboto-Regular, Roboto"><tspan x="0" y="15">Silueta reloj de arena, el corsé de metal o de </tspan><tspan x="0" y="39">ballenas, faldas largas o blazers, sujetador, </tspan><tspan x="0" y="63">estética flapper, traje de baño, el uso del </tspan><tspan x="0" y="87">pantalón.</tspan></text>
      <text id="Broches_hechos_con_hueso_abrigos_gorros_botas_y_zapatillas_de_cuero." data-name="Broches hechos con hueso, abrigos, gorros, botas y zapatillas de cuero." transform="translate(328.668 2978.852)" fill="#12263f" font-size="16" font-family="Roboto-Regular, Roboto"><tspan x="35.354" y="15">Broches hechos con hueso, abrigos, gorros, </tspan><tspan x="150.377" y="39">botas y zapatillas de cuero.</tspan></text>
      <text id="Shenti_con_un_cinturón_de_cuero_falda_larga._Las_sirvientas_iban_desnudas_calzado_de_fibras_vegetales_cuero_trenzado_y_papiro." data-name="Shenti, con un cinturón de cuero, falda larga. Las sirvientas iban desnudas, calzado de fibras vegetales, cuero trenzado y papiro." transform="translate(328.668 3341.151)" fill="#12263f" font-size="16" font-family="Roboto-Regular, Roboto"><tspan x="0.245" y="15">Shenti, con un cinturón de cuero, falda larga. Las </tspan><tspan x="39.331" y="39">sirvientas iban desnudas, calzado de fibras </tspan><tspan x="97.542" y="63">vegetales, cuero trenzado y papiro.</tspan></text>
      <text id="Tejedores_de_lana_y_de_lino_túnica_de_talle_recto_y_bordes_con_flecos_larga_o_corta_borlas_y_flecos." data-name="Tejedores de lana y de lino, túnica de talle recto y bordes con flecos, larga o corta, borlas y flecos." transform="translate(344.668 3755.539)" fill="#12263f" font-size="16" font-family="Roboto-Regular, Roboto"><tspan x="34.57" y="15">Tejedores de lana y de lino, túnica de talle </tspan><tspan x="2.148" y="39">recto y bordes con flecos, larga o corta, borlas </tspan><tspan x="269.945" y="63">y flecos.</tspan></text>
      <text id="La_prenda_típica_era_una_túnica_ropa_interior_y_el_bordado_de_aplicación_calzado_anatómico_atados_a_los_tobillos_con_correas_y_botones." data-name="La prenda típica era una túnica, ropa interior y el bordado de aplicación, calzado anatómico, atados a los tobillos con correas y botones." transform="translate(330.668 4187.539)" fill="#12263f" font-size="16" font-family="Roboto-Regular, Roboto"><tspan x="3.797" y="15">La prenda típica era una túnica, ropa interior y el </tspan><tspan x="39.82" y="39">bordado de aplicación, calzado anatómico, </tspan><tspan x="34.516" y="63">atados a los tobillos con correas y botones.</tspan></text>
      <text id="Zapatos_a_la_polonesa_doble_túnica_hasta_los_pies_manto_con_broche_en_el_centro_y_un_velo_cubriendo_la_cabeza." data-name="Zapatos a la polonesa, doble túnica hasta los pies, manto con broche en el centro, y un velo cubriendo la cabeza." transform="translate(335.168 4637.539)" fill="#12263f" font-size="16" font-family="Roboto-Regular, Roboto"><tspan x="22.797" y="15">Zapatos a la polonesa, doble túnica hasta los </tspan><tspan x="21.078" y="39">pies, manto con broche en el centro, y un velo </tspan><tspan x="196.195" y="63">cubriendo la cabeza.</tspan></text>
      <text id="Silueta_imperio_vestidos_delgados_y_vaporosos_vuelos_y_encajes_en_forma_de_cascada_vestido_línea_princesa_hombreras._cuello_solapa." data-name="Silueta imperio, vestidos delgados y vaporosos, vuelos y encajes en forma de cascada, vestido línea princesa, hombreras. cuello solapa." transform="translate(328.668 5055.426)" fill="#12263f" font-size="16" font-family="Roboto-Regular, Roboto"><tspan x="7.289" y="15">Silueta imperio, vestidos delgados y vaporosos, </tspan><tspan x="13.938" y="39">vuelos y encajes en forma de cascada, vestido </tspan><tspan x="53.906" y="63">línea princesa, hombreras. cuello solapa.</tspan></text>
      <text id="Jeans_de_tiro_bajo_minifaldas_shorts_zuecos_o_sandalias_estampados_animal_print_Fast_fashion_pantalón_pitillo_escote_en_V_supraciclaje_pantalón_tiro_alto_blusas_campesinas." data-name="Jeans de tiro bajo, minifaldas, shorts, zuecos o sandalias, estampados animal print, Fast fashion, pantalón pitillo, escote en V, supraciclaje, pantalón tiro alto, blusas campesinas." transform="translate(328.668 5516.039)" fill="#12263f" font-size="16" font-family="Roboto-Regular, Roboto"><tspan x="10.844" y="15">Jeans de tiro bajo, minifaldas, shorts, zuecos o </tspan><tspan x="52.781" y="39">sandalias, estampados animal print, Fast </tspan><tspan x="85.828" y="63">fashion, pantalón pitillo, escote en V, </tspan><tspan x="76.078" y="87">supraciclaje, pantalón tiro alto, blusas </tspan><tspan x="252.32" y="111">campesinas.</tspan></text>
      <text id="Período_Paleolítico_" data-name="Período Paleolítico " transform="translate(727.668 2798.539)" fill="#12263f" font-size="18" font-family="Roboto-Black, Roboto" font-weight="800"><tspan x="0" y="0">Período Paleolítico </tspan></text>
      <text id="Periodo_Neolítico_" data-name="Periodo Neolítico " transform="translate(729.668 3145.077)" fill="#12263f" font-size="18" font-family="Roboto-Black, Roboto" font-weight="800"><tspan x="0" y="0">Periodo Neolítico </tspan></text>
      <text id="Sumerios" transform="translate(730.668 3548.878)" fill="#12263f" font-size="18" font-family="Roboto-Black, Roboto" font-weight="800"><tspan x="0" y="0">Sumerios</tspan></text>
      <text id="Creta" transform="translate(730.668 3943.039)" fill="#12263f" font-size="18" font-family="Roboto-Black, Roboto" font-weight="800"><tspan x="0" y="0">Creta</tspan></text>
      <text id="Romanos" transform="translate(730.668 4406.039)" fill="#12263f" font-size="18" font-family="Roboto-Black, Roboto" font-weight="800"><tspan x="0" y="0">Romanos</tspan></text>
      <text id="Edad_Moderna_" data-name="Edad Moderna " transform="translate(730.668 4805.039)" fill="#12263f" font-size="18" font-family="Roboto-Black, Roboto" font-weight="800"><tspan x="0" y="0">Edad Moderna </tspan></text>
      <text id="Edad_Contemporánea_" data-name="Edad Contemporánea " transform="translate(730.668 5268.039)" fill="#12263f" font-size="18" font-family="Roboto-Black, Roboto" font-weight="800"><tspan x="0" y="0">Edad Contemporánea </tspan></text>
      <text id="Periodo_Mesolítico" data-name="Periodo Mesolítico" transform="translate(672.646 2963.852)" fill="#12263f" font-size="18" font-family="Roboto-Black, Roboto" font-weight="800"><tspan x="-153.563" y="0">Periodo Mesolítico</tspan></text>
      <text id="Egipcios" transform="translate(672.646 3326.151)" fill="#12263f" font-size="18" font-family="Roboto-Black, Roboto" font-weight="800"><tspan x="-68.968" y="0">Egipcios</tspan></text>
      <text id="Babilonia" transform="translate(673.582 3744.539)" fill="#12263f" font-size="18" font-family="Roboto-Black, Roboto" font-weight="800"><tspan x="-75.955" y="0">Babilonia</tspan></text>
      <text id="Persas" transform="translate(673.668 4172.539)" fill="#12263f" font-size="18" font-family="Roboto-Black, Roboto" font-weight="800"><tspan x="-56.215" y="0">Persas</tspan></text>
      <text id="Edad_Media_" data-name="Edad Media " transform="translate(678.168 4620.539)" fill="#12263f" font-size="18" font-family="Roboto-Black, Roboto" font-weight="800"><tspan x="-98.877" y="0">Edad Media </tspan></text>
      <text id="Edad_Contemporánea" data-name="Edad Contemporánea" transform="translate(671.668 5038.426)" fill="#12263f" font-size="18" font-family="Roboto-Black, Roboto" font-weight="800"><tspan x="-173.602" y="0">Edad Contemporánea</tspan></text>
      <text id="Edad_Contemporánea-2" data-name="Edad Contemporánea" transform="translate(671.668 5499.039)" fill="#12263f" font-size="18" font-family="Roboto-Black, Roboto" font-weight="800"><tspan x="-173.602" y="0">Edad Contemporánea</tspan></text>
      <g id="Grupo_11672" data-name="Grupo 11672" transform="translate(961.314 3437.479) rotate(90)">
        <g id="Grupo_11663" data-name="Grupo 11663" transform="translate(75.447 257.33)">
          <path id="Trazado_29397" data-name="Trazado 29397" d="M989.021,256.8v4.224a1.385,1.385,0,0,1-1.5,1.248H76.93a1.379,1.379,0,0,1-1.483-1.248V256.8a1.379,1.379,0,0,1,1.483-1.248H987.523A1.385,1.385,0,0,1,989.021,256.8Z" transform="translate(-75.447 -255.55)" fill="#dadddf"/>
        </g>
      </g>
      <g id="Grupo_13000" data-name="Grupo 13000" transform="translate(961.314 4336.979) rotate(90)">
        <g id="Grupo_11663-2" data-name="Grupo 11663" transform="translate(75.447 257.33)">
          <path id="Trazado_29397-2" data-name="Trazado 29397" d="M1348.772,256.8v4.224c0,.694-.928,1.248-2.088,1.248H77.514c-1.139,0-2.067-.555-2.067-1.248V256.8c0-.694.928-1.248,2.067-1.248h1269.17C1347.844,255.55,1348.772,256.1,1348.772,256.8Z" transform="translate(-75.447 -255.55)" fill="#dadddf"/>
        </g>
        <g id="Grupo_11665" data-name="Grupo 11665" transform="translate(122.941 248.732)">
          <g id="Grupo_11664" data-name="Grupo 11664">
            <path id="Trazado_29399" data-name="Trazado 29399" d="M240.774,260.689a11.957,11.957,0,1,1,11.956,11.957A11.957,11.957,0,0,1,240.774,260.689Z" transform="translate(-101.785 -248.732)" fill="#b492f1"/>
            <path id="Trazado_29400" data-name="Trazado 29400" d="M368.437,260.689a11.957,11.957,0,1,1,11.957,11.957A11.957,11.957,0,0,1,368.437,260.689Z" transform="translate(-44.46 -248.732)" fill="#b492f1"/>
            <path id="Trazado_29401" data-name="Trazado 29401" d="M496.1,260.689a11.957,11.957,0,1,1,11.957,11.957A11.957,11.957,0,0,1,496.1,260.689Z" transform="translate(57.865 -248.732)" fill="#b492f1"/>
            <path id="Trazado_29407" data-name="Trazado 29407" d="M496.1,260.689a11.957,11.957,0,1,1,11.957,11.957A11.957,11.957,0,0,1,496.1,260.689Z" transform="translate(291.863 -248.732)" fill="#b492f1"/>
            <path id="Trazado_29809" data-name="Trazado 29809" d="M496.1,260.689a11.957,11.957,0,1,1,11.957,11.957A11.957,11.957,0,0,1,496.1,260.689Z" transform="translate(519.863 -248.732)" fill="#b492f1"/>
          </g>
          <path id="Trazado_29403" data-name="Trazado 29403" d="M385.035,259.434a5.9,5.9,0,1,1-5.9-5.9A5.9,5.9,0,0,1,385.035,259.434Z" transform="translate(-43.205 -247.477)" fill="#673ab7"/>
          <path id="Trazado_29404" data-name="Trazado 29404" d="M512.7,259.434a5.9,5.9,0,1,1-5.9-5.9A5.9,5.9,0,0,1,512.7,259.434Z" transform="translate(59.12 -247.477)" fill="#673ab7"/>
          <path id="Trazado_29408" data-name="Trazado 29408" d="M512.7,259.434a5.9,5.9,0,1,1-5.9-5.9A5.9,5.9,0,0,1,512.7,259.434Z" transform="translate(293.118 -247.477)" fill="#673ab7"/>
          <path id="Trazado_29810" data-name="Trazado 29810" d="M512.7,259.434a5.9,5.9,0,1,1-5.9-5.9A5.9,5.9,0,0,1,512.7,259.434Z" transform="translate(521.118 -247.477)" fill="#673ab7"/>
          <path id="Trazado_29811" data-name="Trazado 29811" d="M512.7,259.434a5.9,5.9,0,1,1-5.9-5.9A5.9,5.9,0,0,1,512.7,259.434Z" transform="translate(720.118 -247.477)" fill="#673ab7"/>
          <circle id="Elipse_6" data-name="Elipse 6" cx="5.895" cy="5.895" r="5.895" transform="translate(145.05 6.062)" fill="#673ab7"/>
        </g>
      </g>
      <g id="Grupo_11666" data-name="Grupo 11666" transform="translate(961.313 2659.092) rotate(90)">
        <g id="Grupo_11663-3" data-name="Grupo 11663" transform="translate(75.447 257.33)">
          <path id="Trazado_29397-3" data-name="Trazado 29397" d="M855.973,256.8v4.224a1.259,1.259,0,0,1-1.28,1.248H76.714a1.256,1.256,0,0,1-1.267-1.248V256.8a1.256,1.256,0,0,1,1.267-1.248H854.693A1.259,1.259,0,0,1,855.973,256.8Z" transform="translate(-75.447 -255.55)" fill="#dadddf"/>
          <g id="Grupo_11662" data-name="Grupo 11662" transform="translate(105.776)">
            <g id="Grupo_11650" data-name="Grupo 11650">
              <rect id="Rectángulo_2813" data-name="Rectángulo 2813" width="1.261" height="6.721" fill="#dadddf"/>
            </g>
            <g id="Grupo_11651" data-name="Grupo 11651" transform="translate(31.022)">
              <rect id="Rectángulo_2814" data-name="Rectángulo 2814" width="1.261" height="6.721" fill="#dadddf"/>
            </g>
            <g id="Grupo_11652" data-name="Grupo 11652" transform="translate(62.043)">
              <rect id="Rectángulo_2815" data-name="Rectángulo 2815" width="1.261" height="6.721" fill="#dadddf"/>
            </g>
            <g id="Grupo_11653" data-name="Grupo 11653" transform="translate(172.905)">
              <rect id="Rectángulo_2816" data-name="Rectángulo 2816" width="1.261" height="6.721" fill="#dadddf"/>
            </g>
            <g id="Grupo_11654" data-name="Grupo 11654" transform="translate(205.014)">
              <rect id="Rectángulo_2817" data-name="Rectángulo 2817" width="1.261" height="6.721" fill="#dadddf"/>
            </g>
            <g id="Grupo_11655" data-name="Grupo 11655" transform="translate(237.123)">
              <rect id="Rectángulo_2818" data-name="Rectángulo 2818" width="1.261" height="6.721" fill="#dadddf"/>
            </g>
            <g id="Grupo_11656" data-name="Grupo 11656" transform="translate(337.847)">
              <rect id="Rectángulo_2819" data-name="Rectángulo 2819" width="1.261" height="6.721" fill="#dadddf"/>
            </g>
            <g id="Grupo_11657" data-name="Grupo 11657" transform="translate(369.956)">
              <rect id="Rectángulo_2820" data-name="Rectángulo 2820" width="1.261" height="6.721" fill="#dadddf"/>
            </g>
            <g id="Grupo_11658" data-name="Grupo 11658" transform="translate(402.065)">
              <rect id="Rectángulo_2821" data-name="Rectángulo 2821" width="1.261" height="6.721" fill="#dadddf"/>
            </g>
            <g id="Grupo_11659" data-name="Grupo 11659" transform="translate(504.939)">
              <rect id="Rectángulo_2822" data-name="Rectángulo 2822" width="1.261" height="6.721" fill="#dadddf"/>
            </g>
            <g id="Grupo_11660" data-name="Grupo 11660" transform="translate(535.961)">
              <rect id="Rectángulo_2823" data-name="Rectángulo 2823" width="1.261" height="6.721" fill="#dadddf"/>
            </g>
            <g id="Grupo_11661" data-name="Grupo 11661" transform="translate(566.995)">
              <rect id="Rectángulo_2824" data-name="Rectángulo 2824" width="1.261" height="6.721" fill="#dadddf"/>
            </g>
          </g>
        </g>
        <g id="Grupo_11665-2" data-name="Grupo 11665" transform="translate(122.941 248.732)">
          <circle id="Elipse_6-2" data-name="Elipse 6" cx="5.895" cy="5.895" r="5.895" transform="translate(167.05 6.062)" fill="#e8e8e8"/>
          <path id="Trazado_838956" data-name="Trazado 838956" d="M5.9,0A5.9,5.9,0,1,1,0,5.9,5.9,5.9,0,0,1,5.9,0Z" transform="translate(6.074 6.062)" fill="#e8e8e8"/>
          <g id="Grupo_1077195" data-name="Grupo 1077195" transform="translate(803.502)">
            <path id="Trazado_29400-2" data-name="Trazado 29400" d="M368.437,260.689a11.957,11.957,0,1,1,11.957,11.957A11.957,11.957,0,0,1,368.437,260.689Z" transform="translate(-26.46 -248.732)" fill="#673ab7"/>
            <path id="Trazado_29403-2" data-name="Trazado 29403" d="M385.035,259.434a5.9,5.9,0,1,1-5.9-5.9A5.9,5.9,0,0,1,385.035,259.434Z" transform="translate(-25.205 -247.478)" fill="#e8e8e8"/>
          </g>
        </g>
      </g>
      <g id="Grupo_1077196" data-name="Grupo 1077196" transform="translate(961.313 2882.092) rotate(90)">
        <g id="Grupo_11663-4" data-name="Grupo 11663" transform="translate(75.447 257.33)">
          <path id="Trazado_29397-4" data-name="Trazado 29397" d="M855.973,256.8v4.224a1.259,1.259,0,0,1-1.28,1.248H76.714a1.256,1.256,0,0,1-1.267-1.248V256.8a1.256,1.256,0,0,1,1.267-1.248H854.693A1.259,1.259,0,0,1,855.973,256.8Z" transform="translate(-75.447 -255.55)" fill="#dadddf"/>
          <g id="Grupo_11662-2" data-name="Grupo 11662" transform="translate(105.776)">
            <g id="Grupo_11650-2" data-name="Grupo 11650">
              <rect id="Rectángulo_2813-2" data-name="Rectángulo 2813" width="1.261" height="6.721" fill="#dadddf"/>
            </g>
            <g id="Grupo_11651-2" data-name="Grupo 11651" transform="translate(31.022)">
              <rect id="Rectángulo_2814-2" data-name="Rectángulo 2814" width="1.261" height="6.721" fill="#dadddf"/>
            </g>
            <g id="Grupo_11652-2" data-name="Grupo 11652" transform="translate(62.043)">
              <rect id="Rectángulo_2815-2" data-name="Rectángulo 2815" width="1.261" height="6.721" fill="#dadddf"/>
            </g>
            <g id="Grupo_11653-2" data-name="Grupo 11653" transform="translate(172.905)">
              <rect id="Rectángulo_2816-2" data-name="Rectángulo 2816" width="1.261" height="6.721" fill="#dadddf"/>
            </g>
            <g id="Grupo_11654-2" data-name="Grupo 11654" transform="translate(205.014)">
              <rect id="Rectángulo_2817-2" data-name="Rectángulo 2817" width="1.261" height="6.721" fill="#dadddf"/>
            </g>
            <g id="Grupo_11655-2" data-name="Grupo 11655" transform="translate(237.123)">
              <rect id="Rectángulo_2818-2" data-name="Rectángulo 2818" width="1.261" height="6.721" fill="#dadddf"/>
            </g>
            <g id="Grupo_11656-2" data-name="Grupo 11656" transform="translate(337.847)">
              <rect id="Rectángulo_2819-2" data-name="Rectángulo 2819" width="1.261" height="6.721" fill="#dadddf"/>
            </g>
            <g id="Grupo_11657-2" data-name="Grupo 11657" transform="translate(369.956)">
              <rect id="Rectángulo_2820-2" data-name="Rectángulo 2820" width="1.261" height="6.721" fill="#dadddf"/>
            </g>
            <g id="Grupo_11658-2" data-name="Grupo 11658" transform="translate(402.065)">
              <rect id="Rectángulo_2821-2" data-name="Rectángulo 2821" width="1.261" height="6.721" fill="#dadddf"/>
            </g>
            <g id="Grupo_11659-2" data-name="Grupo 11659" transform="translate(504.939)">
              <rect id="Rectángulo_2822-2" data-name="Rectángulo 2822" width="1.261" height="6.721" fill="#dadddf"/>
            </g>
            <g id="Grupo_11660-2" data-name="Grupo 11660" transform="translate(535.961)">
              <rect id="Rectángulo_2823-2" data-name="Rectángulo 2823" width="1.261" height="6.721" fill="#dadddf"/>
            </g>
            <g id="Grupo_11661-2" data-name="Grupo 11661" transform="translate(566.995)">
              <rect id="Rectángulo_2824-2" data-name="Rectángulo 2824" width="1.261" height="6.721" fill="#dadddf"/>
            </g>
          </g>
        </g>
      </g>
      <g id="Grupo_11667" data-name="Grupo 11667" transform="translate(413.539 2924.325) rotate(-90)">
        <path id="Trazado_29405" data-name="Trazado 29405" d="M130.243,258.892l15.4-15.4a65.307,65.307,0,1,0-30.807,0Z" transform="translate(0.775 0.216)" fill="#d1bcff"/>
      </g>
      <g id="Grupo_11669" data-name="Grupo 11669" transform="translate(413.539 3268.176) rotate(-90)">
        <path id="Trazado_29405-2" data-name="Trazado 29405" d="M130.243,258.892l15.4-15.4a65.307,65.307,0,1,0-30.807,0Z" transform="translate(0.775 0.216)" fill="#d1bcff"/>
      </g>
      <g id="Grupo_11671" data-name="Grupo 11671" transform="translate(413.539 3670.477) rotate(-90)">
        <path id="Trazado_29405-3" data-name="Trazado 29405" d="M130.243,258.892l15.4-15.4a65.307,65.307,0,1,0-30.807,0Z" transform="translate(0.775 0.216)" fill="#d1bcff"/>
      </g>
      <g id="Grupo_11674" data-name="Grupo 11674" transform="translate(413.539 4072.638) rotate(-90)">
        <path id="Trazado_29405-4" data-name="Trazado 29405" d="M130.243,258.892l15.4-15.4a65.307,65.307,0,1,0-30.807,0Z" transform="translate(0.775 0.216)" fill="#d1bcff"/>
      </g>
      <g id="Grupo_11676" data-name="Grupo 11676" transform="translate(413.539 4933.638) rotate(-90)">
        <path id="Trazado_29405-5" data-name="Trazado 29405" d="M130.243,258.892l15.4-15.4a65.307,65.307,0,1,0-30.807,0Z" transform="translate(0.775 0.216)" fill="#d1bcff"/>
      </g>
      <g id="Grupo_13005" data-name="Grupo 13005" transform="translate(413.539 4530.638) rotate(-90)">
        <path id="Trazado_29405-6" data-name="Trazado 29405" d="M130.243,258.892l15.4-15.4a65.307,65.307,0,1,0-30.807,0Z" transform="translate(0.775 0.216)" fill="#d1bcff"/>
      </g>
      <g id="Grupo_13003" data-name="Grupo 13003" transform="translate(413.539 5393.138) rotate(-90)">
        <path id="Trazado_29405-7" data-name="Trazado 29405" d="M130.243,258.892l15.4-15.4a65.307,65.307,0,1,0-30.807,0Z" transform="translate(0.775 0.216)" fill="#d1bcff"/>
      </g>
      <g id="Grupo_11668" data-name="Grupo 11668" transform="translate(614.518 3085.638) rotate(-90)">
        <path id="Trazado_29405-8" data-name="Trazado 29405" d="M130.243,114.778l15.4,14.988c28.621,6.746,49.9,31.771,49.9,61.694,0,35.095-29.24,63.545-65.307,63.545s-65.307-28.45-65.307-63.545c0-29.923,21.282-54.948,49.9-61.694Z" transform="translate(0.775 -1.628)" fill="#d1bcff"/>
      </g>
      <g id="Grupo_11670" data-name="Grupo 11670" transform="translate(614.518 3443.363) rotate(-90)">
        <path id="Trazado_29405-9" data-name="Trazado 29405" d="M130.243,114.778l15.4,14.988c28.621,6.746,49.9,31.771,49.9,61.694,0,35.095-29.24,63.545-65.307,63.545s-65.307-28.45-65.307-63.545c0-29.923,21.282-54.948,49.9-61.694Z" transform="translate(0.775 -1.628)" fill="#d1bcff"/>
      </g>
      <g id="Grupo_11673" data-name="Grupo 11673" transform="translate(614.518 3867.75) rotate(-90)">
        <path id="Trazado_29405-10" data-name="Trazado 29405" d="M130.243,114.778l15.4,14.988c28.621,6.746,49.9,31.771,49.9,61.694,0,35.095-29.24,63.545-65.307,63.545s-65.307-28.45-65.307-63.545c0-29.923,21.282-54.948,49.9-61.694Z" transform="translate(0.775 -1.628)" fill="#d1bcff"/>
      </g>
      <g id="Grupo_11675" data-name="Grupo 11675" transform="translate(614.518 4292.75) rotate(-90)">
        <path id="Trazado_29405-11" data-name="Trazado 29405" d="M130.243,114.778l15.4,14.988c28.621,6.746,49.9,31.771,49.9,61.694,0,35.095-29.24,63.545-65.307,63.545s-65.307-28.45-65.307-63.545c0-29.923,21.282-54.948,49.9-61.694Z" transform="translate(0.775 -1.628)" fill="#d1bcff"/>
      </g>
      <g id="Grupo_13001" data-name="Grupo 13001" transform="translate(614.518 4742.638) rotate(-90)">
        <path id="Trazado_29405-12" data-name="Trazado 29405" d="M130.243,114.778l15.4,14.988c28.621,6.746,49.9,31.771,49.9,61.694,0,35.095-29.24,63.545-65.307,63.545s-65.307-28.45-65.307-63.545c0-29.923,21.282-54.948,49.9-61.694Z" transform="translate(0.775 -1.628)" fill="#d1bcff"/>
      </g>
      <g id="Grupo_13002" data-name="Grupo 13002" transform="translate(614.518 5155.638) rotate(-90)">
        <path id="Trazado_29405-13" data-name="Trazado 29405" d="M130.243,114.778l15.4,14.988c28.621,6.746,49.9,31.771,49.9,61.694,0,35.095-29.24,63.545-65.307,63.545s-65.307-28.45-65.307-63.545c0-29.923,21.282-54.948,49.9-61.694Z" transform="translate(0.775 -1.628)" fill="#d1bcff"/>
      </g>
      <g id="Grupo_13004" data-name="Grupo 13004" transform="translate(614.518 5621.638) rotate(-90)">
        <path id="Trazado_29405-14" data-name="Trazado 29405" d="M130.243,114.778l15.4,14.988c28.621,6.746,49.9,31.771,49.9,61.694,0,35.095-29.24,63.545-65.307,63.545s-65.307-28.45-65.307-63.545c0-29.923,21.282-54.948,49.9-61.694Z" transform="translate(0.775 -1.628)" fill="#d1bcff"/>
      </g>
      <text id="_100.000_-_10.000_A.C." data-name="100.000 -
10.000 A.C." transform="translate(594.668 2787.539)" fill="#12263f" font-size="18" font-family="Roboto-Black, Roboto" font-weight="800"><tspan x="-40.28" y="0">100.000 -</tspan><tspan x="-48.498" y="25">10.000 A.C.</tspan></text>
      <text id="_10.000_-_5.000_A.C." data-name="10.000 -
5.000 A.C." transform="translate(805.668 2949.426)" fill="#12263f" font-size="18" font-family="Roboto-Black, Roboto" font-weight="800"><tspan x="-35.068" y="0">10.000 -</tspan><tspan x="-43.286" y="25">5.000 A.C.</tspan></text>
      <text id="_10.000_-_5.000_A.C.-2" data-name="10.000 -
5.000 A.C." transform="translate(594.668 3130.964)" fill="#12263f" font-size="18" font-family="Roboto-Black, Roboto" font-weight="800"><tspan x="-35.068" y="0">10.000 -</tspan><tspan x="-43.286" y="25">5.000 A.C.</tspan></text>
      <text id="_4.000_A.C." data-name="4.000 A.C." transform="translate(765.168 3318.151)" fill="#12263f" font-size="18" font-family="Roboto-Black, Roboto" font-weight="800"><tspan x="0" y="0">4.000 A.C.</tspan></text>
      <text id="_2500_A.C." data-name="2500 A.C." transform="translate(555.168 3546.265)" fill="#12263f" font-size="18" font-family="Roboto-Black, Roboto" font-weight="800"><tspan x="0" y="0">2500 A.C.</tspan></text>
      <text id="_2105_A.C." data-name="2105 A.C." transform="translate(764.668 3738.539)" fill="#12263f" font-size="18" font-family="Roboto-Black, Roboto" font-weight="800"><tspan x="0" y="0">2105 A.C.</tspan></text>
      <text id="_1700_A.C." data-name="1700 A.C." transform="translate(553.082 3946.426)" fill="#12263f" font-size="18" font-family="Roboto-Black, Roboto" font-weight="800"><tspan x="0" y="0">1700 A.C.</tspan></text>
      <text id="Siglo_VI_A.C." data-name="Siglo VI A.C." transform="translate(856.168 4168.038)" fill="#12263f" font-size="18" font-family="Roboto-Black, Roboto" font-weight="800"><tspan x="-102.867" y="0">Siglo VI A.C.</tspan></text>
      <text id="Siglo_I_A.C." data-name="Siglo I A.C." transform="translate(549.082 4405.426)" fill="#12263f" font-size="18" font-family="Roboto-Black, Roboto" font-weight="800"><tspan x="0" y="0">Siglo I A.C.</tspan></text>
      <text id="Siglos_V_-_XV" data-name="Siglos V - XV" transform="translate(857.168 4619.426)" fill="#12263f" font-size="18" font-family="Roboto-Black, Roboto" font-weight="800"><tspan x="-107.78" y="0">Siglos V - XV</tspan></text>
      <text id="Siglos_XV_-_XVIII" data-name="Siglos XV -
XVIII" transform="translate(594.668 4798.039)" fill="#12263f" font-size="18" font-family="Roboto-Black, Roboto" font-weight="800"><tspan x="-45.703" y="0">Siglos XV -</tspan><tspan x="-19.898" y="25">XVIII</tspan></text>
      <text id="Siglos_XIX" data-name="Siglos XIX" transform="translate(845.179 5032.426)" fill="#12263f" font-size="18" font-family="Roboto-Black, Roboto" font-weight="800"><tspan x="-83.883" y="0">Siglos XIX</tspan></text>
      <text id="Siglo_XX" data-name="Siglo XX" transform="translate(556.668 5268.039)" fill="#12263f" font-size="18" font-family="Roboto-Black, Roboto" font-weight="800"><tspan x="0" y="0">Siglo XX</tspan></text>
      <text id="Siglo_XXI" data-name="Siglo XXI" transform="translate(840.179 5498.426)" fill="#12263f" font-size="18" font-family="Roboto-Black, Roboto" font-weight="800"><tspan x="-74.514" y="0">Siglo XXI</tspan></text>
      <g id="Grupo_1077197" data-name="Grupo 1077197" transform="translate(712.58 3379.535) rotate(90)">
        <path id="Trazado_29400-3" data-name="Trazado 29400" d="M368.437,260.689a11.957,11.957,0,1,1,11.957,11.957A11.957,11.957,0,0,1,368.437,260.689Z" transform="translate(-26.46 -248.732)" fill="#673ab7"/>
        <path id="Trazado_29403-3" data-name="Trazado 29403" d="M385.035,259.434a5.9,5.9,0,1,1-5.9-5.9A5.9,5.9,0,0,1,385.035,259.434Z" transform="translate(-25.205 -247.479)" fill="#e8e8e8"/>
      </g>
      <g id="Grupo_1077198" data-name="Grupo 1077198" transform="translate(712.58 3813.561) rotate(90)">
        <path id="Trazado_29400-4" data-name="Trazado 29400" d="M368.437,260.689a11.957,11.957,0,1,1,11.957,11.957A11.957,11.957,0,0,1,368.437,260.689Z" transform="translate(-26.46 -248.732)" fill="#673ab7"/>
        <path id="Trazado_29403-4" data-name="Trazado 29403" d="M385.035,259.434a5.9,5.9,0,1,1-5.9-5.9A5.9,5.9,0,0,1,385.035,259.434Z" transform="translate(-25.205 -247.479)" fill="#e8e8e8"/>
      </g>
      <g id="Grupo_1077199" data-name="Grupo 1077199" transform="translate(712.58 4047.061) rotate(90)">
        <path id="Trazado_29400-5" data-name="Trazado 29400" d="M368.437,260.689a11.957,11.957,0,1,1,11.957,11.957A11.957,11.957,0,0,1,368.437,260.689Z" transform="translate(-26.46 -248.732)" fill="#673ab7"/>
        <path id="Trazado_29403-5" data-name="Trazado 29403" d="M385.035,259.434a5.9,5.9,0,1,1-5.9-5.9A5.9,5.9,0,0,1,385.035,259.434Z" transform="translate(-25.205 -247.479)" fill="#e8e8e8"/>
      </g>
      <g id="Grupo_1077200" data-name="Grupo 1077200" transform="translate(712.58 4257.686) rotate(90)">
        <path id="Trazado_29400-6" data-name="Trazado 29400" d="M368.437,260.689a11.957,11.957,0,1,1,11.957,11.957A11.957,11.957,0,0,1,368.437,260.689Z" transform="translate(-26.46 -248.732)" fill="#673ab7"/>
        <path id="Trazado_29403-6" data-name="Trazado 29403" d="M385.035,259.434a5.9,5.9,0,1,1-5.9-5.9A5.9,5.9,0,0,1,385.035,259.434Z" transform="translate(-25.205 -247.479)" fill="#e8e8e8"/>
      </g>
      <g id="Grupo_1077201" data-name="Grupo 1077201" transform="translate(712.58 4442.062) rotate(90)">
        <path id="Trazado_29400-7" data-name="Trazado 29400" d="M368.437,260.689a11.957,11.957,0,1,1,11.957,11.957A11.957,11.957,0,0,1,368.437,260.689Z" transform="translate(-26.46 -248.732)" fill="#673ab7"/>
        <path id="Trazado_29403-7" data-name="Trazado 29403" d="M385.035,259.434a5.9,5.9,0,1,1-5.9-5.9A5.9,5.9,0,0,1,385.035,259.434Z" transform="translate(-25.205 -247.479)" fill="#e8e8e8"/>
      </g>
      <g id="Grupo_1077202" data-name="Grupo 1077202" transform="translate(712.58 4672.492) rotate(90)">
        <path id="Trazado_29400-8" data-name="Trazado 29400" d="M368.437,260.689a11.957,11.957,0,1,1,11.957,11.957A11.957,11.957,0,0,1,368.437,260.689Z" transform="translate(-26.46 -248.732)" fill="#673ab7"/>
        <path id="Trazado_29403-8" data-name="Trazado 29403" d="M385.035,259.434a5.9,5.9,0,1,1-5.9-5.9A5.9,5.9,0,0,1,385.035,259.434Z" transform="translate(-25.205 -247.479)" fill="#e8e8e8"/>
      </g>
      <g id="Grupo_1077203" data-name="Grupo 1077203" transform="translate(712.58 4906.062) rotate(90)">
        <path id="Trazado_29400-9" data-name="Trazado 29400" d="M368.437,260.689a11.957,11.957,0,1,1,11.957,11.957A11.957,11.957,0,0,1,368.437,260.689Z" transform="translate(-26.46 -248.732)" fill="#673ab7"/>
        <path id="Trazado_29403-9" data-name="Trazado 29403" d="M385.035,259.434a5.9,5.9,0,1,1-5.9-5.9A5.9,5.9,0,0,1,385.035,259.434Z" transform="translate(-25.205 -247.479)" fill="#e8e8e8"/>
      </g>
      <g id="Grupo_1077204" data-name="Grupo 1077204" transform="translate(712.58 5133.687) rotate(90)">
        <path id="Trazado_29400-10" data-name="Trazado 29400" d="M368.437,260.689a11.957,11.957,0,1,1,11.957,11.957A11.957,11.957,0,0,1,368.437,260.689Z" transform="translate(-26.46 -248.732)" fill="#673ab7"/>
        <path id="Trazado_29403-10" data-name="Trazado 29403" d="M385.035,259.434a5.9,5.9,0,1,1-5.9-5.9A5.9,5.9,0,0,1,385.035,259.434Z" transform="translate(-25.205 -247.479)" fill="#e8e8e8"/>
      </g>
      <g id="Grupo_1077205" data-name="Grupo 1077205" transform="translate(712.58 3185.535) rotate(90)">
        <path id="Trazado_29400-11" data-name="Trazado 29400" d="M368.437,260.689a11.957,11.957,0,1,1,11.957,11.957A11.957,11.957,0,0,1,368.437,260.689Z" transform="translate(-26.46 -248.732)" fill="#673ab7"/>
        <path id="Trazado_29403-11" data-name="Trazado 29403" d="M385.035,259.434a5.9,5.9,0,1,1-5.9-5.9A5.9,5.9,0,0,1,385.035,259.434Z" transform="translate(-25.205 -247.478)" fill="#e8e8e8"/>
      </g>
      <g id="Grupo_1077206" data-name="Grupo 1077206" transform="translate(712.58 2958.033) rotate(90)">
        <path id="Trazado_29400-12" data-name="Trazado 29400" d="M368.437,260.689a11.957,11.957,0,1,1,11.957,11.957A11.957,11.957,0,0,1,368.437,260.689Z" transform="translate(-26.46 -248.732)" fill="#673ab7"/>
        <path id="Trazado_29403-12" data-name="Trazado 29403" d="M385.035,259.434a5.9,5.9,0,1,1-5.9-5.9A5.9,5.9,0,0,1,385.035,259.434Z" transform="translate(-25.205 -247.478)" fill="#e8e8e8"/>
      </g>
      <g id="Grupo_1077207" data-name="Grupo 1077207" transform="translate(712.58 2782.033) rotate(90)">
        <path id="Trazado_29400-13" data-name="Trazado 29400" d="M368.437,260.689a11.957,11.957,0,1,1,11.957,11.957A11.957,11.957,0,0,1,368.437,260.689Z" transform="translate(-26.46 -248.732)" fill="#673ab7"/>
        <path id="Trazado_29403-13" data-name="Trazado 29403" d="M385.035,259.434a5.9,5.9,0,1,1-5.9-5.9A5.9,5.9,0,0,1,385.035,259.434Z" transform="translate(-25.205 -247.478)" fill="#e8e8e8"/>
      </g>
      <g id="Grupo_1077208" data-name="Grupo 1077208" transform="translate(712.58 2600.686) rotate(90)">
        <path id="Trazado_29400-14" data-name="Trazado 29400" d="M368.437,260.689a11.957,11.957,0,1,1,11.957,11.957A11.957,11.957,0,0,1,368.437,260.689Z" transform="translate(-26.46 -248.732)" fill="#673ab7"/>
        <path id="Trazado_29403-14" data-name="Trazado 29403" d="M385.035,259.434a5.9,5.9,0,1,1-5.9-5.9A5.9,5.9,0,0,1,385.035,259.434Z" transform="translate(-25.205 -247.478)" fill="#e8e8e8"/>
      </g>
      <g id="Grupo_1077209" data-name="Grupo 1077209" transform="translate(712.58 2437.686) rotate(90)">
        <path id="Trazado_29400-15" data-name="Trazado 29400" d="M368.437,260.689a11.957,11.957,0,1,1,11.957,11.957A11.957,11.957,0,0,1,368.437,260.689Z" transform="translate(-26.46 -248.732)" fill="#673ab7"/>
        <path id="Trazado_29403-15" data-name="Trazado 29403" d="M385.035,259.434a5.9,5.9,0,1,1-5.9-5.9A5.9,5.9,0,0,1,385.035,259.434Z" transform="translate(-25.205 -247.478)" fill="#e8e8e8"/>
      </g>
    </g>
  </g>
</svg>
