<svg xmlns="http://www.w3.org/2000/svg" width="505" height="304.65" viewBox="0 0 505 304.65">
  <g id="Grupo_1204799" data-name="Grupo 1204799" transform="translate(12336 -8528.44)">
    <path id="Trazado_772351" data-name="Trazado 772351" d="M999.522,4.243H985.144c-.248-2.817-.586-5.605-.574-8.47.043-8.947,1.851-17.9.154-26.832a46.822,46.822,0,0,1,.8-21.323A20.42,20.42,0,0,0,984.979-66c-1.509-3.636-1.607-7.6-1.465-11.506.331-9.009-1.516-17.876-1.653-26.852-.017-1.156.077-2.746-1.559-2.733-1.674.014-1.39,1.624-1.471,2.762-.327,4.626-.25,9.318-1.023,13.865-1.4,8.273.8,16.867-2.207,24.923a21.4,21.4,0,0,0-.51,12.769c1.253,5.4,2.694,10.83,1.57,16.411-2.721,13.517-.007,27.076-.5,40.605H960.883c.567-1.65-.023-3.67,1.515-5,4.52-3.908,4.251-8.912,3.219-14.065-.822-4.106-1.707-8.2-2.621-12.285-1.924-8.586-5.283-17.049-3.708-26.03,1.7-9.673.3-18.971-1.542-28.451a119.962,119.962,0,0,1,.637-50.8c2.854-12.1,1.818-23.779-1.009-35.668-2.064,6.837-4.865,13.769-4.775,20.662a107.75,107.75,0,0,1-3.215,27.932c-.51,2.029-.843,4.218.482,6.085a11.644,11.644,0,0,1,2.245,7.156c-.048,1.818,3.047,4.462-.148,5.231-2.571.619-1.873-3.135-3.018-4.7-.114-.155-.491-.118-.931-.208-1,3.168-.115,5.738,2.208,8.008.9.877,2.638,1.869,1.552,3.24-1.009,1.276-2.419-.281-3.579-.675-3.845-1.308-6.3-3.8-6.663-8.1-.134-1.586-.064-3.334-1.317-4.65v-3.593c2.886-6.889,1.664-13.779,0-20.668v-13.478a14.316,14.316,0,0,0,1.974-9.883c-1.572-10.231,1.419-19.822,3.146-29.623,1.155-6.553,4.677-10.738,11.075-12.67,3.7-1.119,7.351-2.469,10.937-3.926,4.207-1.711,6.834-6.008,5-8.494-1.963-2.659-2.057-6.159-4.628-8.576-1.244-1.169-1.922-3.773-.79-5.427,1.363-1.992,1.2-3.956.988-5.968-.683-6.415,1.693-11.166,7.345-14.277h8.985c3.491,1.767,7.15,3.5,8.067,7.775.978,4.569-.208,9.392,1.68,13.947a4.852,4.852,0,0,1-1.068,4.179c-1.65,1.734-2.171,3.833-3.081,5.854-2.735,6.079-1.3,9.389,5.078,11.558,3.82,1.3,7.587,2.751,11.372,4.15,3.534,1.306,6.737,3.464,7.581,7.118,2.21,9.556,5.991,18.921,4.94,28.989a43.289,43.289,0,0,0,.669,13.37,48.332,48.332,0,0,1,.388,15.629,101.265,101.265,0,0,0-.225,20.09c.722,9.2-.444,14.718-6.968,16.579-1.273.363-2.714,2.353-3.872.588-.836-1.273.917-2.313,1.849-3.206a6.472,6.472,0,0,0,1.67-7.8,17.747,17.747,0,0,0-1.952,4.026,1.573,1.573,0,0,1-2.244.841c-.747-.4-.725-1.21-.487-1.976a13.062,13.062,0,0,0,.627-2.151c.811-6.3,5.091-11.983,2.271-18.991-2.765-6.866-2.551-14.267-2.307-21.683.248-7.537-2.875-14.6-4.378-22.047-.754.347-.968.379-1,.474a9.538,9.538,0,0,0-.535,1.681,90.665,90.665,0,0,0,.472,35.432,120.365,120.365,0,0,1-.078,50.383c-1.57,7.658-3.1,15.241-1.64,23.1,1.451,7.818.447,15.447-1.686,23.058a138.651,138.651,0,0,0-4.761,22.365c-.394,3.62.088,6.851,2.809,9.493A6.588,6.588,0,0,1,999.522,4.243Z" transform="translate(-13230.367 8826.797)" fill="#b0c0d2"/>
    <path id="Trazado_772352" data-name="Trazado 772352" d="M999.522,4.243H985.144c-.248-2.817-.586-5.605-.574-8.47.043-8.947,1.851-17.9.154-26.832a46.822,46.822,0,0,1,.8-21.323A20.42,20.42,0,0,0,984.979-66c-1.509-3.636-1.607-7.6-1.465-11.506.331-9.009-1.516-17.876-1.653-26.852-.017-1.156.077-2.746-1.559-2.733-1.674.014-1.39,1.624-1.471,2.762-.327,4.626-.25,9.318-1.023,13.865-1.4,8.273.8,16.867-2.207,24.923a21.4,21.4,0,0,0-.51,12.769c1.253,5.4,2.694,10.83,1.57,16.411-2.721,13.517-.007,27.076-.5,40.605H960.883c.567-1.65-.023-3.67,1.515-5,4.52-3.908,4.251-8.912,3.219-14.065-.822-4.106-1.707-8.2-2.621-12.285-1.924-8.586-5.283-17.049-3.708-26.03,1.7-9.673.3-18.971-1.542-28.451a119.962,119.962,0,0,1,.637-50.8c2.854-12.1,1.818-23.779-1.009-35.668-2.064,6.837-4.865,13.769-4.775,20.662a107.75,107.75,0,0,1-3.215,27.932c-.51,2.029-.843,4.218.482,6.085a11.644,11.644,0,0,1,2.245,7.156c-.048,1.818,3.047,4.462-.148,5.231-2.571.619-1.873-3.135-3.018-4.7-.114-.155-.491-.118-.931-.208-1,3.168-.115,5.738,2.208,8.008.9.877,2.638,1.869,1.552,3.24-1.009,1.276-2.419-.281-3.579-.675-3.845-1.308-6.3-3.8-6.663-8.1-.134-1.586-.064-3.334-1.317-4.65v-3.593c2.886-6.889,1.664-13.779,0-20.668v-13.478a14.316,14.316,0,0,0,1.974-9.883c-1.572-10.231,1.419-19.822,3.146-29.623,1.155-6.553,4.677-10.738,11.075-12.67,3.7-1.119,7.351-2.469,10.937-3.926,4.207-1.711,6.834-6.008,5-8.494-1.963-2.659-2.057-6.159-4.628-8.576-1.244-1.169-1.922-3.773-.79-5.427,1.363-1.992,1.2-3.956.988-5.968-.683-6.415,1.693-11.166,7.345-14.277h8.985c3.491,1.767,7.15,3.5,8.067,7.775.978,4.569-.208,9.392,1.68,13.947a4.852,4.852,0,0,1-1.068,4.179c-1.65,1.734-2.171,3.833-3.081,5.854-2.735,6.079-1.3,9.389,5.078,11.558,3.82,1.3,7.587,2.751,11.372,4.15,3.534,1.306,6.737,3.464,7.581,7.118,2.21,9.556,5.991,18.921,4.94,28.989a43.289,43.289,0,0,0,.669,13.37,48.332,48.332,0,0,1,.388,15.629,101.265,101.265,0,0,0-.225,20.09c.722,9.2-.444,14.718-6.968,16.579-1.273.363-2.714,2.353-3.872.588-.836-1.273.917-2.313,1.849-3.206a6.472,6.472,0,0,0,1.67-7.8,17.747,17.747,0,0,0-1.952,4.026,1.573,1.573,0,0,1-2.244.841c-.747-.4-.725-1.21-.487-1.976a13.062,13.062,0,0,0,.627-2.151c.811-6.3,5.091-11.983,2.271-18.991-2.765-6.866-2.551-14.267-2.307-21.683.248-7.537-2.875-14.6-4.378-22.047-.754.347-.968.379-1,.474a9.538,9.538,0,0,0-.535,1.681,90.665,90.665,0,0,0,.472,35.432,120.365,120.365,0,0,1-.078,50.383c-1.57,7.658-3.1,15.241-1.64,23.1,1.451,7.818.447,15.447-1.686,23.058a138.651,138.651,0,0,0-4.761,22.365c-.394,3.62.088,6.851,2.809,9.493A6.588,6.588,0,0,1,999.522,4.243Z" transform="translate(-12935.07 8826.797)" fill="#b0c0d2"/>
    <path id="Trazado_772353" data-name="Trazado 772353" d="M0,0V129.928" transform="translate(-11887.568 8706.362) rotate(90)" fill="none" stroke="#f7c99c" stroke-width="2"/>
    <path id="Trazado_1262935" data-name="Trazado 1262935" d="M4.672,11.93a7.053,7.053,0,0,1-2.809-1.363,2.6,2.6,0,0,1-.879-2A2.751,2.751,0,0,1,2.059,6.348a4.269,4.269,0,0,1,2.793-.879,4.66,4.66,0,0,1,2.09.453,3.436,3.436,0,0,1,1.422,1.25,3.2,3.2,0,0,1,.5,1.742H7.359A2.069,2.069,0,0,0,6.7,7.293,2.675,2.675,0,0,0,4.852,6.7a2.736,2.736,0,0,0-1.73.488A1.628,1.628,0,0,0,2.5,8.547a1.465,1.465,0,0,0,.59,1.176A5.79,5.79,0,0,0,5.1,10.6a9.3,9.3,0,0,1,2.219.879A3.367,3.367,0,0,1,8.5,12.6a2.861,2.861,0,0,1,.387,1.508,2.658,2.658,0,0,1-1.078,2.215,4.6,4.6,0,0,1-2.883.832,5.347,5.347,0,0,1-2.187-.449,3.681,3.681,0,0,1-1.566-1.23A3,3,0,0,1,.625,13.7H2.133a1.959,1.959,0,0,0,.762,1.629,3.207,3.207,0,0,0,2.035.6,2.948,2.948,0,0,0,1.82-.484,1.573,1.573,0,0,0,.633-1.32A1.545,1.545,0,0,0,6.8,12.832,6.755,6.755,0,0,0,4.672,11.93ZM15.8,16.164a3.07,3.07,0,0,1-2.477.992,2.628,2.628,0,0,1-2.059-.785,3.4,3.4,0,0,1-.715-2.324v-5.5H12v5.461q0,1.922,1.563,1.922a2.163,2.163,0,0,0,2.2-1.234V8.547h1.445V17H15.836Zm10.742-3.3a5.062,5.062,0,0,1-.883,3.109,2.829,2.829,0,0,1-2.391,1.18,3.1,3.1,0,0,1-2.422-.977v4.07H19.406V8.547h1.32l.07.938A2.977,2.977,0,0,1,23.25,8.391a2.882,2.882,0,0,1,2.41,1.148,5.117,5.117,0,0,1,.887,3.2ZM25.1,12.7a3.735,3.735,0,0,0-.609-2.258,1.963,1.963,0,0,0-1.672-.828,2.125,2.125,0,0,0-1.969,1.164V14.82a2.129,2.129,0,0,0,1.984,1.156,1.954,1.954,0,0,0,1.652-.824A4.077,4.077,0,0,0,25.1,12.7Zm6.789,4.453a3.693,3.693,0,0,1-2.8-1.129,4.19,4.19,0,0,1-1.078-3.02v-.266A5.073,5.073,0,0,1,28.5,10.5,3.748,3.748,0,0,1,29.84,8.949a3.378,3.378,0,0,1,1.871-.559,3.166,3.166,0,0,1,2.563,1.086,4.7,4.7,0,0,1,.914,3.109v.6H29.461a3,3,0,0,0,.73,2.02,2.3,2.3,0,0,0,1.777.77,2.517,2.517,0,0,0,1.3-.312,3.259,3.259,0,0,0,.93-.828l.883.688A3.55,3.55,0,0,1,31.891,17.156Zm-.18-7.578a1.928,1.928,0,0,0-1.469.637A3.1,3.1,0,0,0,29.508,12h4.234v-.109a2.753,2.753,0,0,0-.594-1.707A1.815,1.815,0,0,0,31.711,9.578Zm9.234.266a4.331,4.331,0,0,0-.711-.055A1.9,1.9,0,0,0,38.3,11v6H36.859V8.547h1.406l.023.977A2.251,2.251,0,0,1,40.3,8.391a1.477,1.477,0,0,1,.641.109ZM43.844,17H42.4V8.547h1.445ZM42.281,6.3a.863.863,0,0,1,.215-.594.807.807,0,0,1,.637-.242.819.819,0,0,1,.641.242.854.854,0,0,1,.219.594.826.826,0,0,1-.219.586.834.834,0,0,1-.641.234.821.821,0,0,1-.637-.234A.834.834,0,0,1,42.281,6.3ZM45.773,12.7a4.993,4.993,0,0,1,.488-2.234A3.643,3.643,0,0,1,47.621,8.93a3.7,3.7,0,0,1,1.988-.539,3.565,3.565,0,0,1,2.793,1.2,4.6,4.6,0,0,1,1.066,3.18v.1A5.036,5.036,0,0,1,53,15.082a3.589,3.589,0,0,1-1.352,1.527,3.743,3.743,0,0,1-2.02.547,3.556,3.556,0,0,1-2.785-1.2A4.575,4.575,0,0,1,45.773,12.8Zm1.453.172a3.616,3.616,0,0,0,.652,2.258,2.211,2.211,0,0,0,3.5-.012,3.955,3.955,0,0,0,.648-2.418,3.61,3.61,0,0,0-.66-2.254,2.1,2.1,0,0,0-1.754-.863,2.075,2.075,0,0,0-1.727.852A3.925,3.925,0,0,0,47.227,12.867ZM59.367,9.844a4.331,4.331,0,0,0-.711-.055A1.9,1.9,0,0,0,56.727,11v6H55.281V8.547h1.406l.023.977a2.251,2.251,0,0,1,2.016-1.133,1.477,1.477,0,0,1,.641.109Z" transform="translate(-11920.223 8582.133)" fill="#12263f"/>
    <path id="Trazado_1262936" data-name="Trazado 1262936" d="M2.82,12.547V17H1.32V5.625h4.2a4.215,4.215,0,0,1,2.926.953A3.231,3.231,0,0,1,9.5,9.1a3.189,3.189,0,0,1-1.035,2.551,4.4,4.4,0,0,1-2.965.895Zm0-1.227h2.7a2.7,2.7,0,0,0,1.844-.566A2.069,2.069,0,0,0,8,9.117a2.138,2.138,0,0,0-.641-1.625A2.528,2.528,0,0,0,5.6,6.859H2.82ZM12.758,17H11.313V5h1.445Zm7.531,0a3.036,3.036,0,0,1-.2-.891,3.225,3.225,0,0,1-2.406,1.047,2.984,2.984,0,0,1-2.051-.707,2.287,2.287,0,0,1-.8-1.793,2.39,2.39,0,0,1,1-2.051,4.733,4.733,0,0,1,2.824-.73h1.406v-.664A1.623,1.623,0,0,0,19.609,10a1.821,1.821,0,0,0-1.336-.449,2.107,2.107,0,0,0-1.3.391,1.151,1.151,0,0,0-.523.945H15a2,2,0,0,1,.449-1.223,3.066,3.066,0,0,1,1.219-.934,4.1,4.1,0,0,1,1.691-.344,3.342,3.342,0,0,1,2.289.73,2.635,2.635,0,0,1,.859,2.012v3.891a4.757,4.757,0,0,0,.3,1.852V17Zm-2.4-1.1a2.54,2.54,0,0,0,1.289-.352,2.127,2.127,0,0,0,.883-.914V12.9H18.93q-2.656,0-2.656,1.555a1.316,1.316,0,0,0,.453,1.063A1.742,1.742,0,0,0,17.891,15.9Zm7.25-7.352.047,1.063a3.08,3.08,0,0,1,2.531-1.219q2.68,0,2.7,3.023V17H28.977V11.406a1.946,1.946,0,0,0-.418-1.352,1.675,1.675,0,0,0-1.277-.437,2.086,2.086,0,0,0-1.234.375,2.546,2.546,0,0,0-.828.984V17H23.773V8.547ZM32.219,12.7a4.993,4.993,0,0,1,.488-2.234A3.643,3.643,0,0,1,34.066,8.93a3.7,3.7,0,0,1,1.988-.539,3.565,3.565,0,0,1,2.793,1.2,4.6,4.6,0,0,1,1.066,3.18v.1a5.036,5.036,0,0,1-.473,2.215,3.589,3.589,0,0,1-1.352,1.527,3.743,3.743,0,0,1-2.02.547,3.556,3.556,0,0,1-2.785-1.2A4.575,4.575,0,0,1,32.219,12.8Zm1.453.172a3.616,3.616,0,0,0,.652,2.258,2.211,2.211,0,0,0,3.5-.012,3.955,3.955,0,0,0,.648-2.418,3.61,3.61,0,0,0-.66-2.254,2.1,2.1,0,0,0-1.754-.863,2.075,2.075,0,0,0-1.727.852A3.925,3.925,0,0,0,33.672,12.867ZM53.461,6.859H49.8V17H48.313V6.859H44.664V5.625h8.8Zm4.961,2.984a4.331,4.331,0,0,0-.711-.055A1.9,1.9,0,0,0,55.781,11v6H54.336V8.547h1.406l.023.977a2.251,2.251,0,0,1,2.016-1.133,1.477,1.477,0,0,1,.641.109ZM64.656,17a3.036,3.036,0,0,1-.2-.891,3.225,3.225,0,0,1-2.406,1.047A2.984,2.984,0,0,1,60,16.449a2.287,2.287,0,0,1-.8-1.793,2.39,2.39,0,0,1,1-2.051,4.733,4.733,0,0,1,2.824-.73H64.43v-.664A1.623,1.623,0,0,0,63.977,10a1.821,1.821,0,0,0-1.336-.449,2.107,2.107,0,0,0-1.3.391,1.151,1.151,0,0,0-.523.945H59.367a2,2,0,0,1,.449-1.223,3.066,3.066,0,0,1,1.219-.934,4.1,4.1,0,0,1,1.691-.344,3.342,3.342,0,0,1,2.289.73,2.635,2.635,0,0,1,.859,2.012v3.891a4.757,4.757,0,0,0,.3,1.852V17Zm-2.4-1.1a2.54,2.54,0,0,0,1.289-.352,2.127,2.127,0,0,0,.883-.914V12.9H63.3q-2.656,0-2.656,1.555a1.316,1.316,0,0,0,.453,1.063A1.742,1.742,0,0,0,62.258,15.9Zm7.25-7.352.047,1.063a3.08,3.08,0,0,1,2.531-1.219q2.68,0,2.7,3.023V17H73.344V11.406a1.946,1.946,0,0,0-.418-1.352,1.675,1.675,0,0,0-1.277-.437,2.086,2.086,0,0,0-1.234.375,2.546,2.546,0,0,0-.828.984V17H68.141V8.547Zm12.383,6.211a1.064,1.064,0,0,0-.441-.91,4.249,4.249,0,0,0-1.539-.559,7.277,7.277,0,0,1-1.742-.562,2.479,2.479,0,0,1-.953-.781,1.869,1.869,0,0,1-.309-1.078,2.193,2.193,0,0,1,.879-1.758,3.432,3.432,0,0,1,2.246-.719,3.532,3.532,0,0,1,2.332.742,2.357,2.357,0,0,1,.895,1.9H81.8a1.3,1.3,0,0,0-.5-1.023,1.888,1.888,0,0,0-1.27-.43,1.976,1.976,0,0,0-1.234.344,1.082,1.082,0,0,0-.445.9.877.877,0,0,0,.414.789,5.1,5.1,0,0,0,1.5.508,7.8,7.8,0,0,1,1.754.578,2.558,2.558,0,0,1,1,.809,1.988,1.988,0,0,1,.324,1.152,2.163,2.163,0,0,1-.906,1.816,3.8,3.8,0,0,1-2.352.684,4.257,4.257,0,0,1-1.8-.359,2.922,2.922,0,0,1-1.223-1,2.42,2.42,0,0,1-.441-1.395h1.445a1.5,1.5,0,0,0,.582,1.152,2.258,2.258,0,0,0,1.434.426,2.331,2.331,0,0,0,1.316-.332A1.02,1.02,0,0,0,81.891,14.758Zm6.117.281L90.1,8.547h1.477L88.547,17h-1.1L84.383,8.547h1.477Zm8.469,2.117a3.693,3.693,0,0,1-2.8-1.129,4.19,4.19,0,0,1-1.078-3.02v-.266a5.073,5.073,0,0,1,.48-2.246,3.748,3.748,0,0,1,1.344-1.547A3.378,3.378,0,0,1,96.3,8.391a3.166,3.166,0,0,1,2.563,1.086,4.7,4.7,0,0,1,.914,3.109v.6H94.047a3,3,0,0,0,.73,2.02,2.3,2.3,0,0,0,1.777.77,2.517,2.517,0,0,0,1.3-.312,3.259,3.259,0,0,0,.93-.828l.883.688A3.55,3.55,0,0,1,96.477,17.156ZM96.3,9.578a1.928,1.928,0,0,0-1.469.637A3.1,3.1,0,0,0,94.094,12h4.234v-.109a2.753,2.753,0,0,0-.594-1.707A1.815,1.815,0,0,0,96.3,9.578Zm9.234.266a4.331,4.331,0,0,0-.711-.055A1.9,1.9,0,0,0,102.891,11v6h-1.445V8.547h1.406l.023.977a2.251,2.251,0,0,1,2.016-1.133,1.477,1.477,0,0,1,.641.109Zm6.25,4.914a1.064,1.064,0,0,0-.441-.91,4.249,4.249,0,0,0-1.539-.559,7.277,7.277,0,0,1-1.742-.562,2.479,2.479,0,0,1-.953-.781,1.869,1.869,0,0,1-.309-1.078,2.193,2.193,0,0,1,.879-1.758,3.432,3.432,0,0,1,2.246-.719,3.532,3.532,0,0,1,2.332.742,2.357,2.357,0,0,1,.895,1.9H111.7a1.3,1.3,0,0,0-.5-1.023,1.888,1.888,0,0,0-1.27-.43,1.976,1.976,0,0,0-1.234.344,1.082,1.082,0,0,0-.445.9.877.877,0,0,0,.414.789,5.1,5.1,0,0,0,1.5.508,7.8,7.8,0,0,1,1.754.578,2.558,2.558,0,0,1,1,.809,1.988,1.988,0,0,1,.324,1.152,2.163,2.163,0,0,1-.906,1.816,3.8,3.8,0,0,1-2.352.684,4.257,4.257,0,0,1-1.8-.359,2.922,2.922,0,0,1-1.223-1,2.42,2.42,0,0,1-.441-1.395h1.445a1.5,1.5,0,0,0,.582,1.152,2.258,2.258,0,0,0,1.434.426,2.331,2.331,0,0,0,1.316-.332A1.02,1.02,0,0,0,111.781,14.758ZM120.328,17a3.036,3.036,0,0,1-.2-.891,3.225,3.225,0,0,1-2.406,1.047,2.984,2.984,0,0,1-2.051-.707,2.288,2.288,0,0,1-.8-1.793,2.39,2.39,0,0,1,1-2.051,4.733,4.733,0,0,1,2.824-.73H120.1v-.664A1.623,1.623,0,0,0,119.648,10a1.821,1.821,0,0,0-1.336-.449,2.108,2.108,0,0,0-1.3.391,1.151,1.151,0,0,0-.523.945h-1.453a2,2,0,0,1,.449-1.223,3.066,3.066,0,0,1,1.219-.934,4.1,4.1,0,0,1,1.691-.344,3.342,3.342,0,0,1,2.289.73,2.635,2.635,0,0,1,.859,2.012v3.891a4.757,4.757,0,0,0,.3,1.852V17Zm-2.4-1.1a2.54,2.54,0,0,0,1.289-.352,2.127,2.127,0,0,0,.883-.914V12.9h-1.133q-2.656,0-2.656,1.555a1.316,1.316,0,0,0,.453,1.063A1.742,1.742,0,0,0,117.93,15.9Zm7.453,1.1h-1.445V5h1.445Z" transform="translate(-12017.338 8528.694)" fill="#12263f"/>
    <path id="Trazado_1262937" data-name="Trazado 1262937" d="M2.82,12.547V17H1.32V5.625h4.2a4.215,4.215,0,0,1,2.926.953A3.231,3.231,0,0,1,9.5,9.1a3.189,3.189,0,0,1-1.035,2.551,4.4,4.4,0,0,1-2.965.895Zm0-1.227h2.7a2.7,2.7,0,0,0,1.844-.566A2.069,2.069,0,0,0,8,9.117a2.138,2.138,0,0,0-.641-1.625A2.528,2.528,0,0,0,5.6,6.859H2.82ZM12.758,17H11.313V5h1.445Zm7.531,0a3.036,3.036,0,0,1-.2-.891,3.225,3.225,0,0,1-2.406,1.047,2.984,2.984,0,0,1-2.051-.707,2.287,2.287,0,0,1-.8-1.793,2.39,2.39,0,0,1,1-2.051,4.733,4.733,0,0,1,2.824-.73h1.406v-.664A1.623,1.623,0,0,0,19.609,10a1.821,1.821,0,0,0-1.336-.449,2.107,2.107,0,0,0-1.3.391,1.151,1.151,0,0,0-.523.945H15a2,2,0,0,1,.449-1.223,3.066,3.066,0,0,1,1.219-.934,4.1,4.1,0,0,1,1.691-.344,3.342,3.342,0,0,1,2.289.73,2.635,2.635,0,0,1,.859,2.012v3.891a4.757,4.757,0,0,0,.3,1.852V17Zm-2.4-1.1a2.54,2.54,0,0,0,1.289-.352,2.127,2.127,0,0,0,.883-.914V12.9H18.93q-2.656,0-2.656,1.555a1.316,1.316,0,0,0,.453,1.063A1.742,1.742,0,0,0,17.891,15.9Zm7.25-7.352.047,1.063a3.08,3.08,0,0,1,2.531-1.219q2.68,0,2.7,3.023V17H28.977V11.406a1.946,1.946,0,0,0-.418-1.352,1.675,1.675,0,0,0-1.277-.437,2.086,2.086,0,0,0-1.234.375,2.546,2.546,0,0,0-.828.984V17H23.773V8.547ZM32.219,12.7a4.993,4.993,0,0,1,.488-2.234A3.643,3.643,0,0,1,34.066,8.93a3.7,3.7,0,0,1,1.988-.539,3.565,3.565,0,0,1,2.793,1.2,4.6,4.6,0,0,1,1.066,3.18v.1a5.036,5.036,0,0,1-.473,2.215,3.589,3.589,0,0,1-1.352,1.527,3.743,3.743,0,0,1-2.02.547,3.556,3.556,0,0,1-2.785-1.2A4.575,4.575,0,0,1,32.219,12.8Zm1.453.172a3.616,3.616,0,0,0,.652,2.258,2.211,2.211,0,0,0,3.5-.012,3.955,3.955,0,0,0,.648-2.418,3.61,3.61,0,0,0-.66-2.254,2.1,2.1,0,0,0-1.754-.863,2.075,2.075,0,0,0-1.727.852A3.925,3.925,0,0,0,33.672,12.867Zm18.516-.891H47.414V17h-1.5V5.625h7.047V6.859H47.414V10.75h4.773Zm6.227-2.133a4.331,4.331,0,0,0-.711-.055A1.9,1.9,0,0,0,55.773,11v6H54.328V8.547h1.406l.023.977a2.251,2.251,0,0,1,2.016-1.133,1.477,1.477,0,0,1,.641.109ZM59.2,12.7a4.993,4.993,0,0,1,.488-2.234A3.643,3.643,0,0,1,61.051,8.93a3.7,3.7,0,0,1,1.988-.539,3.565,3.565,0,0,1,2.793,1.2,4.6,4.6,0,0,1,1.066,3.18v.1a5.036,5.036,0,0,1-.473,2.215,3.589,3.589,0,0,1-1.352,1.527,3.743,3.743,0,0,1-2.02.547,3.556,3.556,0,0,1-2.785-1.2A4.575,4.575,0,0,1,59.2,12.8Zm1.453.172a3.616,3.616,0,0,0,.652,2.258,2.211,2.211,0,0,0,3.5-.012,3.955,3.955,0,0,0,.648-2.418,3.61,3.61,0,0,0-.66-2.254,2.1,2.1,0,0,0-1.754-.863,2.075,2.075,0,0,0-1.727.852A3.925,3.925,0,0,0,60.656,12.867Zm9.422-4.32.047,1.063a3.08,3.08,0,0,1,2.531-1.219q2.68,0,2.7,3.023V17H73.914V11.406a1.946,1.946,0,0,0-.418-1.352,1.675,1.675,0,0,0-1.277-.437,2.086,2.086,0,0,0-1.234.375,2.546,2.546,0,0,0-.828.984V17H68.711V8.547ZM79.5,6.5V8.547h1.578V9.664H79.5v5.242a1.171,1.171,0,0,0,.211.762.888.888,0,0,0,.719.254,3.5,3.5,0,0,0,.688-.094V17a4.19,4.19,0,0,1-1.109.156,1.8,1.8,0,0,1-1.461-.586,2.517,2.517,0,0,1-.492-1.664V9.664H76.516V8.547h1.539V6.5ZM87.984,17a3.036,3.036,0,0,1-.2-.891,3.225,3.225,0,0,1-2.406,1.047,2.984,2.984,0,0,1-2.051-.707,2.288,2.288,0,0,1-.8-1.793,2.39,2.39,0,0,1,1-2.051,4.733,4.733,0,0,1,2.824-.73h1.406v-.664A1.623,1.623,0,0,0,87.3,10a1.821,1.821,0,0,0-1.336-.449,2.108,2.108,0,0,0-1.3.391,1.151,1.151,0,0,0-.523.945H82.7a2,2,0,0,1,.449-1.223,3.066,3.066,0,0,1,1.219-.934,4.1,4.1,0,0,1,1.691-.344,3.342,3.342,0,0,1,2.289.73,2.635,2.635,0,0,1,.859,2.012v3.891a4.757,4.757,0,0,0,.3,1.852V17Zm-2.4-1.1a2.54,2.54,0,0,0,1.289-.352,2.127,2.127,0,0,0,.883-.914V12.9H86.625q-2.656,0-2.656,1.555a1.316,1.316,0,0,0,.453,1.063A1.742,1.742,0,0,0,85.586,15.9ZM93.039,17H91.594V5h1.445Z" transform="translate(-12300.598 8528.694)" fill="#12263f"/>
    <path id="Trazado_24927" data-name="Trazado 24927" d="M999.522,4.243H985.144c-.248-2.817-.586-5.605-.574-8.47.043-8.947,1.851-17.9.154-26.832a46.822,46.822,0,0,1,.8-21.323A20.42,20.42,0,0,0,984.979-66c-1.509-3.636-1.607-7.6-1.465-11.506.331-9.009-1.516-17.876-1.653-26.852-.017-1.156.077-2.746-1.559-2.733-1.674.014-1.39,1.624-1.471,2.762-.327,4.626-.25,9.318-1.023,13.865-1.4,8.273.8,16.867-2.207,24.923a21.4,21.4,0,0,0-.51,12.769c1.253,5.4,2.694,10.83,1.57,16.411-2.721,13.517-.007,27.076-.5,40.605H960.883c.567-1.65-.023-3.67,1.515-5,4.52-3.908,4.251-8.912,3.219-14.065-.822-4.106-1.707-8.2-2.621-12.285-1.924-8.586-5.283-17.049-3.708-26.03,1.7-9.673.3-18.971-1.542-28.451a119.962,119.962,0,0,1,.637-50.8c2.854-12.1,1.818-23.779-1.009-35.668-2.064,6.837-4.865,13.769-4.775,20.662a107.75,107.75,0,0,1-3.215,27.932c-.51,2.029-.843,4.218.482,6.085a11.644,11.644,0,0,1,2.245,7.156c-.048,1.818,3.047,4.462-.148,5.231-2.571.619-1.873-3.135-3.018-4.7-.114-.155-.491-.118-.931-.208-1,3.168-.115,5.738,2.208,8.008.9.877,2.638,1.869,1.552,3.24-1.009,1.276-2.419-.281-3.579-.675-3.845-1.308-6.3-3.8-6.663-8.1-.134-1.586-.064-3.334-1.317-4.65v-3.593c2.886-6.889,1.664-13.779,0-20.668v-13.478a14.316,14.316,0,0,0,1.974-9.883c-1.572-10.231,1.419-19.822,3.146-29.623,1.155-6.553,4.677-10.738,11.075-12.67,3.7-1.119,7.351-2.469,10.937-3.926,4.207-1.711,6.834-6.008,5-8.494-1.963-2.659-2.057-6.159-4.628-8.576-1.244-1.169-1.922-3.773-.79-5.427,1.363-1.992,1.2-3.956.988-5.968-.683-6.415,1.693-11.166,7.345-14.277h8.985c3.491,1.767,7.15,3.5,8.067,7.775.978,4.569-.208,9.392,1.68,13.947a4.852,4.852,0,0,1-1.068,4.179c-1.65,1.734-2.171,3.833-3.081,5.854-2.735,6.079-1.3,9.389,5.078,11.558,3.82,1.3,7.587,2.751,11.372,4.15,3.534,1.306,6.737,3.464,7.581,7.118,2.21,9.556,5.991,18.921,4.94,28.989a43.289,43.289,0,0,0,.669,13.37,48.332,48.332,0,0,1,.388,15.629,101.265,101.265,0,0,0-.225,20.09c.722,9.2-.444,14.718-6.968,16.579-1.273.363-2.714,2.353-3.872.588-.836-1.273.917-2.313,1.849-3.206a6.472,6.472,0,0,0,1.67-7.8,17.747,17.747,0,0,0-1.952,4.026,1.573,1.573,0,0,1-2.244.841c-.747-.4-.725-1.21-.487-1.976a13.062,13.062,0,0,0,.627-2.151c.811-6.3,5.091-11.983,2.271-18.991-2.765-6.866-2.551-14.267-2.307-21.683.248-7.537-2.875-14.6-4.378-22.047-.754.347-.968.379-1,.474a9.538,9.538,0,0,0-.535,1.681,90.665,90.665,0,0,0,.472,35.432,120.365,120.365,0,0,1-.078,50.383c-1.57,7.658-3.1,15.241-1.64,23.1,1.451,7.818.447,15.447-1.686,23.058a138.651,138.651,0,0,0-4.761,22.365c-.394,3.62.088,6.851,2.809,9.493A6.588,6.588,0,0,1,999.522,4.243Z" transform="translate(-13091.568 8826.796)" fill="#b0c0d2"/>
    <path id="Trazado_24930" data-name="Trazado 24930" d="M3442.047,11396v270.418" transform="translate(-15553.347 -2833.327)" fill="none" stroke="#f7c99c" stroke-width="2"/>
    <path id="Trazado_1262941" data-name="Trazado 1262941" d="M2.93,17H1.43V5.625h1.5ZM6.8,15.82H11.75V17H5.039V15.938L9.7,9.742H5.109v-1.2h6.406V9.57ZM13.023,12.7a4.961,4.961,0,0,1,.914-3.152,2.962,2.962,0,0,1,2.453-1.16A2.96,2.96,0,0,1,18.758,9.4l.063-.852h1.328v11.7H18.7V16.219a3.033,3.033,0,0,1-2.328.938,2.915,2.915,0,0,1-2.441-1.191,5.072,5.072,0,0,1-.91-3.16Zm1.445.164a3.761,3.761,0,0,0,.613,2.281,1.951,1.951,0,0,0,1.652.828A2.164,2.164,0,0,0,18.7,14.836V10.7A2.171,2.171,0,0,0,16.75,9.578a1.965,1.965,0,0,0-1.664.832A4.094,4.094,0,0,0,14.469,12.867ZM22.5,16.242a.905.905,0,0,1,.223-.625.848.848,0,0,1,.668-.25.874.874,0,0,1,.676.25.887.887,0,0,1,.23.625.839.839,0,0,1-.23.6.89.89,0,0,1-.676.242.8.8,0,0,1-.891-.844Z" transform="translate(-12074.457 8582.132)" fill="#00223d"/>
    <path id="Trazado_1262942" data-name="Trazado 1262942" d="M3.6,13.141V17H.859V5.625H5.4a5.287,5.287,0,0,1,2.309.48A3.621,3.621,0,0,1,9.262,7.473a3.734,3.734,0,0,1,.551,2.012,3.291,3.291,0,0,1-1.191,2.66,4.943,4.943,0,0,1-3.27,1Zm0-2.117H5.4a1.7,1.7,0,0,0,1.215-.4A1.48,1.48,0,0,0,7.031,9.5,1.83,1.83,0,0,0,6.6,8.227,1.522,1.522,0,0,0,5.43,7.742H3.6ZM13.93,17H11.289V5H13.93Zm6.383,0a2.973,2.973,0,0,1-.25-.758,2.448,2.448,0,0,1-2.031.914A3,3,0,0,1,16,16.434a2.3,2.3,0,0,1-.836-1.816,2.364,2.364,0,0,1,1.016-2.078,5.174,5.174,0,0,1,2.953-.7h.813v-.445q0-1.164-1.008-1.164a.822.822,0,0,0-.937.922H15.367A2.364,2.364,0,0,1,16.41,9.156a4.379,4.379,0,0,1,2.66-.766,3.843,3.843,0,0,1,2.555.789,2.743,2.743,0,0,1,.961,2.164v3.742a3.832,3.832,0,0,0,.359,1.781V17Zm-1.648-1.719a1.469,1.469,0,0,0,.816-.211,1.322,1.322,0,0,0,.465-.477V13.242H19.18q-1.375,0-1.375,1.234a.754.754,0,0,0,.242.582A.876.876,0,0,0,18.664,15.281Zm7.8-6.734.086.992a2.867,2.867,0,0,1,2.414-1.148,2.412,2.412,0,0,1,1.973.789,3.757,3.757,0,0,1,.676,2.375V17H28.969V11.664a1.426,1.426,0,0,0-.258-.941,1.193,1.193,0,0,0-.937-.3,1.256,1.256,0,0,0-1.148.609V17H23.992V8.547ZM32.734,12.7a4.989,4.989,0,0,1,.492-2.254,3.52,3.52,0,0,1,1.414-1.52A4.259,4.259,0,0,1,36.8,8.391,3.887,3.887,0,0,1,39.8,9.566a4.512,4.512,0,0,1,1.094,3.2v.094A4.378,4.378,0,0,1,39.793,16a3.9,3.9,0,0,1-2.973,1.16,3.942,3.942,0,0,1-2.9-1.082,4.232,4.232,0,0,1-1.18-2.934Zm2.633.164a3.145,3.145,0,0,0,.367,1.719,1.223,1.223,0,0,0,1.086.547q1.406,0,1.438-2.164V12.7q0-2.273-1.453-2.273-1.32,0-1.43,1.961Zm16.656,1.117a1.127,1.127,0,0,0-.426-.937,5.292,5.292,0,0,0-1.5-.7,14.353,14.353,0,0,1-1.75-.7,3.314,3.314,0,0,1-2.211-2.984A2.676,2.676,0,0,1,46.691,7,3.562,3.562,0,0,1,48.25,5.871a6.065,6.065,0,0,1,2.266-.4,5.305,5.305,0,0,1,2.2.438,3.482,3.482,0,0,1,1.512,1.246A3.254,3.254,0,0,1,54.766,9H52.031a1.375,1.375,0,0,0-.426-1.078,1.66,1.66,0,0,0-1.152-.383,1.872,1.872,0,0,0-1.16.324.955.955,0,0,0,.043,1.617,5.911,5.911,0,0,0,1.648.734,10.1,10.1,0,0,1,1.938.816,3.256,3.256,0,0,1,1.844,2.93A2.778,2.778,0,0,1,53.641,16.3a5,5,0,0,1-3.086.852,6.122,6.122,0,0,1-2.5-.5A3.775,3.775,0,0,1,46.363,15.3a3.542,3.542,0,0,1-.566-1.988h2.75a1.744,1.744,0,0,0,.473,1.348,2.234,2.234,0,0,0,1.535.434,1.765,1.765,0,0,0,1.074-.293A.967.967,0,0,0,52.023,13.977ZM60.813,17a2.973,2.973,0,0,1-.25-.758,2.448,2.448,0,0,1-2.031.914,3,3,0,0,1-2.031-.723,2.3,2.3,0,0,1-.836-1.816,2.364,2.364,0,0,1,1.016-2.078,5.174,5.174,0,0,1,2.953-.7h.813v-.445q0-1.164-1.008-1.164a.822.822,0,0,0-.937.922H55.867A2.364,2.364,0,0,1,56.91,9.156a4.379,4.379,0,0,1,2.66-.766,3.843,3.843,0,0,1,2.555.789,2.743,2.743,0,0,1,.961,2.164v3.742a3.832,3.832,0,0,0,.359,1.781V17Zm-1.648-1.719a1.469,1.469,0,0,0,.816-.211,1.322,1.322,0,0,0,.465-.477V13.242H59.68q-1.375,0-1.375,1.234a.754.754,0,0,0,.242.582A.876.876,0,0,0,59.164,15.281Zm5.07-2.57a5.708,5.708,0,0,1,.422-2.266,3.4,3.4,0,0,1,1.211-1.52A3.192,3.192,0,0,1,67.7,8.391a2.538,2.538,0,0,1,2.063.891l.094-.734H72.25V16.68a3.564,3.564,0,0,1-.52,1.941,3.334,3.334,0,0,1-1.5,1.266,5.528,5.528,0,0,1-2.281.441,4.769,4.769,0,0,1-1.8-.352,3.251,3.251,0,0,1-1.332-.914l1.1-1.547a2.414,2.414,0,0,0,1.938.867,1.568,1.568,0,0,0,1.75-1.8V16.32a2.472,2.472,0,0,1-1.914.836,3.055,3.055,0,0,1-2.5-1.184,4.9,4.9,0,0,1-.953-3.168Zm2.641.164a3.007,3.007,0,0,0,.391,1.645,1.232,1.232,0,0,0,1.094.605,1.4,1.4,0,0,0,1.242-.57V11a1.363,1.363,0,0,0-1.227-.578,1.241,1.241,0,0,0-1.1.629A3.429,3.429,0,0,0,66.875,12.875ZM76.523,17H73.883V8.547h2.641Zm-2.8-10.633a1.175,1.175,0,0,1,.406-.922,1.727,1.727,0,0,1,2.109,0,1.175,1.175,0,0,1,.406.922,1.175,1.175,0,0,1-.406.922,1.727,1.727,0,0,1-2.109,0A1.175,1.175,0,0,1,73.727,6.367Zm7.484.078v2.1H82.6v1.828H81.211v3.867a.987.987,0,0,0,.172.664.922.922,0,0,0,.68.188,3.862,3.862,0,0,0,.656-.047V16.93a4.859,4.859,0,0,1-1.484.227,2.758,2.758,0,0,1-2.008-.641,2.626,2.626,0,0,1-.648-1.945v-4.2H77.5V8.547h1.078v-2.1ZM88.4,17a2.973,2.973,0,0,1-.25-.758,2.448,2.448,0,0,1-2.031.914,3,3,0,0,1-2.031-.723,2.3,2.3,0,0,1-.836-1.816,2.364,2.364,0,0,1,1.016-2.078,5.174,5.174,0,0,1,2.953-.7h.813v-.445q0-1.164-1.008-1.164a.822.822,0,0,0-.937.922H83.453A2.364,2.364,0,0,1,84.5,9.156a4.379,4.379,0,0,1,2.66-.766,3.843,3.843,0,0,1,2.555.789,2.743,2.743,0,0,1,.961,2.164v3.742a3.832,3.832,0,0,0,.359,1.781V17ZM86.75,15.281a1.469,1.469,0,0,0,.816-.211,1.322,1.322,0,0,0,.465-.477V13.242h-.766q-1.375,0-1.375,1.234a.754.754,0,0,0,.242.582A.876.876,0,0,0,86.75,15.281ZM94.906,17H92.266V5h2.641Z" transform="translate(-12159.523 8528.693)" fill="#12263f"/>
    <path id="Trazado_1262943" data-name="Trazado 1262943" d="M1.32,17V5.625H4.531a5.169,5.169,0,0,1,2.625.656A4.438,4.438,0,0,1,8.918,8.148a6.078,6.078,0,0,1,.629,2.781v.727a6.1,6.1,0,0,1-.621,2.82,4.369,4.369,0,0,1-1.773,1.859A5.5,5.5,0,0,1,4.469,17ZM2.82,6.859v8.914H4.4A3.435,3.435,0,0,0,7.1,14.7a4.452,4.452,0,0,0,.965-3.07v-.664a4.522,4.522,0,0,0-.91-3.012A3.24,3.24,0,0,0,4.57,6.859Zm12.273,10.3a3.693,3.693,0,0,1-2.8-1.129,4.19,4.19,0,0,1-1.078-3.02v-.266A5.073,5.073,0,0,1,11.7,10.5a3.748,3.748,0,0,1,1.344-1.547,3.378,3.378,0,0,1,1.871-.559,3.166,3.166,0,0,1,2.563,1.086,4.7,4.7,0,0,1,.914,3.109v.6H12.664a3,3,0,0,0,.73,2.02,2.3,2.3,0,0,0,1.777.77,2.517,2.517,0,0,0,1.3-.312,3.259,3.259,0,0,0,.93-.828l.883.688A3.55,3.55,0,0,1,15.094,17.156Zm-.18-7.578a1.928,1.928,0,0,0-1.469.637A3.1,3.1,0,0,0,12.711,12h4.234v-.109a2.753,2.753,0,0,0-.594-1.707A1.815,1.815,0,0,0,14.914,9.578Zm9.234.266a4.331,4.331,0,0,0-.711-.055A1.9,1.9,0,0,0,21.508,11v6H20.063V8.547h1.406l.023.977a2.251,2.251,0,0,1,2.016-1.133,1.477,1.477,0,0,1,.641.109Zm.4,6.4a.905.905,0,0,1,.223-.625.848.848,0,0,1,.668-.25.874.874,0,0,1,.676.25.887.887,0,0,1,.23.625.839.839,0,0,1-.23.6.89.89,0,0,1-.676.242.8.8,0,0,1-.891-.844Z" transform="translate(-12179.065 8581.02)" fill="#00223d"/>
    <path id="Trazado_1262938" data-name="Trazado 1262938" d="M2.93,17H1.43V5.625h1.5ZM6.813,8.547l.047,1.063A3.08,3.08,0,0,1,9.391,8.391q2.68,0,2.7,3.023V17H10.648V11.406a1.946,1.946,0,0,0-.418-1.352,1.675,1.675,0,0,0-1.277-.437,2.086,2.086,0,0,0-1.234.375,2.546,2.546,0,0,0-.828.984V17H5.445V8.547ZM14.984,17V9.664H13.648V8.547h1.336V7.68a2.878,2.878,0,0,1,.727-2.1,2.745,2.745,0,0,1,2.055-.742,3.793,3.793,0,0,1,.992.133L18.68,6.141a4.151,4.151,0,0,0-.781-.07,1.413,1.413,0,0,0-1.086.41,1.66,1.66,0,0,0-.383,1.176v.891h1.8V9.664h-1.8V17Zm8.352.156a3.693,3.693,0,0,1-2.8-1.129,4.19,4.19,0,0,1-1.078-3.02v-.266a5.073,5.073,0,0,1,.48-2.246,3.748,3.748,0,0,1,1.344-1.547,3.378,3.378,0,0,1,1.871-.559,3.166,3.166,0,0,1,2.563,1.086,4.7,4.7,0,0,1,.914,3.109v.6H20.906a3,3,0,0,0,.73,2.02,2.3,2.3,0,0,0,1.777.77,2.517,2.517,0,0,0,1.3-.312,3.259,3.259,0,0,0,.93-.828l.883.688A3.55,3.55,0,0,1,23.336,17.156Zm-.18-7.578a1.928,1.928,0,0,0-1.469.637A3.1,3.1,0,0,0,20.953,12h4.234v-.109a2.753,2.753,0,0,0-.594-1.707A1.815,1.815,0,0,0,23.156,9.578Zm9.234.266a4.331,4.331,0,0,0-.711-.055A1.9,1.9,0,0,0,29.75,11v6H28.3V8.547h1.406l.023.977A2.251,2.251,0,0,1,31.75,8.391a1.477,1.477,0,0,1,.641.109ZM35.289,17H33.844V8.547h1.445ZM33.727,6.3a.863.863,0,0,1,.215-.594.807.807,0,0,1,.637-.242.819.819,0,0,1,.641.242.854.854,0,0,1,.219.594.826.826,0,0,1-.219.586.834.834,0,0,1-.641.234.821.821,0,0,1-.637-.234A.834.834,0,0,1,33.727,6.3ZM37.219,12.7a4.993,4.993,0,0,1,.488-2.234A3.643,3.643,0,0,1,39.066,8.93a3.7,3.7,0,0,1,1.988-.539,3.565,3.565,0,0,1,2.793,1.2,4.6,4.6,0,0,1,1.066,3.18v.1a5.036,5.036,0,0,1-.473,2.215,3.589,3.589,0,0,1-1.352,1.527,3.743,3.743,0,0,1-2.02.547,3.556,3.556,0,0,1-2.785-1.2A4.575,4.575,0,0,1,37.219,12.8Zm1.453.172a3.616,3.616,0,0,0,.652,2.258,2.211,2.211,0,0,0,3.5-.012,3.955,3.955,0,0,0,.648-2.418,3.61,3.61,0,0,0-.66-2.254,2.1,2.1,0,0,0-1.754-.863,2.075,2.075,0,0,0-1.727.852A3.925,3.925,0,0,0,38.672,12.867ZM50.813,9.844a4.331,4.331,0,0,0-.711-.055A1.9,1.9,0,0,0,48.172,11v6H46.727V8.547h1.406l.023.977a2.251,2.251,0,0,1,2.016-1.133,1.477,1.477,0,0,1,.641.109Z" transform="translate(-11920.223 8812.026)" fill="#12263f"/>
    <path id="Trazado_1262939" data-name="Trazado 1262939" d="M0,0H12V304H0Z" transform="translate(-12336 8528.44)" fill="#5ec6a3"/>
    <path id="Trazado_1262940" data-name="Trazado 1262940" d="M0,0H12V304H0Z" transform="translate(-11843 8528.44)" fill="#5ec6a3"/>
  </g>
</svg>
