<svg xmlns="http://www.w3.org/2000/svg" width="141" height="141" viewBox="0 0 141 141">
  <g id="Grupo_1078643" data-name="Grupo 1078643" transform="translate(-378.5 -5207.707)">
    <g id="Grupo_1077065" data-name="Grupo 1077065" transform="translate(109.5 4249.707)">
      <circle id="Elipse_5614" data-name="Elipse 5614" cx="70.5" cy="70.5" r="70.5" transform="translate(269 958)" fill="#fff"/>
    </g>
    <g id="Grupo_1077074" data-name="Grupo 1077074" transform="translate(400.263 5229.97)">
      <path id="Trazado_838873" data-name="Trazado 838873" d="M74.392,21.3A8.682,8.682,0,0,1,80.7,28.179l8.7,49.346a4.822,4.822,0,0,1-1.1,3.989l-9.328,1.642a4.823,4.823,0,0,1-2.4-3.373L71.712,52.2H24.759L19.9,79.786a4.822,4.822,0,0,1-2.4,3.373L8.172,81.515a4.823,4.823,0,0,1-1.1-3.989l8.7-49.349A8.682,8.682,0,0,1,22.083,21.3Z" transform="translate(0 -3.954)" fill="#fcbe00"/>
      <path id="Trazado_838874" data-name="Trazado 838874" d="M35.551,111.662H76.714v6.756H35.551Z" transform="translate(-7.896 -28.943)" fill="#fcbe00"/>
      <g id="Grupo_1077072" data-name="Grupo 1077072" transform="translate(7.235 13.252)">
        <path id="Trazado_838875" data-name="Trazado 838875" d="M0,0H9.471V5.243H0Z" transform="matrix(0.985, 0.174, -0.174, 0.985, 0.912, 64.324)" fill="#ffd92e"/>
        <path id="Trazado_838876" data-name="Trazado 838876" d="M0,0H9.471V5.243H0Z" transform="matrix(-0.985, 0.174, -0.174, -0.985, 81.936, 69.484)" fill="#ffd92e"/>
        <path id="Trazado_838877" data-name="Trazado 838877" d="M33.421,85.109a2.894,2.894,0,0,1-2.894-2.894V50.635l-2.679-30.9,15.3-4.093h21.7l15.3,4.093-2.677,30.9v31.58a2.894,2.894,0,0,1-2.894,2.894Z" transform="translate(-13 -15.642)" fill="#ffd92e"/>
      </g>
      <path id="Trazado_838878" data-name="Trazado 838878" d="M70.7,13.252s-2.756,4.093-10.852,4.093S49,13.255,49,13.255V9.17A2.17,2.17,0,0,1,51.17,7H68.534A2.17,2.17,0,0,1,70.7,9.17Z" transform="translate(-11.615)" fill="#fcbe00"/>
      <path id="Trazado_838879" data-name="Trazado 838879" d="M31.551,64.011H78.5v6.511H31.551Z" transform="translate(-6.789 -15.766)" fill="#44538c"/>
      <g id="Grupo_1077073" data-name="Grupo 1077073" transform="translate(30.038 32.237)">
        <path id="Trazado_838880" data-name="Trazado 838880" d="M0,0H5.788V5.788H0Z" transform="translate(18.198 0.002) rotate(45)" fill="#44538c"/>
        <path id="Trazado_838881" data-name="Trazado 838881" d="M0,0H5.788V5.788H0Z" transform="translate(32.303 0) rotate(45)" fill="#44538c"/>
        <path id="Trazado_838882" data-name="Trazado 838882" d="M0,0H5.788V5.788H0Z" transform="translate(4.092 0.003) rotate(45)" fill="#44538c"/>
      </g>
    </g>
  </g>
</svg>
