<svg xmlns="http://www.w3.org/2000/svg" width="141" height="141" viewBox="0 0 141 141">
  <g id="Grupo_1078644" data-name="Grupo 1078644" transform="translate(-730 -5207.707)">
    <g id="Grupo_1077067" data-name="Grupo 1077067" transform="translate(461 4249.707)">
      <circle id="Elipse_5614" data-name="Elipse 5614" cx="70.5" cy="70.5" r="70.5" transform="translate(269 958)" fill="#fff"/>
    </g>
    <g id="Grupo_1077076" data-name="Grupo 1077076" transform="translate(763.85 5237.842)">
      <path id="Trazado_838883" data-name="Trazado 838883" d="M65.3,20.373v45.2A2.542,2.542,0,0,1,62.767,68.1H56.43v2.535a2.542,2.542,0,0,1-2.535,2.535H18.407a2.542,2.542,0,0,1-2.535-2.535V68.1H9.535A2.542,2.542,0,0,1,7,65.569V20.385A13.544,13.544,0,0,1,17.254,7.242L22.209,6H50.093l4.968,1.242A13.532,13.532,0,0,1,65.3,20.373Z" transform="translate(0 1.337)" fill="#48d874"/>
      <path id="Trazado_838884" data-name="Trazado 838884" d="M7,49h8.872v7.6H9.535A2.535,2.535,0,0,1,7,54.07Z" transform="translate(0 12.837)" fill="#37a04d"/>
      <path id="Trazado_838885" data-name="Trazado 838885" d="M54.872,49H46v7.6h6.337a2.535,2.535,0,0,0,2.535-2.535Z" transform="translate(10.43 12.837)" fill="#37a04d"/>
      <path id="Trazado_838886" data-name="Trazado 838886" d="M14.535,21.267V64.36H12V21.267a1.267,1.267,0,1,1,2.535,0Z" transform="translate(1.337 5.081)" fill="#40bc60"/>
      <path id="Trazado_838887" data-name="Trazado 838887" d="M48.535,21.267V64.36H46V21.267a1.267,1.267,0,0,1,2.535,0Z" transform="translate(10.43 5.081)" fill="#40bc60"/>
      <path id="Trazado_838888" data-name="Trazado 838888" d="M30.267,19.407A1.267,1.267,0,0,1,29,18.139V9.267a1.267,1.267,0,0,1,2.535,0v8.872A1.267,1.267,0,0,1,30.267,19.407Z" transform="translate(5.883 1.872)" fill="#37a04d"/>
      <g id="Grupo_1077075" data-name="Grupo 1077075" transform="translate(22.206 28.883)">
        <path id="Trazado_838889" data-name="Trazado 838889" d="M43.2,37.725l-2.426-4.1a1.267,1.267,0,1,0-2.181,1.29l2.425,4.1a2.729,2.729,0,0,1,.022,2.777,2.624,2.624,0,0,1-2.293,1.349H34.314l.371-.37a1.268,1.268,0,1,0-1.791-1.795L30.354,43.51a1.267,1.267,0,0,0,0,1.795l2.541,2.535a1.268,1.268,0,0,0,1.791-1.795l-.38-.37h4.436a5.132,5.132,0,0,0,4.5-2.627,5.238,5.238,0,0,0-.037-5.322Z" transform="translate(-16.06 -20.326)" fill="#fff"/>
        <path id="Trazado_838890" data-name="Trazado 838890" d="M33.787,26.829l2.245,3.828-.518-.136a1.267,1.267,0,1,0-.644,2.45l3.477.913a1.293,1.293,0,0,0,.323.042,1.267,1.267,0,0,0,1.224-.944l.915-3.466a1.268,1.268,0,0,0-2.451-.646l-.136.513-2.243-3.834A5.127,5.127,0,0,0,31.506,23h-.053a5.274,5.274,0,0,0-4.6,2.721L24.53,29.88a1.268,1.268,0,1,0,2.213,1.237l2.324-4.156a2.739,2.739,0,0,1,4.73-.127Z" transform="translate(-17.561 -23)" fill="#fff"/>
        <path id="Trazado_838891" data-name="Trazado 838891" d="M29.092,43.618H24.315a2.76,2.76,0,0,1-2.421-1.4,2.608,2.608,0,0,1,0-2.644l2.26-3.82.134.517a1.267,1.267,0,1,0,2.452-.634l-.9-3.473a1.267,1.267,0,0,0-1.541-.91l-3.482.9a1.268,1.268,0,0,0,.634,2.456l.517-.127-2.255,3.81a5.109,5.109,0,0,0-.025,5.189,5.26,5.26,0,0,0,4.622,2.677h4.777a1.267,1.267,0,1,0,0-2.535Z" transform="translate(-18.998 -20.804)" fill="#fff"/>
      </g>
      <path id="Trazado_838892" data-name="Trazado 838892" d="M42.663,2.065A2.688,2.688,0,0,0,41.6,1.253,2.738,2.738,0,0,0,40.445,1H25.439a2.738,2.738,0,0,0-1.153.253,2.688,2.688,0,0,0-1.065.811L19,7.337l7.554,7.554a1.875,1.875,0,0,0,2.636,0l3.752-3.752,3.752,3.752a1.875,1.875,0,0,0,2.636,0l7.554-7.554Z" transform="translate(3.209 0)" fill="#40bc60"/>
      <path id="Trazado_838893" data-name="Trazado 838893" d="M40.483,1.253l-8.657,9.886L23.17,1.253A2.738,2.738,0,0,1,24.323,1H39.33a2.738,2.738,0,0,1,1.153.253Z" transform="translate(4.324 0)" fill="#37a04d"/>
    </g>
  </g>
</svg>
