<svg xmlns="http://www.w3.org/2000/svg" width="163.336" height="163.336" viewBox="0 0 163.336 163.336">
  <g id="Grupo_1076940" data-name="Grupo 1076940" transform="translate(-264.332 -953.332)">
    <circle id="Elipse_5614" data-name="Elipse 5614" cx="81.668" cy="81.668" r="81.668" transform="translate(264.332 953.332)" fill="#fff"/>
    <g id="Grupo_1072114" data-name="Grupo 1072114" transform="translate(311.529 990.722)">
      <g id="Grupo_1072113" data-name="Grupo 1072113">
        <path id="Trazado_838691" data-name="Trazado 838691" d="M103.21,60.556a1.27,1.27,0,0,0-1.27,1.27V84.148H41.37V13.058h9.248a1.27,1.27,0,0,0,1.27-1.27V2.54H80A1.27,1.27,0,1,0,80,0H50.617a1.271,1.271,0,0,0-.9.372l-10.493,10.5a1.267,1.267,0,0,0-.4.922V85.417a1.27,1.27,0,0,0,1.27,1.27H103.21a1.27,1.27,0,0,0,1.27-1.27V61.826A1.27,1.27,0,0,0,103.21,60.556ZM43.166,10.519l6.183-6.184v6.184Z" transform="translate(-38.83 0)" fill="#fff"/>
        <path id="Trazado_838692" data-name="Trazado 838692" d="M183.262,10.519h-1.37V1.27A1.27,1.27,0,0,0,180.622,0H162.946a1.27,1.27,0,1,0,0,2.54h16.406v7.98H133.29a1.27,1.27,0,0,0-1.27,1.27v26.3a1.27,1.27,0,0,0,1.27,1.27H140.7a1.27,1.27,0,1,0,0-2.54H134.56V13.059h48.7a3.983,3.983,0,0,1,3.979,3.979V38.179a6.5,6.5,0,0,0-3.989-1.364H146.234a1.27,1.27,0,0,0,0,2.54h33.119V56.293a1.27,1.27,0,0,0,2.54,0v-6.42h1.37a6.528,6.528,0,0,0,6.518-6.529V17.038a6.526,6.526,0,0,0-6.518-6.518Zm0,36.813h-1.37V39.355h1.36a3.994,3.994,0,0,1,3.989,3.989v.01A3.983,3.983,0,0,1,183.262,47.333Z" transform="translate(-116.242)" fill="#fff"/>
        <path id="Trazado_838693" data-name="Trazado 838693" d="M353.963,111.26a3.968,3.968,0,0,1,2.23.681,1.27,1.27,0,0,0,1.422-2.1,6.529,6.529,0,1,0-3.651,11.942,5.452,5.452,0,0,0,4.286-1.938,1.27,1.27,0,1,0-1.946-1.632,2.912,2.912,0,0,1-2.34,1.031,3.989,3.989,0,1,1,0-7.978Z" transform="translate(-295.184 -90.312)" fill="#fff"/>
        <path id="Trazado_838694" data-name="Trazado 838694" d="M272.836,115.249a6.529,6.529,0,1,0-6.529,6.529A6.536,6.536,0,0,0,272.836,115.249Zm-10.518,0a3.989,3.989,0,1,1,3.989,3.989A3.994,3.994,0,0,1,262.318,115.249Z" transform="translate(-222.369 -90.312)" fill="#fff"/>
        <path id="Trazado_838695" data-name="Trazado 838695" d="M195.271,121.778a6.529,6.529,0,1,0,0-13.058h-1.879a1.27,1.27,0,0,0-1.27,1.27v10.518a1.27,1.27,0,0,0,1.27,1.27h1.879Zm-.609-10.518a4.03,4.03,0,1,1,0,7.979Z" transform="translate(-166.168 -90.312)" fill="#fff"/>
        <path id="Trazado_838696" data-name="Trazado 838696" d="M100.954,373.653a1.27,1.27,0,0,0,1.27,1.27H144.3a1.27,1.27,0,0,0,0-2.54H102.224A1.27,1.27,0,0,0,100.954,373.653Z" transform="translate(-90.436 -309.334)" fill="#fff"/>
        <path id="Trazado_838697" data-name="Trazado 838697" d="M145.567,404.715a1.27,1.27,0,0,0-1.27-1.27H102.224a1.27,1.27,0,1,0,0,2.54H144.3A1.27,1.27,0,0,0,145.567,404.715Z" transform="translate(-90.436 -335.137)" fill="#fff"/>
        <path id="Trazado_838698" data-name="Trazado 838698" d="M102.224,434.507a1.27,1.27,0,0,0,0,2.54H125.89a1.27,1.27,0,0,0,0-2.54Z" transform="translate(-90.436 -360.94)" fill="#fff"/>
        <path id="Trazado_838699" data-name="Trazado 838699" d="M242,281.736h18.407a1.27,1.27,0,1,0,0-2.54H242a1.27,1.27,0,0,0,0,2.54Z" transform="translate(-206.55 -231.925)" fill="#fff"/>
        <path id="Trazado_838700" data-name="Trazado 838700" d="M242,312.8h18.407a1.27,1.27,0,1,0,0-2.54H242a1.27,1.27,0,1,0,0,2.54Z" transform="translate(-206.55 -257.728)" fill="#fff"/>
        <path id="Trazado_838701" data-name="Trazado 838701" d="M242,343.861h18.407a1.27,1.27,0,0,0,0-2.54H242a1.27,1.27,0,0,0,0,2.54Z" transform="translate(-206.55 -283.532)" fill="#fff"/>
        <path id="Trazado_838702" data-name="Trazado 838702" d="M140.2,279.337c-.483-1.547-2.124-1.279-2.457.117l-1.959,6.328-1.25-6.317a1.27,1.27,0,1,0-2.491.493l2.049,10.36a1.514,1.514,0,0,0,2.907.126l1.987-6.419,1.978,6.421a1.514,1.514,0,0,0,2.907-.129l2.057-10.338a1.27,1.27,0,1,0-2.491-.5l-1.254,6.3Z" transform="translate(-116.239 -231.17)" fill="#fff"/>
      </g>
    </g>
    <g id="estado-animico" transform="translate(297.155 986.155)">
      <path id="Trazado_62131" data-name="Trazado 62131" d="M271,30V86.286l2.862,2.862L271,92.01v29.956A45.983,45.983,0,0,0,271,30Z" transform="translate(-219.293 -24.276)" fill="#ffd959"/>
      <path id="Trazado_62132" data-name="Trazado 62132" d="M0,45.983A45.983,45.983,0,0,0,45.983,91.965V74.793L34.535,58.957,45.983,43.121V0A45.983,45.983,0,0,0,0,45.983Z" fill="#ffeaa6"/>
      <path id="Trazado_62133" data-name="Trazado 62133" d="M106,151h17.172v5.724H106Z" transform="translate(-85.775 -122.189)" fill="#62676f"/>
      <path id="Trazado_62134" data-name="Trazado 62134" d="M106.673,226v12.585l-22.662,9.546A31.575,31.575,0,0,1,75,226Z" transform="translate(-60.69 -182.879)" fill="#ff9d7d"/>
      <path id="Trazado_62135" data-name="Trazado 62135" d="M144.89,291.96v19.088a31.586,31.586,0,0,1-22.662-9.542A31.587,31.587,0,0,1,144.89,291.96Z" transform="translate(-98.907 -236.254)" fill="#ff5253"/>
      <path id="Trazado_62136" data-name="Trazado 62136" d="M346,180.724v8.586a5.724,5.724,0,0,0,11.448,0v-8.586a5.724,5.724,0,0,0-11.448,0Z" transform="translate(-279.983 -141.61)" fill="#414851"/>
      <path id="Trazado_62137" data-name="Trazado 62137" d="M271,325h17.172v5.724H271Z" transform="translate(-219.293 -262.99)" fill="#ffc40f"/>
    </g>
  </g>
</svg>
