<svg xmlns="http://www.w3.org/2000/svg" xmlns:xlink="http://www.w3.org/1999/xlink" width="1030" height="434.247" viewBox="0 0 1030 434.247">
  <defs>
    <clipPath id="clip-path">
      <rect id="Rectángulo_381037" data-name="Rectángulo 381037" width="303.294" height="364.871" fill="none"/>
    </clipPath>
    <clipPath id="clip-path-5">
      <rect id="Rectángulo_381030" data-name="Rectángulo 381030" width="2.556" height="2.591" fill="none"/>
    </clipPath>
    <clipPath id="clip-path-6">
      <rect id="Rectángulo_381031" data-name="Rectángulo 381031" width="51.358" height="119.755" fill="none"/>
    </clipPath>
  </defs>
  <g id="Grupo_1204748" data-name="Grupo 1204748" transform="translate(-285 -4376.12)">
    <path id="Trazado_838958" data-name="Trazado 838958" d="M0,0H1030V434.247H0V0Z" transform="translate(1315 4810.367) rotate(180)" fill="#bee8da"/>
    <path id="Trazado_61155" data-name="Trazado 61155" d="M16825,2514.667h138.51v131.25h-79.564" transform="translate(-16225 1919.661)" fill="none" stroke="#63503e" stroke-width="2"/>
    <path id="Trazado_61156" data-name="Trazado 61156" d="M16890.633,2514.667h75.5V2718.8h-120.8" transform="translate(-16227.621 2063.397)" fill="none" stroke="#63503e" stroke-width="2"/>
    <path id="Trazado_1262725" data-name="Trazado 1262725" d="M.742-4.3a4.952,4.952,0,0,1,.922-3.129A2.915,2.915,0,0,1,4.078-8.609,2.932,2.932,0,0,1,6.43-7.594V-12H7.875V0H6.547l-.07-.906A2.943,2.943,0,0,1,4.063.156a2.887,2.887,0,0,1-2.395-1.2A5.008,5.008,0,0,1,.742-4.187Zm1.445.164a3.749,3.749,0,0,0,.594,2.25,1.92,1.92,0,0,0,1.641.813A2.108,2.108,0,0,0,6.43-2.3V-6.187a2.125,2.125,0,0,0-1.992-1.2,1.929,1.929,0,0,0-1.656.82A4.128,4.128,0,0,0,2.188-4.133ZM13.625.156a3.693,3.693,0,0,1-2.8-1.129A4.19,4.19,0,0,1,9.75-3.992v-.266A5.073,5.073,0,0,1,10.23-6.5a3.748,3.748,0,0,1,1.344-1.547,3.378,3.378,0,0,1,1.871-.559,3.166,3.166,0,0,1,2.563,1.086,4.7,4.7,0,0,1,.914,3.109v.6H11.2a3,3,0,0,0,.73,2.02,2.3,2.3,0,0,0,1.777.77A2.517,2.517,0,0,0,15-1.336a3.259,3.259,0,0,0,.93-.828l.883.688A3.55,3.55,0,0,1,13.625.156Zm-.18-7.578a1.928,1.928,0,0,0-1.469.637A3.1,3.1,0,0,0,11.242-5h4.234v-.109a2.753,2.753,0,0,0-.594-1.707A1.815,1.815,0,0,0,13.445-7.422ZM24.125,0H22.68V-12h1.445Zm7.531,0a3.036,3.036,0,0,1-.2-.891A3.225,3.225,0,0,1,29.047.156,2.984,2.984,0,0,1,27-.551a2.287,2.287,0,0,1-.8-1.793,2.39,2.39,0,0,1,1-2.051,4.733,4.733,0,0,1,2.824-.73H31.43v-.664A1.623,1.623,0,0,0,30.977-7a1.821,1.821,0,0,0-1.336-.449,2.108,2.108,0,0,0-1.3.391,1.151,1.151,0,0,0-.523.945H26.367a2,2,0,0,1,.449-1.223,3.066,3.066,0,0,1,1.219-.934,4.1,4.1,0,0,1,1.691-.344,3.342,3.342,0,0,1,2.289.73,2.635,2.635,0,0,1,.859,2.012v3.891a4.757,4.757,0,0,0,.3,1.852V0Zm-2.4-1.1a2.54,2.54,0,0,0,1.289-.352,2.127,2.127,0,0,0,.883-.914V-4.1H30.3q-2.656,0-2.656,1.555a1.316,1.316,0,0,0,.453,1.063A1.742,1.742,0,0,0,29.258-1.1Zm13.234.078a2.082,2.082,0,0,0,1.352-.469,1.649,1.649,0,0,0,.641-1.172h1.367a2.621,2.621,0,0,1-.5,1.383,3.293,3.293,0,0,1-1.23,1.047,3.55,3.55,0,0,1-1.629.391A3.482,3.482,0,0,1,39.746-1a4.59,4.59,0,0,1-1.02-3.152v-.242a5.089,5.089,0,0,1,.453-2.2,3.451,3.451,0,0,1,1.3-1.492,3.7,3.7,0,0,1,2-.531,3.39,3.39,0,0,1,2.363.852,3.043,3.043,0,0,1,1,2.211H44.484a1.992,1.992,0,0,0-.621-1.348,1.932,1.932,0,0,0-1.379-.527,2.023,2.023,0,0,0-1.707.793,3.724,3.724,0,0,0-.605,2.293v.273a3.65,3.65,0,0,0,.6,2.25A2.033,2.033,0,0,0,42.492-1.023ZM49.047,0H47.6V-8.453h1.445ZM47.484-10.7a.863.863,0,0,1,.215-.594.807.807,0,0,1,.637-.242.819.819,0,0,1,.641.242.854.854,0,0,1,.219.594.826.826,0,0,1-.219.586.834.834,0,0,1-.641.234.821.821,0,0,1-.637-.234A.834.834,0,0,1,47.484-10.7Zm5.242,2.242.047,1.063A3.08,3.08,0,0,1,55.3-8.609q2.68,0,2.7,3.023V0H56.563V-5.594a1.946,1.946,0,0,0-.418-1.352,1.675,1.675,0,0,0-1.277-.437,2.086,2.086,0,0,0-1.234.375,2.546,2.546,0,0,0-.828.984V0H51.359V-8.453ZM62.148-10.5v2.047h1.578v1.117H62.148v5.242a1.171,1.171,0,0,0,.211.762.888.888,0,0,0,.719.254,3.5,3.5,0,0,0,.688-.094V0a4.19,4.19,0,0,1-1.109.156A1.8,1.8,0,0,1,61.2-.43,2.517,2.517,0,0,1,60.7-2.094V-7.336H59.164V-8.453H60.7V-10.5ZM70.633-.836a3.07,3.07,0,0,1-2.477.992A2.628,2.628,0,0,1,66.1-.629a3.4,3.4,0,0,1-.715-2.324v-5.5h1.445v5.461q0,1.922,1.563,1.922a2.163,2.163,0,0,0,2.2-1.234V-8.453h1.445V0H70.664Zm7.688-6.32a4.331,4.331,0,0,0-.711-.055A1.9,1.9,0,0,0,75.68-6V0H74.234V-8.453h1.406l.023.977A2.251,2.251,0,0,1,77.68-8.609a1.477,1.477,0,0,1,.641.109ZM84.555,0a3.036,3.036,0,0,1-.2-.891A3.225,3.225,0,0,1,81.945.156a2.984,2.984,0,0,1-2.051-.707,2.288,2.288,0,0,1-.8-1.793,2.39,2.39,0,0,1,1-2.051,4.733,4.733,0,0,1,2.824-.73h1.406v-.664A1.623,1.623,0,0,0,83.875-7a1.821,1.821,0,0,0-1.336-.449,2.108,2.108,0,0,0-1.3.391,1.151,1.151,0,0,0-.523.945H79.266a2,2,0,0,1,.449-1.223,3.066,3.066,0,0,1,1.219-.934,4.1,4.1,0,0,1,1.691-.344,3.342,3.342,0,0,1,2.289.73,2.635,2.635,0,0,1,.859,2.012v3.891a4.757,4.757,0,0,0,.3,1.852V0Zm-2.4-1.1a2.54,2.54,0,0,0,1.289-.352,2.127,2.127,0,0,0,.883-.914V-4.1H83.2q-2.656,0-2.656,1.555a1.316,1.316,0,0,0,.453,1.063A1.742,1.742,0,0,0,82.156-1.1ZM93.445-7.43a3.073,3.073,0,0,1,2.5-1.18q2.68,0,2.7,3.023V0H97.2V-5.594a1.946,1.946,0,0,0-.418-1.352,1.675,1.675,0,0,0-1.277-.437,2.086,2.086,0,0,0-1.234.375,2.546,2.546,0,0,0-.828.984V0H92V-12h1.445ZM106.031,0a3.036,3.036,0,0,1-.2-.891A3.225,3.225,0,0,1,103.422.156a2.984,2.984,0,0,1-2.051-.707,2.288,2.288,0,0,1-.8-1.793,2.39,2.39,0,0,1,1-2.051,4.733,4.733,0,0,1,2.824-.73H105.8v-.664A1.623,1.623,0,0,0,105.352-7a1.821,1.821,0,0,0-1.336-.449,2.108,2.108,0,0,0-1.3.391,1.151,1.151,0,0,0-.523.945h-1.453a2,2,0,0,1,.449-1.223,3.066,3.066,0,0,1,1.219-.934,4.1,4.1,0,0,1,1.691-.344,3.342,3.342,0,0,1,2.289.73,2.635,2.635,0,0,1,.859,2.012v3.891a4.757,4.757,0,0,0,.3,1.852V0Zm-2.4-1.1a2.54,2.54,0,0,0,1.289-.352,2.127,2.127,0,0,0,.883-.914V-4.1h-1.133q-2.656,0-2.656,1.555a1.316,1.316,0,0,0,.453,1.063A1.742,1.742,0,0,0,103.633-1.1Zm9.273.078a2.082,2.082,0,0,0,1.352-.469,1.649,1.649,0,0,0,.641-1.172h1.367a2.621,2.621,0,0,1-.5,1.383,3.293,3.293,0,0,1-1.23,1.047,3.55,3.55,0,0,1-1.629.391A3.482,3.482,0,0,1,110.16-1a4.59,4.59,0,0,1-1.02-3.152v-.242a5.089,5.089,0,0,1,.453-2.2,3.451,3.451,0,0,1,1.3-1.492,3.7,3.7,0,0,1,2-.531,3.39,3.39,0,0,1,2.363.852,3.043,3.043,0,0,1,1,2.211H114.9a1.992,1.992,0,0,0-.621-1.348,1.932,1.932,0,0,0-1.379-.527,2.023,2.023,0,0,0-1.707.793,3.724,3.724,0,0,0-.605,2.293v.273a3.65,3.65,0,0,0,.6,2.25A2.033,2.033,0,0,0,112.906-1.023ZM119.461,0h-1.445V-8.453h1.445ZM117.9-10.7a.863.863,0,0,1,.215-.594.807.807,0,0,1,.637-.242.819.819,0,0,1,.641.242.854.854,0,0,1,.219.594.826.826,0,0,1-.219.586.834.834,0,0,1-.641.234.821.821,0,0,1-.637-.234A.834.834,0,0,1,117.9-10.7ZM126.992,0a3.036,3.036,0,0,1-.2-.891A3.225,3.225,0,0,1,124.383.156a2.984,2.984,0,0,1-2.051-.707,2.288,2.288,0,0,1-.8-1.793,2.39,2.39,0,0,1,1-2.051,4.733,4.733,0,0,1,2.824-.73h1.406v-.664A1.623,1.623,0,0,0,126.313-7a1.821,1.821,0,0,0-1.336-.449,2.108,2.108,0,0,0-1.3.391,1.151,1.151,0,0,0-.523.945H121.7a2,2,0,0,1,.449-1.223,3.066,3.066,0,0,1,1.219-.934,4.1,4.1,0,0,1,1.691-.344,3.342,3.342,0,0,1,2.289.73,2.635,2.635,0,0,1,.859,2.012v3.891a4.757,4.757,0,0,0,.3,1.852V0Zm-2.4-1.1a2.54,2.54,0,0,0,1.289-.352,2.127,2.127,0,0,0,.883-.914V-4.1h-1.133q-2.656,0-2.656,1.555a1.316,1.316,0,0,0,.453,1.063A1.742,1.742,0,0,0,124.594-1.1ZM139.656,0a3.036,3.036,0,0,1-.2-.891A3.225,3.225,0,0,1,137.047.156,2.984,2.984,0,0,1,135-.551a2.287,2.287,0,0,1-.8-1.793,2.39,2.39,0,0,1,1-2.051,4.733,4.733,0,0,1,2.824-.73h1.406v-.664A1.623,1.623,0,0,0,138.977-7a1.821,1.821,0,0,0-1.336-.449,2.107,2.107,0,0,0-1.3.391,1.151,1.151,0,0,0-.523.945h-1.453a2,2,0,0,1,.449-1.223,3.066,3.066,0,0,1,1.219-.934,4.1,4.1,0,0,1,1.691-.344,3.342,3.342,0,0,1,2.289.73,2.635,2.635,0,0,1,.859,2.012v3.891a4.757,4.757,0,0,0,.3,1.852V0Zm-2.4-1.1a2.54,2.54,0,0,0,1.289-.352,2.127,2.127,0,0,0,.883-.914V-4.1H138.3q-2.656,0-2.656,1.555a1.316,1.316,0,0,0,.453,1.063A1.742,1.742,0,0,0,137.258-1.1Zm9.969-6.055a4.331,4.331,0,0,0-.711-.055A1.9,1.9,0,0,0,144.586-6V0h-1.445V-8.453h1.406l.023.977a2.251,2.251,0,0,1,2.016-1.133,1.477,1.477,0,0,1,.641.109Zm5.414,0a4.331,4.331,0,0,0-.711-.055A1.9,1.9,0,0,0,150-6V0h-1.445V-8.453h1.406l.023.977A2.251,2.251,0,0,1,152-8.609a1.477,1.477,0,0,1,.641.109ZM155.539,0h-1.445V-8.453h1.445Zm-1.562-10.7a.863.863,0,0,1,.215-.594.807.807,0,0,1,.637-.242.819.819,0,0,1,.641.242.854.854,0,0,1,.219.594.826.826,0,0,1-.219.586.834.834,0,0,1-.641.234.821.821,0,0,1-.637-.234A.834.834,0,0,1,153.977-10.7Zm11.031,6.563a5.026,5.026,0,0,1-.891,3.113A2.846,2.846,0,0,1,161.727.156,2.947,2.947,0,0,1,159.25-.977L159.18,0h-1.328V-12H159.3v4.477a2.93,2.93,0,0,1,2.414-1.086,2.863,2.863,0,0,1,2.418,1.164,5.177,5.177,0,0,1,.879,3.188ZM163.563-4.3a3.906,3.906,0,0,0-.57-2.281,1.888,1.888,0,0,0-1.641-.8A2.122,2.122,0,0,0,159.3-6.055V-2.4a2.181,2.181,0,0,0,2.07,1.328,1.878,1.878,0,0,0,1.617-.8A4.153,4.153,0,0,0,163.563-4.3ZM172.047,0a3.036,3.036,0,0,1-.2-.891A3.225,3.225,0,0,1,169.438.156a2.984,2.984,0,0,1-2.051-.707,2.287,2.287,0,0,1-.8-1.793,2.39,2.39,0,0,1,1-2.051,4.733,4.733,0,0,1,2.824-.73h1.406v-.664A1.623,1.623,0,0,0,171.367-7a1.821,1.821,0,0,0-1.336-.449,2.107,2.107,0,0,0-1.3.391,1.151,1.151,0,0,0-.523.945h-1.453a2,2,0,0,1,.449-1.223,3.066,3.066,0,0,1,1.219-.934,4.1,4.1,0,0,1,1.691-.344,3.342,3.342,0,0,1,2.289.73,2.635,2.635,0,0,1,.859,2.012v3.891a4.757,4.757,0,0,0,.3,1.852V0Zm-2.4-1.1a2.54,2.54,0,0,0,1.289-.352,2.127,2.127,0,0,0,.883-.914V-4.1h-1.133q-2.656,0-2.656,1.555a1.316,1.316,0,0,0,.453,1.063A1.742,1.742,0,0,0,169.648-1.1Zm5.914.344a.905.905,0,0,1,.223-.625.848.848,0,0,1,.668-.25.874.874,0,0,1,.676.25.887.887,0,0,1,.23.625.839.839,0,0,1-.23.6.89.89,0,0,1-.676.242.863.863,0,0,1-.668-.242A.855.855,0,0,1,175.563-.758Z" transform="translate(764.176 4517.799)" fill="#12263f"/>
    <path id="Trazado_1262726" data-name="Trazado 1262726" d="M.742-4.3a4.952,4.952,0,0,1,.922-3.129A2.915,2.915,0,0,1,4.078-8.609,2.932,2.932,0,0,1,6.43-7.594V-12H7.875V0H6.547l-.07-.906A2.943,2.943,0,0,1,4.063.156a2.887,2.887,0,0,1-2.395-1.2A5.008,5.008,0,0,1,.742-4.187Zm1.445.164a3.749,3.749,0,0,0,.594,2.25,1.92,1.92,0,0,0,1.641.813A2.108,2.108,0,0,0,6.43-2.3V-6.187a2.125,2.125,0,0,0-1.992-1.2,1.929,1.929,0,0,0-1.656.82A4.128,4.128,0,0,0,2.188-4.133ZM13.625.156a3.693,3.693,0,0,1-2.8-1.129A4.19,4.19,0,0,1,9.75-3.992v-.266A5.073,5.073,0,0,1,10.23-6.5a3.748,3.748,0,0,1,1.344-1.547,3.378,3.378,0,0,1,1.871-.559,3.166,3.166,0,0,1,2.563,1.086,4.7,4.7,0,0,1,.914,3.109v.6H11.2a3,3,0,0,0,.73,2.02,2.3,2.3,0,0,0,1.777.77A2.517,2.517,0,0,0,15-1.336a3.259,3.259,0,0,0,.93-.828l.883.688A3.55,3.55,0,0,1,13.625.156Zm-.18-7.578a1.928,1.928,0,0,0-1.469.637A3.1,3.1,0,0,0,11.242-5h4.234v-.109a2.753,2.753,0,0,0-.594-1.707A1.815,1.815,0,0,0,13.445-7.422ZM24.125,0H22.68V-12h1.445Zm7.531,0a3.036,3.036,0,0,1-.2-.891A3.225,3.225,0,0,1,29.047.156,2.984,2.984,0,0,1,27-.551a2.287,2.287,0,0,1-.8-1.793,2.39,2.39,0,0,1,1-2.051,4.733,4.733,0,0,1,2.824-.73H31.43v-.664A1.623,1.623,0,0,0,30.977-7a1.821,1.821,0,0,0-1.336-.449,2.108,2.108,0,0,0-1.3.391,1.151,1.151,0,0,0-.523.945H26.367a2,2,0,0,1,.449-1.223,3.066,3.066,0,0,1,1.219-.934,4.1,4.1,0,0,1,1.691-.344,3.342,3.342,0,0,1,2.289.73,2.635,2.635,0,0,1,.859,2.012v3.891a4.757,4.757,0,0,0,.3,1.852V0Zm-2.4-1.1a2.54,2.54,0,0,0,1.289-.352,2.127,2.127,0,0,0,.883-.914V-4.1H30.3q-2.656,0-2.656,1.555a1.316,1.316,0,0,0,.453,1.063A1.742,1.742,0,0,0,29.258-1.1Zm13.234.078a2.082,2.082,0,0,0,1.352-.469,1.649,1.649,0,0,0,.641-1.172h1.367a2.621,2.621,0,0,1-.5,1.383,3.293,3.293,0,0,1-1.23,1.047,3.55,3.55,0,0,1-1.629.391A3.482,3.482,0,0,1,39.746-1a4.59,4.59,0,0,1-1.02-3.152v-.242a5.089,5.089,0,0,1,.453-2.2,3.451,3.451,0,0,1,1.3-1.492,3.7,3.7,0,0,1,2-.531,3.39,3.39,0,0,1,2.363.852,3.043,3.043,0,0,1,1,2.211H44.484a1.992,1.992,0,0,0-.621-1.348,1.932,1.932,0,0,0-1.379-.527,2.023,2.023,0,0,0-1.707.793,3.724,3.724,0,0,0-.605,2.293v.273a3.65,3.65,0,0,0,.6,2.25A2.033,2.033,0,0,0,42.492-1.023ZM49.047,0H47.6V-8.453h1.445ZM47.484-10.7a.863.863,0,0,1,.215-.594.807.807,0,0,1,.637-.242.819.819,0,0,1,.641.242.854.854,0,0,1,.219.594.826.826,0,0,1-.219.586.834.834,0,0,1-.641.234.821.821,0,0,1-.637-.234A.834.834,0,0,1,47.484-10.7Zm5.242,2.242.047,1.063A3.08,3.08,0,0,1,55.3-8.609q2.68,0,2.7,3.023V0H56.563V-5.594a1.946,1.946,0,0,0-.418-1.352,1.675,1.675,0,0,0-1.277-.437,2.086,2.086,0,0,0-1.234.375,2.546,2.546,0,0,0-.828.984V0H51.359V-8.453ZM62.148-10.5v2.047h1.578v1.117H62.148v5.242a1.171,1.171,0,0,0,.211.762.888.888,0,0,0,.719.254,3.5,3.5,0,0,0,.688-.094V0a4.19,4.19,0,0,1-1.109.156A1.8,1.8,0,0,1,61.2-.43,2.517,2.517,0,0,1,60.7-2.094V-7.336H59.164V-8.453H60.7V-10.5ZM70.633-.836a3.07,3.07,0,0,1-2.477.992A2.628,2.628,0,0,1,66.1-.629a3.4,3.4,0,0,1-.715-2.324v-5.5h1.445v5.461q0,1.922,1.563,1.922a2.163,2.163,0,0,0,2.2-1.234V-8.453h1.445V0H70.664Zm7.688-6.32a4.331,4.331,0,0,0-.711-.055A1.9,1.9,0,0,0,75.68-6V0H74.234V-8.453h1.406l.023.977A2.251,2.251,0,0,1,77.68-8.609a1.477,1.477,0,0,1,.641.109ZM84.555,0a3.036,3.036,0,0,1-.2-.891A3.225,3.225,0,0,1,81.945.156a2.984,2.984,0,0,1-2.051-.707,2.288,2.288,0,0,1-.8-1.793,2.39,2.39,0,0,1,1-2.051,4.733,4.733,0,0,1,2.824-.73h1.406v-.664A1.623,1.623,0,0,0,83.875-7a1.821,1.821,0,0,0-1.336-.449,2.108,2.108,0,0,0-1.3.391,1.151,1.151,0,0,0-.523.945H79.266a2,2,0,0,1,.449-1.223,3.066,3.066,0,0,1,1.219-.934,4.1,4.1,0,0,1,1.691-.344,3.342,3.342,0,0,1,2.289.73,2.635,2.635,0,0,1,.859,2.012v3.891a4.757,4.757,0,0,0,.3,1.852V0Zm-2.4-1.1a2.54,2.54,0,0,0,1.289-.352,2.127,2.127,0,0,0,.883-.914V-4.1H83.2q-2.656,0-2.656,1.555a1.316,1.316,0,0,0,.453,1.063A1.742,1.742,0,0,0,82.156-1.1ZM93.445-7.43a3.073,3.073,0,0,1,2.5-1.18q2.68,0,2.7,3.023V0H97.2V-5.594a1.946,1.946,0,0,0-.418-1.352,1.675,1.675,0,0,0-1.277-.437,2.086,2.086,0,0,0-1.234.375,2.546,2.546,0,0,0-.828.984V0H92V-12h1.445ZM106.031,0a3.036,3.036,0,0,1-.2-.891A3.225,3.225,0,0,1,103.422.156a2.984,2.984,0,0,1-2.051-.707,2.288,2.288,0,0,1-.8-1.793,2.39,2.39,0,0,1,1-2.051,4.733,4.733,0,0,1,2.824-.73H105.8v-.664A1.623,1.623,0,0,0,105.352-7a1.821,1.821,0,0,0-1.336-.449,2.108,2.108,0,0,0-1.3.391,1.151,1.151,0,0,0-.523.945h-1.453a2,2,0,0,1,.449-1.223,3.066,3.066,0,0,1,1.219-.934,4.1,4.1,0,0,1,1.691-.344,3.342,3.342,0,0,1,2.289.73,2.635,2.635,0,0,1,.859,2.012v3.891a4.757,4.757,0,0,0,.3,1.852V0Zm-2.4-1.1a2.54,2.54,0,0,0,1.289-.352,2.127,2.127,0,0,0,.883-.914V-4.1h-1.133q-2.656,0-2.656,1.555a1.316,1.316,0,0,0,.453,1.063A1.742,1.742,0,0,0,103.633-1.1Zm9.273.078a2.082,2.082,0,0,0,1.352-.469,1.649,1.649,0,0,0,.641-1.172h1.367a2.621,2.621,0,0,1-.5,1.383,3.293,3.293,0,0,1-1.23,1.047,3.55,3.55,0,0,1-1.629.391A3.482,3.482,0,0,1,110.16-1a4.59,4.59,0,0,1-1.02-3.152v-.242a5.089,5.089,0,0,1,.453-2.2,3.451,3.451,0,0,1,1.3-1.492,3.7,3.7,0,0,1,2-.531,3.39,3.39,0,0,1,2.363.852,3.043,3.043,0,0,1,1,2.211H114.9a1.992,1.992,0,0,0-.621-1.348,1.932,1.932,0,0,0-1.379-.527,2.023,2.023,0,0,0-1.707.793,3.724,3.724,0,0,0-.605,2.293v.273a3.65,3.65,0,0,0,.6,2.25A2.033,2.033,0,0,0,112.906-1.023ZM119.461,0h-1.445V-8.453h1.445ZM117.9-10.7a.863.863,0,0,1,.215-.594.807.807,0,0,1,.637-.242.819.819,0,0,1,.641.242.854.854,0,0,1,.219.594.826.826,0,0,1-.219.586.834.834,0,0,1-.641.234.821.821,0,0,1-.637-.234A.834.834,0,0,1,117.9-10.7ZM126.992,0a3.036,3.036,0,0,1-.2-.891A3.225,3.225,0,0,1,124.383.156a2.984,2.984,0,0,1-2.051-.707,2.288,2.288,0,0,1-.8-1.793,2.39,2.39,0,0,1,1-2.051,4.733,4.733,0,0,1,2.824-.73h1.406v-.664A1.623,1.623,0,0,0,126.313-7a1.821,1.821,0,0,0-1.336-.449,2.108,2.108,0,0,0-1.3.391,1.151,1.151,0,0,0-.523.945H121.7a2,2,0,0,1,.449-1.223,3.066,3.066,0,0,1,1.219-.934,4.1,4.1,0,0,1,1.691-.344,3.342,3.342,0,0,1,2.289.73,2.635,2.635,0,0,1,.859,2.012v3.891a4.757,4.757,0,0,0,.3,1.852V0Zm-2.4-1.1a2.54,2.54,0,0,0,1.289-.352,2.127,2.127,0,0,0,.883-.914V-4.1h-1.133q-2.656,0-2.656,1.555a1.316,1.316,0,0,0,.453,1.063A1.742,1.742,0,0,0,124.594-1.1ZM139.656,0a3.036,3.036,0,0,1-.2-.891A3.225,3.225,0,0,1,137.047.156,2.984,2.984,0,0,1,135-.551a2.287,2.287,0,0,1-.8-1.793,2.39,2.39,0,0,1,1-2.051,4.733,4.733,0,0,1,2.824-.73h1.406v-.664A1.623,1.623,0,0,0,138.977-7a1.821,1.821,0,0,0-1.336-.449,2.107,2.107,0,0,0-1.3.391,1.151,1.151,0,0,0-.523.945h-1.453a2,2,0,0,1,.449-1.223,3.066,3.066,0,0,1,1.219-.934,4.1,4.1,0,0,1,1.691-.344,3.342,3.342,0,0,1,2.289.73,2.635,2.635,0,0,1,.859,2.012v3.891a4.757,4.757,0,0,0,.3,1.852V0Zm-2.4-1.1a2.54,2.54,0,0,0,1.289-.352,2.127,2.127,0,0,0,.883-.914V-4.1H138.3q-2.656,0-2.656,1.555a1.316,1.316,0,0,0,.453,1.063A1.742,1.742,0,0,0,137.258-1.1Zm9.969-6.055a4.331,4.331,0,0,0-.711-.055A1.9,1.9,0,0,0,144.586-6V0h-1.445V-8.453h1.406l.023.977a2.251,2.251,0,0,1,2.016-1.133,1.477,1.477,0,0,1,.641.109Zm5.414,0a4.331,4.331,0,0,0-.711-.055A1.9,1.9,0,0,0,150-6V0h-1.445V-8.453h1.406l.023.977A2.251,2.251,0,0,1,152-8.609a1.477,1.477,0,0,1,.641.109ZM155.539,0h-1.445V-8.453h1.445Zm-1.562-10.7a.863.863,0,0,1,.215-.594.807.807,0,0,1,.637-.242.819.819,0,0,1,.641.242.854.854,0,0,1,.219.594.826.826,0,0,1-.219.586.834.834,0,0,1-.641.234.821.821,0,0,1-.637-.234A.834.834,0,0,1,153.977-10.7Zm11.031,6.563a5.026,5.026,0,0,1-.891,3.113A2.846,2.846,0,0,1,161.727.156,2.947,2.947,0,0,1,159.25-.977L159.18,0h-1.328V-12H159.3v4.477a2.93,2.93,0,0,1,2.414-1.086,2.863,2.863,0,0,1,2.418,1.164,5.177,5.177,0,0,1,.879,3.188ZM163.563-4.3a3.906,3.906,0,0,0-.57-2.281,1.888,1.888,0,0,0-1.641-.8A2.122,2.122,0,0,0,159.3-6.055V-2.4a2.181,2.181,0,0,0,2.07,1.328,1.878,1.878,0,0,0,1.617-.8A4.153,4.153,0,0,0,163.563-4.3ZM172.047,0a3.036,3.036,0,0,1-.2-.891A3.225,3.225,0,0,1,169.438.156a2.984,2.984,0,0,1-2.051-.707,2.287,2.287,0,0,1-.8-1.793,2.39,2.39,0,0,1,1-2.051,4.733,4.733,0,0,1,2.824-.73h1.406v-.664A1.623,1.623,0,0,0,171.367-7a1.821,1.821,0,0,0-1.336-.449,2.107,2.107,0,0,0-1.3.391,1.151,1.151,0,0,0-.523.945h-1.453a2,2,0,0,1,.449-1.223,3.066,3.066,0,0,1,1.219-.934,4.1,4.1,0,0,1,1.691-.344,3.342,3.342,0,0,1,2.289.73,2.635,2.635,0,0,1,.859,2.012v3.891a4.757,4.757,0,0,0,.3,1.852V0Zm-2.4-1.1a2.54,2.54,0,0,0,1.289-.352,2.127,2.127,0,0,0,.883-.914V-4.1h-1.133q-2.656,0-2.656,1.555a1.316,1.316,0,0,0,.453,1.063A1.742,1.742,0,0,0,169.648-1.1Zm5.914.344a.905.905,0,0,1,.223-.625.848.848,0,0,1,.668-.25.874.874,0,0,1,.676.25.887.887,0,0,1,.23.625.839.839,0,0,1-.23.6.89.89,0,0,1-.676.242.863.863,0,0,1-.668-.242A.855.855,0,0,1,175.563-.758Z" transform="translate(1022.176 4517.799)" fill="#12263f"/>
    <path id="Trazado_1262727" data-name="Trazado 1262727" d="M8.234-4.133a5.062,5.062,0,0,1-.883,3.109A2.829,2.829,0,0,1,4.961.156,3.1,3.1,0,0,1,2.539-.82V3.25H1.094v-11.7h1.32l.07.938A2.977,2.977,0,0,1,4.938-8.609a2.882,2.882,0,0,1,2.41,1.148,5.117,5.117,0,0,1,.887,3.2ZM6.789-4.3A3.735,3.735,0,0,0,6.18-6.555a1.963,1.963,0,0,0-1.672-.828A2.125,2.125,0,0,0,2.539-6.219V-2.18A2.129,2.129,0,0,0,4.523-1.023a1.954,1.954,0,0,0,1.652-.824A4.077,4.077,0,0,0,6.789-4.3Zm8.5,4.3a3.036,3.036,0,0,1-.2-.891A3.225,3.225,0,0,1,12.68.156a2.984,2.984,0,0,1-2.051-.707,2.287,2.287,0,0,1-.8-1.793,2.39,2.39,0,0,1,1-2.051,4.733,4.733,0,0,1,2.824-.73h1.406v-.664A1.623,1.623,0,0,0,14.609-7a1.821,1.821,0,0,0-1.336-.449,2.107,2.107,0,0,0-1.3.391,1.151,1.151,0,0,0-.523.945H10a2,2,0,0,1,.449-1.223,3.066,3.066,0,0,1,1.219-.934,4.1,4.1,0,0,1,1.691-.344,3.342,3.342,0,0,1,2.289.73,2.635,2.635,0,0,1,.859,2.012v3.891a4.757,4.757,0,0,0,.3,1.852V0Zm-2.4-1.1a2.54,2.54,0,0,0,1.289-.352,2.127,2.127,0,0,0,.883-.914V-4.1H13.93q-2.656,0-2.656,1.555a1.316,1.316,0,0,0,.453,1.063A1.742,1.742,0,0,0,12.891-1.1Zm7.25-7.352.047,1.063a3.08,3.08,0,0,1,2.531-1.219q2.68,0,2.7,3.023V0H23.977V-5.594a1.946,1.946,0,0,0-.418-1.352,1.675,1.675,0,0,0-1.277-.437,2.086,2.086,0,0,0-1.234.375,2.546,2.546,0,0,0-.828.984V0H18.773V-8.453ZM29.563-10.5v2.047h1.578v1.117H29.563v5.242a1.171,1.171,0,0,0,.211.762.888.888,0,0,0,.719.254,3.5,3.5,0,0,0,.688-.094V0A4.19,4.19,0,0,1,30.07.156,1.8,1.8,0,0,1,28.609-.43a2.517,2.517,0,0,1-.492-1.664V-7.336H26.578V-8.453h1.539V-10.5ZM38.047,0a3.036,3.036,0,0,1-.2-.891A3.225,3.225,0,0,1,35.438.156a2.984,2.984,0,0,1-2.051-.707,2.287,2.287,0,0,1-.8-1.793,2.39,2.39,0,0,1,1-2.051,4.733,4.733,0,0,1,2.824-.73H37.82v-.664A1.623,1.623,0,0,0,37.367-7a1.821,1.821,0,0,0-1.336-.449,2.107,2.107,0,0,0-1.3.391,1.151,1.151,0,0,0-.523.945H32.758a2,2,0,0,1,.449-1.223,3.066,3.066,0,0,1,1.219-.934,4.1,4.1,0,0,1,1.691-.344,3.342,3.342,0,0,1,2.289.73,2.635,2.635,0,0,1,.859,2.012v3.891a4.757,4.757,0,0,0,.3,1.852V0Zm-2.4-1.1a2.54,2.54,0,0,0,1.289-.352,2.127,2.127,0,0,0,.883-.914V-4.1H36.688q-2.656,0-2.656,1.555a1.316,1.316,0,0,0,.453,1.063A1.742,1.742,0,0,0,35.648-1.1ZM43.1,0H41.656V-12H43.1Zm1.93-4.3a4.993,4.993,0,0,1,.488-2.234A3.643,3.643,0,0,1,46.879-8.07a3.7,3.7,0,0,1,1.988-.539,3.565,3.565,0,0,1,2.793,1.2,4.6,4.6,0,0,1,1.066,3.18v.1a5.036,5.036,0,0,1-.473,2.215A3.589,3.589,0,0,1,50.9-.391a3.743,3.743,0,0,1-2.02.547,3.556,3.556,0,0,1-2.785-1.2A4.575,4.575,0,0,1,45.031-4.2Zm1.453.172a3.616,3.616,0,0,0,.652,2.258,2.088,2.088,0,0,0,1.746.852,2.075,2.075,0,0,0,1.75-.863A3.955,3.955,0,0,0,51.281-4.3a3.61,3.61,0,0,0-.66-2.254,2.1,2.1,0,0,0-1.754-.863,2.075,2.075,0,0,0-1.727.852A3.925,3.925,0,0,0,46.484-4.133Zm9.422-4.32.047,1.063a3.08,3.08,0,0,1,2.531-1.219q2.68,0,2.7,3.023V0H59.742V-5.594a1.946,1.946,0,0,0-.418-1.352,1.675,1.675,0,0,0-1.277-.437,2.086,2.086,0,0,0-1.234.375,2.546,2.546,0,0,0-.828.984V0H54.539V-8.453ZM66.875.156a3.693,3.693,0,0,1-2.8-1.129A4.19,4.19,0,0,1,63-3.992v-.266A5.073,5.073,0,0,1,63.48-6.5a3.748,3.748,0,0,1,1.344-1.547A3.378,3.378,0,0,1,66.7-8.609a3.166,3.166,0,0,1,2.563,1.086,4.7,4.7,0,0,1,.914,3.109v.6H64.445a3,3,0,0,0,.73,2.02,2.3,2.3,0,0,0,1.777.77,2.517,2.517,0,0,0,1.3-.312,3.259,3.259,0,0,0,.93-.828l.883.688A3.55,3.55,0,0,1,66.875.156ZM66.7-7.422a1.928,1.928,0,0,0-1.469.637A3.1,3.1,0,0,0,64.492-5h4.234v-.109a2.753,2.753,0,0,0-.594-1.707A1.815,1.815,0,0,0,66.7-7.422Zm10.07,5.18a1.064,1.064,0,0,0-.441-.91,4.249,4.249,0,0,0-1.539-.559,7.277,7.277,0,0,1-1.742-.562,2.479,2.479,0,0,1-.953-.781,1.869,1.869,0,0,1-.309-1.078,2.193,2.193,0,0,1,.879-1.758,3.432,3.432,0,0,1,2.246-.719,3.532,3.532,0,0,1,2.332.742,2.357,2.357,0,0,1,.895,1.9H76.68a1.3,1.3,0,0,0-.5-1.023,1.888,1.888,0,0,0-1.27-.43,1.976,1.976,0,0,0-1.234.344,1.082,1.082,0,0,0-.445.9.877.877,0,0,0,.414.789,5.1,5.1,0,0,0,1.5.508,7.8,7.8,0,0,1,1.754.578,2.558,2.558,0,0,1,1,.809,1.988,1.988,0,0,1,.324,1.152A2.163,2.163,0,0,1,77.3-.527a3.8,3.8,0,0,1-2.352.684,4.257,4.257,0,0,1-1.8-.359,2.922,2.922,0,0,1-1.223-1A2.42,2.42,0,0,1,71.492-2.6h1.445a1.5,1.5,0,0,0,.582,1.152,2.258,2.258,0,0,0,1.434.426,2.331,2.331,0,0,0,1.316-.332A1.02,1.02,0,0,0,76.766-2.242Zm3.281,4.508-.82-.562a3.77,3.77,0,0,0,.766-2.109v-1.3h1.414V-.578A3.559,3.559,0,0,1,81.02,1,3.7,3.7,0,0,1,80.047,2.266ZM87.906,0V-7.336H86.57V-8.453h1.336V-9.32a2.878,2.878,0,0,1,.727-2.1,2.745,2.745,0,0,1,2.055-.742,3.793,3.793,0,0,1,.992.133L91.6-10.859a4.151,4.151,0,0,0-.781-.07,1.413,1.413,0,0,0-1.086.41,1.66,1.66,0,0,0-.383,1.176v.891h1.8v1.117h-1.8V0ZM97.969,0a3.036,3.036,0,0,1-.2-.891A3.225,3.225,0,0,1,95.359.156a2.984,2.984,0,0,1-2.051-.707,2.288,2.288,0,0,1-.8-1.793,2.39,2.39,0,0,1,1-2.051,4.733,4.733,0,0,1,2.824-.73h1.406v-.664A1.623,1.623,0,0,0,97.289-7a1.821,1.821,0,0,0-1.336-.449,2.108,2.108,0,0,0-1.3.391,1.151,1.151,0,0,0-.523.945H92.68a2,2,0,0,1,.449-1.223,3.066,3.066,0,0,1,1.219-.934,4.1,4.1,0,0,1,1.691-.344,3.342,3.342,0,0,1,2.289.73,2.635,2.635,0,0,1,.859,2.012v3.891a4.757,4.757,0,0,0,.3,1.852V0Zm-2.4-1.1a2.54,2.54,0,0,0,1.289-.352,2.127,2.127,0,0,0,.883-.914V-4.1H96.609q-2.656,0-2.656,1.555a1.316,1.316,0,0,0,.453,1.063A1.742,1.742,0,0,0,95.57-1.1ZM103.023,0h-1.445V-12h1.445Zm1.961-4.3a4.952,4.952,0,0,1,.922-3.129,2.915,2.915,0,0,1,2.414-1.184,2.932,2.932,0,0,1,2.352,1.016V-12h1.445V0h-1.328l-.07-.906A2.943,2.943,0,0,1,108.3.156a2.887,2.887,0,0,1-2.395-1.2,5.008,5.008,0,0,1-.926-3.141Zm1.445.164a3.749,3.749,0,0,0,.594,2.25,1.92,1.92,0,0,0,1.641.813A2.109,2.109,0,0,0,110.672-2.3V-6.187a2.125,2.125,0,0,0-1.992-1.2,1.929,1.929,0,0,0-1.656.82A4.128,4.128,0,0,0,106.43-4.133ZM119.578,0a3.036,3.036,0,0,1-.2-.891A3.225,3.225,0,0,1,116.969.156a2.984,2.984,0,0,1-2.051-.707,2.288,2.288,0,0,1-.8-1.793,2.39,2.39,0,0,1,1-2.051,4.733,4.733,0,0,1,2.824-.73h1.406v-.664A1.623,1.623,0,0,0,118.9-7a1.821,1.821,0,0,0-1.336-.449,2.108,2.108,0,0,0-1.3.391,1.151,1.151,0,0,0-.523.945h-1.453a2,2,0,0,1,.449-1.223,3.066,3.066,0,0,1,1.219-.934,4.1,4.1,0,0,1,1.691-.344,3.342,3.342,0,0,1,2.289.73,2.635,2.635,0,0,1,.859,2.012v3.891a4.757,4.757,0,0,0,.3,1.852V0Zm-2.4-1.1a2.54,2.54,0,0,0,1.289-.352,2.127,2.127,0,0,0,.883-.914V-4.1h-1.133q-2.656,0-2.656,1.555a1.316,1.316,0,0,0,.453,1.063A1.742,1.742,0,0,0,117.18-1.1Zm10.8-1.141a1.064,1.064,0,0,0-.441-.91A4.249,4.249,0,0,0,126-3.711a7.277,7.277,0,0,1-1.742-.562,2.479,2.479,0,0,1-.953-.781A1.869,1.869,0,0,1,123-6.133a2.193,2.193,0,0,1,.879-1.758,3.432,3.432,0,0,1,2.246-.719,3.532,3.532,0,0,1,2.332.742,2.357,2.357,0,0,1,.895,1.9H127.9a1.3,1.3,0,0,0-.5-1.023,1.888,1.888,0,0,0-1.27-.43,1.976,1.976,0,0,0-1.234.344,1.082,1.082,0,0,0-.445.9.877.877,0,0,0,.414.789,5.1,5.1,0,0,0,1.5.508,7.8,7.8,0,0,1,1.754.578,2.558,2.558,0,0,1,1,.809,1.988,1.988,0,0,1,.324,1.152,2.163,2.163,0,0,1-.906,1.816,3.8,3.8,0,0,1-2.352.684,4.257,4.257,0,0,1-1.8-.359,2.922,2.922,0,0,1-1.223-1,2.42,2.42,0,0,1-.441-1.395h1.445a1.5,1.5,0,0,0,.582,1.152,2.258,2.258,0,0,0,1.434.426,2.331,2.331,0,0,0,1.316-.332A1.02,1.02,0,0,0,127.984-2.242Zm3.281,4.508-.82-.562a3.77,3.77,0,0,0,.766-2.109v-1.3h1.414V-.578A3.559,3.559,0,0,1,132.238,1,3.7,3.7,0,0,1,131.266,2.266Zm12.07-4.508a1.064,1.064,0,0,0-.441-.91,4.249,4.249,0,0,0-1.539-.559,7.277,7.277,0,0,1-1.742-.562,2.479,2.479,0,0,1-.953-.781,1.869,1.869,0,0,1-.309-1.078,2.193,2.193,0,0,1,.879-1.758,3.432,3.432,0,0,1,2.246-.719,3.532,3.532,0,0,1,2.332.742,2.357,2.357,0,0,1,.895,1.9H143.25a1.3,1.3,0,0,0-.5-1.023,1.888,1.888,0,0,0-1.27-.43,1.976,1.976,0,0,0-1.234.344,1.082,1.082,0,0,0-.445.9.877.877,0,0,0,.414.789,5.1,5.1,0,0,0,1.5.508,7.8,7.8,0,0,1,1.754.578,2.558,2.558,0,0,1,1,.809,1.988,1.988,0,0,1,.324,1.152,2.163,2.163,0,0,1-.906,1.816,3.8,3.8,0,0,1-2.352.684,4.257,4.257,0,0,1-1.8-.359,2.922,2.922,0,0,1-1.223-1,2.42,2.42,0,0,1-.441-1.395h1.445a1.5,1.5,0,0,0,.582,1.152,2.258,2.258,0,0,0,1.434.426,2.331,2.331,0,0,0,1.316-.332A1.02,1.02,0,0,0,143.336-2.242Zm4.773-5.187a3.073,3.073,0,0,1,2.5-1.18q2.68,0,2.7,3.023V0h-1.445V-5.594a1.946,1.946,0,0,0-.418-1.352,1.675,1.675,0,0,0-1.277-.437,2.086,2.086,0,0,0-1.234.375,2.546,2.546,0,0,0-.828.984V0h-1.445V-12h1.445ZM155.094-4.3a4.993,4.993,0,0,1,.488-2.234,3.642,3.642,0,0,1,1.359-1.531,3.7,3.7,0,0,1,1.988-.539,3.565,3.565,0,0,1,2.793,1.2,4.6,4.6,0,0,1,1.066,3.18v.1a5.036,5.036,0,0,1-.473,2.215,3.589,3.589,0,0,1-1.352,1.527,3.743,3.743,0,0,1-2.02.547,3.556,3.556,0,0,1-2.785-1.2A4.575,4.575,0,0,1,155.094-4.2Zm1.453.172a3.616,3.616,0,0,0,.652,2.258,2.088,2.088,0,0,0,1.746.852,2.075,2.075,0,0,0,1.75-.863,3.954,3.954,0,0,0,.648-2.418,3.61,3.61,0,0,0-.66-2.254,2.1,2.1,0,0,0-1.754-.863,2.075,2.075,0,0,0-1.727.852A3.925,3.925,0,0,0,156.547-4.133Zm12.141-3.023a4.331,4.331,0,0,0-.711-.055A1.9,1.9,0,0,0,166.047-6V0H164.6V-8.453h1.406l.023.977a2.251,2.251,0,0,1,2.016-1.133,1.477,1.477,0,0,1,.641.109Zm3.68-3.344v2.047h1.578v1.117h-1.578v5.242a1.171,1.171,0,0,0,.211.762.888.888,0,0,0,.719.254,3.5,3.5,0,0,0,.688-.094V0a4.19,4.19,0,0,1-1.109.156,1.8,1.8,0,0,1-1.461-.586,2.517,2.517,0,0,1-.492-1.664V-7.336h-1.539V-8.453h1.539V-10.5Zm8.188,8.258a1.064,1.064,0,0,0-.441-.91,4.249,4.249,0,0,0-1.539-.559,7.277,7.277,0,0,1-1.742-.562,2.479,2.479,0,0,1-.953-.781,1.869,1.869,0,0,1-.309-1.078,2.193,2.193,0,0,1,.879-1.758,3.432,3.432,0,0,1,2.246-.719,3.532,3.532,0,0,1,2.332.742,2.357,2.357,0,0,1,.895,1.9h-1.453a1.3,1.3,0,0,0-.5-1.023,1.888,1.888,0,0,0-1.27-.43,1.976,1.976,0,0,0-1.234.344,1.082,1.082,0,0,0-.445.9.877.877,0,0,0,.414.789,5.1,5.1,0,0,0,1.5.508,7.8,7.8,0,0,1,1.754.578,2.558,2.558,0,0,1,1,.809A1.988,1.988,0,0,1,182-2.344a2.163,2.163,0,0,1-.906,1.816,3.8,3.8,0,0,1-2.352.684,4.257,4.257,0,0,1-1.8-.359,2.922,2.922,0,0,1-1.223-1,2.42,2.42,0,0,1-.441-1.395h1.445a1.5,1.5,0,0,0,.582,1.152,2.258,2.258,0,0,0,1.434.426,2.331,2.331,0,0,0,1.316-.332A1.02,1.02,0,0,0,180.555-2.242Zm3.359,1.484a.905.905,0,0,1,.223-.625.848.848,0,0,1,.668-.25.874.874,0,0,1,.676.25.887.887,0,0,1,.23.625.839.839,0,0,1-.23.6.89.89,0,0,1-.676.242.863.863,0,0,1-.668-.242A.855.855,0,0,1,183.914-.758Z" transform="translate(1022.176 4735.799)" fill="#12263f"/>
    <path id="Trazado_1262728" data-name="Trazado 1262728" d="M.742-4.3a4.952,4.952,0,0,1,.922-3.129A2.915,2.915,0,0,1,4.078-8.609,2.932,2.932,0,0,1,6.43-7.594V-12H7.875V0H6.547l-.07-.906A2.943,2.943,0,0,1,4.063.156a2.887,2.887,0,0,1-2.395-1.2A5.008,5.008,0,0,1,.742-4.187Zm1.445.164a3.749,3.749,0,0,0,.594,2.25,1.92,1.92,0,0,0,1.641.813A2.108,2.108,0,0,0,6.43-2.3V-6.187a2.125,2.125,0,0,0-1.992-1.2,1.929,1.929,0,0,0-1.656.82A4.128,4.128,0,0,0,2.188-4.133ZM13.625.156a3.693,3.693,0,0,1-2.8-1.129A4.19,4.19,0,0,1,9.75-3.992v-.266A5.073,5.073,0,0,1,10.23-6.5a3.748,3.748,0,0,1,1.344-1.547,3.378,3.378,0,0,1,1.871-.559,3.166,3.166,0,0,1,2.563,1.086,4.7,4.7,0,0,1,.914,3.109v.6H11.2a3,3,0,0,0,.73,2.02,2.3,2.3,0,0,0,1.777.77A2.517,2.517,0,0,0,15-1.336a3.259,3.259,0,0,0,.93-.828l.883.688A3.55,3.55,0,0,1,13.625.156Zm-.18-7.578a1.928,1.928,0,0,0-1.469.637A3.1,3.1,0,0,0,11.242-5h4.234v-.109a2.753,2.753,0,0,0-.594-1.707A1.815,1.815,0,0,0,13.445-7.422ZM24.125,0H22.68V-12h1.445Zm7.531,0a3.036,3.036,0,0,1-.2-.891A3.225,3.225,0,0,1,29.047.156,2.984,2.984,0,0,1,27-.551a2.287,2.287,0,0,1-.8-1.793,2.39,2.39,0,0,1,1-2.051,4.733,4.733,0,0,1,2.824-.73H31.43v-.664A1.623,1.623,0,0,0,30.977-7a1.821,1.821,0,0,0-1.336-.449,2.108,2.108,0,0,0-1.3.391,1.151,1.151,0,0,0-.523.945H26.367a2,2,0,0,1,.449-1.223,3.066,3.066,0,0,1,1.219-.934,4.1,4.1,0,0,1,1.691-.344,3.342,3.342,0,0,1,2.289.73,2.635,2.635,0,0,1,.859,2.012v3.891a4.757,4.757,0,0,0,.3,1.852V0Zm-2.4-1.1a2.54,2.54,0,0,0,1.289-.352,2.127,2.127,0,0,0,.883-.914V-4.1H30.3q-2.656,0-2.656,1.555a1.316,1.316,0,0,0,.453,1.063A1.742,1.742,0,0,0,29.258-1.1Zm13.234.078a2.082,2.082,0,0,0,1.352-.469,1.649,1.649,0,0,0,.641-1.172h1.367a2.621,2.621,0,0,1-.5,1.383,3.293,3.293,0,0,1-1.23,1.047,3.55,3.55,0,0,1-1.629.391A3.482,3.482,0,0,1,39.746-1a4.59,4.59,0,0,1-1.02-3.152v-.242a5.089,5.089,0,0,1,.453-2.2,3.451,3.451,0,0,1,1.3-1.492,3.7,3.7,0,0,1,2-.531,3.39,3.39,0,0,1,2.363.852,3.043,3.043,0,0,1,1,2.211H44.484a1.992,1.992,0,0,0-.621-1.348,1.932,1.932,0,0,0-1.379-.527,2.023,2.023,0,0,0-1.707.793,3.724,3.724,0,0,0-.605,2.293v.273a3.65,3.65,0,0,0,.6,2.25A2.033,2.033,0,0,0,42.492-1.023ZM49.047,0H47.6V-8.453h1.445ZM47.484-10.7a.863.863,0,0,1,.215-.594.807.807,0,0,1,.637-.242.819.819,0,0,1,.641.242.854.854,0,0,1,.219.594.826.826,0,0,1-.219.586.834.834,0,0,1-.641.234.821.821,0,0,1-.637-.234A.834.834,0,0,1,47.484-10.7Zm5.242,2.242.047,1.063A3.08,3.08,0,0,1,55.3-8.609q2.68,0,2.7,3.023V0H56.563V-5.594a1.946,1.946,0,0,0-.418-1.352,1.675,1.675,0,0,0-1.277-.437,2.086,2.086,0,0,0-1.234.375,2.546,2.546,0,0,0-.828.984V0H51.359V-8.453ZM62.148-10.5v2.047h1.578v1.117H62.148v5.242a1.171,1.171,0,0,0,.211.762.888.888,0,0,0,.719.254,3.5,3.5,0,0,0,.688-.094V0a4.19,4.19,0,0,1-1.109.156A1.8,1.8,0,0,1,61.2-.43,2.517,2.517,0,0,1,60.7-2.094V-7.336H59.164V-8.453H60.7V-10.5ZM70.633-.836a3.07,3.07,0,0,1-2.477.992A2.628,2.628,0,0,1,66.1-.629a3.4,3.4,0,0,1-.715-2.324v-5.5h1.445v5.461q0,1.922,1.563,1.922a2.163,2.163,0,0,0,2.2-1.234V-8.453h1.445V0H70.664Zm7.688-6.32a4.331,4.331,0,0,0-.711-.055A1.9,1.9,0,0,0,75.68-6V0H74.234V-8.453h1.406l.023.977A2.251,2.251,0,0,1,77.68-8.609a1.477,1.477,0,0,1,.641.109ZM84.555,0a3.036,3.036,0,0,1-.2-.891A3.225,3.225,0,0,1,81.945.156a2.984,2.984,0,0,1-2.051-.707,2.288,2.288,0,0,1-.8-1.793,2.39,2.39,0,0,1,1-2.051,4.733,4.733,0,0,1,2.824-.73h1.406v-.664A1.623,1.623,0,0,0,83.875-7a1.821,1.821,0,0,0-1.336-.449,2.108,2.108,0,0,0-1.3.391,1.151,1.151,0,0,0-.523.945H79.266a2,2,0,0,1,.449-1.223,3.066,3.066,0,0,1,1.219-.934,4.1,4.1,0,0,1,1.691-.344,3.342,3.342,0,0,1,2.289.73,2.635,2.635,0,0,1,.859,2.012v3.891a4.757,4.757,0,0,0,.3,1.852V0Zm-2.4-1.1a2.54,2.54,0,0,0,1.289-.352,2.127,2.127,0,0,0,.883-.914V-4.1H83.2q-2.656,0-2.656,1.555a1.316,1.316,0,0,0,.453,1.063A1.742,1.742,0,0,0,82.156-1.1ZM93.445-7.43a3.073,3.073,0,0,1,2.5-1.18q2.68,0,2.7,3.023V0H97.2V-5.594a1.946,1.946,0,0,0-.418-1.352,1.675,1.675,0,0,0-1.277-.437,2.086,2.086,0,0,0-1.234.375,2.546,2.546,0,0,0-.828.984V0H92V-12h1.445ZM106.031,0a3.036,3.036,0,0,1-.2-.891A3.225,3.225,0,0,1,103.422.156a2.984,2.984,0,0,1-2.051-.707,2.288,2.288,0,0,1-.8-1.793,2.39,2.39,0,0,1,1-2.051,4.733,4.733,0,0,1,2.824-.73H105.8v-.664A1.623,1.623,0,0,0,105.352-7a1.821,1.821,0,0,0-1.336-.449,2.108,2.108,0,0,0-1.3.391,1.151,1.151,0,0,0-.523.945h-1.453a2,2,0,0,1,.449-1.223,3.066,3.066,0,0,1,1.219-.934,4.1,4.1,0,0,1,1.691-.344,3.342,3.342,0,0,1,2.289.73,2.635,2.635,0,0,1,.859,2.012v3.891a4.757,4.757,0,0,0,.3,1.852V0Zm-2.4-1.1a2.54,2.54,0,0,0,1.289-.352,2.127,2.127,0,0,0,.883-.914V-4.1h-1.133q-2.656,0-2.656,1.555a1.316,1.316,0,0,0,.453,1.063A1.742,1.742,0,0,0,103.633-1.1Zm9.273.078a2.082,2.082,0,0,0,1.352-.469,1.649,1.649,0,0,0,.641-1.172h1.367a2.621,2.621,0,0,1-.5,1.383,3.293,3.293,0,0,1-1.23,1.047,3.55,3.55,0,0,1-1.629.391A3.482,3.482,0,0,1,110.16-1a4.59,4.59,0,0,1-1.02-3.152v-.242a5.089,5.089,0,0,1,.453-2.2,3.451,3.451,0,0,1,1.3-1.492,3.7,3.7,0,0,1,2-.531,3.39,3.39,0,0,1,2.363.852,3.043,3.043,0,0,1,1,2.211H114.9a1.992,1.992,0,0,0-.621-1.348,1.932,1.932,0,0,0-1.379-.527,2.023,2.023,0,0,0-1.707.793,3.724,3.724,0,0,0-.605,2.293v.273a3.65,3.65,0,0,0,.6,2.25A2.033,2.033,0,0,0,112.906-1.023ZM119.461,0h-1.445V-8.453h1.445ZM117.9-10.7a.863.863,0,0,1,.215-.594.807.807,0,0,1,.637-.242.819.819,0,0,1,.641.242.854.854,0,0,1,.219.594.826.826,0,0,1-.219.586.834.834,0,0,1-.641.234.821.821,0,0,1-.637-.234A.834.834,0,0,1,117.9-10.7ZM126.992,0a3.036,3.036,0,0,1-.2-.891A3.225,3.225,0,0,1,124.383.156a2.984,2.984,0,0,1-2.051-.707,2.288,2.288,0,0,1-.8-1.793,2.39,2.39,0,0,1,1-2.051,4.733,4.733,0,0,1,2.824-.73h1.406v-.664A1.623,1.623,0,0,0,126.313-7a1.821,1.821,0,0,0-1.336-.449,2.108,2.108,0,0,0-1.3.391,1.151,1.151,0,0,0-.523.945H121.7a2,2,0,0,1,.449-1.223,3.066,3.066,0,0,1,1.219-.934,4.1,4.1,0,0,1,1.691-.344,3.342,3.342,0,0,1,2.289.73,2.635,2.635,0,0,1,.859,2.012v3.891a4.757,4.757,0,0,0,.3,1.852V0Zm-2.4-1.1a2.54,2.54,0,0,0,1.289-.352,2.127,2.127,0,0,0,.883-.914V-4.1h-1.133q-2.656,0-2.656,1.555a1.316,1.316,0,0,0,.453,1.063A1.742,1.742,0,0,0,124.594-1.1ZM139.656,0a3.036,3.036,0,0,1-.2-.891A3.225,3.225,0,0,1,137.047.156,2.984,2.984,0,0,1,135-.551a2.287,2.287,0,0,1-.8-1.793,2.39,2.39,0,0,1,1-2.051,4.733,4.733,0,0,1,2.824-.73h1.406v-.664A1.623,1.623,0,0,0,138.977-7a1.821,1.821,0,0,0-1.336-.449,2.107,2.107,0,0,0-1.3.391,1.151,1.151,0,0,0-.523.945h-1.453a2,2,0,0,1,.449-1.223,3.066,3.066,0,0,1,1.219-.934,4.1,4.1,0,0,1,1.691-.344,3.342,3.342,0,0,1,2.289.73,2.635,2.635,0,0,1,.859,2.012v3.891a4.757,4.757,0,0,0,.3,1.852V0Zm-2.4-1.1a2.54,2.54,0,0,0,1.289-.352,2.127,2.127,0,0,0,.883-.914V-4.1H138.3q-2.656,0-2.656,1.555a1.316,1.316,0,0,0,.453,1.063A1.742,1.742,0,0,0,137.258-1.1ZM150.3-4.133a5.026,5.026,0,0,1-.891,3.113A2.846,2.846,0,0,1,147.016.156a2.947,2.947,0,0,1-2.477-1.133l-.07.977h-1.328V-12h1.445v4.477A2.93,2.93,0,0,1,147-8.609a2.863,2.863,0,0,1,2.418,1.164,5.177,5.177,0,0,1,.879,3.188ZM148.852-4.3a3.906,3.906,0,0,0-.57-2.281,1.888,1.888,0,0,0-1.641-.8,2.122,2.122,0,0,0-2.055,1.328V-2.4a2.181,2.181,0,0,0,2.07,1.328,1.878,1.878,0,0,0,1.617-.8A4.153,4.153,0,0,0,148.852-4.3ZM157.336,0a3.036,3.036,0,0,1-.2-.891A3.225,3.225,0,0,1,154.727.156a2.984,2.984,0,0,1-2.051-.707,2.287,2.287,0,0,1-.8-1.793,2.39,2.39,0,0,1,1-2.051,4.733,4.733,0,0,1,2.824-.73h1.406v-.664A1.623,1.623,0,0,0,156.656-7a1.821,1.821,0,0,0-1.336-.449,2.107,2.107,0,0,0-1.3.391,1.151,1.151,0,0,0-.523.945h-1.453a2,2,0,0,1,.449-1.223,3.066,3.066,0,0,1,1.219-.934,4.1,4.1,0,0,1,1.691-.344,3.342,3.342,0,0,1,2.289.73,2.635,2.635,0,0,1,.859,2.012v3.891a4.757,4.757,0,0,0,.3,1.852V0Zm-2.4-1.1a2.54,2.54,0,0,0,1.289-.352,2.127,2.127,0,0,0,.883-.914V-4.1h-1.133q-2.656,0-2.656,1.555a1.316,1.316,0,0,0,.453,1.063A1.742,1.742,0,0,0,154.938-1.1Zm7.375-7.352V.977q0,2.438-2.211,2.438a2.682,2.682,0,0,1-.883-.141V2.117a2.794,2.794,0,0,0,.656.063.982.982,0,0,0,.738-.262,1.294,1.294,0,0,0,.254-.91V-8.453ZM160.719-10.7a.867.867,0,0,1,.215-.59.79.79,0,0,1,.629-.246.819.819,0,0,1,.641.242.854.854,0,0,1,.219.594.826.826,0,0,1-.219.586.834.834,0,0,1-.641.234.808.808,0,0,1-.633-.234A.843.843,0,0,1,160.719-10.7ZM164.258-4.3a4.993,4.993,0,0,1,.488-2.234,3.642,3.642,0,0,1,1.359-1.531,3.7,3.7,0,0,1,1.988-.539,3.565,3.565,0,0,1,2.793,1.2,4.6,4.6,0,0,1,1.066,3.18v.1a5.036,5.036,0,0,1-.473,2.215,3.589,3.589,0,0,1-1.352,1.527,3.743,3.743,0,0,1-2.02.547,3.556,3.556,0,0,1-2.785-1.2A4.575,4.575,0,0,1,164.258-4.2Zm1.453.172a3.616,3.616,0,0,0,.652,2.258,2.088,2.088,0,0,0,1.746.852,2.075,2.075,0,0,0,1.75-.863,3.954,3.954,0,0,0,.648-2.418,3.61,3.61,0,0,0-.66-2.254,2.1,2.1,0,0,0-1.754-.863,2.075,2.075,0,0,0-1.727.852A3.925,3.925,0,0,0,165.711-4.133ZM173.8-.758a.905.905,0,0,1,.223-.625.848.848,0,0,1,.668-.25.874.874,0,0,1,.676.25.887.887,0,0,1,.23.625.839.839,0,0,1-.23.6.89.89,0,0,1-.676.242.863.863,0,0,1-.668-.242A.855.855,0,0,1,173.8-.758Z" transform="translate(764.176 4735.799)" fill="#12263f"/>
    <path id="Trazado_1262729" data-name="Trazado 1262729" d="M6.914-2.984A1.2,1.2,0,0,0,6.445-4a6.148,6.148,0,0,0-1.687-.75,11.963,11.963,0,0,1-1.93-.777A3.153,3.153,0,0,1,.891-8.352,2.747,2.747,0,0,1,1.41-10,3.389,3.389,0,0,1,2.9-11.125a5.616,5.616,0,0,1,2.184-.406,5.112,5.112,0,0,1,2.172.441,3.458,3.458,0,0,1,1.48,1.246,3.261,3.261,0,0,1,.527,1.828H6.922A1.534,1.534,0,0,0,6.43-9.23a2.023,2.023,0,0,0-1.383-.434A2.162,2.162,0,0,0,3.711-9.3a1.146,1.146,0,0,0-.477.957,1.1,1.1,0,0,0,.559.93,6.311,6.311,0,0,0,1.645.7A7.106,7.106,0,0,1,8.352-5.219,2.972,2.972,0,0,1,9.266-3,2.737,2.737,0,0,1,8.148-.684a4.891,4.891,0,0,1-3.008.84A5.808,5.808,0,0,1,2.75-.324,3.783,3.783,0,0,1,1.105-1.641,3.371,3.371,0,0,1,.539-3.578H2.891q0,1.883,2.25,1.883a2.189,2.189,0,0,0,1.3-.34A1.106,1.106,0,0,0,6.914-2.984ZM15.766-.859A2.831,2.831,0,0,1,13.453.156a2.67,2.67,0,0,1-2.074-.781,3.335,3.335,0,0,1-.73-2.289V-8.453h2.258v5.461q0,1.32,1.2,1.32a1.631,1.631,0,0,0,1.578-.8V-8.453h2.266V0H15.828Zm11.5-3.289a5.07,5.07,0,0,1-.887,3.129A2.843,2.843,0,0,1,23.984.156a2.633,2.633,0,0,1-2.07-.891V3.25H19.656v-11.7H21.75l.078.828a2.654,2.654,0,0,1,2.141-.984A2.862,2.862,0,0,1,26.4-7.453a5.207,5.207,0,0,1,.867,3.188Zm-2.258-.164a3.327,3.327,0,0,0-.418-1.82,1.361,1.361,0,0,0-1.215-.641,1.478,1.478,0,0,0-1.461.813V-2.5a1.5,1.5,0,0,0,1.477.836Q25.008-1.664,25.008-4.312ZM32.555.156A4.15,4.15,0,0,1,29.527-.984a4.054,4.054,0,0,1-1.168-3.039v-.219a5.106,5.106,0,0,1,.492-2.277,3.612,3.612,0,0,1,1.395-1.547A3.914,3.914,0,0,1,32.3-8.609a3.508,3.508,0,0,1,2.73,1.094,4.444,4.444,0,0,1,1,3.1v.922H30.648a2.1,2.1,0,0,0,.66,1.328,2,2,0,0,0,1.395.5,2.437,2.437,0,0,0,2.039-.945l1.109,1.242A3.389,3.389,0,0,1,34.477-.246,4.511,4.511,0,0,1,32.555.156ZM32.3-6.781a1.414,1.414,0,0,0-1.09.453,2.341,2.341,0,0,0-.535,1.3h3.141v-.18a1.669,1.669,0,0,0-.406-1.16A1.459,1.459,0,0,0,32.3-6.781Zm9.766.445A6.134,6.134,0,0,0,41.25-6.4a1.654,1.654,0,0,0-1.68.867V0H37.313V-8.453h2.133l.063,1.008a2.092,2.092,0,0,1,1.883-1.164,2.366,2.366,0,0,1,.7.1ZM45.531,0H43.266V-8.453h2.266Zm-2.4-10.641a1.112,1.112,0,0,1,.34-.836A1.277,1.277,0,0,1,44.4-11.8a1.28,1.28,0,0,1,.922.328,1.105,1.105,0,0,1,.344.836,1.108,1.108,0,0,1-.348.844,1.283,1.283,0,0,1-.918.328A1.283,1.283,0,0,1,43.48-9.8,1.108,1.108,0,0,1,43.133-10.641ZM47.039-4.3a5.013,5.013,0,0,1,.484-2.242A3.546,3.546,0,0,1,48.918-8.07a4.069,4.069,0,0,1,2.113-.539,3.849,3.849,0,0,1,2.793,1.047,4.2,4.2,0,0,1,1.207,2.844l.016.578A4.418,4.418,0,0,1,53.961-1.02,3.775,3.775,0,0,1,51.047.156a3.793,3.793,0,0,1-2.918-1.172A4.5,4.5,0,0,1,47.039-4.2Zm2.258.164A3.151,3.151,0,0,0,49.75-2.3a1.5,1.5,0,0,0,1.3.637,1.5,1.5,0,0,0,1.281-.629A3.448,3.448,0,0,0,52.789-4.3a3.12,3.12,0,0,0-.461-1.828,1.5,1.5,0,0,0-1.3-.648,1.475,1.475,0,0,0-1.281.645A3.506,3.506,0,0,0,49.3-4.141Zm11.891-2.2a6.134,6.134,0,0,0-.812-.062,1.654,1.654,0,0,0-1.68.867V0H56.438V-8.453H58.57l.063,1.008a2.092,2.092,0,0,1,1.883-1.164,2.366,2.366,0,0,1,.7.1Zm1.2,5.227a1.137,1.137,0,0,1,.363-.875,1.289,1.289,0,0,1,.91-.336,1.3,1.3,0,0,1,.918.336,1.137,1.137,0,0,1,.363.875,1.121,1.121,0,0,1-.359.863,1.305,1.305,0,0,1-.922.332,1.294,1.294,0,0,1-.914-.332A1.121,1.121,0,0,1,62.383-1.109Zm0-6.4a1.137,1.137,0,0,1,.363-.875,1.289,1.289,0,0,1,.91-.336,1.3,1.3,0,0,1,.918.336,1.137,1.137,0,0,1,.363.875,1.121,1.121,0,0,1-.359.863,1.305,1.305,0,0,1-.922.332,1.294,1.294,0,0,1-.914-.332A1.121,1.121,0,0,1,62.383-7.508Z" transform="translate(764.176 4493.799)" fill="#12263f"/>
    <path id="Trazado_1262730" data-name="Trazado 1262730" d="M3.359-4.008V0H1.016V-11.375H5.453a5.134,5.134,0,0,1,2.254.469A3.454,3.454,0,0,1,9.2-9.574a3.714,3.714,0,0,1,.523,1.965A3.266,3.266,0,0,1,8.582-4.973a4.767,4.767,0,0,1-3.168.965Zm0-1.9H5.453a2.059,2.059,0,0,0,1.418-.437,1.591,1.591,0,0,0,.488-1.25,1.876,1.876,0,0,0-.492-1.352,1.839,1.839,0,0,0-1.359-.531H3.359Zm12.578-.43a6.134,6.134,0,0,0-.812-.062,1.654,1.654,0,0,0-1.68.867V0H11.188V-8.453H13.32l.063,1.008a2.092,2.092,0,0,1,1.883-1.164,2.366,2.366,0,0,1,.7.1ZM20.914.156A4.15,4.15,0,0,1,17.887-.984a4.054,4.054,0,0,1-1.168-3.039v-.219a5.106,5.106,0,0,1,.492-2.277,3.612,3.612,0,0,1,1.395-1.547,3.914,3.914,0,0,1,2.059-.543,3.508,3.508,0,0,1,2.73,1.094,4.444,4.444,0,0,1,1,3.1v.922H19.008a2.1,2.1,0,0,0,.66,1.328,2,2,0,0,0,1.395.5A2.437,2.437,0,0,0,23.1-2.609l1.109,1.242A3.389,3.389,0,0,1,22.836-.246,4.511,4.511,0,0,1,20.914.156Zm-.258-6.937a1.414,1.414,0,0,0-1.09.453,2.341,2.341,0,0,0-.535,1.3h3.141v-.18a1.669,1.669,0,0,0-.406-1.16A1.459,1.459,0,0,0,20.656-6.781ZM27.75-8.453l.07.977a2.951,2.951,0,0,1,2.43-1.133,2.453,2.453,0,0,1,2,.789,3.682,3.682,0,0,1,.672,2.359V0H30.664V-5.406a1.465,1.465,0,0,0-.312-1.043,1.4,1.4,0,0,0-1.039-.324,1.553,1.553,0,0,0-1.43.813V0H25.625V-8.453Zm6.531,4.164a5.094,5.094,0,0,1,.887-3.148,2.877,2.877,0,0,1,2.426-1.172,2.589,2.589,0,0,1,2.039.922V-12H41.9V0H39.859L39.75-.9A2.657,2.657,0,0,1,37.578.156,2.869,2.869,0,0,1,35.184-1.02,5.258,5.258,0,0,1,34.281-4.289Zm2.258.164a3.328,3.328,0,0,0,.414,1.82,1.349,1.349,0,0,0,1.2.633,1.511,1.511,0,0,0,1.477-.883V-5.891a1.489,1.489,0,0,0-1.461-.883Q36.539-6.773,36.539-4.125ZM48.547,0a2.507,2.507,0,0,1-.227-.758,2.732,2.732,0,0,1-2.133.914,3,3,0,0,1-2.059-.719,2.312,2.312,0,0,1-.816-1.812,2.389,2.389,0,0,1,1-2.062,4.915,4.915,0,0,1,2.879-.727h1.039v-.484a1.393,1.393,0,0,0-.3-.937,1.183,1.183,0,0,0-.949-.352,1.345,1.345,0,0,0-.895.273.929.929,0,0,0-.324.75H43.5a2.268,2.268,0,0,1,.453-1.359,3,3,0,0,1,1.281-.98,4.669,4.669,0,0,1,1.859-.355,3.689,3.689,0,0,1,2.48.785,2.747,2.747,0,0,1,.918,2.207v3.664a4.041,4.041,0,0,0,.336,1.82V0ZM46.68-1.57a1.945,1.945,0,0,0,.922-.223,1.462,1.462,0,0,0,.625-.6V-3.844h-.844q-1.7,0-1.8,1.172l-.008.133a.9.9,0,0,0,.3.7A1.153,1.153,0,0,0,46.68-1.57ZM56.8-2.336a.727.727,0,0,0-.41-.652,4.659,4.659,0,0,0-1.316-.426q-3.016-.633-3.016-2.562A2.323,2.323,0,0,1,53-7.855a3.766,3.766,0,0,1,2.441-.754,4.053,4.053,0,0,1,2.574.758,2.388,2.388,0,0,1,.965,1.969H56.719a1.092,1.092,0,0,0-.312-.8A1.322,1.322,0,0,0,55.43-7a1.351,1.351,0,0,0-.883.258.814.814,0,0,0-.312.656.7.7,0,0,0,.355.605,3.657,3.657,0,0,0,1.2.4,9.8,9.8,0,0,1,1.422.379A2.336,2.336,0,0,1,59-2.43a2.2,2.2,0,0,1-.992,1.871,4.28,4.28,0,0,1-2.562.715,4.47,4.47,0,0,1-1.887-.379,3.166,3.166,0,0,1-1.293-1.039A2.414,2.414,0,0,1,51.8-2.687h2.141a1.179,1.179,0,0,0,.445.922,1.766,1.766,0,0,0,1.109.32,1.635,1.635,0,0,0,.98-.246A.766.766,0,0,0,56.8-2.336Zm12.211,0a.727.727,0,0,0-.41-.652,4.659,4.659,0,0,0-1.316-.426q-3.016-.633-3.016-2.562a2.323,2.323,0,0,1,.934-1.879,3.766,3.766,0,0,1,2.441-.754,4.053,4.053,0,0,1,2.574.758,2.388,2.388,0,0,1,.965,1.969H68.93a1.092,1.092,0,0,0-.312-.8A1.322,1.322,0,0,0,67.641-7a1.351,1.351,0,0,0-.883.258.814.814,0,0,0-.312.656.7.7,0,0,0,.355.605,3.657,3.657,0,0,0,1.2.4,9.8,9.8,0,0,1,1.422.379A2.336,2.336,0,0,1,71.211-2.43a2.2,2.2,0,0,1-.992,1.871,4.28,4.28,0,0,1-2.562.715A4.47,4.47,0,0,1,65.77-.223a3.166,3.166,0,0,1-1.293-1.039,2.414,2.414,0,0,1-.469-1.426h2.141a1.179,1.179,0,0,0,.445.922,1.766,1.766,0,0,0,1.109.32,1.635,1.635,0,0,0,.98-.246A.766.766,0,0,0,69.016-2.336ZM77.727-.859A2.831,2.831,0,0,1,75.414.156,2.67,2.67,0,0,1,73.34-.625a3.335,3.335,0,0,1-.73-2.289V-8.453h2.258v5.461q0,1.32,1.2,1.32a1.631,1.631,0,0,0,1.578-.8V-8.453h2.266V0H77.789Zm11.5-3.289A5.07,5.07,0,0,1,88.34-1.02,2.843,2.843,0,0,1,85.945.156a2.633,2.633,0,0,1-2.07-.891V3.25H81.617v-11.7h2.094l.078.828a2.654,2.654,0,0,1,2.141-.984,2.862,2.862,0,0,1,2.43,1.156,5.207,5.207,0,0,1,.867,3.188Zm-2.258-.164a3.327,3.327,0,0,0-.418-1.82,1.361,1.361,0,0,0-1.215-.641,1.478,1.478,0,0,0-1.461.813V-2.5a1.5,1.5,0,0,0,1.477.836Q86.969-1.664,86.969-4.312ZM94.516.156A4.15,4.15,0,0,1,91.488-.984,4.054,4.054,0,0,1,90.32-4.023v-.219a5.106,5.106,0,0,1,.492-2.277,3.612,3.612,0,0,1,1.395-1.547,3.914,3.914,0,0,1,2.059-.543A3.508,3.508,0,0,1,97-7.516a4.444,4.444,0,0,1,1,3.1v.922H92.609a2.1,2.1,0,0,0,.66,1.328,2,2,0,0,0,1.395.5A2.437,2.437,0,0,0,96.7-2.609l1.109,1.242A3.389,3.389,0,0,1,96.438-.246,4.511,4.511,0,0,1,94.516.156Zm-.258-6.937a1.414,1.414,0,0,0-1.09.453,2.341,2.341,0,0,0-.535,1.3h3.141v-.18a1.669,1.669,0,0,0-.406-1.16A1.459,1.459,0,0,0,94.258-6.781Zm9.766.445a6.134,6.134,0,0,0-.812-.062,1.654,1.654,0,0,0-1.68.867V0H99.273V-8.453h2.133l.063,1.008a2.092,2.092,0,0,1,1.883-1.164,2.366,2.366,0,0,1,.7.1ZM107.492,0h-2.266V-8.453h2.266Zm-2.4-10.641a1.112,1.112,0,0,1,.34-.836,1.277,1.277,0,0,1,.926-.328,1.28,1.28,0,0,1,.922.328,1.105,1.105,0,0,1,.344.836,1.108,1.108,0,0,1-.348.844,1.283,1.283,0,0,1-.918.328,1.283,1.283,0,0,1-.918-.328A1.108,1.108,0,0,1,105.094-10.641ZM109-4.3a5.013,5.013,0,0,1,.484-2.242,3.546,3.546,0,0,1,1.395-1.523,4.069,4.069,0,0,1,2.113-.539,3.849,3.849,0,0,1,2.793,1.047,4.2,4.2,0,0,1,1.207,2.844l.016.578a4.418,4.418,0,0,1-1.086,3.121A3.775,3.775,0,0,1,113.008.156a3.793,3.793,0,0,1-2.918-1.172A4.5,4.5,0,0,1,109-4.2Zm2.258.164a3.151,3.151,0,0,0,.453,1.84,1.5,1.5,0,0,0,1.3.637,1.5,1.5,0,0,0,1.281-.629A3.448,3.448,0,0,0,114.75-4.3a3.12,3.12,0,0,0-.461-1.828,1.5,1.5,0,0,0-1.3-.648,1.475,1.475,0,0,0-1.281.645A3.506,3.506,0,0,0,111.258-4.141Zm11.891-2.2a6.134,6.134,0,0,0-.812-.062,1.654,1.654,0,0,0-1.68.867V0H118.4V-8.453h2.133l.063,1.008a2.092,2.092,0,0,1,1.883-1.164,2.366,2.366,0,0,1,.7.1ZM128.125.156A4.15,4.15,0,0,1,125.1-.984a4.054,4.054,0,0,1-1.168-3.039v-.219a5.106,5.106,0,0,1,.492-2.277,3.612,3.612,0,0,1,1.395-1.547,3.914,3.914,0,0,1,2.059-.543,3.508,3.508,0,0,1,2.73,1.094,4.444,4.444,0,0,1,1,3.1v.922h-5.383a2.1,2.1,0,0,0,.66,1.328,2,2,0,0,0,1.395.5,2.437,2.437,0,0,0,2.039-.945l1.109,1.242a3.389,3.389,0,0,1-1.375,1.121A4.511,4.511,0,0,1,128.125.156Zm-.258-6.937a1.414,1.414,0,0,0-1.09.453,2.341,2.341,0,0,0-.535,1.3h3.141v-.18a1.669,1.669,0,0,0-.406-1.16A1.459,1.459,0,0,0,127.867-6.781Zm9.594,4.445a.727.727,0,0,0-.41-.652,4.659,4.659,0,0,0-1.316-.426q-3.016-.633-3.016-2.562a2.323,2.323,0,0,1,.934-1.879,3.766,3.766,0,0,1,2.441-.754,4.053,4.053,0,0,1,2.574.758,2.388,2.388,0,0,1,.965,1.969h-2.258a1.092,1.092,0,0,0-.312-.8A1.322,1.322,0,0,0,136.086-7a1.351,1.351,0,0,0-.883.258.814.814,0,0,0-.312.656.7.7,0,0,0,.355.605,3.657,3.657,0,0,0,1.2.4,9.8,9.8,0,0,1,1.422.379,2.336,2.336,0,0,1,1.789,2.273,2.205,2.205,0,0,1-.992,1.871A4.28,4.28,0,0,1,136.1.156a4.47,4.47,0,0,1-1.887-.379,3.166,3.166,0,0,1-1.293-1.039,2.414,2.414,0,0,1-.469-1.426h2.141a1.179,1.179,0,0,0,.445.922,1.766,1.766,0,0,0,1.109.32,1.635,1.635,0,0,0,.98-.246A.766.766,0,0,0,137.461-2.336Zm3.758,1.227a1.137,1.137,0,0,1,.363-.875,1.289,1.289,0,0,1,.91-.336,1.3,1.3,0,0,1,.918.336,1.137,1.137,0,0,1,.363.875,1.121,1.121,0,0,1-.359.863,1.305,1.305,0,0,1-.922.332,1.294,1.294,0,0,1-.914-.332A1.121,1.121,0,0,1,141.219-1.109Zm0-6.4a1.137,1.137,0,0,1,.363-.875,1.289,1.289,0,0,1,.91-.336,1.3,1.3,0,0,1,.918.336,1.137,1.137,0,0,1,.363.875,1.121,1.121,0,0,1-.359.863,1.305,1.305,0,0,1-.922.332,1.294,1.294,0,0,1-.914-.332A1.121,1.121,0,0,1,141.219-7.508Z" transform="translate(1022.176 4493.799)" fill="#12263f"/>
    <path id="Trazado_1262731" data-name="Trazado 1262731" d="M3.359-4.008V0H1.016V-11.375H5.453a5.134,5.134,0,0,1,2.254.469A3.454,3.454,0,0,1,9.2-9.574a3.714,3.714,0,0,1,.523,1.965A3.266,3.266,0,0,1,8.582-4.973a4.767,4.767,0,0,1-3.168.965Zm0-1.9H5.453a2.059,2.059,0,0,0,1.418-.437,1.591,1.591,0,0,0,.488-1.25,1.876,1.876,0,0,0-.492-1.352,1.839,1.839,0,0,0-1.359-.531H3.359Zm12.578-.43a6.134,6.134,0,0,0-.812-.062,1.654,1.654,0,0,0-1.68.867V0H11.188V-8.453H13.32l.063,1.008a2.092,2.092,0,0,1,1.883-1.164,2.366,2.366,0,0,1,.7.1ZM20.914.156A4.15,4.15,0,0,1,17.887-.984a4.054,4.054,0,0,1-1.168-3.039v-.219a5.106,5.106,0,0,1,.492-2.277,3.612,3.612,0,0,1,1.395-1.547,3.914,3.914,0,0,1,2.059-.543,3.508,3.508,0,0,1,2.73,1.094,4.444,4.444,0,0,1,1,3.1v.922H19.008a2.1,2.1,0,0,0,.66,1.328,2,2,0,0,0,1.395.5A2.437,2.437,0,0,0,23.1-2.609l1.109,1.242A3.389,3.389,0,0,1,22.836-.246,4.511,4.511,0,0,1,20.914.156Zm-.258-6.937a1.414,1.414,0,0,0-1.09.453,2.341,2.341,0,0,0-.535,1.3h3.141v-.18a1.669,1.669,0,0,0-.406-1.16A1.459,1.459,0,0,0,20.656-6.781ZM27.75-8.453l.07.977a2.951,2.951,0,0,1,2.43-1.133,2.453,2.453,0,0,1,2,.789,3.682,3.682,0,0,1,.672,2.359V0H30.664V-5.406a1.465,1.465,0,0,0-.312-1.043,1.4,1.4,0,0,0-1.039-.324,1.553,1.553,0,0,0-1.43.813V0H25.625V-8.453Zm6.531,4.164a5.094,5.094,0,0,1,.887-3.148,2.877,2.877,0,0,1,2.426-1.172,2.589,2.589,0,0,1,2.039.922V-12H41.9V0H39.859L39.75-.9A2.657,2.657,0,0,1,37.578.156,2.869,2.869,0,0,1,35.184-1.02,5.258,5.258,0,0,1,34.281-4.289Zm2.258.164a3.328,3.328,0,0,0,.414,1.82,1.349,1.349,0,0,0,1.2.633,1.511,1.511,0,0,0,1.477-.883V-5.891a1.489,1.489,0,0,0-1.461-.883Q36.539-6.773,36.539-4.125ZM48.547,0a2.507,2.507,0,0,1-.227-.758,2.732,2.732,0,0,1-2.133.914,3,3,0,0,1-2.059-.719,2.312,2.312,0,0,1-.816-1.812,2.389,2.389,0,0,1,1-2.062,4.915,4.915,0,0,1,2.879-.727h1.039v-.484a1.393,1.393,0,0,0-.3-.937,1.183,1.183,0,0,0-.949-.352,1.345,1.345,0,0,0-.895.273.929.929,0,0,0-.324.75H43.5a2.268,2.268,0,0,1,.453-1.359,3,3,0,0,1,1.281-.98,4.669,4.669,0,0,1,1.859-.355,3.689,3.689,0,0,1,2.48.785,2.747,2.747,0,0,1,.918,2.207v3.664a4.041,4.041,0,0,0,.336,1.82V0ZM46.68-1.57a1.945,1.945,0,0,0,.922-.223,1.462,1.462,0,0,0,.625-.6V-3.844h-.844q-1.7,0-1.8,1.172l-.008.133a.9.9,0,0,0,.3.7A1.153,1.153,0,0,0,46.68-1.57ZM56.8-2.336a.727.727,0,0,0-.41-.652,4.659,4.659,0,0,0-1.316-.426q-3.016-.633-3.016-2.562A2.323,2.323,0,0,1,53-7.855a3.766,3.766,0,0,1,2.441-.754,4.053,4.053,0,0,1,2.574.758,2.388,2.388,0,0,1,.965,1.969H56.719a1.092,1.092,0,0,0-.312-.8A1.322,1.322,0,0,0,55.43-7a1.351,1.351,0,0,0-.883.258.814.814,0,0,0-.312.656.7.7,0,0,0,.355.605,3.657,3.657,0,0,0,1.2.4,9.8,9.8,0,0,1,1.422.379A2.336,2.336,0,0,1,59-2.43a2.2,2.2,0,0,1-.992,1.871,4.28,4.28,0,0,1-2.562.715,4.47,4.47,0,0,1-1.887-.379,3.166,3.166,0,0,1-1.293-1.039A2.414,2.414,0,0,1,51.8-2.687h2.141a1.179,1.179,0,0,0,.445.922,1.766,1.766,0,0,0,1.109.32,1.635,1.635,0,0,0,.98-.246A.766.766,0,0,0,56.8-2.336ZM66.82,0H64.555V-8.453H66.82Zm-2.4-10.641a1.112,1.112,0,0,1,.34-.836,1.277,1.277,0,0,1,.926-.328,1.28,1.28,0,0,1,.922.328,1.105,1.105,0,0,1,.344.836,1.108,1.108,0,0,1-.348.844,1.283,1.283,0,0,1-.918.328A1.283,1.283,0,0,1,64.77-9.8,1.108,1.108,0,0,1,64.422-10.641Zm6.336,2.188.07.977a2.951,2.951,0,0,1,2.43-1.133,2.453,2.453,0,0,1,2,.789,3.682,3.682,0,0,1,.672,2.359V0H73.672V-5.406a1.465,1.465,0,0,0-.312-1.043,1.4,1.4,0,0,0-1.039-.324,1.553,1.553,0,0,0-1.43.813V0H68.633V-8.453ZM78.258,0V-6.8H77V-8.453h1.258v-.719a2.918,2.918,0,0,1,.816-2.207,3.162,3.162,0,0,1,2.285-.785,5.278,5.278,0,0,1,1.148.156l-.023,1.75a2.878,2.878,0,0,0-.687-.07q-1.273,0-1.273,1.2v.68H82.2V-6.8h-1.68V0Zm9.008.156A4.15,4.15,0,0,1,84.238-.984,4.054,4.054,0,0,1,83.07-4.023v-.219a5.106,5.106,0,0,1,.492-2.277,3.612,3.612,0,0,1,1.395-1.547,3.914,3.914,0,0,1,2.059-.543,3.508,3.508,0,0,1,2.73,1.094,4.444,4.444,0,0,1,1,3.1v.922H85.359a2.1,2.1,0,0,0,.66,1.328,2,2,0,0,0,1.395.5,2.437,2.437,0,0,0,2.039-.945l1.109,1.242A3.389,3.389,0,0,1,89.188-.246,4.511,4.511,0,0,1,87.266.156Zm-.258-6.937a1.414,1.414,0,0,0-1.09.453,2.341,2.341,0,0,0-.535,1.3h3.141v-.18a1.669,1.669,0,0,0-.406-1.16A1.459,1.459,0,0,0,87.008-6.781Zm9.766.445a6.134,6.134,0,0,0-.812-.062,1.654,1.654,0,0,0-1.68.867V0H92.023V-8.453h2.133l.063,1.008A2.092,2.092,0,0,1,96.1-8.609a2.366,2.366,0,0,1,.7.1ZM100.242,0H97.977V-8.453h2.266Zm-2.4-10.641a1.112,1.112,0,0,1,.34-.836,1.277,1.277,0,0,1,.926-.328,1.28,1.28,0,0,1,.922.328,1.105,1.105,0,0,1,.344.836,1.108,1.108,0,0,1-.348.844,1.283,1.283,0,0,1-.918.328,1.283,1.283,0,0,1-.918-.328A1.108,1.108,0,0,1,97.844-10.641ZM101.75-4.3a5.013,5.013,0,0,1,.484-2.242,3.546,3.546,0,0,1,1.395-1.523,4.069,4.069,0,0,1,2.113-.539,3.849,3.849,0,0,1,2.793,1.047,4.2,4.2,0,0,1,1.207,2.844l.016.578a4.418,4.418,0,0,1-1.086,3.121A3.775,3.775,0,0,1,105.758.156a3.793,3.793,0,0,1-2.918-1.172A4.5,4.5,0,0,1,101.75-4.2Zm2.258.164a3.151,3.151,0,0,0,.453,1.84,1.5,1.5,0,0,0,1.3.637,1.5,1.5,0,0,0,1.281-.629A3.448,3.448,0,0,0,107.5-4.3a3.12,3.12,0,0,0-.461-1.828,1.5,1.5,0,0,0-1.3-.648,1.475,1.475,0,0,0-1.281.645A3.506,3.506,0,0,0,104.008-4.141Zm11.891-2.2a6.134,6.134,0,0,0-.812-.062,1.654,1.654,0,0,0-1.68.867V0h-2.258V-8.453h2.133l.063,1.008a2.092,2.092,0,0,1,1.883-1.164,2.366,2.366,0,0,1,.7.1ZM120.875.156a4.15,4.15,0,0,1-3.027-1.141,4.054,4.054,0,0,1-1.168-3.039v-.219a5.106,5.106,0,0,1,.492-2.277,3.612,3.612,0,0,1,1.395-1.547,3.914,3.914,0,0,1,2.059-.543,3.508,3.508,0,0,1,2.73,1.094,4.444,4.444,0,0,1,1,3.1v.922h-5.383a2.1,2.1,0,0,0,.66,1.328,2,2,0,0,0,1.395.5,2.437,2.437,0,0,0,2.039-.945l1.109,1.242A3.389,3.389,0,0,1,122.8-.246,4.511,4.511,0,0,1,120.875.156Zm-.258-6.937a1.414,1.414,0,0,0-1.09.453,2.341,2.341,0,0,0-.535,1.3h3.141v-.18a1.669,1.669,0,0,0-.406-1.16A1.459,1.459,0,0,0,120.617-6.781Zm9.594,4.445a.727.727,0,0,0-.41-.652,4.659,4.659,0,0,0-1.316-.426q-3.016-.633-3.016-2.562a2.323,2.323,0,0,1,.934-1.879,3.766,3.766,0,0,1,2.441-.754,4.053,4.053,0,0,1,2.574.758,2.388,2.388,0,0,1,.965,1.969h-2.258a1.092,1.092,0,0,0-.312-.8A1.322,1.322,0,0,0,128.836-7a1.351,1.351,0,0,0-.883.258.814.814,0,0,0-.312.656A.7.7,0,0,0,128-5.48a3.657,3.657,0,0,0,1.2.4,9.8,9.8,0,0,1,1.422.379,2.336,2.336,0,0,1,1.789,2.273,2.205,2.205,0,0,1-.992,1.871,4.28,4.28,0,0,1-2.562.715,4.47,4.47,0,0,1-1.887-.379,3.166,3.166,0,0,1-1.293-1.039,2.414,2.414,0,0,1-.469-1.426h2.141a1.179,1.179,0,0,0,.445.922,1.766,1.766,0,0,0,1.109.32,1.635,1.635,0,0,0,.98-.246A.766.766,0,0,0,130.211-2.336Zm3.758,1.227a1.137,1.137,0,0,1,.363-.875,1.289,1.289,0,0,1,.91-.336,1.3,1.3,0,0,1,.918.336,1.137,1.137,0,0,1,.363.875,1.121,1.121,0,0,1-.359.863,1.305,1.305,0,0,1-.922.332,1.294,1.294,0,0,1-.914-.332A1.121,1.121,0,0,1,133.969-1.109Zm0-6.4a1.137,1.137,0,0,1,.363-.875,1.289,1.289,0,0,1,.91-.336,1.3,1.3,0,0,1,.918.336,1.137,1.137,0,0,1,.363.875,1.121,1.121,0,0,1-.359.863,1.305,1.305,0,0,1-.922.332,1.294,1.294,0,0,1-.914-.332A1.121,1.121,0,0,1,133.969-7.508Z" transform="translate(1022.176 4711.799)" fill="#12263f"/>
    <path id="Trazado_1262732" data-name="Trazado 1262732" d="M3.508,0H1.164V-11.375H3.508Zm4.1-8.453.07.977a2.951,2.951,0,0,1,2.43-1.133,2.453,2.453,0,0,1,2,.789,3.682,3.682,0,0,1,.672,2.359V0H10.523V-5.406a1.465,1.465,0,0,0-.312-1.043,1.4,1.4,0,0,0-1.039-.324,1.553,1.553,0,0,0-1.43.813V0H5.484V-8.453ZM15.109,0V-6.8H13.852V-8.453h1.258v-.719a2.918,2.918,0,0,1,.816-2.207,3.162,3.162,0,0,1,2.285-.785,5.278,5.278,0,0,1,1.148.156l-.023,1.75a2.878,2.878,0,0,0-.687-.07q-1.273,0-1.273,1.2v.68h1.68V-6.8h-1.68V0Zm9.008.156A4.15,4.15,0,0,1,21.09-.984a4.054,4.054,0,0,1-1.168-3.039v-.219a5.106,5.106,0,0,1,.492-2.277,3.612,3.612,0,0,1,1.395-1.547,3.914,3.914,0,0,1,2.059-.543A3.508,3.508,0,0,1,26.6-7.516a4.444,4.444,0,0,1,1,3.1v.922H22.211a2.1,2.1,0,0,0,.66,1.328,2,2,0,0,0,1.395.5A2.437,2.437,0,0,0,26.3-2.609l1.109,1.242A3.389,3.389,0,0,1,26.039-.246,4.511,4.511,0,0,1,24.117.156Zm-.258-6.937a1.414,1.414,0,0,0-1.09.453,2.341,2.341,0,0,0-.535,1.3h3.141v-.18a1.669,1.669,0,0,0-.406-1.16A1.459,1.459,0,0,0,23.859-6.781Zm9.766.445a6.134,6.134,0,0,0-.812-.062,1.654,1.654,0,0,0-1.68.867V0H28.875V-8.453h2.133l.063,1.008a2.092,2.092,0,0,1,1.883-1.164,2.366,2.366,0,0,1,.7.1ZM37.094,0H34.828V-8.453h2.266ZM34.7-10.641a1.112,1.112,0,0,1,.34-.836,1.277,1.277,0,0,1,.926-.328,1.28,1.28,0,0,1,.922.328,1.105,1.105,0,0,1,.344.836,1.108,1.108,0,0,1-.348.844,1.283,1.283,0,0,1-.918.328,1.283,1.283,0,0,1-.918-.328A1.108,1.108,0,0,1,34.7-10.641ZM38.6-4.3a5.013,5.013,0,0,1,.484-2.242A3.546,3.546,0,0,1,40.48-8.07a4.069,4.069,0,0,1,2.113-.539,3.849,3.849,0,0,1,2.793,1.047,4.2,4.2,0,0,1,1.207,2.844l.016.578A4.418,4.418,0,0,1,45.523-1.02,3.775,3.775,0,0,1,42.609.156a3.793,3.793,0,0,1-2.918-1.172A4.5,4.5,0,0,1,38.6-4.2Zm2.258.164a3.151,3.151,0,0,0,.453,1.84,1.5,1.5,0,0,0,1.3.637,1.5,1.5,0,0,0,1.281-.629A3.448,3.448,0,0,0,44.352-4.3a3.12,3.12,0,0,0-.461-1.828,1.5,1.5,0,0,0-1.3-.648,1.475,1.475,0,0,0-1.281.645A3.506,3.506,0,0,0,40.859-4.141Zm11.891-2.2a6.134,6.134,0,0,0-.812-.062,1.654,1.654,0,0,0-1.68.867V0H48V-8.453h2.133L50.2-7.445a2.092,2.092,0,0,1,1.883-1.164,2.366,2.366,0,0,1,.7.1Zm1.2,5.227a1.137,1.137,0,0,1,.363-.875,1.289,1.289,0,0,1,.91-.336,1.3,1.3,0,0,1,.918.336,1.137,1.137,0,0,1,.363.875,1.121,1.121,0,0,1-.359.863,1.305,1.305,0,0,1-.922.332A1.294,1.294,0,0,1,54.3-.246,1.121,1.121,0,0,1,53.945-1.109Zm0-6.4a1.137,1.137,0,0,1,.363-.875,1.289,1.289,0,0,1,.91-.336,1.3,1.3,0,0,1,.918.336,1.137,1.137,0,0,1,.363.875,1.121,1.121,0,0,1-.359.863,1.305,1.305,0,0,1-.922.332,1.294,1.294,0,0,1-.914-.332A1.121,1.121,0,0,1,53.945-7.508Z" transform="translate(764.176 4711.799)" fill="#12263f"/>
    <g id="Componente_5_46" data-name="Componente 5 – 46" transform="translate(994.176 4703.144)">
      <path id="Icon_ionic-ios-arrow-back" data-name="Icon ionic-ios-arrow-back" d="M4.9,14.151l10.756-10.7a2.008,2.008,0,0,0,0-2.857,2.046,2.046,0,0,0-2.877,0L.592,12.718a2.013,2.013,0,0,0-.059,2.79L12.769,27.719a2.049,2.049,0,0,0,2.877,0,2.008,2.008,0,0,0,0-2.857Z" transform="translate(16.251 28.309) rotate(180)" fill="#63503e"/>
    </g>
    <g id="Componente_5_47" data-name="Componente 5 – 47" transform="translate(994.302 4485.644)">
      <path id="Icon_ionic-ios-arrow-back-2" data-name="Icon ionic-ios-arrow-back" d="M4.9,14.151l10.756-10.7a2.008,2.008,0,0,0,0-2.857,2.046,2.046,0,0,0-2.877,0L.592,12.718a2.013,2.013,0,0,0-.059,2.79L12.769,27.719a2.049,2.049,0,0,0,2.877,0,2.008,2.008,0,0,0,0-2.857Z" transform="translate(16.251 28.309) rotate(180)" fill="#63503e"/>
    </g>
    <g id="Grupo_1077891" data-name="Grupo 1077891" transform="translate(285 4434.329)" clip-path="url(#clip-path)">
      <g id="Grupo_1077878" data-name="Grupo 1077878">
        <g id="Grupo_1077877" data-name="Grupo 1077877" clip-path="url(#clip-path)">
          <path id="Trazado_839385" data-name="Trazado 839385" d="M140.509,377.187l-.714-.007.143-13.952a7.889,7.889,0,0,1,7.863-7.782h40.015a7.864,7.864,0,0,1,7.864,7.943l-.142,13.8-.714-.007.141-13.8a7.15,7.15,0,0,0-7.149-7.223H147.8a7.172,7.172,0,0,0-7.148,7.075Z" transform="translate(-12.236 -31.112)" fill="#e0e0e0"/>
          <path id="Trazado_839386" data-name="Trazado 839386" d="M144.367,380.716a4.667,4.667,0,1,1-4.667-4.667,4.667,4.667,0,0,1,4.667,4.667" transform="translate(-11.819 -32.916)" fill="#e0e0e0"/>
          <path id="Trazado_839387" data-name="Trazado 839387" d="M204.044,380.716a4.667,4.667,0,1,1-4.667-4.667,4.667,4.667,0,0,1,4.667,4.667" transform="translate(-17.043 -32.916)" fill="#e0e0e0"/>
          <path id="Trazado_839388" data-name="Trazado 839388" d="M5.477,377.187l-.714-.007.143-13.952a7.889,7.889,0,0,1,7.863-7.782H52.784a7.862,7.862,0,0,1,7.863,7.943l-.141,13.8-.714-.007.141-13.8a7.15,7.15,0,0,0-7.149-7.223H12.769a7.173,7.173,0,0,0-7.149,7.075Z" transform="translate(-0.417 -31.112)" fill="#e0e0e0"/>
          <path id="Trazado_839389" data-name="Trazado 839389" d="M9.335,380.716a4.667,4.667,0,1,1-4.667-4.667,4.667,4.667,0,0,1,4.667,4.667" transform="translate(0 -32.916)" fill="#e0e0e0"/>
          <path id="Trazado_839390" data-name="Trazado 839390" d="M69.013,380.716a4.667,4.667,0,1,1-4.668-4.667,4.667,4.667,0,0,1,4.668,4.667" transform="translate(-5.224 -32.916)" fill="#e0e0e0"/>
          <path id="Trazado_839391" data-name="Trazado 839391" d="M158.772,333.176h-.7V109.448a7.732,7.732,0,0,0-7.723-7.723H41.771a7.732,7.732,0,0,0-7.722,7.723V333.176h-.7V109.448a8.437,8.437,0,0,1,8.427-8.428H150.344a8.437,8.437,0,0,1,8.428,8.428Z" transform="translate(-2.919 -8.842)" fill="#e0e0e0"/>
          <path id="Trazado_839392" data-name="Trazado 839392" d="M87.14,307.4H70.206V112.522a6.577,6.577,0,0,1,6.577-6.577h3.779a6.577,6.577,0,0,1,6.577,6.577Z" transform="translate(-6.145 -9.273)" fill="#f5f5f5"/>
          <path id="Trazado_839393" data-name="Trazado 839393" d="M97.506,319.2H88.764V111.369a3.4,3.4,0,0,1,3.4-3.4h1.951a3.4,3.4,0,0,1,3.4,3.4Z" transform="translate(-7.77 -9.451)" fill="#e0e0e0"/>
          <path id="Trazado_839394" data-name="Trazado 839394" d="M64.19,309.43H47.256V114.551a6.577,6.577,0,0,1,6.577-6.577h3.779a6.577,6.577,0,0,1,6.577,6.577Z" transform="translate(-4.136 -9.451)" fill="#ebebeb"/>
          <path id="Trazado_839395" data-name="Trazado 839395" d="M56.447,108.461c-.506,0-.918-2.618-.918-5.847s.412-5.847.918-5.847.917,2.618.917,5.847-.411,5.847-.917,5.847" transform="translate(-4.86 -8.47)" fill="#e0e0e0"/>
          <path id="Trazado_839396" data-name="Trazado 839396" d="M78.212,106.069c-.506,0-.918-1.734-.918-3.872s.412-3.872.918-3.872.918,1.733.918,3.872-.412,3.872-.918,3.872" transform="translate(-6.766 -8.607)" fill="#e0e0e0"/>
          <path id="Trazado_839397" data-name="Trazado 839397" d="M92.76,110.029c-.506,0-.919-2.194-.919-4.9s.412-4.9.919-4.9.917,2.194.917,4.9-.412,4.9-.917,4.9" transform="translate(-8.039 -8.773)" fill="#e0e0e0"/>
          <path id="Trazado_839398" data-name="Trazado 839398" d="M145.288,307.4H128.354V112.522a6.577,6.577,0,0,1,6.577-6.577h3.779a6.577,6.577,0,0,1,6.577,6.577Z" transform="translate(-11.235 -9.273)" fill="#f5f5f5"/>
          <path id="Trazado_839399" data-name="Trazado 839399" d="M155.654,319.2h-8.741V111.369a3.4,3.4,0,0,1,3.4-3.4h1.951a3.4,3.4,0,0,1,3.4,3.4Z" transform="translate(-12.859 -9.451)" fill="#e0e0e0"/>
          <path id="Trazado_839400" data-name="Trazado 839400" d="M122.339,309.43H105.4V114.551a6.578,6.578,0,0,1,6.577-6.577h3.78a6.578,6.578,0,0,1,6.577,6.577Z" transform="translate(-9.226 -9.451)" fill="#ebebeb"/>
          <path id="Trazado_839401" data-name="Trazado 839401" d="M114.6,108.461c-.506,0-.918-2.618-.918-5.847s.412-5.847.918-5.847.918,2.618.918,5.847-.412,5.847-.918,5.847" transform="translate(-9.95 -8.47)" fill="#e0e0e0"/>
          <path id="Trazado_839402" data-name="Trazado 839402" d="M136.36,106.069c-.507,0-.918-1.734-.918-3.872s.411-3.872.918-3.872.917,1.733.917,3.872-.411,3.872-.917,3.872" transform="translate(-11.855 -8.607)" fill="#e0e0e0"/>
          <path id="Trazado_839403" data-name="Trazado 839403" d="M150.908,110.029c-.507,0-.918-2.194-.918-4.9s.411-4.9.918-4.9.917,2.194.917,4.9-.411,4.9-.917,4.9" transform="translate(-13.129 -8.773)" fill="#e0e0e0"/>
        </g>
      </g>
      <g id="Grupo_1077880" data-name="Grupo 1077880">
        <g id="Grupo_1077879" data-name="Grupo 1077879" clip-path="url(#clip-path)">
          <path id="Trazado_839404" data-name="Trazado 839404" d="M304.315,385.3c0,.131-65.517.237-146.318.237-80.829,0-146.333-.106-146.333-.237s65.5-.237,146.333-.237c80.8,0,146.318.106,146.318.237" transform="translate(-1.021 -33.705)" fill="#263238"/>
        </g>
      </g>
      <g id="Grupo_1077888" data-name="Grupo 1077888">
        <g id="Grupo_1077887" data-name="Grupo 1077887" clip-path="url(#clip-path)">
          <path id="Trazado_839405" data-name="Trazado 839405" d="M213.982,354.243l.324,18.342s-18.535,6.489-18.805,9.885l35.586.65.668-28.6Z" transform="translate(-17.112 -31.007)" fill="#263238"/>
          <path id="Trazado_839406" data-name="Trazado 839406" d="M228.031,372.868a1.453,1.453,0,0,1,.975,1.677,1.4,1.4,0,0,1-1.653.98,1.533,1.533,0,0,1-1.023-1.781,1.45,1.45,0,0,1,1.833-.829" transform="translate(-19.806 -32.632)" fill="#e0e0e0"/>
          <path id="Trazado_839407" data-name="Trazado 839407" d="M231.086,385.611l-.046-2.885-34.1.456s-1.6.661-1.438,1.78Z" transform="translate(-17.111 -33.5)" fill="#455a64"/>
          <path id="Trazado_839408" data-name="Trazado 839408" d="M215.482,374.12c0,.174.87.268,1.715.843.86.552,1.287,1.313,1.448,1.246.161-.03-.079-1.074-1.114-1.751s-2.083-.5-2.049-.339" transform="translate(-18.861 -32.734)" fill="#fff"/>
          <path id="Trazado_839409" data-name="Trazado 839409" d="M211.36,375.745c-.043.168.7.476,1.281,1.223.6.728.734,1.526.907,1.521.162.031.3-.985-.433-1.9s-1.747-1.012-1.755-.846" transform="translate(-18.5 -32.883)" fill="#fff"/>
          <path id="Trazado_839410" data-name="Trazado 839410" d="M208.82,380.315c.157.04.415-.824-.014-1.784s-1.235-1.353-1.311-1.21c-.1.141.418.662.757,1.454.359.786.4,1.519.568,1.539" transform="translate(-18.161 -33.025)" fill="#fff"/>
          <path id="Trazado_839411" data-name="Trazado 839411" d="M215.908,369.487c.07.16.871-.066,1.852.019.983.065,1.741.408,1.834.261.1-.124-.631-.781-1.788-.864s-1.981.446-1.9.584" transform="translate(-18.898 -32.289)" fill="#fff"/>
          <path id="Trazado_839412" data-name="Trazado 839412" d="M263.18,353.012l1.927,22.111-3.518,17.927a2.274,2.274,0,0,0,3.9,1.98c3.172-3.458,14.777-16.238,14.546-17.849-.268-1.865-.485-23.458-.485-23.458Z" transform="translate(-22.893 -30.899)" fill="#263238"/>
          <path id="Trazado_839413" data-name="Trazado 839413" d="M263.727,397.919l16.406-20.057.06.938a3.432,3.432,0,0,1-.668,2.267c-1.3,1.743-5,6.477-13.776,16.134a2.273,2.273,0,0,1-2.023.717" transform="translate(-23.084 -33.074)" fill="#455a64"/>
          <g id="Grupo_1077883" data-name="Grupo 1077883" transform="translate(251.551 337.674)" opacity="0.6">
            <g id="Grupo_1077882" data-name="Grupo 1077882">
              <g id="Grupo_1077881" data-name="Grupo 1077881" clip-path="url(#clip-path-5)">
                <path id="Trazado_839414" data-name="Trazado 839414" d="M276.176,370.327a1.376,1.376,0,0,0-.261,1.818,1.324,1.324,0,0,0,1.8.274,1.451,1.451,0,0,0,.266-1.925,1.372,1.372,0,0,0-1.9-.078" transform="translate(-275.682 -370.066)" fill="#fff"/>
              </g>
            </g>
          </g>
          <path id="Trazado_839415" data-name="Trazado 839415" d="M268.149,388.658a4.911,4.911,0,0,0-4.634-1.923c-.023-.053.246-.243.76-.349a3.627,3.627,0,0,1,3.584,1.486c.287.439.343.764.289.786" transform="translate(-23.066 -33.815)" fill="#fff"/>
          <path id="Trazado_839416" data-name="Trazado 839416" d="M266.67,392.109a18.638,18.638,0,0,0-2.023-.827,18.479,18.479,0,0,0-2.181-.14,2.518,2.518,0,0,1,2.29-.335c1.329.3,2.025,1.235,1.913,1.3" transform="translate(-22.974 -34.199)" fill="#fff"/>
          <path id="Trazado_839417" data-name="Trazado 839417" d="M270.934,384.29A22.616,22.616,0,0,0,267.9,382.8a22.588,22.588,0,0,0-3.334-.555,6.214,6.214,0,0,1,6.37,2.041" transform="translate(-23.157 -33.437)" fill="#fff"/>
          <path id="Trazado_839418" data-name="Trazado 839418" d="M270.963,377.019c-.05.137-1.307-.3-2.9-.252-1.6.023-2.833.508-2.89.374a5.642,5.642,0,0,1,5.792-.122" transform="translate(-23.21 -32.936)" fill="#fff"/>
          <path id="Trazado_839419" data-name="Trazado 839419" d="M270.512,369.879a7.224,7.224,0,0,0-5.9.584c-.039-.044.185-.338.677-.665a4.958,4.958,0,0,1,4.434-.439c.547.225.824.469.794.52" transform="translate(-23.161 -32.301)" fill="#fff"/>
          <path id="Trazado_839420" data-name="Trazado 839420" d="M267.379,367.8a1.906,1.906,0,0,1-.084-.836,5.838,5.838,0,0,1,.525-2.237,2.59,2.59,0,0,1,1.028-1.3.914.914,0,0,1,1.041.137,1.492,1.492,0,0,1,.414.978,3.216,3.216,0,0,1-2.621,3.148,3.731,3.731,0,0,1-3.78-1.712,1.3,1.3,0,0,1-.13-1.07.9.9,0,0,1,.906-.533,3.173,3.173,0,0,1,1.507.664,6.505,6.505,0,0,1,1.622,1.624,1.988,1.988,0,0,1,.39.743,10.346,10.346,0,0,0-2.2-2.08,2.976,2.976,0,0,0-1.329-.547.477.477,0,0,0-.5.288.887.887,0,0,0,.127.7,3.326,3.326,0,0,0,3.293,1.446,2.791,2.791,0,0,0,2.264-2.641,1.078,1.078,0,0,0-.261-.694.5.5,0,0,0-.573-.084,2.34,2.34,0,0,0-.891,1.088,8.593,8.593,0,0,0-.752,2.924" transform="translate(-23.082 -31.801)" fill="#fff"/>
          <path id="Trazado_839421" data-name="Trazado 839421" d="M261.846,181.543s15.48,5.8,18.626,3.7,6.03-3.933,7.079-9.963,7.866-42.073,5.506-55.121S280.472,80.37,280.472,80.37c-3.538-9.443-11.787-12.561-20.976-14.421l-17.3,3.671,18.477,102.957Z" transform="translate(-21.199 -5.773)" fill="#fea772"/>
          <g id="Grupo_1077886" data-name="Grupo 1077886" transform="translate(220.558 60.176)" opacity="0.3">
            <g id="Grupo_1077885" data-name="Grupo 1077885" transform="translate(0)">
              <g id="Grupo_1077884" data-name="Grupo 1077884" clip-path="url(#clip-path-6)">
                <path id="Trazado_839422" data-name="Trazado 839422" d="M261.846,181.543s15.48,5.8,18.626,3.7,6.03-3.933,7.079-9.963,7.866-42.073,5.506-55.121S280.472,80.37,280.472,80.37c-3.538-9.443-11.787-12.561-20.976-14.421l-17.3,3.671,18.477,102.957Z" transform="translate(-242.192 -65.949)"/>
              </g>
            </g>
          </g>
          <path id="Trazado_839423" data-name="Trazado 839423" d="M282.975,148.1a1.657,1.657,0,0,1,.042.454c.006.353.016.783.026,1.3.019.568-.017,1.258-.049,2.062s-.089,1.718-.18,2.726a129.428,129.428,0,0,1-2.48,15.605c-1.3,6.036-2.715,11.442-3.8,15.336-.539,1.947-1,3.517-1.327,4.6l-.391,1.242a1.628,1.628,0,0,1-.168.424,1.678,1.678,0,0,1,.076-.45c.082-.343.182-.76.3-1.266.3-1.166.7-2.732,1.181-4.636,1-3.914,2.364-9.325,3.661-15.348a154.675,154.675,0,0,0,2.611-15.539c.111-1,.2-1.91.248-2.709s.12-1.487.13-2.05c.025-.519.046-.947.063-1.3a1.654,1.654,0,0,1,.054-.454" transform="translate(-24.04 -12.964)" fill="#263238"/>
          <path id="Trazado_839424" data-name="Trazado 839424" d="M294.663,156.045A17.931,17.931,0,0,1,286.948,155a26.76,26.76,0,0,1,3.864.476,26.723,26.723,0,0,1,3.851.57" transform="translate(-25.117 -13.564)" fill="#263238"/>
          <path id="Trazado_839425" data-name="Trazado 839425" d="M289.46,183.434a26.819,26.819,0,0,1-6.9-1.773,26.792,26.792,0,0,1,6.9,1.773" transform="translate(-24.732 -15.898)" fill="#263238"/>
          <path id="Trazado_839426" data-name="Trazado 839426" d="M194.948,179.255s-3.226,17.375-2.247,30.1c.379,4.925,19,140.773,19,140.773h22.442l-6.309-128.07,1.838.4s12.251,54.621,13.25,63.465c.9,7.949,11.23,65.7,11.23,65.7l20.52.236-6.553-76.386L260.5,202.181l-2.869-21.335Z" transform="translate(-16.851 -15.69)" fill="#455a64"/>
          <path id="Trazado_839427" data-name="Trazado 839427" d="M233.985,210.123a4.334,4.334,0,0,1-.936.527,10.757,10.757,0,0,1-2.779.973,5.863,5.863,0,0,1-2.068.016,4.252,4.252,0,0,1-2.162-1.038,5.131,5.131,0,0,1-1.311-2.291c-.265-.872-.416-1.779-.6-2.7-.715-3.7-1.2-7.072-1.483-9.521-.141-1.225-.235-2.218-.287-2.906a4.637,4.637,0,0,1-.028-1.073,4.683,4.683,0,0,1,.212,1.052c.119.78.264,1.744.436,2.883.367,2.434.9,5.79,1.616,9.475.362,1.821.61,3.677,1.747,4.765a4.664,4.664,0,0,0,3.874,1.008,12.64,12.64,0,0,0,2.758-.81,5.075,5.075,0,0,1,1.011-.359" transform="translate(-19.459 -16.815)" fill="#263238"/>
          <path id="Trazado_839428" data-name="Trazado 839428" d="M227.547,192.8c-.007-.02.145-.117.462-.137a2.019,2.019,0,0,1,1.256.4,2.246,2.246,0,0,1,.945,1.734,2.224,2.224,0,0,1-3.789,1.421,2.242,2.242,0,0,1-.427-1.927,2.01,2.01,0,0,1,.68-1.13c.251-.193.43-.221.438-.2a2.531,2.531,0,0,0-.788,1.393,1.961,1.961,0,0,0,.426,1.575,1.819,1.819,0,0,0,3.022-1.133,1.963,1.963,0,0,0-.714-1.467,2.535,2.535,0,0,0-1.51-.531" transform="translate(-19.776 -16.864)" fill="#263238"/>
          <path id="Trazado_839429" data-name="Trazado 839429" d="M265.01,202.237a2.416,2.416,0,0,1-.764.12,14.441,14.441,0,0,1-2.105.025,20.386,20.386,0,0,1-12.6-5.308,14.269,14.269,0,0,1-1.453-1.523c-.314-.386-.474-.609-.449-.63.064-.056.785.77,2.123,1.9a22.625,22.625,0,0,0,12.4,5.224c1.745.169,2.839.108,2.843.192" transform="translate(-21.676 -17.061)" fill="#263238"/>
          <path id="Trazado_839430" data-name="Trazado 839430" d="M205.709,193.267a9.564,9.564,0,0,1-1.164,2.288,25.72,25.72,0,0,1-8.829,8.585,9.582,9.582,0,0,1-2.32,1.1,24.354,24.354,0,0,1,2.144-1.386,31.091,31.091,0,0,0,8.724-8.482,24.168,24.168,0,0,1,1.445-2.1" transform="translate(-16.928 -16.917)" fill="#263238"/>
          <path id="Trazado_839431" data-name="Trazado 839431" d="M193.59,23.063c1.448-1.828,3.238-3.588,3.609-5.89.341-2.116-.585-4.434.364-6.356,1.168-2.365,4.524-2.827,5.98-5.027.7-1.065.871-2.414,1.568-3.486C206.295.478,208.729-.11,210.9.015s4.293.8,6.469.846c2.986.063,6.009-1.058,8.908-.342,3.2.789,5.262,3.485,7.444,6.085l2.827,3a11.728,11.728,0,0,0,1.851,1.359,21.211,21.211,0,0,1,3.484,1.992,5.273,5.273,0,0,1,.024,7.6,5.639,5.639,0,0,1,4.065,5.339,16.176,16.176,0,0,1-.835,3.873,5.637,5.637,0,0,0,.082,3.886,2.478,2.478,0,0,0,3.3,1.238,5.932,5.932,0,0,1-3.039,4.1,3.541,3.541,0,0,0,2.434.943c-2.14,5.784-8.562,9.079-14.72,9.406s-12.167-1.728-17.991-3.755l-16.791-3.522c-1.473-.265-2.163-2.006-2.213-3.5s.255-3.067-.345-4.437c-.822-1.879-3.1-2.789-3.951-4.653-.973-2.119.238-4.591,1.686-6.418" transform="translate(-16.767 0)" fill="#263238"/>
          <path id="Trazado_839432" data-name="Trazado 839432" d="M237.273,37.2a68.432,68.432,0,0,0,2.384-11.562,23.886,23.886,0,0,0-1.535-11.6c-.236-.549-2.2-4.209-2.792-4.12-.422.064.85,3.507.654,3.886a20.266,20.266,0,0,0-1.67,11.919A53.391,53.391,0,0,0,237.273,37.2" transform="translate(-20.49 -0.868)" fill="#263238"/>
          <path id="Trazado_839433" data-name="Trazado 839433" d="M236.386,60.681l-2.365-39.025c-.188-9.88-6.094-18.006-15.965-17.545l-.91.1a17.666,17.666,0,0,0-15.812,18c.21,8.563.552,18.021,1.089,22.571,1.11,9.418,10.7,9.889,10.7,9.889.021,0,.519,7.624.519,7.624" transform="translate(-17.622 -0.358)" fill="#ffbe9d"/>
          <path id="Trazado_839434" data-name="Trazado 839434" d="M214.25,59.045a22.908,22.908,0,0,0,11.895-4.925s-2.224,7.174-11.723,7.317Z" transform="translate(-18.753 -4.737)" fill="#eb996e"/>
          <path id="Trazado_839435" data-name="Trazado 839435" d="M206.509,31.242a1.354,1.354,0,0,0,1.442,1.222,1.3,1.3,0,0,0,1.26-1.36,1.355,1.355,0,0,0-1.44-1.223,1.3,1.3,0,0,0-1.262,1.361" transform="translate(-18.076 -2.615)" fill="#263238"/>
          <path id="Trazado_839436" data-name="Trazado 839436" d="M203.992,27.836c.185.158,1.126-.7,2.576-.854,1.445-.169,2.588.464,2.726.27.068-.087-.135-.386-.633-.674a3.715,3.715,0,0,0-2.205-.433,3.571,3.571,0,0,0-2.028.9c-.409.39-.527.723-.436.793" transform="translate(-17.853 -2.286)" fill="#263238"/>
          <path id="Trazado_839437" data-name="Trazado 839437" d="M221.288,30.2a1.355,1.355,0,0,0,1.442,1.222,1.3,1.3,0,0,0,1.26-1.36,1.355,1.355,0,0,0-1.441-1.223,1.3,1.3,0,0,0-1.261,1.361" transform="translate(-19.369 -2.524)" fill="#263238"/>
          <path id="Trazado_839438" data-name="Trazado 839438" d="M219.616,26.839c.186.158,1.128-.7,2.576-.853,1.445-.17,2.588.464,2.726.269.068-.087-.133-.385-.633-.673a3.706,3.706,0,0,0-2.205-.433,3.577,3.577,0,0,0-2.027.9c-.409.39-.527.723-.437.793" transform="translate(-19.221 -2.199)" fill="#263238"/>
          <path id="Trazado_839439" data-name="Trazado 839439" d="M214.842,38.641a9.631,9.631,0,0,0-2.4-.177c-.374,0-.733-.036-.821-.281a1.89,1.89,0,0,1,.131-1.123q.38-1.4.8-2.933c1.1-4.173,1.85-7.587,1.682-7.63s-1.194,3.3-2.291,7.477q-.393,1.541-.749,2.945a2.154,2.154,0,0,0-.039,1.473.934.934,0,0,0,.665.477,2.528,2.528,0,0,0,.638.021,9.476,9.476,0,0,0,2.386-.248" transform="translate(-18.472 -2.319)" fill="#263238"/>
          <path id="Trazado_839440" data-name="Trazado 839440" d="M219.594,40.412c-.237.011-.074,1.584-1.3,2.843s-2.922,1.261-2.911,1.483c-.011.1.406.266,1.116.211a3.942,3.942,0,0,0,2.439-1.149,3.431,3.431,0,0,0,.991-2.373c-.009-.664-.225-1.035-.332-1.015" transform="translate(-18.852 -3.537)" fill="#263238"/>
          <path id="Trazado_839441" data-name="Trazado 839441" d="M219.026,20.413c.184.379,1.611.039,3.333.066,1.723-.009,3.146.344,3.334-.033.083-.18-.2-.526-.79-.849a5.793,5.793,0,0,0-5.079-.025c-.6.318-.88.66-.8.84" transform="translate(-19.17 -1.663)" fill="#263238"/>
          <path id="Trazado_839442" data-name="Trazado 839442" d="M204.089,22.48c.289.3,1.252-.145,2.451-.287,1.194-.184,2.24-.012,2.437-.381.085-.178-.109-.491-.587-.756a3.575,3.575,0,0,0-3.939.539c-.388.383-.492.736-.362.885" transform="translate(-17.859 -1.811)" fill="#263238"/>
          <path id="Trazado_839443" data-name="Trazado 839443" d="M237.119,31.029c.153-.087,6.277-2.6,6.751,3.869s-6.119,5.61-6.144,5.426-.608-9.294-.608-9.294" transform="translate(-20.755 -2.668)" fill="#ffbe9d"/>
          <path id="Trazado_839444" data-name="Trazado 839444" d="M239.754,37.923c.027-.023.119.07.315.144a1.134,1.134,0,0,0,.844-.045,2.8,2.8,0,0,0,1.107-2.6,3.73,3.73,0,0,0-.433-1.59,1.305,1.305,0,0,0-.911-.8.575.575,0,0,0-.642.358c-.074.187-.023.314-.057.327-.017.018-.147-.1-.114-.369a.725.725,0,0,1,.224-.424.853.853,0,0,1,.611-.21,1.585,1.585,0,0,1,1.25.916,3.836,3.836,0,0,1,.523,1.775,2.933,2.933,0,0,1-1.439,2.914,1.207,1.207,0,0,1-1.043-.1c-.213-.145-.257-.287-.235-.3" transform="translate(-20.985 -2.864)" fill="#eb996e"/>
          <path id="Trazado_839445" data-name="Trazado 839445" d="M205.145,11.1c-1.085-.511,1.84-4.105,4.34-5.439,3.777-2.015,9.648-3.485,13.3-2.7,4.4.947,8.124,2.864,10.545,6.656a25.51,25.51,0,0,1,3.694,12.815,7.74,7.74,0,0,1-.657,4.013c-.812,1.489-2.488,2.5-2.286,4.471a2.719,2.719,0,0,1-.545,2.019c-1.1,1.337-2.628.246-3.371-.9-1.586-2.444-1.939-5.46-2.251-8.356a18.965,18.965,0,0,1,.013-6.182c.247-1.1.691-2.152.876-3.263a3.9,3.9,0,0,0-.666-3.2,4.059,4.059,0,0,0-.56-.5A6.762,6.762,0,0,0,220.8,9.69c-3.561,1.524-9.662,3.851-11.368,2.718a9.989,9.989,0,0,1-3.087-2.754Z" transform="translate(-17.936 -0.24)" fill="#263238"/>
          <path id="Trazado_839446" data-name="Trazado 839446" d="M222.665,1.99a14.246,14.246,0,0,0-10.9,1.3,7.42,7.42,0,0,0-3.626,4.55,4.252,4.252,0,0,0,2.446,4.889l.132.072c2.821.751,4.592.266,7.284-.864,2.265-.951,4.234-2.514,6.5-3.454a13.178,13.178,0,0,1,7.685-.719,21.517,21.517,0,0,0-9.529-5.777" transform="translate(-18.211 -0.128)" fill="#263238"/>
          <path id="Trazado_839447" data-name="Trazado 839447" d="M247.4,43.673c0-.026-.229.036-.658.023a3.331,3.331,0,0,1-1.732-.616,4.175,4.175,0,0,1-1.646-2.353,7.867,7.867,0,0,1,.077-3.873c.32-1.425.942-2.93,1.3-4.659a8.389,8.389,0,0,0,.141-2.742,5.215,5.215,0,0,0-1.117-2.716,6.2,6.2,0,0,0-2.6-1.646,16.423,16.423,0,0,1-2.832-1.214,9.149,9.149,0,0,1-3.578-5.166c-.706-2.114-.985-4.31-1.564-6.378a11.63,11.63,0,0,0-2.887-5.458,7.75,7.75,0,0,0-5.177-2.054,10.145,10.145,0,0,0-4.758,1.052,15.008,15.008,0,0,0-5.248,4.628c-.491.669-.832,1.215-1.058,1.589a3.441,3.441,0,0,0-.313.587,3.527,3.527,0,0,0,.392-.536c.25-.356.615-.882,1.123-1.529a15.353,15.353,0,0,1,5.249-4.44,9.878,9.878,0,0,1,4.6-.962,7.373,7.373,0,0,1,4.892,1.978,11.26,11.26,0,0,1,2.742,5.267c.564,2.028.839,4.232,1.563,6.4a9.56,9.56,0,0,0,3.782,5.41,16.626,16.626,0,0,0,2.912,1.241,5.8,5.8,0,0,1,2.431,1.508,4.816,4.816,0,0,1,1.037,2.488,8.027,8.027,0,0,1-.115,2.612c-.33,1.682-.934,3.2-1.244,4.663a8.057,8.057,0,0,0,0,4.019,4.324,4.324,0,0,0,1.8,2.433,3.283,3.283,0,0,0,1.832.558,1.9,1.9,0,0,0,.659-.118" transform="translate(-18.71 -0.422)" fill="#455a64"/>
          <path id="Trazado_839448" data-name="Trazado 839448" d="M215.924,1.959a4.04,4.04,0,0,0-1.963.3,7.514,7.514,0,0,0-5.113,7.5,4.043,4.043,0,0,0,.441,1.935c.079-.019-.13-.749-.109-1.94a8.068,8.068,0,0,1,1.353-4.34,8.071,8.071,0,0,1,3.545-2.843c1.1-.454,1.857-.526,1.846-.607" transform="translate(-18.28 -0.169)" fill="#455a64"/>
          <path id="Trazado_839449" data-name="Trazado 839449" d="M202.268,9.078a3.428,3.428,0,0,0-.492,2.362,3.429,3.429,0,0,0,.774,2.286c.127-.055-.235-1.046-.3-2.314-.085-1.267.155-2.295.023-2.334" transform="translate(-17.661 -0.794)" fill="#455a64"/>
          <path id="Trazado_839450" data-name="Trazado 839450" d="M172.374,171.537l-3.734,35.13L165.1,219.978l3.639,9.925,7.172,5.494a2.056,2.056,0,0,0,1.063-1.772l3.368-.177a7.58,7.58,0,0,0-2.659-1.95l2.659-.886a2.723,2.723,0,0,0-2.3-1.241,32.175,32.175,0,0,1-3.9-.354l-1.418-1.95-1.3-6.026,3.245-2.481,1.95,3.545.354,5.317s1.95.709,2.482-3.19.177-12.761-.355-14.179-1.6-4.431-1.6-4.431l8.6-31.333Z" transform="translate(-14.451 -15.015)" fill="#ffbe9d"/>
          <path id="Trazado_839451" data-name="Trazado 839451" d="M212.293,66.642,187.279,80.325l11.42,33.428,1.322,23.8-7.567,38.558s20.651,3.12,28.913,3.96c5.522.561,37.6-3.027,37.6-3.027l-1.443-41.354-1.967-54.64L257,69.994l-23.563-7.453Z" transform="translate(-16.393 -5.474)" fill="#f7c99c"/>
          <path id="Trazado_839452" data-name="Trazado 839452" d="M214.206,67.547v-3.68l23.512-3.441-.245,7.121-23.72,2.547Z" transform="translate(-18.71 -5.289)" fill="#f7c99c"/>
          <path id="Trazado_839453" data-name="Trazado 839453" d="M261.31,70c.721,0,11.653.644,15.019,8.819s15.869,43.758,15.869,50.25-2.4,12.984-8.175,13.945-16.109-5.77-16.109-5.77l9.137-19.956-14.4-8.189L259.74,76.419Z" transform="translate(-22.735 -6.127)" fill="#f7c99c"/>
          <path id="Trazado_839454" data-name="Trazado 839454" d="M185.944,82.032s-3.073,3.246-3.526,12.056-2.71,39.079-2.71,39.079l-7.68,31.173,16.615,3.824,9.169-33.789,2.9-31.262Z" transform="translate(-15.058 -7.18)" fill="#f7c99c"/>
          <path id="Trazado_839455" data-name="Trazado 839455" d="M200.4,140.33a1.835,1.835,0,0,1-.075-.477c-.032-.369-.073-.823-.12-1.376-.09-1.266-.21-2.978-.358-5.063-.281-4.277-.635-10.186-1-16.715,0-.054-.005-.109-.008-.159l.016.075c-2.4-6.077-3.821-11.8-5.113-15.847-.629-2.03-1.172-3.661-1.563-4.782-.181-.519-.328-.946-.448-1.293a1.85,1.85,0,0,1-.129-.463,1.885,1.885,0,0,1,.217.428c.125.287.316.709.531,1.263.446,1.1,1.04,2.723,1.71,4.745,1.377,4.03,2.852,9.739,5.236,15.773l.016.036,0,.039c0,.049.005.1.008.158.363,6.529.666,12.442.86,16.723.085,2.089.154,3.8.205,5.072.014.555.024,1.011.033,1.381a1.923,1.923,0,0,1-.021.483" transform="translate(-16.771 -8.248)" fill="#455a64"/>
          <path id="Trazado_839456" data-name="Trazado 839456" d="M198.239,187.065a6.261,6.261,0,0,1,.812-5.629c.127.062-.4,1.24-.612,2.785-.231,1.542-.061,2.82-.2,2.844" transform="translate(-17.322 -15.881)" fill="#455a64"/>
          <path id="Trazado_839457" data-name="Trazado 839457" d="M209.446,189.136a7.211,7.211,0,0,1-.386-6.038c.137.032-.11,1.376,0,3.031.1,1.656.515,2.958.382,3.007" transform="translate(-18.256 -16.027)" fill="#455a64"/>
          <path id="Trazado_839458" data-name="Trazado 839458" d="M222.178,191.691c-.139,0-.267-1.715-.693-3.783s-.964-3.7-.835-3.754a13.756,13.756,0,0,1,1.527,7.537" transform="translate(-19.312 -16.119)" fill="#455a64"/>
          <path id="Trazado_839459" data-name="Trazado 839459" d="M233.339,190.409a16.013,16.013,0,0,1-.554-3.213,16.009,16.009,0,0,1-.363-3.24,14.227,14.227,0,0,1,.917,6.453" transform="translate(-20.341 -16.102)" fill="#455a64"/>
          <path id="Trazado_839460" data-name="Trazado 839460" d="M245.553,187.433c-.141-.014-.065-1.42-.344-3.111s-.781-3-.651-3.061a8.06,8.06,0,0,1,1,6.172" transform="translate(-21.404 -15.866)" fill="#455a64"/>
          <path id="Trazado_839461" data-name="Trazado 839461" d="M257.681,186.737c-.145,0-.183-1.735-.915-3.7-.709-1.978-1.8-3.332-1.686-3.423a8.57,8.57,0,0,1,2.6,7.127" transform="translate(-22.326 -15.721)" fill="#455a64"/>
          <path id="Trazado_839462" data-name="Trazado 839462" d="M239.182,56.754l.517,8.536.8,7.246,6.276,4.087s11.739-8.17,20.751-6.809S280.877,81.34,280.877,81.34s-3.029-11.3-10.37-13.488a69.977,69.977,0,0,1-12.566-5.068l-5.253-6.031h-7.572a4.527,4.527,0,0,0-3.975,2.36Z" transform="translate(-20.936 -4.968)" fill="#fea772"/>
          <path id="Trazado_839463" data-name="Trazado 839463" d="M233.623,74.926l5.839-.876,6.276,4.087,1.752,9.926,2.043,11.386,24.683,17.206s4.566,6.293-1.081,15.635c0,0-4.478,4.7-8.054,4.321s-22.554-31.269-22.554-31.269-4.379-3.266-4.525-5.164a33.382,33.382,0,0,1,.876-6.422l-1.752-1.168-1.751.876s1.313,5.255-1.752,5.839c0,0-1.606,1.9-3.357,1.459v-7.3a3.637,3.637,0,0,1-2.92-.876l1.314-4.817,5.985-5.4,6.568.438-.292-3.795-2.773-1.606s-4.817.438-4.525-2.481" transform="translate(-19.9 -6.482)" fill="#ffbe9d"/>
          <path id="Trazado_839464" data-name="Trazado 839464" d="M239.184,77.474s2.279,1.716,4.105-1.539V74.819l2.384,1.023a4.19,4.19,0,0,1-3.716,3.238,2.964,2.964,0,0,1-2.188-.965Z" transform="translate(-20.936 -6.549)" fill="#fea772"/>
          <path id="Trazado_839465" data-name="Trazado 839465" d="M247.113,71.73c-.011.031-.208-.022-.559-.147a2.774,2.774,0,0,1-.619-.283,4.4,4.4,0,0,1-.763-.485,8.768,8.768,0,0,1-2.9-4.271,19.369,19.369,0,0,1-.969-5.071,7.859,7.859,0,0,1,.02-2.133,11.944,11.944,0,0,1,.314,2.1,24.794,24.794,0,0,0,1.083,4.946,9.317,9.317,0,0,0,2.662,4.166c.983.822,1.769,1.089,1.731,1.177" transform="translate(-21.117 -5.194)" fill="#263238"/>
          <path id="Trazado_839466" data-name="Trazado 839466" d="M260.58,66.581a38.172,38.172,0,0,0-7.512,2.4,38.144,38.144,0,0,0-6.6,4.314,8.061,8.061,0,0,1,1.639-1.674,22,22,0,0,1,10.14-4.821,8.04,8.04,0,0,1,2.334-.214" transform="translate(-21.573 -5.826)" fill="#263238"/>
        </g>
      </g>
      <rect id="Rectángulo_381033" data-name="Rectángulo 381033" width="120.442" height="5.604" transform="translate(53.635 234.911) rotate(-89.058)" fill="#455a64"/>
      <path id="Trazado_839467" data-name="Trazado 839467" d="M54.616,257.446,11.21,374.09l4.827.079L60.22,257.538Z" transform="translate(-0.981 -22.534)" fill="#455a64"/>
      <path id="Trazado_839468" data-name="Trazado 839468" d="M64.51,257.54l39.179,116.589-4.921-.081-39.861-116.6Z" transform="translate(-5.156 -22.535)" fill="#455a64"/>
      <rect id="Rectángulo_381034" data-name="Rectángulo 381034" width="4.113" height="41.206" transform="matrix(0.016, -1, 1, 0.016, 34.804, 297.347)" fill="#455a64"/>
      <path id="Trazado_839469" data-name="Trazado 839469" d="M90.5,54.771l21.707,7.82L122.914,47.41l-12.092-15.5Z" transform="translate(-7.922 -2.793)" fill="#455a64"/>
      <g id="Grupo_1077890" data-name="Grupo 1077890">
        <g id="Grupo_1077889" data-name="Grupo 1077889" clip-path="url(#clip-path)">
          <path id="Trazado_839470" data-name="Trazado 839470" d="M56.521,11.733h0A9.31,9.31,0,0,0,58.637,24.9l22.47,14.782L91.854,25.511,69.351,9.672a9.311,9.311,0,0,0-12.83,2.06" transform="translate(-4.786 -0.698)" fill="#263238"/>
          <path id="Trazado_839471" data-name="Trazado 839471" d="M87.7,25.457l26.123,5.08L91.063,58.464S80.59,35.407,80.608,34.323Z" transform="translate(-7.056 -2.228)" fill="#263238"/>
          <rect id="Rectángulo_381035" data-name="Rectángulo 381035" width="93.329" height="2.802" transform="translate(57.024 114.509) rotate(-89.067)" fill="#263238"/>
          <path id="Trazado_839472" data-name="Trazado 839472" d="M94,57.779,98.536,75.2l-3.037.5L91.576,60.3Z" transform="translate(-8.016 -5.057)" fill="#263238"/>
          <path id="Trazado_839473" data-name="Trazado 839473" d="M116.661,31.024l15.785,2.8-1.421,2.641L112.973,33.5Z" transform="translate(-9.889 -2.716)" fill="#263238"/>
          <path id="Trazado_839474" data-name="Trazado 839474" d="M83.348,41.148a13.3,13.3,0,0,0,1.711-1.993c1-1.275,2.337-3.07,3.78-5.074L92.5,28.928a15.582,15.582,0,0,0,1.442-2.193,13.3,13.3,0,0,0-1.711,1.993C91.232,30,89.9,31.8,88.453,33.8c-1.384,1.947-2.636,3.707-3.664,5.152a15.65,15.65,0,0,0-1.441,2.194" transform="translate(-7.295 -2.34)" fill="#455a64"/>
          <path id="Trazado_839475" data-name="Trazado 839475" d="M93.21,29.023A16.6,16.6,0,0,0,96,30.016c1.743.542,4.174,1.222,6.885,1.864s5.19,1.12,6.991,1.416a16.518,16.518,0,0,0,2.935.36,20.35,20.35,0,0,0-2.872-.689c-1.782-.381-4.241-.911-6.945-1.549s-5.139-1.267-6.9-1.725a20.109,20.109,0,0,0-2.877-.67" transform="translate(-8.159 -2.54)" fill="#455a64"/>
          <path id="Trazado_839476" data-name="Trazado 839476" d="M85.922,40.824a19.5,19.5,0,0,0,1.344,2.288c.849,1.4,1.968,3.356,3.049,5.6s1.91,4.344,2.47,5.879a19.558,19.558,0,0,0,.948,2.479,11.78,11.78,0,0,0-.63-2.587,44.6,44.6,0,0,0-5.555-11.553,11.9,11.9,0,0,0-1.627-2.107" transform="translate(-7.52 -3.573)" fill="#455a64"/>
        </g>
      </g>
    </g>
  </g>
</svg>
