<svg xmlns="http://www.w3.org/2000/svg" xmlns:xlink="http://www.w3.org/1999/xlink" width="1030" height="464.287" viewBox="0 0 1030 464.287">
  <defs>
    <linearGradient id="linear-gradient" x1="0.5" x2="0.5" y2="1" gradientUnits="objectBoundingBox">
      <stop offset="0" stop-color="#fff"/>
      <stop offset="0.586" stop-color="#f7f4ff" stop-opacity="0.878"/>
      <stop offset="0.858" stop-color="#e9dfff" stop-opacity="0.565"/>
      <stop offset="1" stop-color="#d1bcff" stop-opacity="0.051"/>
    </linearGradient>
    <clipPath id="clip-path">
      <rect id="Rectángulo_381037" data-name="Rectángulo 381037" width="332.388" height="399.872" fill="none"/>
    </clipPath>
    <clipPath id="clip-path-5">
      <rect id="Rectángulo_381030" data-name="Rectángulo 381030" width="2.801" height="2.839" transform="translate(275.682 370.066)" fill="none"/>
    </clipPath>
    <clipPath id="clip-path-6">
      <rect id="Rectángulo_381031" data-name="Rectángulo 381031" width="56.285" height="131.243" transform="translate(242.192 65.949)" fill="none"/>
    </clipPath>
  </defs>
  <g id="Grupo_1078877" data-name="Grupo 1078877" transform="translate(-285 -5137.336)">
    <g id="Grupo_1077893" data-name="Grupo 1077893" transform="translate(0 -92.984)">
      <path id="Trazado_838958" data-name="Trazado 838958" d="M0,0H1030V464.287H0V0Z" transform="translate(1315 5694.608) rotate(180)" fill="url(#linear-gradient)"/>
      <g id="Grupo_1077249" data-name="Grupo 1077249">
        <path id="Trazado_61155" data-name="Trazado 61155" d="M16825,2514.667h138.51v131.25h-79.564" transform="translate(-16225 2773.862)" fill="none" stroke="#361274" stroke-width="2"/>
        <path id="Trazado_61156" data-name="Trazado 61156" d="M16890.633,2514.667h75.5V2718.8h-120.8" transform="translate(-16227.621 2917.599)" fill="none" stroke="#361274" stroke-width="2"/>
        <text id="de_la_cintura_hacia_arriba." data-name="de la cintura hacia arriba." transform="translate(764.176 5372)" fill="#12263f" font-size="16" font-family="Roboto-Regular, Roboto"><tspan x="0" y="0">de la cintura hacia arriba.</tspan></text>
        <text id="de_la_cintura_hacia_arriba.-2" data-name="de la cintura hacia arriba." transform="translate(1022.176 5372)" fill="#12263f" font-size="16" font-family="Roboto-Regular, Roboto"><tspan x="0" y="0">de la cintura hacia arriba.</tspan></text>
        <text id="pantalones_faldas_shorts." data-name="pantalones, faldas, shorts." transform="translate(1022.176 5590)" fill="#12263f" font-size="16" font-family="Roboto-Regular, Roboto"><tspan x="0" y="0">pantalones, faldas, shorts.</tspan></text>
        <text id="de_la_cintura_hacia_abajo." data-name="de la cintura hacia abajo." transform="translate(764.176 5590)" fill="#12263f" font-size="16" font-family="Roboto-Regular, Roboto"><tspan x="0" y="0">de la cintura hacia abajo.</tspan></text>
        <text id="Superior:" transform="translate(764.176 5348)" fill="#12263f" font-size="16" font-family="Roboto-Bold, Roboto" font-weight="700"><tspan x="0" y="0">Superior:</tspan></text>
        <text id="Prendas_superiores:" data-name="Prendas superiores:" transform="translate(1022.176 5348)" fill="#12263f" font-size="16" font-family="Roboto-Bold, Roboto" font-weight="700"><tspan x="0" y="0">Prendas superiores:</tspan></text>
        <text id="Prendas_inferiores:" data-name="Prendas inferiores:" transform="translate(1022.176 5566)" fill="#12263f" font-size="16" font-family="Roboto-Bold, Roboto" font-weight="700"><tspan x="0" y="0">Prendas inferiores:</tspan></text>
        <text id="Inferior:" transform="translate(764.176 5566)" fill="#12263f" font-size="16" font-family="Roboto-Bold, Roboto" font-weight="700"><tspan x="0" y="0">Inferior:</tspan></text>
        <g id="Componente_5_46" data-name="Componente 5 – 46" transform="translate(994.176 5557.345)">
          <path id="Icon_ionic-ios-arrow-back" data-name="Icon ionic-ios-arrow-back" d="M4.9,14.151l10.756-10.7a2.008,2.008,0,0,0,0-2.857,2.046,2.046,0,0,0-2.877,0L.592,12.718a2.013,2.013,0,0,0-.059,2.79L12.769,27.719a2.049,2.049,0,0,0,2.877,0,2.008,2.008,0,0,0,0-2.857Z" transform="translate(16.251 28.309) rotate(180)" fill="#361274"/>
        </g>
        <g id="Componente_5_47" data-name="Componente 5 – 47" transform="translate(994.302 5339.845)">
          <path id="Icon_ionic-ios-arrow-back-2" data-name="Icon ionic-ios-arrow-back" d="M4.9,14.151l10.756-10.7a2.008,2.008,0,0,0,0-2.857,2.046,2.046,0,0,0-2.877,0L.592,12.718a2.013,2.013,0,0,0-.059,2.79L12.769,27.719a2.049,2.049,0,0,0,2.877,0,2.008,2.008,0,0,0,0-2.857Z" transform="translate(16.251 28.309) rotate(180)" fill="#361274"/>
        </g>
      </g>
      <g id="Grupo_1077892" data-name="Grupo 1077892" transform="translate(285 5253.528)">
        <g id="Grupo_1077891" data-name="Grupo 1077891" clip-path="url(#clip-path)">
          <g id="Grupo_1077878" data-name="Grupo 1077878">
            <g id="Grupo_1077877" data-name="Grupo 1077877" clip-path="url(#clip-path)">
              <path id="Trazado_839385" data-name="Trazado 839385" d="M140.577,379.273l-.782-.008.157-15.29a8.645,8.645,0,0,1,8.617-8.529h43.854a8.618,8.618,0,0,1,8.618,8.7l-.156,15.122-.782-.008.155-15.121a7.836,7.836,0,0,0-7.835-7.916H148.569a7.86,7.86,0,0,0-7.834,7.754Z" fill="#e0e0e0"/>
              <path id="Trazado_839386" data-name="Trazado 839386" d="M145.262,381.164a5.115,5.115,0,1,1-5.115-5.115,5.115,5.115,0,0,1,5.115,5.115" fill="#e0e0e0"/>
              <path id="Trazado_839387" data-name="Trazado 839387" d="M204.939,381.164a5.115,5.115,0,1,1-5.115-5.115,5.115,5.115,0,0,1,5.115,5.115" fill="#e0e0e0"/>
              <path id="Trazado_839388" data-name="Trazado 839388" d="M5.545,379.273l-.782-.008.157-15.29a8.645,8.645,0,0,1,8.617-8.529H57.391a8.616,8.616,0,0,1,8.617,8.7l-.155,15.122-.782-.008.155-15.121a7.836,7.836,0,0,0-7.835-7.916H13.537A7.861,7.861,0,0,0,5.7,363.982Z" fill="#e0e0e0"/>
              <path id="Trazado_839389" data-name="Trazado 839389" d="M10.23,381.164a5.115,5.115,0,1,1-5.115-5.115,5.115,5.115,0,0,1,5.115,5.115" fill="#e0e0e0"/>
              <path id="Trazado_839390" data-name="Trazado 839390" d="M69.908,381.164a5.115,5.115,0,1,1-5.116-5.115,5.115,5.115,0,0,1,5.116,5.115" fill="#e0e0e0"/>
              <path id="Trazado_839391" data-name="Trazado 839391" d="M170.8,355.446h-.772V110.256a8.474,8.474,0,0,0-8.464-8.464H42.579a8.473,8.473,0,0,0-8.463,8.464v245.19h-.772V110.256a9.246,9.246,0,0,1,9.235-9.236H161.568a9.246,9.246,0,0,1,9.236,9.236Z" fill="#e0e0e0"/>
              <path id="Trazado_839392" data-name="Trazado 839392" d="M88.764,326.726H70.206V113.153a7.208,7.208,0,0,1,7.208-7.208h4.142a7.208,7.208,0,0,1,7.208,7.208Z" fill="#f5f5f5"/>
              <path id="Trazado_839393" data-name="Trazado 839393" d="M98.345,339.46H88.764V111.695a3.721,3.721,0,0,1,3.722-3.721h2.138a3.721,3.721,0,0,1,3.721,3.721Z" fill="#e0e0e0"/>
              <path id="Trazado_839394" data-name="Trazado 839394" d="M65.814,328.755H47.256V115.182a7.208,7.208,0,0,1,7.208-7.208h4.142a7.208,7.208,0,0,1,7.208,7.208Z" fill="#ebebeb"/>
              <path id="Trazado_839395" data-name="Trazado 839395" d="M56.535,109.583c-.555,0-1.006-2.869-1.006-6.408s.451-6.408,1.006-6.408,1.005,2.869,1.005,6.408-.45,6.408-1.005,6.408" fill="#e0e0e0"/>
              <path id="Trazado_839396" data-name="Trazado 839396" d="M78.3,106.812c-.555,0-1.006-1.9-1.006-4.243s.451-4.243,1.006-4.243,1.006,1.9,1.006,4.243-.451,4.243-1.006,4.243" fill="#e0e0e0"/>
              <path id="Trazado_839397" data-name="Trazado 839397" d="M92.848,110.969c-.555,0-1.007-2.4-1.007-5.368s.452-5.37,1.007-5.37,1,2.4,1,5.37-.451,5.368-1,5.368" fill="#e0e0e0"/>
              <path id="Trazado_839398" data-name="Trazado 839398" d="M146.912,326.726H128.354V113.153a7.208,7.208,0,0,1,7.208-7.208H139.7a7.208,7.208,0,0,1,7.208,7.208Z" fill="#f5f5f5"/>
              <path id="Trazado_839399" data-name="Trazado 839399" d="M156.493,339.46h-9.58V111.695a3.721,3.721,0,0,1,3.721-3.721h2.138a3.721,3.721,0,0,1,3.721,3.721Z" fill="#e0e0e0"/>
              <path id="Trazado_839400" data-name="Trazado 839400" d="M123.963,328.755H105.4V115.182a7.208,7.208,0,0,1,7.208-7.208h4.143a7.208,7.208,0,0,1,7.208,7.208Z" fill="#ebebeb"/>
              <path id="Trazado_839401" data-name="Trazado 839401" d="M114.684,109.583c-.555,0-1.006-2.869-1.006-6.408s.451-6.408,1.006-6.408,1.006,2.869,1.006,6.408-.451,6.408-1.006,6.408" fill="#e0e0e0"/>
              <path id="Trazado_839402" data-name="Trazado 839402" d="M136.448,106.812c-.556,0-1.006-1.9-1.006-4.243s.45-4.243,1.006-4.243,1.005,1.9,1.005,4.243-.45,4.243-1.005,4.243" fill="#e0e0e0"/>
              <path id="Trazado_839403" data-name="Trazado 839403" d="M151,110.969c-.556,0-1.006-2.4-1.006-5.368s.45-5.37,1.006-5.37,1.005,2.4,1.005,5.37-.45,5.368-1.005,5.368" fill="#e0e0e0"/>
            </g>
          </g>
          <g id="Grupo_1077880" data-name="Grupo 1077880">
            <g id="Grupo_1077879" data-name="Grupo 1077879" clip-path="url(#clip-path)">
              <path id="Trazado_839404" data-name="Trazado 839404" d="M332.388,385.322c0,.144-71.8.26-160.354.26-88.583,0-160.37-.116-160.37-.26s71.787-.26,160.37-.26c88.552,0,160.354.116,160.354.26" fill="#263238"/>
            </g>
          </g>
          <g id="Grupo_1077888" data-name="Grupo 1077888">
            <g id="Grupo_1077887" data-name="Grupo 1077887" clip-path="url(#clip-path)">
              <path id="Trazado_839405" data-name="Trazado 839405" d="M215.755,354.243l.355,20.1S195.8,381.456,195.5,385.177l39,.712.732-31.343Z" fill="#263238"/>
              <path id="Trazado_839406" data-name="Trazado 839406" d="M228.2,372.874a1.593,1.593,0,0,1,1.068,1.838,1.531,1.531,0,0,1-1.812,1.074,1.68,1.68,0,0,1-1.121-1.952,1.589,1.589,0,0,1,2.009-.908" fill="#e0e0e0"/>
              <path id="Trazado_839407" data-name="Trazado 839407" d="M234.5,385.888l-.05-3.162-37.374.5s-1.75.724-1.576,1.951Z" fill="#455a64"/>
              <path id="Trazado_839408" data-name="Trazado 839408" d="M215.482,374.134c0,.191.953.294,1.879.924.943.6,1.411,1.439,1.587,1.366.176-.033-.087-1.177-1.221-1.919s-2.283-.547-2.245-.371" fill="#fff"/>
              <path id="Trazado_839409" data-name="Trazado 839409" d="M211.36,375.751c-.047.184.772.522,1.4,1.34.656.8.8,1.672.994,1.667.178.034.33-1.079-.475-2.08s-1.915-1.109-1.923-.927" fill="#fff"/>
              <path id="Trazado_839410" data-name="Trazado 839410" d="M208.948,380.605c.172.044.455-.9-.015-1.955s-1.353-1.483-1.437-1.326c-.11.155.458.725.83,1.594.393.861.433,1.665.622,1.687" fill="#fff"/>
              <path id="Trazado_839411" data-name="Trazado 839411" d="M215.909,369.544c.077.175.955-.072,2.03.021,1.077.071,1.908.447,2.01.286.113-.136-.692-.856-1.96-.947s-2.171.489-2.08.64" fill="#fff"/>
              <path id="Trazado_839412" data-name="Trazado 839412" d="M263.337,353.012l2.112,24.232-3.856,19.647a2.492,2.492,0,0,0,4.277,2.17c3.476-3.79,16.2-17.8,15.941-19.561-.294-2.044-.531-25.708-.531-25.708Z" fill="#263238"/>
              <path id="Trazado_839413" data-name="Trazado 839413" d="M263.727,399.843l17.98-21.981.066,1.028a3.761,3.761,0,0,1-.732,2.485c-1.426,1.91-5.476,7.1-15.1,17.682a2.491,2.491,0,0,1-2.217.786" fill="#455a64"/>
              <g id="Grupo_1077883" data-name="Grupo 1077883" opacity="0.6">
                <g id="Grupo_1077882" data-name="Grupo 1077882">
                  <g id="Grupo_1077881" data-name="Grupo 1077881" clip-path="url(#clip-path-5)">
                    <path id="Trazado_839414" data-name="Trazado 839414" d="M276.223,370.352a1.508,1.508,0,0,0-.286,1.992,1.451,1.451,0,0,0,1.972.3,1.59,1.59,0,0,0,.292-2.11,1.5,1.5,0,0,0-2.086-.086" fill="#fff"/>
                  </g>
                </g>
              </g>
              <path id="Trazado_839415" data-name="Trazado 839415" d="M268.594,388.882a5.382,5.382,0,0,0-5.078-2.107c-.025-.058.27-.266.833-.383a3.975,3.975,0,0,1,3.928,1.629c.315.481.376.837.317.861" fill="#fff"/>
              <path id="Trazado_839416" data-name="Trazado 839416" d="M267.074,392.243a20.429,20.429,0,0,0-2.217-.906,20.245,20.245,0,0,0-2.39-.153,2.759,2.759,0,0,1,2.51-.367c1.456.326,2.219,1.353,2.1,1.426" fill="#fff"/>
              <path id="Trazado_839417" data-name="Trazado 839417" d="M271.545,384.509a24.783,24.783,0,0,0-3.327-1.629,24.752,24.752,0,0,0-3.654-.608,6.81,6.81,0,0,1,6.981,2.237" fill="#fff"/>
              <path id="Trazado_839418" data-name="Trazado 839418" d="M271.519,377.09c-.055.15-1.432-.325-3.181-.276-1.75.025-3.105.557-3.167.41a6.184,6.184,0,0,1,6.348-.134" fill="#fff"/>
              <path id="Trazado_839419" data-name="Trazado 839419" d="M271.079,369.961a7.917,7.917,0,0,0-6.471.64c-.043-.048.2-.37.742-.729a5.433,5.433,0,0,1,4.859-.481c.6.247.9.514.87.57" fill="#fff"/>
              <path id="Trazado_839420" data-name="Trazado 839420" d="M267.731,368.227a2.089,2.089,0,0,1-.092-.916,6.4,6.4,0,0,1,.575-2.452,2.838,2.838,0,0,1,1.127-1.428,1,1,0,0,1,1.141.15,1.635,1.635,0,0,1,.454,1.072,3.524,3.524,0,0,1-2.872,3.45,4.089,4.089,0,0,1-4.143-1.876,1.42,1.42,0,0,1-.142-1.173.983.983,0,0,1,.993-.584,3.478,3.478,0,0,1,1.652.728,7.128,7.128,0,0,1,1.778,1.78,2.178,2.178,0,0,1,.427.814,11.338,11.338,0,0,0-2.414-2.28,3.261,3.261,0,0,0-1.456-.6.523.523,0,0,0-.543.316.972.972,0,0,0,.139.765,3.646,3.646,0,0,0,3.609,1.585,3.059,3.059,0,0,0,2.481-2.894,1.182,1.182,0,0,0-.286-.761.542.542,0,0,0-.628-.092,2.564,2.564,0,0,0-.976,1.192,9.416,9.416,0,0,0-.824,3.2" fill="#fff"/>
              <path id="Trazado_839421" data-name="Trazado 839421" d="M263.731,192.632s16.965,6.358,20.413,4.059,6.609-4.31,7.758-10.919,8.621-46.109,6.034-60.409-13.792-43.61-13.792-43.61c-3.877-10.349-12.918-13.766-22.988-15.8l-18.964,4.023L262.441,182.8Z" fill="#ffd54f"/>
              <g id="Grupo_1077886" data-name="Grupo 1077886" transform="translate(-0.477)" opacity="0.3">
                <g id="Grupo_1077885" data-name="Grupo 1077885">
                  <g id="Grupo_1077884" data-name="Grupo 1077884" clip-path="url(#clip-path-6)">
                    <path id="Trazado_839422" data-name="Trazado 839422" d="M263.731,192.632s16.965,6.358,20.413,4.059,6.609-4.31,7.758-10.919,8.621-46.109,6.034-60.409-13.792-43.61-13.792-43.61c-3.877-10.349-12.918-13.766-22.988-15.8l-18.964,4.023L262.441,182.8Z"/>
                  </g>
                </g>
              </g>
              <path id="Trazado_839423" data-name="Trazado 839423" d="M283.774,148.1a1.818,1.818,0,0,1,.046.5c.007.387.017.858.028,1.428.021.622-.019,1.379-.054,2.26s-.1,1.883-.2,2.988a141.838,141.838,0,0,1-2.718,17.1c-1.423,6.615-2.975,12.54-4.165,16.807-.591,2.134-1.1,3.854-1.454,5.04l-.428,1.361a1.783,1.783,0,0,1-.184.465,1.841,1.841,0,0,1,.083-.493c.09-.376.2-.833.333-1.387.326-1.278.763-2.994,1.294-5.081,1.1-4.289,2.591-10.219,4.012-16.82a169.51,169.51,0,0,0,2.861-17.03c.122-1.1.22-2.093.272-2.969s.132-1.63.143-2.247c.027-.569.05-1.038.069-1.424a1.812,1.812,0,0,1,.059-.5" fill="#263238"/>
              <path id="Trazado_839424" data-name="Trazado 839424" d="M295.4,156.148A19.651,19.651,0,0,1,286.948,155a29.329,29.329,0,0,1,4.235.522,29.285,29.285,0,0,1,4.22.625" fill="#263238"/>
              <path id="Trazado_839425" data-name="Trazado 839425" d="M290.122,183.607a29.39,29.39,0,0,1-7.565-1.943,29.363,29.363,0,0,1,7.565,1.943" fill="#263238"/>
              <path id="Trazado_839426" data-name="Trazado 839426" d="M195.181,179.255s-3.536,19.042-2.463,32.992c.415,5.4,20.828,154.277,20.828,154.277h24.6l-6.914-140.355,2.014.437s13.426,59.861,14.521,69.553c.985,8.711,12.307,72,12.307,72l22.488.259L275.375,284.7l-8.358-80.325L263.873,181Z" fill="#455a64"/>
              <path id="Trazado_839427" data-name="Trazado 839427" d="M235.1,211.851a4.75,4.75,0,0,1-1.026.578,11.789,11.789,0,0,1-3.046,1.066,6.425,6.425,0,0,1-2.266.017,4.659,4.659,0,0,1-2.369-1.138,5.623,5.623,0,0,1-1.437-2.511c-.29-.956-.456-1.95-.659-2.959-.784-4.051-1.315-7.75-1.625-10.434-.155-1.342-.258-2.431-.314-3.185a5.081,5.081,0,0,1-.031-1.176,5.133,5.133,0,0,1,.232,1.153c.13.855.289,1.911.478,3.159.4,2.667.989,6.345,1.771,10.384.4,2,.668,4.03,1.915,5.222a5.111,5.111,0,0,0,4.246,1.105,13.852,13.852,0,0,0,3.023-.888,5.561,5.561,0,0,1,1.108-.393" fill="#263238"/>
              <path id="Trazado_839428" data-name="Trazado 839428" d="M227.7,192.815c-.008-.022.159-.128.506-.15a2.213,2.213,0,0,1,1.376.442,2.461,2.461,0,0,1,1.036,1.9,2.438,2.438,0,0,1-4.152,1.557,2.457,2.457,0,0,1-.468-2.112,2.2,2.2,0,0,1,.745-1.238c.275-.212.471-.242.48-.22a2.774,2.774,0,0,0-.864,1.527,2.15,2.15,0,0,0,.467,1.726,1.993,1.993,0,0,0,3.312-1.242,2.151,2.151,0,0,0-.783-1.608,2.778,2.778,0,0,0-1.655-.582" fill="#263238"/>
              <path id="Trazado_839429" data-name="Trazado 839429" d="M266.677,202.939a2.648,2.648,0,0,1-.837.131,15.829,15.829,0,0,1-2.307.027,22.342,22.342,0,0,1-13.809-5.817,15.638,15.638,0,0,1-1.592-1.669c-.344-.423-.519-.667-.492-.69.07-.061.86.844,2.327,2.083a24.8,24.8,0,0,0,13.594,5.725c1.912.185,3.111.118,3.116.21" fill="#263238"/>
              <path id="Trazado_839430" data-name="Trazado 839430" d="M206.89,193.267a10.481,10.481,0,0,1-1.276,2.508,28.188,28.188,0,0,1-9.676,9.408,10.5,10.5,0,0,1-2.543,1.205,26.694,26.694,0,0,1,2.35-1.519,34.074,34.074,0,0,0,9.561-9.3,26.48,26.48,0,0,1,1.584-2.306" fill="#263238"/>
              <path id="Trazado_839431" data-name="Trazado 839431" d="M193.785,25.275c1.587-2,3.549-3.932,3.955-6.455.374-2.319-.641-4.859.4-6.966,1.28-2.592,4.958-3.1,6.554-5.509.772-1.167.955-2.646,1.718-3.82,1.3-2,3.966-2.645,6.347-2.508s4.705.878,7.089.927c3.272.069,6.585-1.159,9.763-.375,3.505.865,5.767,3.819,8.158,6.669l3.1,3.289a12.853,12.853,0,0,0,2.029,1.489,23.246,23.246,0,0,1,3.818,2.183,5.779,5.779,0,0,1,.026,8.334,6.18,6.18,0,0,1,4.455,5.851,17.728,17.728,0,0,1-.915,4.244,6.178,6.178,0,0,0,.09,4.259c.643,1.3,2.387,2.13,3.616,1.357a6.5,6.5,0,0,1-3.331,4.5,3.881,3.881,0,0,0,2.667,1.033c-2.345,6.339-9.383,9.95-16.132,10.308s-13.334-1.894-19.717-4.115l-18.4-3.86c-1.614-.29-2.37-2.2-2.425-3.837s.279-3.361-.378-4.863c-.9-2.059-3.392-3.056-4.33-5.1-1.066-2.322.261-5.031,1.848-7.034" fill="#263238"/>
              <path id="Trazado_839432" data-name="Trazado 839432" d="M237.579,39.816a75,75,0,0,0,2.613-12.671,26.177,26.177,0,0,0-1.682-12.709c-.259-.6-2.413-4.613-3.06-4.515-.463.07.931,3.843.717,4.259a22.21,22.21,0,0,0-1.83,13.062,58.513,58.513,0,0,0,3.242,12.574" fill="#263238"/>
              <path id="Trazado_839433" data-name="Trazado 839433" d="M239.749,66.109,237.157,23.34c-.206-10.828-6.679-19.733-17.5-19.228l-1,.105a19.36,19.36,0,0,0-17.329,19.726c.23,9.384.6,19.75,1.193,24.736C203.744,59,214.25,59.517,214.25,59.517c.023,0,.569,8.355.569,8.355" fill="#ffbe9d"/>
              <path id="Trazado_839434" data-name="Trazado 839434" d="M214.25,59.517a25.106,25.106,0,0,0,13.036-5.4s-2.437,7.862-12.847,8.019Z" fill="#eb996e"/>
              <path id="Trazado_839435" data-name="Trazado 839435" d="M206.509,31.373a1.484,1.484,0,0,0,1.58,1.339,1.42,1.42,0,0,0,1.381-1.491,1.485,1.485,0,0,0-1.578-1.34,1.421,1.421,0,0,0-1.383,1.492" fill="#263238"/>
              <path id="Trazado_839436" data-name="Trazado 839436" d="M203.995,28c.2.173,1.234-.772,2.823-.936,1.584-.185,2.836.509,2.988.3.075-.1-.148-.423-.694-.739a4.071,4.071,0,0,0-2.417-.474,3.914,3.914,0,0,0-2.222.984c-.448.427-.577.792-.478.869" fill="#263238"/>
              <path id="Trazado_839437" data-name="Trazado 839437" d="M221.288,30.333a1.484,1.484,0,0,0,1.58,1.339,1.42,1.42,0,0,0,1.381-1.491,1.485,1.485,0,0,0-1.579-1.34,1.42,1.42,0,0,0-1.382,1.492" fill="#263238"/>
              <path id="Trazado_839438" data-name="Trazado 839438" d="M219.619,27c.2.173,1.236-.772,2.823-.935,1.584-.186,2.836.508,2.988.3.075-.1-.146-.422-.694-.738a4.061,4.061,0,0,0-2.417-.475,3.92,3.92,0,0,0-2.221.984c-.448.427-.578.792-.479.869" fill="#263238"/>
              <path id="Trazado_839439" data-name="Trazado 839439" d="M215.208,39.806a10.555,10.555,0,0,0-2.628-.194c-.41,0-.8-.039-.9-.308a2.071,2.071,0,0,1,.144-1.231q.417-1.532.873-3.214c1.2-4.573,2.027-8.315,1.843-8.362s-1.309,3.622-2.511,8.194q-.431,1.689-.821,3.227a2.361,2.361,0,0,0-.043,1.614,1.024,1.024,0,0,0,.729.523,2.771,2.771,0,0,0,.7.023,10.386,10.386,0,0,0,2.615-.272" fill="#263238"/>
              <path id="Trazado_839440" data-name="Trazado 839440" d="M220,40.412c-.26.012-.081,1.736-1.428,3.116s-3.2,1.382-3.19,1.625c-.012.11.445.291,1.223.231a4.321,4.321,0,0,0,2.673-1.259,3.76,3.76,0,0,0,1.086-2.6c-.01-.728-.247-1.134-.364-1.112" fill="#263238"/>
              <path id="Trazado_839441" data-name="Trazado 839441" d="M219.027,20.549c.2.415,1.766.043,3.653.072,1.888-.01,3.448.377,3.654-.036.091-.2-.214-.576-.866-.93a6.349,6.349,0,0,0-5.566-.027c-.655.348-.964.723-.875.921" fill="#263238"/>
              <path id="Trazado_839442" data-name="Trazado 839442" d="M204.094,22.651c.317.331,1.372-.159,2.686-.315,1.308-.2,2.455-.013,2.671-.418.093-.195-.12-.538-.643-.828a3.918,3.918,0,0,0-4.317.591c-.425.42-.539.807-.4.97" fill="#263238"/>
              <path id="Trazado_839443" data-name="Trazado 839443" d="M237.119,31.082c.168-.1,6.879-2.849,7.4,4.24s-6.706,6.148-6.733,5.946-.666-10.186-.666-10.186" fill="#ffbe9d"/>
              <path id="Trazado_839444" data-name="Trazado 839444" d="M239.754,38.423c.03-.025.13.077.345.158a1.243,1.243,0,0,0,.925-.049,3.064,3.064,0,0,0,1.213-2.845,4.087,4.087,0,0,0-.475-1.743,1.43,1.43,0,0,0-1-.88.63.63,0,0,0-.7.392c-.081.2-.025.344-.062.358-.019.02-.161-.107-.125-.4a.8.8,0,0,1,.246-.465.935.935,0,0,1,.67-.23,1.737,1.737,0,0,1,1.37,1,4.2,4.2,0,0,1,.573,1.945c.059,1.432-.574,2.822-1.577,3.193a1.323,1.323,0,0,1-1.143-.1c-.233-.159-.282-.314-.258-.329" fill="#eb996e"/>
              <path id="Trazado_839445" data-name="Trazado 839445" d="M205.167,11.9c-1.189-.56,2.017-4.5,4.756-5.961C214.062,3.728,220.5,2.117,224.5,2.979c4.819,1.038,8.9,3.139,11.557,7.294A27.957,27.957,0,0,1,240.1,24.317a8.482,8.482,0,0,1-.72,4.4c-.89,1.632-2.727,2.742-2.5,4.9a2.98,2.98,0,0,1-.6,2.213c-1.209,1.465-2.88.27-3.694-.984-1.738-2.678-2.125-5.984-2.467-9.158a20.784,20.784,0,0,1,.014-6.775c.271-1.2.757-2.358.96-3.576a4.27,4.27,0,0,0-.73-3.509,4.448,4.448,0,0,0-.614-.545,7.411,7.411,0,0,0-7.429-.925c-3.9,1.67-10.589,4.22-12.458,2.979a10.947,10.947,0,0,1-3.383-3.018Z" fill="#263238"/>
              <path id="Trazado_839446" data-name="Trazado 839446" d="M224.067,2.04a15.612,15.612,0,0,0-11.941,1.428,8.132,8.132,0,0,0-3.974,4.986c-.455,2.138.608,4.665,2.681,5.358l.145.079c3.092.823,5.033.291,7.983-.947,2.482-1.042,4.64-2.755,7.127-3.785a14.442,14.442,0,0,1,8.422-.788A23.581,23.581,0,0,0,224.067,2.04" fill="#263238"/>
              <path id="Trazado_839447" data-name="Trazado 839447" d="M250.628,47.4c-.005-.028-.251.04-.721.025a3.65,3.65,0,0,1-1.9-.675,4.575,4.575,0,0,1-1.8-2.579,8.622,8.622,0,0,1,.084-4.245c.351-1.562,1.032-3.211,1.426-5.106a9.194,9.194,0,0,0,.155-3,5.715,5.715,0,0,0-1.224-2.976,6.794,6.794,0,0,0-2.847-1.8,18,18,0,0,1-3.1-1.33,10.026,10.026,0,0,1-3.921-5.662c-.774-2.317-1.08-4.723-1.714-6.99A12.746,12.746,0,0,0,231.9,7.071a8.494,8.494,0,0,0-5.674-2.251,11.118,11.118,0,0,0-5.214,1.153,16.447,16.447,0,0,0-5.751,5.072c-.538.733-.912,1.332-1.159,1.741a3.771,3.771,0,0,0-.343.643,3.865,3.865,0,0,0,.43-.587c.274-.39.674-.967,1.231-1.676A16.826,16.826,0,0,1,221.168,6.3a10.825,10.825,0,0,1,5.039-1.054,8.081,8.081,0,0,1,5.361,2.168,12.34,12.34,0,0,1,3.005,5.772c.618,2.223.92,4.638,1.713,7.019a10.476,10.476,0,0,0,4.145,5.929,18.22,18.22,0,0,0,3.191,1.36,6.358,6.358,0,0,1,2.664,1.653,5.278,5.278,0,0,1,1.136,2.727,8.8,8.8,0,0,1-.126,2.863c-.362,1.843-1.024,3.505-1.363,5.11a8.829,8.829,0,0,0,0,4.4,4.739,4.739,0,0,0,1.969,2.666,3.6,3.6,0,0,0,2.008.612,2.084,2.084,0,0,0,.722-.129" fill="#455a64"/>
              <path id="Trazado_839448" data-name="Trazado 839448" d="M216.6,1.962a4.428,4.428,0,0,0-2.151.325,8.235,8.235,0,0,0-5.6,8.217,4.431,4.431,0,0,0,.483,2.121c.087-.021-.143-.821-.119-2.126A8.843,8.843,0,0,1,210.7,5.743a8.846,8.846,0,0,1,3.885-3.116c1.206-.5,2.035-.577,2.023-.665" fill="#455a64"/>
              <path id="Trazado_839449" data-name="Trazado 839449" d="M202.316,9.078a3.757,3.757,0,0,0-.539,2.589,3.758,3.758,0,0,0,.848,2.505c.139-.06-.258-1.146-.334-2.536-.093-1.389.17-2.515.025-2.558" fill="#455a64"/>
              <path id="Trazado_839450" data-name="Trazado 839450" d="M173.072,171.537l-4.092,38.5L165.1,224.625l3.988,10.877,7.86,6.021a2.253,2.253,0,0,0,1.165-1.942l3.691-.194a8.307,8.307,0,0,0-2.914-2.137l2.914-.971a2.984,2.984,0,0,0-2.525-1.36,35.261,35.261,0,0,1-4.273-.388l-1.554-2.137-1.42-6.6,3.556-2.719,2.137,3.885.388,5.827s2.137.777,2.72-3.5.194-13.985-.389-15.539-1.748-4.856-1.748-4.856l9.428-34.339Z" fill="#ffbe9d"/>
              <path id="Trazado_839451" data-name="Trazado 839451" d="M214.692,67.035l-27.413,15,12.516,36.635,1.449,26.086-8.293,42.257s22.632,3.419,31.686,4.34c6.052.615,41.212-3.317,41.212-3.317l-1.581-45.321L262.112,82.83l1.581-12.121L237.87,62.541Z" fill="#673ab7"/>
              <path id="Trazado_839452" data-name="Trazado 839452" d="M214.25,68.23V64.2l25.767-3.771-.268,7.8-25.995,2.791Z" fill="#673ab7"/>
              <path id="Trazado_839453" data-name="Trazado 839453" d="M261.461,70c.79,0,12.771.706,16.46,9.665s17.391,47.956,17.391,55.07-2.635,14.229-8.959,15.283S268.7,143.7,268.7,143.7l10.013-21.87-15.782-8.974-3.19-35.82Z" fill="#673ab7"/>
              <path id="Trazado_839454" data-name="Trazado 839454" d="M187.279,82.032s-3.368,3.557-3.864,13.212-2.97,42.828-2.97,42.828l-8.417,34.163,18.209,4.191,10.049-37.03,3.182-34.261Z" fill="#673ab7"/>
              <path id="Trazado_839455" data-name="Trazado 839455" d="M201.245,144.752a2.011,2.011,0,0,1-.082-.523c-.035-.4-.08-.9-.132-1.508-.1-1.387-.23-3.264-.392-5.549-.308-4.687-.7-11.163-1.1-18.318,0-.059-.006-.119-.009-.174l.018.082c-2.63-6.66-4.188-12.934-5.6-17.367-.689-2.225-1.284-4.012-1.713-5.241-.2-.569-.36-1.037-.491-1.417a2.028,2.028,0,0,1-.141-.507,2.066,2.066,0,0,1,.238.469c.137.315.346.777.582,1.384.489,1.21,1.14,2.984,1.874,5.2,1.509,4.417,3.126,10.673,5.738,17.286l.017.04,0,.043c0,.054.006.114.009.173.4,7.155.73,13.635.943,18.327.093,2.289.169,4.169.225,5.558.015.608.026,1.108.036,1.513a2.109,2.109,0,0,1-.023.529" fill="#455a64"/>
              <path id="Trazado_839456" data-name="Trazado 839456" d="M198.272,187.6a6.861,6.861,0,0,1,.89-6.169c.139.068-.436,1.359-.671,3.052-.253,1.69-.067,3.09-.219,3.117" fill="#455a64"/>
              <path id="Trazado_839457" data-name="Trazado 839457" d="M209.53,189.715a7.9,7.9,0,0,1-.423-6.617c.15.035-.121,1.508,0,3.322.107,1.815.564,3.242.419,3.295" fill="#455a64"/>
              <path id="Trazado_839458" data-name="Trazado 839458" d="M222.326,192.414c-.152.005-.293-1.879-.759-4.146s-1.057-4.059-.915-4.114a15.076,15.076,0,0,1,1.674,8.26" fill="#455a64"/>
              <path id="Trazado_839459" data-name="Trazado 839459" d="M233.43,191.028a17.548,17.548,0,0,1-.607-3.521,17.543,17.543,0,0,1-.4-3.551,15.591,15.591,0,0,1,1,7.072" fill="#455a64"/>
              <path id="Trazado_839460" data-name="Trazado 839460" d="M245.65,188.025c-.154-.015-.071-1.556-.377-3.409s-.856-3.292-.714-3.355a8.834,8.834,0,0,1,1.091,6.764" fill="#455a64"/>
              <path id="Trazado_839461" data-name="Trazado 839461" d="M257.931,187.421c-.159,0-.2-1.9-1-4.06-.777-2.168-1.972-3.652-1.848-3.751a9.393,9.393,0,0,1,2.851,7.811" fill="#455a64"/>
              <path id="Trazado_839462" data-name="Trazado 839462" d="M239.182,56.754l.567,9.355.875,7.941,6.878,4.479s12.865-8.954,22.742-7.462S284.877,83.7,284.877,83.7s-3.319-12.388-11.365-14.782a76.69,76.69,0,0,1-13.771-5.554l-5.757-6.609h-8.3a4.961,4.961,0,0,0-4.356,2.586Z" fill="#ffd54f"/>
              <path id="Trazado_839463" data-name="Trazado 839463" d="M234.225,75.01l6.4-.96,6.878,4.479,1.92,10.878,2.239,12.478,27.051,18.857s5,6.9-1.185,17.135c0,0-4.907,5.151-8.827,4.735s-24.717-34.269-24.717-34.269-4.8-3.579-4.959-5.659.96-7.038.96-7.038l-1.92-1.28-1.919.96s1.439,5.759-1.92,6.4c0,0-1.76,2.079-3.679,1.6v-8a3.986,3.986,0,0,1-3.2-.96l1.44-5.279,6.559-5.919,7.2.48-.32-4.159-3.039-1.76s-5.279.48-4.959-2.719" fill="#ffbe9d"/>
              <path id="Trazado_839464" data-name="Trazado 839464" d="M239.184,77.729s2.5,1.881,4.5-1.687V74.819L246.3,75.94a4.592,4.592,0,0,1-4.073,3.549,3.249,3.249,0,0,1-2.4-1.058Z" fill="#ffd54f"/>
              <path id="Trazado_839465" data-name="Trazado 839465" d="M247.675,72.918c-.012.034-.228-.024-.613-.161a3.04,3.04,0,0,1-.678-.31,4.825,4.825,0,0,1-.836-.531,9.609,9.609,0,0,1-3.178-4.681,21.226,21.226,0,0,1-1.062-5.557,8.612,8.612,0,0,1,.022-2.338,13.09,13.09,0,0,1,.344,2.3,27.174,27.174,0,0,0,1.187,5.42,10.21,10.21,0,0,0,2.917,4.566c1.077.9,1.939,1.193,1.9,1.29" fill="#263238"/>
              <path id="Trazado_839466" data-name="Trazado 839466" d="M261.934,66.584a41.834,41.834,0,0,0-8.233,2.625,41.8,41.8,0,0,0-7.234,4.728,8.834,8.834,0,0,1,1.8-1.835,24.111,24.111,0,0,1,11.113-5.284,8.812,8.812,0,0,1,2.558-.234" fill="#263238"/>
            </g>
          </g>
          <rect id="Rectángulo_381033" data-name="Rectángulo 381033" width="131.996" height="6.142" transform="translate(58.78 257.446) rotate(-89.058)" fill="#455a64"/>
          <path id="Trazado_839467" data-name="Trazado 839467" d="M58.78,257.446,11.21,385.279l5.29.087L64.921,257.547Z" fill="#455a64"/>
          <path id="Trazado_839468" data-name="Trazado 839468" d="M65.048,257.549l42.937,127.773-5.393-.089L58.906,257.448Z" fill="#455a64"/>
          <rect id="Rectángulo_381034" data-name="Rectángulo 381034" width="4.508" height="45.159" transform="matrix(0.016, -1, 1, 0.016, 38.143, 325.87)" fill="#455a64"/>
          <path id="Trazado_839469" data-name="Trazado 839469" d="M90.5,56.964l23.789,8.57L126.023,48.9,112.771,31.913Z" fill="#455a64"/>
          <g id="Grupo_1077890" data-name="Grupo 1077890">
            <g id="Grupo_1077889" data-name="Grupo 1077889" clip-path="url(#clip-path)">
              <path id="Trazado_839470" data-name="Trazado 839470" d="M56.7,12.093h0a10.2,10.2,0,0,0,2.319,14.431l24.625,16.2L95.42,27.193,70.758,9.835A10.2,10.2,0,0,0,56.7,12.093" fill="#263238"/>
              <path id="Trazado_839471" data-name="Trazado 839471" d="M88.385,25.457l28.629,5.567L92.066,61.63S80.588,36.362,80.608,35.174Z" fill="#263238"/>
              <rect id="Rectángulo_381035" data-name="Rectángulo 381035" width="102.281" height="3.07" transform="translate(62.494 125.493) rotate(-89.067)" fill="#263238"/>
              <path id="Trazado_839472" data-name="Trazado 839472" d="M94.237,57.779l4.967,19.1-3.328.549-4.3-16.876Z" fill="#263238"/>
              <path id="Trazado_839473" data-name="Trazado 839473" d="M117.014,31.024l17.3,3.067-1.557,2.894L112.973,33.74Z" fill="#263238"/>
              <path id="Trazado_839474" data-name="Trazado 839474" d="M83.348,42.531a14.578,14.578,0,0,0,1.875-2.184c1.1-1.4,2.561-3.365,4.143-5.561l4.016-5.648a17.077,17.077,0,0,0,1.58-2.4,14.578,14.578,0,0,0-1.875,2.184c-1.1,1.4-2.561,3.365-4.144,5.562-1.517,2.134-2.889,4.063-4.016,5.646a17.151,17.151,0,0,0-1.579,2.4" fill="#455a64"/>
              <path id="Trazado_839475" data-name="Trazado 839475" d="M93.21,29.024a18.19,18.19,0,0,0,3.053,1.088c1.91.594,4.574,1.339,7.545,2.043s5.688,1.227,7.662,1.552a18.1,18.1,0,0,0,3.217.394,22.3,22.3,0,0,0-3.148-.755c-1.953-.417-4.648-1-7.611-1.7s-5.632-1.388-7.565-1.89a22.038,22.038,0,0,0-3.153-.734" fill="#455a64"/>
              <path id="Trazado_839476" data-name="Trazado 839476" d="M85.922,40.824a21.375,21.375,0,0,0,1.473,2.508c.93,1.531,2.157,3.678,3.342,6.137s2.093,4.761,2.707,6.443a21.434,21.434,0,0,0,1.039,2.717,12.911,12.911,0,0,0-.69-2.835,48.874,48.874,0,0,0-6.088-12.661,13.042,13.042,0,0,0-1.783-2.309" fill="#455a64"/>
            </g>
          </g>
        </g>
      </g>
    </g>
  </g>
</svg>
