<svg xmlns="http://www.w3.org/2000/svg" xmlns:xlink="http://www.w3.org/1999/xlink" width="1030" height="464.287" viewBox="0 0 1030 464.287">
  <defs>
    <linearGradient id="linear-gradient" x1="0.5" x2="0.5" y2="1" gradientUnits="objectBoundingBox">
      <stop offset="0" stop-color="#fff"/>
      <stop offset="0.586" stop-color="#f7f4ff" stop-opacity="0.878"/>
      <stop offset="0.858" stop-color="#e9dfff" stop-opacity="0.565"/>
      <stop offset="1" stop-color="#d1bcff" stop-opacity="0.051"/>
    </linearGradient>
  </defs>
  <g id="Grupo_1078876" data-name="Grupo 1078876" transform="translate(-285 -1346)">
    <g id="Grupo_1077225" data-name="Grupo 1077225" transform="translate(38 -1087.485)">
      <g id="Grupo_1077224" data-name="Grupo 1077224" transform="translate(-58 299.485)">
        <g id="Grupo_1076356" data-name="Grupo 1076356" transform="translate(40 190.282)">
          <path id="Trazado_774834" data-name="Trazado 774834" d="M0,0H1030V464.287H0V0Z" transform="translate(1295 2408.005) rotate(180)" fill="url(#linear-gradient)"/>
        </g>
        <text id="Tipos_de_línea" data-name="Tipos de línea" transform="translate(763 2219)" fill="#12263f" font-size="18" font-family="Roboto-Black, Roboto" font-weight="800"><tspan x="0" y="0">Tipos de línea</tspan></text>
        <text id="Línea_guía:_Ejes_de_simetría" data-name="Línea guía:
Ejes de simetría" transform="translate(580 2498.998)" fill="#12263f" font-size="18" font-family="Roboto-Black, Roboto" font-weight="800"><tspan x="-44.736" y="0">Línea guía:</tspan><tspan font-family="Roboto-Regular, Roboto" font-weight="400"><tspan x="-63.558" y="25">Ejes de simetría</tspan></tspan></text>
        <text id="Línea_sólida:_Croquis_de_prenda" data-name="Línea sólida:
Croquis de prenda" transform="translate(820 2498.998)" fill="#12263f" font-size="18" font-family="Roboto-Black, Roboto" font-weight="800"><tspan x="-51.592" y="0">Línea sólida:</tspan><tspan font-family="Roboto-Regular, Roboto" font-weight="400"><tspan x="-72.866" y="25">Croquis de prenda</tspan></tspan></text>
        <g id="Grupo_1077222" data-name="Grupo 1077222" transform="translate(4 -290)">
          <line id="Línea_887" data-name="Línea 887" x1="641" transform="translate(495 2632)" fill="none" stroke="#673ab7" stroke-linecap="round" stroke-width="3" stroke-dasharray="0 9"/>
          <g id="Grupo_161158" data-name="Grupo 161158" transform="translate(1147 2541) rotate(90)">
            <path id="Trazado_608967" data-name="Trazado 608967" d="M94.5,0A94.5,94.5,0,1,1,0,94.5,94.5,94.5,0,0,1,94.5,0Z" fill="#673ab7"/>
          </g>
          <g id="Grupo_1071496" data-name="Grupo 1071496" transform="translate(1135.463 2552.535) rotate(90)">
            <circle id="Elipse_1142" data-name="Elipse 1142" cx="83.5" cy="83.5" r="83.5" transform="translate(-0.537 -0.537)" fill="#fff"/>
          </g>
          <g id="Grupo_161158-2" data-name="Grupo 161158" transform="translate(675 2541) rotate(90)">
            <path id="Trazado_608379" data-name="Trazado 608379" d="M94.5,0A94.5,94.5,0,1,1,0,94.5,94.5,94.5,0,0,1,94.5,0Z" fill="#673ab7"/>
          </g>
          <g id="Grupo_1071429" data-name="Grupo 1071429" transform="translate(1962 1791) rotate(90)">
            <g id="Grupo_161157" data-name="Grupo 161157" transform="translate(750 1051)">
              <path id="Trazado_608968" data-name="Trazado 608968" d="M94.5,0A94.5,94.5,0,1,1,0,94.5,94.5,94.5,0,0,1,94.5,0Z" fill="#673ab7"/>
            </g>
          </g>
          <rect id="Rectángulo_380816" data-name="Rectángulo 380816" width="16" height="5" transform="translate(818 2729) rotate(90)" fill="#673ab7"/>
          <rect id="Rectángulo_380817" data-name="Rectángulo 380817" width="16" height="5" transform="translate(1055 2729) rotate(90)" fill="#673ab7"/>
          <rect id="Rectángulo_380818" data-name="Rectángulo 380818" width="16" height="5" transform="translate(583 2729) rotate(90)" fill="#673ab7"/>
          <g id="Grupo_1071497" data-name="Grupo 1071497" transform="translate(899.463 2552.537) rotate(90)">
            <circle id="Elipse_1142-2" data-name="Elipse 1142" cx="83.5" cy="83.5" r="83.5" transform="translate(-0.537 -0.537)" fill="#fff"/>
          </g>
          <g id="Grupo_1071498" data-name="Grupo 1071498" transform="translate(665.463 2552.537) rotate(90)">
            <circle id="Elipse_1142-3" data-name="Elipse 1142" cx="83.5" cy="83.5" r="83.5" transform="translate(-0.537 -0.537)" fill="#fff"/>
          </g>
          <g id="Grupo_1077219" data-name="Grupo 1077219" transform="translate(754.979 2383.513)">
            <g id="Grupo_31812" data-name="Grupo 31812" transform="translate(266.786 193.943)">
              <g id="Grupo_31809" data-name="Grupo 31809" transform="translate(0 26.418)">
                <path id="Trazado_59917" data-name="Trazado 59917" d="M315.6,203.949H245.276a.991.991,0,0,0,0,1.98H315.6a.991.991,0,0,0,0-1.98Z" transform="translate(-244.32 -203.949)" fill="#7986cb"/>
              </g>
              <g id="Grupo_31810" data-name="Grupo 31810" transform="translate(66.845 1.721)">
                <path id="Trazado_59918" data-name="Trazado 59918" d="M269.637,195.551v26.667a.991.991,0,0,0,1.98,0V195.551a.991.991,0,0,0-1.98,0Z" transform="translate(-269.637 -194.595)" fill="#7986cb"/>
              </g>
              <g id="Grupo_31811" data-name="Grupo 31811" transform="translate(2.975)">
                <path id="Trazado_59919" data-name="Trazado 59919" d="M245.447,194.9v30.322a.991.991,0,0,0,1.98,0V194.9a.991.991,0,0,0-1.98,0Z" transform="translate(-245.447 -193.943)" fill="#7986cb"/>
              </g>
            </g>
            <g id="Grupo_31820" data-name="Grupo 31820" transform="translate(230.624 221.445)">
              <g id="Grupo_31813" data-name="Grupo 31813" transform="translate(20.035 12.594)">
                <path id="Trazado_59920" data-name="Trazado 59920" d="M274.369,270.737l-2.794-56.721h-2.15l-8.625,55.9" transform="translate(-201.159 -201.113)" fill="#ebe1ff"/>
                <path id="Trazado_59921" data-name="Trazado 59921" d="M263.873,269.155l8.87-55.189-2.384-.4-17.667,53" transform="translate(-214.459 -201.848)" fill="#ebe1ff"/>
                <path id="Trazado_59922" data-name="Trazado 59922" d="M255.776,266.492l17.735-53.231-2.75-1.526L245.04,261.9" transform="translate(-227.011 -204.854)" fill="#ebe1ff"/>
                <path id="Trazado_59923" data-name="Trazado 59923" d="M250.569,263.282l20.1-52.128-3.362-2.025-29.1,46.5" transform="translate(-238.212 -209.129)" fill="#ebe1ff"/>
              </g>
              <g id="Grupo_31814" data-name="Grupo 31814">
                <path id="Trazado_59924" data-name="Trazado 59924" d="M336.214,224.481v61.5l.99-.99c-14.028,1.843-29.038.28-42.716-2.912-20.051-4.681-39.761-14.488-54.695-28.825a52.585,52.585,0,0,1-7.324-8.2l-.156,1.2,42.161-35.219,5.98-5h-1.4c7.359,7.953,16.819,15.916,27.679,18.073,9.9,1.964,20.42,1.9,30.472,1.357,1.267-.069,1.275-2.052,0-1.98-9.632.523-19.686.594-29.194-1.146-10.9-1.991-20.2-9.751-27.555-17.7a1.014,1.014,0,0,0-1.4,0l-42.161,35.219-5.978,4.993a.994.994,0,0,0-.156,1.2c5.946,8.8,15.33,15.826,24.149,21.442a130.573,130.573,0,0,0,65.275,19.979,101.836,101.836,0,0,0,17.022-.5,1.019,1.019,0,0,0,.99-.99v-61.5A.991.991,0,0,0,336.214,224.481Z" transform="translate(-230.624 -204.359)" fill="#7986cb"/>
              </g>
              <g id="Grupo_31819" data-name="Grupo 31819" transform="translate(21.032 12.484)">
                <g id="Grupo_31815" data-name="Grupo 31815" transform="translate(58.356 12.023)">
                  <path id="Trazado_59925" data-name="Trazado 59925" d="M274.547,272.341a.985.985,0,0,1-.987-.94l-.261-5.275a.99.99,0,0,1,1.978-.1l.261,5.275a.991.991,0,0,1-.94,1.038Zm-12.864-5.373a1.032,1.032,0,0,1-.153-.013.988.988,0,0,1-.826-1.127l.805-5.22a.99.99,0,0,1,1.956.3l-.805,5.22A.992.992,0,0,1,261.683,266.968Zm12.344-5.175a.989.989,0,0,1-.988-.94l-.259-5.275a.99.99,0,0,1,1.978-.1l.259,5.275a.991.991,0,0,1-.94,1.038Zm-10.733-5.262a1.033,1.033,0,0,1-.153-.013.991.991,0,0,1-.826-1.13l.805-5.217a.99.99,0,1,1,1.956.3l-.805,5.22A.992.992,0,0,1,263.294,256.531Zm10.213-5.286a.989.989,0,0,1-.988-.94l-.259-5.275a.99.99,0,1,1,1.978-.1l.259,5.275a.991.991,0,0,1-.94,1.038Zm-8.6-5.154a.964.964,0,0,1-.15-.011.99.99,0,0,1-.829-1.13l.805-5.217a1,1,0,0,1,1.13-.829.99.99,0,0,1,.826,1.13l-.805,5.22A.987.987,0,0,1,264.9,246.091Zm8.085-5.394a.991.991,0,0,1-.987-.94l-.261-5.275a.989.989,0,0,1,.94-1.038.969.969,0,0,1,1.038.94l.261,5.273a.993.993,0,0,1-.94,1.04Zm-6.474-5.043a1.02,1.02,0,0,1-.153-.011.99.99,0,0,1-.826-1.13l.805-5.217a.99.99,0,1,1,1.956.3l-.805,5.217A.987.987,0,0,1,266.515,235.653Zm5.954-5.505a.991.991,0,0,1-.987-.943l-.261-5.273a.99.99,0,0,1,.94-1.038.976.976,0,0,1,1.038.94l.261,5.273a.99.99,0,0,1-.94,1.038Zm-4.343-4.932a1.014,1.014,0,0,1-.153-.011.991.991,0,0,1-.826-1.13l.805-5.217a.99.99,0,1,1,1.956.3l-.805,5.217A.987.987,0,0,1,268.125,225.216Zm3.823-5.616a.991.991,0,0,1-.987-.943l-.148-3.036h-.356a.99.99,0,1,1,0-1.98H272.7l.243,4.919A.99.99,0,0,1,272,219.6Z" transform="translate(-260.691 -213.641)" fill="#7986cb"/>
                </g>
                <g id="Grupo_31816" data-name="Grupo 31816" transform="translate(37.009 10.714)">
                  <path id="Trazado_59926" data-name="Trazado 59926" d="M264.154,269.981a.806.806,0,0,1-.158-.013.987.987,0,0,1-.821-1.133l.837-5.215a.991.991,0,0,1,1.956.314l-.84,5.215A.988.988,0,0,1,264.154,269.981ZM253.6,265.96a1.082,1.082,0,0,1-.314-.05.992.992,0,0,1-.626-1.254l1.669-5.009a.991.991,0,1,1,1.88.626l-1.669,5.009A.991.991,0,0,1,253.6,265.96Zm12.23-6.405a.8.8,0,0,1-.158-.013.989.989,0,0,1-.819-1.135l.837-5.212a.989.989,0,1,1,1.954.314l-.837,5.215A.989.989,0,0,1,265.828,259.554Zm-8.89-3.615a1.015,1.015,0,0,1-.314-.05.992.992,0,0,1-.626-1.254l1.669-5.009a.991.991,0,1,1,1.88.626l-1.669,5.011A.992.992,0,0,1,256.938,255.94Zm10.567-6.812a1.071,1.071,0,0,1-.158-.013.988.988,0,0,1-.819-1.135l.837-5.215a.989.989,0,0,1,1.954.314l-.837,5.215A.993.993,0,0,1,267.5,249.128Zm-7.229-3.208a.99.99,0,0,1-.94-1.3l1.671-5.011a.991.991,0,1,1,1.88.628l-1.671,5.009A.987.987,0,0,1,260.275,245.92Zm8.906-7.221a.8.8,0,0,1-.158-.013.989.989,0,0,1-.821-1.135l.84-5.212a.989.989,0,1,1,1.954.314l-.837,5.215A.991.991,0,0,1,269.181,238.7Zm-5.563-2.8a.988.988,0,0,1-.94-1.3l1.669-5.011a.991.991,0,0,1,1.88.628l-1.671,5.009A.987.987,0,0,1,263.618,235.9Zm7.24-7.628a1.069,1.069,0,0,1-.158-.013.989.989,0,0,1-.821-1.135l.837-5.212a.991.991,0,0,1,1.956.314l-.84,5.212A.988.988,0,0,1,270.858,228.271Zm-3.9-2.389a1.013,1.013,0,0,1-.314-.05.991.991,0,0,1-.626-1.254l1.669-5.009a.991.991,0,0,1,1.88.626l-1.669,5.011A.992.992,0,0,1,266.958,225.882Zm5.574-8.037a1.094,1.094,0,0,1-.159-.013.989.989,0,0,1-.818-1.135l.2-1.22-.6-.1a1,1,0,0,1-1.167.436.99.99,0,0,1-.626-1.254l.47-1.413,4.188.7-.507,3.166A.991.991,0,0,1,272.532,217.845Z" transform="translate(-252.606 -213.145)" fill="#7986cb"/>
                </g>
                <g id="Grupo_31817" data-name="Grupo 31817" transform="translate(17.722 6.056)">
                  <path id="Trazado_59927" data-name="Trazado 59927" d="M255.679,267.069a1,1,0,0,1-.314-.05.988.988,0,0,1-.626-1.252l1.669-5.011a.991.991,0,0,1,1.88.628l-1.669,5.009A.992.992,0,0,1,255.679,267.069Zm-9.389-6.875a.993.993,0,0,1-.879-1.442l2.411-4.7a.99.99,0,1,1,1.761.9l-2.411,4.7A.987.987,0,0,1,246.29,260.193Zm12.726-3.142a1.067,1.067,0,0,1-.312-.05.993.993,0,0,1-.628-1.254l1.669-5.011a.991.991,0,1,1,1.88.628l-1.669,5.009A1,1,0,0,1,259.016,257.051Zm-7.905-6.258a.959.959,0,0,1-.452-.111.987.987,0,0,1-.428-1.331l2.408-4.7a.99.99,0,0,1,1.761.9l-2.408,4.7A.99.99,0,0,1,251.111,250.793Zm11.243-3.762a1.067,1.067,0,0,1-.312-.05.993.993,0,0,1-.628-1.254l1.671-5.009a.991.991,0,1,1,1.88.626l-1.671,5.009A.986.986,0,0,1,262.354,247.031Zm-6.424-5.637a.988.988,0,0,1-.879-1.442l2.408-4.7a.99.99,0,0,1,1.761.9l-2.408,4.7A.99.99,0,0,1,255.93,241.394Zm9.764-4.383a1.1,1.1,0,0,1-.314-.05.994.994,0,0,1-.626-1.254l1.669-5.009a.991.991,0,1,1,1.88.626l-1.669,5.009A.991.991,0,0,1,265.694,237.011ZM260.748,232a.99.99,0,0,1-.882-1.442l2.411-4.7a.989.989,0,0,1,1.761.9l-2.411,4.7A.983.983,0,0,1,260.748,232Zm8.283-5.006a1.069,1.069,0,0,1-.312-.05.993.993,0,0,1-.628-1.254l1.671-5.009a.989.989,0,1,1,1.877.626l-1.669,5.009A.991.991,0,0,1,269.031,226.991Zm-3.464-4.391a.959.959,0,0,1-.452-.111.986.986,0,0,1-.428-1.331l2.408-4.7a.99.99,0,1,1,1.761.9l-2.408,4.7A1,1,0,0,1,265.567,222.6Zm6.8-5.629a1.015,1.015,0,0,1-.314-.05.992.992,0,0,1-.626-1.254l.451-1.357-1.927-1.072a.989.989,0,1,1,.961-1.729l3.364,1.869-.969,2.918A.99.99,0,0,1,272.371,216.971Z" transform="translate(-245.302 -211.381)" fill="#7986cb"/>
                </g>
                <g id="Grupo_31818" data-name="Grupo 31818">
                  <path id="Trazado_59928" data-name="Trazado 59928" d="M249.949,264.341a.99.99,0,0,1-.924-1.347l1.9-4.927a.991.991,0,0,1,1.848.713l-1.9,4.927A.987.987,0,0,1,249.949,264.341Zm3.8-9.854a.99.99,0,0,1-.924-1.347l1.9-4.927a.99.99,0,1,1,1.848.713l-1.9,4.927A.988.988,0,0,1,253.749,254.487Zm-14.171-.982a.989.989,0,0,1-.837-1.513l2.8-4.478a.99.99,0,1,1,1.679,1.051l-2.8,4.475A.99.99,0,0,1,239.578,253.505Zm17.973-8.872a.99.99,0,0,1-.924-1.347l1.9-4.927a.99.99,0,1,1,1.848.71l-1.9,4.927A1,1,0,0,1,257.551,244.633Zm-12.367-.079a1.006,1.006,0,0,1-.525-.151.992.992,0,0,1-.314-1.365l2.8-4.475a.99.99,0,0,1,1.679,1.048l-2.8,4.478A.992.992,0,0,1,245.183,244.554Zm5.6-8.953a.99.99,0,0,1-.837-1.516l2.8-4.475a.99.99,0,0,1,1.679,1.048l-2.8,4.475A1,1,0,0,1,250.784,235.6Zm10.567-.821a.99.99,0,0,1-.924-1.347l1.9-4.927a.99.99,0,1,1,1.848.71l-1.9,4.927A1,1,0,0,1,261.35,234.78Zm-4.964-8.132a.968.968,0,0,1-.523-.151.989.989,0,0,1-.314-1.365l2.8-4.475a.99.99,0,0,1,1.679,1.051l-2.8,4.475A.993.993,0,0,1,256.386,226.648Zm8.763-1.724a.991.991,0,0,1-.927-1.344l1.9-4.927a.99.99,0,1,1,1.848.71l-1.9,4.927A.993.993,0,0,1,265.15,224.923Zm-3.161-7.229a.967.967,0,0,1-.523-.151.99.99,0,0,1-.317-1.362l2.8-4.478a.99.99,0,0,1,1.679,1.048l-2.8,4.478A.986.986,0,0,1,261.989,217.694Zm6.96-2.624a.946.946,0,0,1-.356-.066.989.989,0,0,1-.568-1.278l.8-2.083-1.188-.716a.991.991,0,0,1,1.022-1.7l2.611,1.576-1.4,3.63A.99.99,0,0,1,268.949,215.07Z" transform="translate(-238.59 -209.087)" fill="#7986cb"/>
                </g>
              </g>
            </g>
          </g>
          <g id="Grupo_1077220" data-name="Grupo 1077220" transform="translate(536.552 2448.771)">
            <path id="Trazado_59902" data-name="Trazado 59902" d="M226.578,224.221h.008a275.088,275.088,0,0,1,21.485-29.262l.987-1.341c-.012-.169-.02-.34-.022-.507-.026-9.017,1.1-17.992,2.235-26.936,1.37-10.765,2.974-22.059,9.485-30.74h6.018c.012-.033.022-.065.035-.1l-.024.1h1.734l-.053-.122.055.122h17.07c.01-.029.014-.057.024-.085l-.02.085h1.773l-.088-.173H262.07a2.547,2.547,0,0,1-2.548-2.548v-2.86a2.547,2.547,0,0,1,2.548-2.548H292.78a2.547,2.547,0,0,1,2.548,2.548v2.86a2.547,2.547,0,0,1-2.548,2.548h-5.5c.039.057.071.116.11.173h5.927c6.511,8.681,8.115,19.975,9.485,30.74,1.14,8.943,2.261,17.919,2.235,26.936,0,.157-.01.316-.02.472a301.417,301.417,0,0,1,22.489,30.638h.008l-.006,0c-8.351,7.3-17.978,13.714-28.405,17.457a58.186,58.186,0,0,1-14.03,3.228,102.15,102.15,0,0,1-16.057,0c-.134-.014-.267-.041-.4-.057l0,.01,0-.01c-15.66-1.895-30.15-10.236-42.034-20.628Z" transform="translate(0.402 0.465)" fill="#ebe1ff"/>
            <g id="Grupo_31807" data-name="Grupo 31807" transform="translate(226.19 126.857)">
              <g id="Grupo_31791" data-name="Grupo 31791" transform="translate(32.967)">
                <path id="Trazado_59903" data-name="Trazado 59903" d="M245.7,136.49h26.75c1.6,0,3.94.391,5.432-.358,1.787-.9,1.838-2.638,1.838-4.382,0-1.811-.1-3.668-2.037-4.48-1.492-.623-3.674-.263-5.233-.263H250.7c-1.838,0-4.51-.474-6.275.263-2.208.924-2.037,3.175-2.037,5.168,0,2.18.977,3.843,3.311,4.052.979.088.973-1.439,0-1.527-2.084-.187-1.984-3.027-1.785-4.616.179-1.447,1.221-1.775,2.416-1.814,2.078-.067,4.166,0,6.244,0h18.967a43.9,43.9,0,0,1,4.8,0c2.094.234,1.852,2.168,1.852,3.737,0,1.443-.44,2.556-2.045,2.693-1.785.153-3.649,0-5.436,0H245.7A.764.764,0,0,0,245.7,136.49Z" transform="translate(-242.387 -126.857)" fill="#7986cb"/>
              </g>
              <g id="Grupo_31796" data-name="Grupo 31796" transform="translate(38.401 8.088)">
                <g id="Grupo_31792" data-name="Grupo 31792" transform="translate(22.312)">
                  <path id="Trazado_59904" data-name="Trazado 59904" d="M261.486,139.027a36.751,36.751,0,0,0-4.04-7.822.783.783,0,0,0-1.044-.273.771.771,0,0,0-.275,1.044,35.061,35.061,0,0,1,3.888,7.455.784.784,0,0,0,.938.533.768.768,0,0,0,.533-.938Z" transform="translate(-256.019 -130.831)" fill="#7986cb"/>
                </g>
                <g id="Grupo_31793" data-name="Grupo 31793" transform="translate(18.973 0.137)">
                  <path id="Trazado_59905" data-name="Trazado 59905" d="M256.1,131.427a41.794,41.794,0,0,0-1.706,7.423.792.792,0,0,0,.533.938.771.771,0,0,0,.94-.533,41.549,41.549,0,0,1,1.706-7.421c.305-.936-1.168-1.337-1.474-.407Z" transform="translate(-254.379 -130.898)" fill="#7986cb"/>
                </g>
                <g id="Grupo_31794" data-name="Grupo 31794" transform="translate(3.525 0.074)">
                  <path id="Trazado_59906" data-name="Trazado 59906" d="M246.881,132.01q1.758,3.774,3.289,7.645a.788.788,0,0,0,.938.533.771.771,0,0,0,.533-.94q-1.6-4.054-3.442-8.009a.769.769,0,0,0-1.044-.273.781.781,0,0,0-.275,1.044Z" transform="translate(-246.789 -130.867)" fill="#7986cb"/>
                </g>
                <g id="Grupo_31795" data-name="Grupo 31795" transform="translate(0 0.093)">
                  <path id="Trazado_59907" data-name="Trazado 59907" d="M246.942,131.439a29.361,29.361,0,0,0-1.881,7.358.766.766,0,0,0,.763.763.781.781,0,0,0,.763-.763,27.9,27.9,0,0,1,1.826-6.953.768.768,0,0,0-.533-.938.782.782,0,0,0-.938.533Z" transform="translate(-245.057 -130.877)" fill="#7986cb"/>
                </g>
              </g>
              <g id="Grupo_31797" data-name="Grupo 31797" transform="translate(22.473 8.231)">
                <path id="Trazado_59908" data-name="Trazado 59908" d="M241,162.453c1.1-8.636,2.282-17.606,6.322-25.446q.662-1.282,1.423-2.51a14.584,14.584,0,0,0,.987-2.021c.151-.1.535.033.712,0a24.883,24.883,0,0,1,4.176,0h26.034c1.923,0,1.292-.047,2.39,1.669a43.087,43.087,0,0,1,5.068,11.956c2.357,8.693,3.2,17.868,4.148,26.8.529,4.978.92,9.975.973,14.984.033,3.016-2.127,4.341-4.494,5.764a33.916,33.916,0,0,1-6.281,2.947c-5.609,1.96-11.349,1.919-17.219,1.852-7.358-.083-14.078-.466-20.712-4.077-2.731-1.486-5.79-3.037-5.754-6.487.031-2.837.169-5.673.379-8.5.419-5.664,1.132-11.3,1.848-16.934.122-.973-1.4-.963-1.526,0-.716,5.632-1.429,11.27-1.848,16.934-.2,2.662-.334,5.329-.375,8-.028,1.956-.226,3.446,1.3,4.816,5.449,4.895,12.894,7.164,20.06,7.567,5.892.332,12.106.639,17.976-.138a34.127,34.127,0,0,0,11.461-3.833,27.331,27.331,0,0,0,5.41-3.6c1.4-1.262,1.323-2.491,1.3-4.315-.112-10.517-1.5-21.076-3.041-31.466a80.472,80.472,0,0,0-3.1-13.914,45.592,45.592,0,0,0-2.249-5.534c-.786-1.6-2.009-4.777-3.548-5.8-.639-.427-1.681-.224-2.416-.224H251.124c-1.889,0-2.041.238-3.248,2.08-5.7,8.7-7.109,19.332-8.4,29.423C239.353,163.424,240.88,163.415,241,162.453Z" transform="translate(-237.231 -130.901)" fill="#7986cb"/>
              </g>
              <g id="Grupo_31798" data-name="Grupo 31798" transform="translate(78.698 66.794)">
                <path id="Trazado_59909" data-name="Trazado 59909" d="M265.048,161.007A277.755,277.755,0,0,1,287.218,191.1c.527.826,1.85.061,1.319-.769a280.491,280.491,0,0,0-22.411-30.4c-.635-.751-1.71.334-1.079,1.079Z" transform="translate(-264.856 -159.674)" fill="#7986cb"/>
              </g>
              <g id="Grupo_31804" data-name="Grupo 31804" transform="translate(42.062 79.43)">
                <g id="Grupo_31799" data-name="Grupo 31799" transform="translate(41.527 4.341)">
                  <path id="Trazado_59910" data-name="Trazado 59910" d="M278.6,187.142q-4.964-9.373-9.924-18.745c-.458-.869-1.777-.1-1.317.771q4.961,9.37,9.922,18.743c.46.869,1.777.1,1.319-.769Z" transform="translate(-267.259 -168.016)" fill="#7986cb"/>
                </g>
                <g id="Grupo_31800" data-name="Grupo 31800" transform="translate(27.777)">
                  <path id="Trazado_59911" data-name="Trazado 59911" d="M276.246,196.037a279.84,279.84,0,0,0-14.321-29.779c-.478-.859-1.8-.09-1.319.769a276.269,276.269,0,0,1,14.168,29.415c.368.9,1.846.5,1.472-.405Z" transform="translate(-260.503 -165.883)" fill="#7986cb"/>
                </g>
                <g id="Grupo_31801" data-name="Grupo 31801" transform="translate(22.357 10.55)">
                  <path id="Trazado_59912" data-name="Trazado 59912" d="M257.884,172q4.152,12.261,8.119,24.589c.3.93,1.773.533,1.472-.407q-3.966-12.325-8.119-24.589c-.313-.924-1.787-.527-1.472.407Z" transform="translate(-257.84 -171.066)" fill="#7986cb"/>
                </g>
                <g id="Grupo_31802" data-name="Grupo 31802" transform="translate(13.254 5.201)">
                  <path id="Trazado_59913" data-name="Trazado 59913" d="M253.37,169.172q1.258,16.563,2.514,33.127c.073.973,1.6.981,1.526,0q-1.258-16.566-2.514-33.127c-.073-.975-1.6-.983-1.527,0Z" transform="translate(-253.368 -168.438)" fill="#7986cb"/>
                </g>
                <g id="Grupo_31803" data-name="Grupo 31803" transform="translate(0 14.01)">
                  <path id="Trazado_59914" data-name="Trazado 59914" d="M248.3,173.5c-.24,8.113-1.274,16.177-1.445,24.294a.764.764,0,0,0,1.527,0c.171-8.117,1.2-16.181,1.445-24.294a.764.764,0,0,0-1.527,0Z" transform="translate(-246.856 -172.766)" fill="#7986cb"/>
                </g>
              </g>
              <g id="Grupo_31805" data-name="Grupo 31805" transform="translate(0.013 66.794)">
                <path id="Trazado_59915" data-name="Trazado 59915" d="M248.729,159.928a280.461,280.461,0,0,0-22.409,30.4c-.531.83.79,1.6,1.317.769a277.773,277.773,0,0,1,22.173-30.091c.631-.745-.444-1.83-1.081-1.079Z" transform="translate(-226.196 -159.674)" fill="#7986cb"/>
              </g>
              <g id="Grupo_31806" data-name="Grupo 31806" transform="translate(0 97.09)">
                <path id="Trazado_59916" data-name="Trazado 59916" d="M327.377,174.756c-11.042,9.593-24.125,17.73-38.788,20.066a67.449,67.449,0,0,1-39.9-5.821,96.51,96.51,0,0,1-21.166-14.245c-.739-.641-1.824.436-1.079,1.081,11.553,10.03,25.332,18.281,40.664,20.6a68.175,68.175,0,0,0,39.915-6.033,99.4,99.4,0,0,0,21.436-14.571c.743-.645-.34-1.722-1.079-1.081Z" transform="translate(-226.19 -174.559)" fill="#7986cb"/>
              </g>
            </g>
          </g>
          <g id="Grupo_1077221" data-name="Grupo 1077221" transform="translate(187.188 2412.894)">
            <g id="Grupo_31789" data-name="Grupo 31789" transform="translate(355.438 153.977)">
              <g id="Grupo_31783" data-name="Grupo 31783" transform="translate(1.443)">
                <g id="Grupo_31781" data-name="Grupo 31781" transform="translate(0 3.398)">
                  <g id="Grupo_31777" data-name="Grupo 31777" transform="translate(51.178 44.905)">
                    <path id="Trazado_59893" data-name="Trazado 59893" d="M394.8,194.979a.747.747,0,0,1-.423-.131,29.457,29.457,0,0,1-3.252-2.552.755.755,0,0,1,1.01-1.123,28.48,28.48,0,0,0,3.088,2.423.757.757,0,0,1-.423,1.383Zm-6-5.36a.752.752,0,0,1-.569-.258,40.206,40.206,0,0,1-2.546-3.227.757.757,0,0,1,1.234-.877,37.993,37.993,0,0,0,2.449,3.106.758.758,0,0,1-.568,1.256Zm-4.675-6.566a.756.756,0,0,1-.655-.377,33.757,33.757,0,0,1-1.875-3.7.756.756,0,1,1,1.4-.57,32.331,32.331,0,0,0,1.784,3.51.756.756,0,0,1-.655,1.133Z" transform="translate(-381.541 -177.939)" fill="#7986cb"/>
                  </g>
                  <g id="Grupo_31778" data-name="Grupo 31778" transform="translate(34.042 99.822)">
                    <path id="Trazado_59894" data-name="Trazado 59894" d="M408.045,206.693h-1.992a.756.756,0,0,1,0-1.512h1.992a.756.756,0,0,1,0,1.512Zm-6.023,0h-4.032a.756.756,0,1,1,0-1.512h4.032a.756.756,0,0,1,0,1.512Zm-8.065,0h-4.03a.756.756,0,1,1,0-1.512h4.03a.756.756,0,0,1,0,1.512Zm-8.061,0h-4.032a.756.756,0,1,1,0-1.512h4.032a.756.756,0,0,1,0,1.512Zm-8.066,0H373.8a.756.756,0,0,1,0-1.512h4.032a.756.756,0,1,1,0,1.512Z" transform="translate(-373.041 -205.181)" fill="#7986cb"/>
                  </g>
                  <g id="Grupo_31779" data-name="Grupo 31779">
                    <path id="Trazado_59895" data-name="Trazado 59895" d="M385.533,257H381.5a.756.756,0,1,1,0-1.512h4.032a.756.756,0,1,1,0,1.512Zm-8.063,0h-4.032a.756.756,0,0,1,0-1.512h4.032a.756.756,0,0,1,0,1.512Zm-8.064,0h-4.032a.756.756,0,1,1,0-1.512h4.032a.756.756,0,1,1,0,1.512Zm-8.063,0h-4.032a.756.756,0,0,1,0-1.512h4.032a.756.756,0,0,1,0,1.512Zm-4.433-3.631a.756.756,0,0,1-.756-.756v-4.032a.756.756,0,1,1,1.512,0v4.032A.756.756,0,0,1,356.91,253.366Zm0-8.063a.756.756,0,0,1-.756-.756v-4.032a.756.756,0,1,1,1.512,0v4.032A.756.756,0,0,1,356.91,245.3Zm0-8.063a.756.756,0,0,1-.756-.756v-4.032a.756.756,0,1,1,1.512,0v4.032A.756.756,0,0,1,356.91,237.239Zm0-8.063a.756.756,0,0,1-.756-.756v-4.032a.756.756,0,1,1,1.512,0v4.032A.756.756,0,0,1,356.91,229.176Zm0-8.063a.756.756,0,0,1-.756-.756v-4.032a.756.756,0,0,1,1.512,0v4.032A.756.756,0,0,1,356.91,221.112Zm0-8.063a.756.756,0,0,1-.756-.756v-4.032a.756.756,0,1,1,1.512,0v4.032A.756.756,0,0,1,356.91,213.049Zm3.469-5.344c-.4,0-.778-.012-1.123-.028a.758.758,0,0,1-.716-.794.733.733,0,0,1,.794-.716,22.507,22.507,0,0,0,3.883-.165.756.756,0,0,1,.2,1.5A22.7,22.7,0,0,1,360.379,207.7Zm6.864-1.1a.756.756,0,0,1-.234-1.476,21.229,21.229,0,0,0,3.564-1.544.756.756,0,1,1,.728,1.326,22.918,22.918,0,0,1-3.822,1.655A.731.731,0,0,1,367.243,206.608Zm7.042-3.838a.757.757,0,0,1-.474-1.347,24.765,24.765,0,0,0,2.836-2.683.756.756,0,0,1,1.121,1.014,26.113,26.113,0,0,1-3.012,2.848A.746.746,0,0,1,374.285,202.77Zm5.34-5.987a.753.753,0,0,1-.645-1.147,30.152,30.152,0,0,0,1.8-3.5.756.756,0,1,1,1.383.611,31.051,31.051,0,0,1-1.893,3.671A.753.753,0,0,1,379.625,196.783Zm3.3-7.348a.746.746,0,0,1-.244-.04.755.755,0,0,1-.472-.96c.421-1.234.806-2.512,1.161-3.816a.756.756,0,0,1,1.46.4c-.375,1.375-.774,2.687-1.189,3.907A.756.756,0,0,1,382.925,189.435Zm2.141-7.781a.785.785,0,0,1-.165-.018.756.756,0,0,1-.572-.9c.29-1.306.554-2.623.794-3.929a.755.755,0,1,1,1.486.274c-.242,1.322-.51,2.657-.8,3.985A.757.757,0,0,1,385.066,181.654Zm1.464-7.941a.73.73,0,0,1-.113-.008.756.756,0,0,1-.635-.861c.208-1.367.389-2.7.546-3.981a.756.756,0,1,1,1.5.185c-.159,1.294-.343,2.641-.552,4.022A.754.754,0,0,1,386.529,173.713Zm.994-8.015c-.024,0-.05,0-.075,0a.756.756,0,0,1-.679-.827c.147-1.488.26-2.842.347-4.008a.766.766,0,0,1,.81-.7.758.758,0,0,1,.7.81c-.089,1.177-.2,2.542-.349,4.046A.759.759,0,0,1,387.523,165.7Zm.593-8.068-.034,0a.752.752,0,0,1-.722-.786l.016-.448a.778.778,0,0,1,.78-.732.757.757,0,0,1,.732.78l-.018.464A.753.753,0,0,1,388.116,157.631Z" transform="translate(-356.154 -155.663)" fill="#7986cb"/>
                  </g>
                  <g id="Grupo_31780" data-name="Grupo 31780" transform="translate(42.434 4.749)">
                    <path id="Trazado_59896" data-name="Trazado 59896" d="M383.889,191.378a.754.754,0,0,1-.577-.27c-.175-.206-.343-.417-.506-.633a.756.756,0,1,1,1.205-.911c.147.194.3.385.454.57a.756.756,0,0,1-.577,1.244Zm-2.53-4.064a.756.756,0,0,1-.685-.437A29,29,0,0,1,379.22,183a.755.755,0,1,1,1.447-.433,27.286,27.286,0,0,0,1.377,3.669.76.76,0,0,1-.685,1.076Zm-2.365-7.691a.755.755,0,0,1-.742-.613c-.246-1.276-.452-2.639-.611-4.046a.757.757,0,0,1,.667-.837.747.747,0,0,1,.837.667c.153,1.369.353,2.691.593,3.929a.756.756,0,0,1-.6.885A.723.723,0,0,1,378.994,179.623Zm-.929-8.009a.754.754,0,0,1-.754-.714c-.077-1.427-.1-2.8-.107-4.074a.754.754,0,0,1,.754-.756h0a.755.755,0,0,1,.756.756c0,1.248.03,2.592.1,3.991a.756.756,0,0,1-.716.8Zm-.012-8.063h-.036a.758.758,0,0,1-.72-.792c.113-2.463.29-4.008.3-4.074a.755.755,0,0,1,1.5.173c0,.016-.177,1.564-.286,3.973A.759.759,0,0,1,378.053,163.551Z" transform="translate(-377.204 -158.019)" fill="#7986cb"/>
                  </g>
                </g>
                <g id="Grupo_31782" data-name="Grupo 31782" transform="translate(3.647)">
                  <path id="Trazado_59897" data-name="Trazado 59897" d="M357.963,181.856v98.951a.511.511,0,0,0,.5.5h22.767a.519.519,0,0,0,.5-.5l2.631-24.418,1.863-17.3c.258-2.379,1.556-6.59.968-8.975-.347-1.4-.821,1.818-.824,1.891a34.458,34.458,0,0,0,.447,5.209l1.484,17.2,2.274,26.4a.516.516,0,0,0,.5.5h29.992a.519.519,0,0,0,.5-.5l6.634-55.386a.506.506,0,0,0-.25-.435c-8.654-6.084-15.252-14.869-14.593-26a.508.508,0,0,0-.758-.435c-8.567,4.423-17.9,11.507-22.884,19.846-.514.861-3.31,6.767-1.562,3.9,1.062-1.74,1.468-4.391,2.215-6.306,3.209-8.221,7.491-16.949,15.022-21.993a.527.527,0,0,0,.232-.57,36.338,36.338,0,0,1,3.889-25.716.51.51,0,0,0-.3-.74L377.537,154a.509.509,0,0,0-.639.486c.157,5.447.214,12.1-2.153,17.03-3,6.237-9.924,8.68-16.413,9.85-.637.115-.367,1.087.268.972,12.978-2.336,18.375-8.644,19.2-21.632.421-6.656-1.326-6.06,5.126-3.417l19.631,8.033c.853.351,5.437,1.518,5.87,2.4a85.865,85.865,0,0,0-3.677,9c-1.139,5.108,1.03,13.238-.835,17.127-.812,1.689-4.155,3.544-5.471,5.171a53.892,53.892,0,0,0-6.505,10.823,86.188,86.188,0,0,0-5.167,13.627.506.506,0,0,0,.921.387,55.557,55.557,0,0,1,12.835-15.778c2.465-2.121,7.676-7.261,11.236-7.92,2.141-.4-.155-.976.574-.177.284.31.208,3.159.294,3.814a26.517,26.517,0,0,0,5.132,13.1c2.2,2.881,6.088,4.858,8.035,7.731,1.465,2.161.857.542,1.095,3.411.524,6.328-1.659,13.859-2.413,20.157l-2.869,23.947c-.212,1.776.036,5.63-.869,7.255-1.046,1.881,1.129.413-2.07.907-7.146,1.1-15.3,0-22.527,0-5.8,0-4.546.619-5.056-5.3l-3.876-44.984a.5.5,0,0,0-1.008,0l-2.842,26.372-1.814,16.833c-.218,2.018-.754,7.015-.863,7.082-2.826,1.754-12.379,0-15.712,0-.947,0-5.471.609-6.279,0-1.161-.877.278-16.921.278-19.286V181.856A.5.5,0,0,0,357.963,181.856Z" transform="translate(-357.963 -153.977)" fill="#7986cb"/>
                </g>
              </g>
              <g id="Grupo_31788" data-name="Grupo 31788" transform="translate(0 14.304)">
                <g id="Grupo_31784" data-name="Grupo 31784" transform="translate(0 3.721)">
                  <path id="Trazado_59898" data-name="Trazado 59898" d="M357.053,167.58l-.708,2.139h-.907l2.312-6.8h1.058l2.32,6.8h-.937l-.728-2.139Zm2.229-.685-.667-1.957c-.149-.444-.252-.847-.353-1.24h-.018c-.1.4-.214.816-.343,1.23l-.667,1.968Z" transform="translate(-355.438 -162.919)" fill="#7986cb"/>
                </g>
                <g id="Grupo_31785" data-name="Grupo 31785" transform="translate(59.295)">
                  <path id="Trazado_59899" data-name="Trazado 59899" d="M384.852,161.214a8.5,8.5,0,0,1,1.6-.141,2.81,2.81,0,0,1,1.867.494,1.421,1.421,0,0,1,.566,1.2,1.616,1.616,0,0,1-1.151,1.494v.02a1.755,1.755,0,0,1,1.4,1.705,1.836,1.836,0,0,1-.575,1.363,3.421,3.421,0,0,1-2.353.635,10.254,10.254,0,0,1-1.361-.081Zm.877,2.784h.8c.929,0,1.474-.484,1.474-1.139,0-.8-.6-1.111-1.494-1.111a3.762,3.762,0,0,0-.776.06Zm0,3.258a4.434,4.434,0,0,0,.738.042c.907,0,1.744-.335,1.744-1.322,0-.927-.8-1.312-1.756-1.312h-.726Z" transform="translate(-384.852 -161.073)" fill="#7986cb"/>
                </g>
                <g id="Grupo_31786" data-name="Grupo 31786" transform="translate(62.252 23.09)">
                  <path id="Trazado_59900" data-name="Trazado 59900" d="M391.476,179.216a4.372,4.372,0,0,1-1.8.323,3.178,3.178,0,0,1-3.36-3.441,3.384,3.384,0,0,1,3.552-3.57,3.627,3.627,0,0,1,1.613.3l-.21.716a3.2,3.2,0,0,0-1.373-.282,2.528,2.528,0,0,0-2.653,2.806,2.471,2.471,0,0,0,2.613,2.732,3.519,3.519,0,0,0,1.433-.282Z" transform="translate(-386.319 -172.527)" fill="#7986cb"/>
                </g>
                <g id="Grupo_31787" data-name="Grupo 31787" transform="translate(74.17 105.674)">
                  <path id="Trazado_59901" data-name="Trazado 59901" d="M392.231,213.637a12.548,12.548,0,0,1,1.867-.143,3.891,3.891,0,0,1,2.754.849,3.135,3.135,0,0,1,.959,2.441,3.588,3.588,0,0,1-.982,2.643,4.175,4.175,0,0,1-3.006.98,14.168,14.168,0,0,1-1.593-.081Zm.877,6.013a5.546,5.546,0,0,0,.887.05,2.615,2.615,0,0,0,2.9-2.887,2.428,2.428,0,0,0-2.756-2.623,5,5,0,0,0-1.028.091Z" transform="translate(-392.231 -213.494)" fill="#7986cb"/>
                </g>
              </g>
            </g>
          </g>
        </g>
      </g>
      <text id="Línea_intermitente:_Pespuntes_o_costuras" data-name="Línea intermitente:
Pespuntes o costuras" transform="translate(1002 2798.998)" fill="#12263f" font-size="18" font-family="Roboto-Black, Roboto" font-weight="800"><tspan x="-77.37" y="0">Línea intermitente:</tspan><tspan font-family="Roboto-Regular, Roboto" font-weight="400"><tspan x="-86.735" y="25">Pespuntes o costuras</tspan></tspan></text>
    </g>
  </g>
</svg>
