<svg xmlns="http://www.w3.org/2000/svg" xmlns:xlink="http://www.w3.org/1999/xlink" width="1030" height="598.187" viewBox="0 0 1030 598.187">
  <defs>
    <linearGradient id="linear-gradient" x1="0.5" x2="0.5" y2="1" gradientUnits="objectBoundingBox">
      <stop offset="0" stop-color="#fff"/>
      <stop offset="0.586" stop-color="#f7f4ff" stop-opacity="0.878"/>
      <stop offset="0.858" stop-color="#e9dfff" stop-opacity="0.565"/>
      <stop offset="1" stop-color="#d1bcff" stop-opacity="0.051"/>
    </linearGradient>
  </defs>
  <g id="Grupo_1078878" data-name="Grupo 1078878" transform="translate(-285 -13336.259)">
    <g id="Grupo_1077294" data-name="Grupo 1077294" transform="translate(20 11392.541)">
      <path id="Trazado_774834" data-name="Trazado 774834" d="M0,0H1030V342.156H0V0Z" transform="translate(1295 2285.873) rotate(180)" fill="url(#linear-gradient)"/>
    </g>
    <g id="Grupo_32821" data-name="Grupo 32821" transform="translate(108 11169.445)">
      <circle id="Elipse_563" data-name="Elipse 563" cx="70.5" cy="70.5" r="70.5" transform="translate(312 2305)" fill="#fff" stroke="#673ab7" stroke-width="3"/>
      <circle id="Elipse_567" data-name="Elipse 567" cx="70.5" cy="70.5" r="70.5" transform="translate(424 2566)" fill="#fff" stroke="#673ab7" stroke-width="3"/>
      <ellipse id="Elipse_564" data-name="Elipse 564" cx="70" cy="70.5" rx="70" ry="70.5" transform="translate(519 2305)" fill="#fff" stroke="#673ab7" stroke-width="3"/>
      <ellipse id="Elipse_568" data-name="Elipse 568" cx="70" cy="70.5" rx="70" ry="70.5" transform="translate(631 2566)" fill="#fff" stroke="#673ab7" stroke-width="3"/>
      <circle id="Elipse_565" data-name="Elipse 565" cx="70.5" cy="70.5" r="70.5" transform="translate(724 2305)" fill="#fff" stroke="#673ab7" stroke-width="3"/>
      <circle id="Elipse_569" data-name="Elipse 569" cx="70.5" cy="70.5" r="70.5" transform="translate(836 2566)" fill="#fff" stroke="#673ab7" stroke-width="3"/>
      <circle id="Elipse_566" data-name="Elipse 566" cx="70.5" cy="70.5" r="70.5" transform="translate(931 2305)" fill="#fff" stroke="#673ab7" stroke-width="3"/>
      <g id="Rectángulo_7451" data-name="Rectángulo 7451" transform="translate(492 2169)" fill="#fff" stroke="#673ab7" stroke-width="4">
        <rect width="416" height="55" rx="27.5" stroke="none"/>
        <rect x="2" y="2" width="412" height="51" rx="25.5" fill="none"/>
      </g>
      <text id="Desarrollo_de_producto" data-name="Desarrollo de producto" transform="translate(570 2206)" fill="#12263f" font-size="24" font-family="Roboto-Black, Roboto" font-weight="800"><tspan x="0" y="0">Desarrollo de producto</tspan></text>
      <text id="Ficha_técnica_de_diseño" data-name="Ficha técnica
de diseño" transform="translate(383 2476)" fill="#12263f" font-size="16" font-family="Roboto-Bold, Roboto" font-weight="700"><tspan x="-47.695" y="0">Ficha técnica</tspan><tspan x="-34.895" y="24">de diseño</tspan></text>
      <text id="Ficha_técnica_de_patronaje" data-name="Ficha técnica
de patronaje" transform="translate(590 2476)" fill="#12263f" font-size="16" font-family="Roboto-Bold, Roboto" font-weight="700"><tspan x="-47.695" y="0">Ficha técnica</tspan><tspan x="-44.793" y="24">de patronaje</tspan></text>
      <text id="Ficha_técnica_de_insumos" data-name="Ficha técnica
de insumos" transform="translate(795 2476)" fill="#12263f" font-size="16" font-family="Roboto-Bold, Roboto" font-weight="700"><tspan x="-47.695" y="0">Ficha técnica</tspan><tspan x="-41.578" y="24">de insumos</tspan></text>
      <text id="Ficha_técnica_de_escalado" data-name="Ficha técnica
de escalado" transform="translate(1002 2476)" fill="#12263f" font-size="16" font-family="Roboto-Bold, Roboto" font-weight="700"><tspan x="-47.695" y="0">Ficha técnica</tspan><tspan x="-43.164" y="24">de escalado</tspan></text>
      <text id="Ficha_técnica_de_corte" data-name="Ficha técnica
de corte" transform="translate(495 2737)" fill="#12263f" font-size="16" font-family="Roboto-Bold, Roboto" font-weight="700"><tspan x="-47.695" y="0">Ficha técnica</tspan><tspan x="-29.66" y="24">de corte</tspan></text>
      <text id="Ficha_técnica_de_confección" data-name="Ficha técnica
de confección" transform="translate(700 2737)" fill="#12263f" font-size="16" font-family="Roboto-Bold, Roboto" font-weight="700"><tspan x="-47.695" y="0">Ficha técnica</tspan><tspan x="-50.566" y="24">de confección</tspan></text>
      <text id="Ficha_técnica_de_empaque" data-name="Ficha técnica
de empaque" transform="translate(907 2737)" fill="#12263f" font-size="16" font-family="Roboto-Bold, Roboto" font-weight="700"><tspan x="-47.695" y="0">Ficha técnica</tspan><tspan x="-44.188" y="24">de empaque</tspan></text>
      <g id="diseno" transform="translate(335 2335.585)">
        <path id="Trazado_61157" data-name="Trazado 61157" d="M182.439,326.992H170.653c0,18.141-11.052,27.426-11.052,27.426h33.89S182.439,345.133,182.439,326.992Zm0,0" transform="translate(-131.546 -269.101)" fill="#e8e8e8"/>
        <path id="Trazado_61158" data-name="Trazado 61158" d="M177.06,457.616H138.531a1.679,1.679,0,0,1-1.68-1.68,5.352,5.352,0,0,1,5.352-5.351h31.184a5.352,5.352,0,0,1,5.352,5.351,1.679,1.679,0,0,1-1.68,1.68Zm0,0" transform="translate(-112.795 -370.97)" fill="#cdd6df"/>
        <path id="Trazado_61159" data-name="Trazado 61159" d="M91.468,74.481H10.9a3.4,3.4,0,0,1-3.4-3.395V11.4A3.4,3.4,0,0,1,10.9,8H91.468a3.4,3.4,0,0,1,3.4,3.4v59.69A3.4,3.4,0,0,1,91.468,74.481Zm0,0" transform="translate(-6.182 -6.182)" fill="#e8e8e8"/>
        <path id="Trazado_61160" data-name="Trazado 61160" d="M440.911,8h-9.442a3.4,3.4,0,0,1,3.395,3.4v59.69a3.394,3.394,0,0,1-3.395,3.395h9.442a3.4,3.4,0,0,0,3.4-3.395V11.4a3.4,3.4,0,0,0-3.4-3.4Zm0,0" transform="translate(-355.625 -6.182)" fill="#afafaf"/>
        <path id="Trazado_61161" data-name="Trazado 61161" d="M35.5,37h77.519V83.316H35.5Zm0,0" transform="translate(-29.259 -30.084)" fill="#f2f2f2"/>
        <path id="Trazado_61162" data-name="Trazado 61162" d="M7.5,330.488v6.4a3.4,3.4,0,0,0,3.4,3.395H91.467a3.4,3.4,0,0,0,3.4-3.395v-6.4Zm0,0" transform="translate(-6.181 -271.983)" fill="#cdd6df"/>
        <path id="Trazado_61163" data-name="Trazado 61163" d="M440.911,340.278a3.4,3.4,0,0,0,3.4-3.395v-6.4h-9.443v6.4a3.4,3.4,0,0,1-3.395,3.395Zm0,0" transform="translate(-355.625 -271.98)" fill="#abb2ba"/>
        <path id="Trazado_61164" data-name="Trazado 61164" d="M220.859,101.945c-3.138,2.879-9.4,3.6-12.7,3.779a2.807,2.807,0,0,0-2.6,2.223l-4.4,20.913,20.913-4.4a2.806,2.806,0,0,0,2.223-2.6c.178-3.3.9-9.559,3.779-12.7Zm-4.606,16.484a3.3,3.3,0,1,1,0-4.662A3.3,3.3,0,0,1,216.253,118.429Zm0,0" transform="translate(-165.8 -83.613)" fill="#46d1c0"/>
        <path id="Trazado_61165" data-name="Trazado 61165" d="M318.3,72.895,313.223,78l7.217,7.217,5.107-5.073Zm0,0" transform="translate(-258.164 -59.669)" fill="#426175"/>
        <path id="Trazado_61166" data-name="Trazado 61166" d="M78.183,77.085H73.04a1.032,1.032,0,0,1-1.032-1.031V70.91a1.032,1.032,0,0,1,1.032-1.031h5.143a1.032,1.032,0,0,1,1.032,1.031v5.144A1.032,1.032,0,0,1,78.183,77.085Zm0,0" transform="translate(-59.35 -57.183)" fill="#fd715c"/>
        <path id="Trazado_61167" data-name="Trazado 61167" d="M78.183,151.187H73.04a1.032,1.032,0,0,1-1.032-1.031v-5.144a1.032,1.032,0,0,1,1.032-1.031h5.143a1.032,1.032,0,0,1,1.032,1.031v5.144A1.032,1.032,0,0,1,78.183,151.187Zm0,0" transform="translate(-59.35 -118.26)" fill="#fed066"/>
        <path id="Trazado_61168" data-name="Trazado 61168" d="M78.183,224.289H73.04a1.032,1.032,0,0,1-1.032-1.032v-5.143a1.032,1.032,0,0,1,1.032-1.032h5.143a1.032,1.032,0,0,1,1.032,1.032v5.143A1.032,1.032,0,0,1,78.183,224.289Zm0,0" transform="translate(-59.35 -178.511)" fill="#88dbfd"/>
        <path id="Trazado_61169" data-name="Trazado 61169" d="M85.287.5H4.714A4.719,4.719,0,0,0,0,5.214V64.9a4.718,4.718,0,0,0,4.714,4.713H36.066A36.4,36.4,0,0,1,32.1,78.3H29.408a6.677,6.677,0,0,0-6.67,6.669,3,3,0,0,0,3,3H64.265a3,3,0,0,0,3-3,6.677,6.677,0,0,0-6.67-6.669H57.9a36.376,36.376,0,0,1-3.965-8.681H85.287A4.718,4.718,0,0,0,90,64.9V5.214A4.719,4.719,0,0,0,85.287.5ZM4.714,3.137H85.287a2.079,2.079,0,0,1,2.076,2.077V57.187H2.637V5.214A2.079,2.079,0,0,1,4.714,3.137ZM64.626,84.968a.362.362,0,0,1-.361.361H25.736a.362.362,0,0,1-.361-.361,4.038,4.038,0,0,1,4.033-4.033H60.592a4.038,4.038,0,0,1,4.033,4.033Zm-9.8-6.67H35.174a39.3,39.3,0,0,0,3.642-8.681H51.184A39.3,39.3,0,0,0,54.826,78.3ZM85.287,66.981H4.714A2.079,2.079,0,0,1,2.637,64.9v-5.08H87.363V64.9a2.079,2.079,0,0,1-2.076,2.076Zm0,0" transform="translate(0)" fill="#504d4d"/>
        <path id="Trazado_61170" data-name="Trazado 61170" d="M29.318,195.254h77.519a1.318,1.318,0,0,0,1.318-1.318V172.529a1.318,1.318,0,1,0-2.637,0v20.088H30.637V172.538a1.318,1.318,0,0,0-2.637,0v21.4A1.318,1.318,0,0,0,29.318,195.254Zm0,0" transform="translate(-23.078 -140.703)" fill="#504d4d"/>
        <path id="Trazado_61171" data-name="Trazado 61171" d="M29.318,51.773a1.319,1.319,0,0,0,1.318-1.318V32.137h74.882V50.455a1.318,1.318,0,0,0,2.637,0V30.818a1.318,1.318,0,0,0-1.318-1.318H29.318A1.318,1.318,0,0,0,28,30.818V50.455A1.318,1.318,0,0,0,29.318,51.773Zm0,0" transform="translate(-23.078 -23.902)" fill="#504d4d"/>
        <path id="Trazado_61172" data-name="Trazado 61172" d="M74.352,64.729A2.353,2.353,0,0,0,72,62.379H66.858a2.352,2.352,0,0,0-2.35,2.35v5.144a2.353,2.353,0,0,0,2.35,2.35H72a2.353,2.353,0,0,0,2.35-2.35Zm-2.637,4.857h-4.57v-4.57h4.57Zm0,0" transform="translate(-53.168 -51.002)"/>
        <path id="Trazado_61173" data-name="Trazado 61173" d="M74.352,138.831a2.353,2.353,0,0,0-2.35-2.35H66.858a2.353,2.353,0,0,0-2.35,2.35v5.143a2.353,2.353,0,0,0,2.35,2.35H72a2.353,2.353,0,0,0,2.35-2.35Zm-2.637,4.857h-4.57v-4.57h4.57Zm0,0" transform="translate(-53.168 -112.078)"/>
        <path id="Trazado_61174" data-name="Trazado 61174" d="M72,209.582H66.858a2.353,2.353,0,0,0-2.35,2.35v5.143a2.353,2.353,0,0,0,2.35,2.35H72a2.353,2.353,0,0,0,2.35-2.35v-5.143A2.353,2.353,0,0,0,72,209.582Zm-.286,7.207h-4.57v-4.57h4.57Zm0,0" transform="translate(-53.168 -172.33)"/>
        <path id="Trazado_61175" data-name="Trazado 61175" d="M193.66,98.757c0,.008,0,.016,0,.025a.075.075,0,0,1,0,.012l0,.037h0c0,.012,0,.025,0,.037a.026.026,0,0,1,0,.007c0,.012,0,.023,0,.034v0a1.31,1.31,0,0,0,.29.661h0l.024.028,0,.005.021.023.005.007.027.027.024.023.016.016.008.007a1.312,1.312,0,0,0,.813.339h.146l.025,0h.008l.027,0h.005l.028,0h0c.04-.005.08-.012.119-.021l20.894-4.4a4.132,4.132,0,0,0,3.268-3.818c.418-7.743,2.51-10.858,3.413-11.855l5.085-5.051a1.319,1.319,0,0,0,0-1.867l-7.25-7.25a1.319,1.319,0,0,0-.932-.386h0a1.315,1.315,0,0,0-.933.389l-5.05,5.083c-.994.9-4.11,3-11.856,3.415a4.134,4.134,0,0,0-3.818,3.268l-4.4,20.9a1.321,1.321,0,0,0-.023.137s0,0,0,.007,0,.02,0,.03,0,.008,0,.011,0,.019,0,.03a.036.036,0,0,0,0,.009c0,.012,0,.023,0,.036v.013a.132.132,0,0,0,0,.023.116.116,0,0,0,0,.015ZM219.753,68.58l5.379,5.379L221.9,77.174l-5.358-5.358Zm-19.082,9.513a1.492,1.492,0,0,1,1.379-1.179c3.259-.176,8.949-.848,12.524-3.333l5.556,5.556c-2.485,3.575-3.157,9.266-3.334,12.524a1.491,1.491,0,0,1-1.178,1.38l-16.573,3.49,6.5-6.5a4.6,4.6,0,1,0-1.866-1.863l-6.5,6.5Zm5.091,7.88a1.978,1.978,0,1,1,.58,1.4,1.962,1.962,0,0,1-.58-1.4Zm0,0" transform="translate(-159.618 -53.487)" fill="#504d4d"/>
      </g>
      <g id="de-coser" transform="translate(542 2307.324)">
        <g id="Grupo_32095" data-name="Grupo 32095" transform="translate(1.465 23.908)">
          <path id="Trazado_61176" data-name="Trazado 61176" d="M15.916,118.246A8.416,8.416,0,0,1,7.5,109.831V32.418a2.475,2.475,0,0,1,2.475-2.475h5.746A2.475,2.475,0,0,1,18.2,32.418v73.375a1.755,1.755,0,0,0,1.755,1.755l73.4,0a2.477,2.477,0,0,1,2.475,2.475v5.746a2.475,2.475,0,0,1-2.475,2.475Z" transform="translate(-7.5 -29.943)" fill="#daeaef"/>
          <g id="Grupo_32094" data-name="Grupo 32094" transform="translate(17.131 1.357)">
            <g id="Grupo_32093" data-name="Grupo 32093">
              <g id="Grupo_32092" data-name="Grupo 32092">
                <path id="Trazado_61177" data-name="Trazado 61177" d="M173.9,63.968,158.155,53.7a5.28,5.28,0,0,0-1.821-.794l-12-2.7H126.089l-11.995,2.7a5.281,5.281,0,0,0-1.823.8L96.458,64.026a2.752,2.752,0,0,0-.963,3.52l4.915,9.972A2.752,2.752,0,0,0,104.4,78.6s3.508-2.273,5.8-3.7a1.27,1.27,0,0,1,1.94,1.079v37.682a3.248,3.248,0,0,0,3.248,3.248h39.6a3.248,3.248,0,0,0,3.248-3.248V75.968a1.27,1.27,0,0,1,1.937-1.081c2.3,1.419,5.835,3.7,5.835,3.7a2.752,2.752,0,0,0,4-1.092l4.866-10.019a2.752,2.752,0,0,0-.972-3.507Z" transform="translate(-95.211 -47.599)" fill="#97e4f9"/>
                <g id="Grupo_32090" data-name="Grupo 32090" transform="translate(16.931 22.165)">
                  <path id="Trazado_61178" data-name="Trazado 61178" d="M215.307,155.577v32.169a5.521,5.521,0,0,1-5.521,5.521H181.9v1a3.248,3.248,0,0,0,3.248,3.248h39.6A3.248,3.248,0,0,0,228,194.269V156.576a1.271,1.271,0,0,1,1.937-1.081l-6.606-4.28a5.2,5.2,0,0,0-8.023,4.362Z" transform="translate(-181.899 -150.372)" fill="#62d8f9"/>
                </g>
                <g id="Grupo_32091" data-name="Grupo 32091" transform="translate(26.568)">
                  <path id="Trazado_61179" data-name="Trazado 61179" d="M231.948,40.523l-.644,3.568a4.041,4.041,0,0,0,2.056,4.273l9.338,5.046-6.89-16.52-2.633,1.761A2.866,2.866,0,0,0,231.948,40.523Z" transform="translate(-231.24 -36.889)" fill="#f1faff"/>
                  <path id="Trazado_61180" data-name="Trazado 61180" d="M321.435,41.524l.108,2.939a4.041,4.041,0,0,1-2.116,3.7l-9.7,5.243,6.927-16.52,3.512,2.363a2.865,2.865,0,0,1,1.264,2.272Z" transform="translate(-294.401 -36.889)" fill="#f1faff"/>
                </g>
              </g>
              <path id="Trazado_61181" data-name="Trazado 61181" d="M254.631,36.889l6.89,16.52c.506,1.213,3.364,1.212,3.872,0l6.927-16.52Z" transform="translate(-223.494 -36.889)" fill="#dcf5ff"/>
            </g>
          </g>
        </g>
        <g id="Grupo_32096" data-name="Grupo 32096" transform="translate(0 22.443)">
          <path id="Trazado_61182" data-name="Trazado 61182" d="M87.321,100.051l-73.4,0a.291.291,0,0,1-.291-.291V26.382a3.944,3.944,0,0,0-3.939-3.939H3.939A3.944,3.944,0,0,0,0,26.382V103.8a9.9,9.9,0,0,0,9.881,9.881H69.389a1.465,1.465,0,0,0,0-2.93H9.881a6.911,6.911,0,0,1-3.886-1.19l6.788-6.788a3.2,3.2,0,0,0,1.132.21h12.52v1.146a1.465,1.465,0,0,0,2.93,0v-1.146h8.3v1.888a1.465,1.465,0,0,0,2.93,0v-1.888h8.3v1.145a1.465,1.465,0,0,0,2.93,0v-1.145h8.3v1.887a1.465,1.465,0,0,0,2.93,0v-1.887h8.3v1.144a1.465,1.465,0,0,0,2.93,0V102.98H87.32a1.011,1.011,0,0,1,1.01,1.01v5.746a1.011,1.011,0,0,1-1.01,1.01H76.237a1.465,1.465,0,1,0,0,2.93H87.32a3.944,3.944,0,0,0,3.939-3.939V103.99a3.943,3.943,0,0,0-3.939-3.939ZM2.93,26.382a1.011,1.011,0,0,1,1.01-1.01H9.686a1.011,1.011,0,0,1,1.01,1.01v6.377H8.522a1.465,1.465,0,0,0,0,2.93H10.7V43.21H9.328a1.465,1.465,0,1,0,0,2.93H10.7V53.66H8.522a1.465,1.465,0,0,0,0,2.93H10.7v7.521H9.328a1.465,1.465,0,0,0,0,2.93H10.7v7.521H8.522a1.465,1.465,0,0,0,0,2.93H10.7v7.521H9.328a1.465,1.465,0,0,0,0,2.93H10.7V99.757a3.209,3.209,0,0,0,.115.84l-6.845,6.845A6.909,6.909,0,0,1,2.93,103.8Z" transform="translate(0 -22.443)" fill="#504d4d"/>
          <path id="Trazado_61183" data-name="Trazado 61183" d="M168.672,46,152.937,35.732a6.712,6.712,0,0,0-2.312-1l-7.161-1.614A4.321,4.321,0,0,0,142.336,32l-3.512-2.363a1.488,1.488,0,0,0-.822-.25h-17.69a1.488,1.488,0,0,0-.81.247L116.869,31.4a4.343,4.343,0,0,0-1.429,1.6l-7.7,1.735a6.71,6.71,0,0,0-2.315,1.006l-15.8,10.321a4.22,4.22,0,0,0-1.476,5.394l4.915,9.972a4.218,4.218,0,0,0,6.1,1.659c.033-.022,3.229-2.092,5.483-3.5v6.383a1.465,1.465,0,0,0,2.93,0V59.233a2.737,2.737,0,0,0-4.177-2.324c-2.282,1.416-5.793,3.69-5.841,3.721a1.285,1.285,0,0,1-1.865-.5l-4.915-9.972a1.288,1.288,0,0,1,.451-1.646l15.812-10.329.027-.018a3.794,3.794,0,0,1,1.317-.574l6.279-1.415-.293,1.625a5.5,5.5,0,0,0,2.8,5.822l8.995,4.86a3.646,3.646,0,0,0,2.97,1.271h0a3.652,3.652,0,0,0,2.976-1.271l9.353-5.058a5.472,5.472,0,0,0,2.883-5.046l-.077-2.073,5.7,1.286a3.793,3.793,0,0,1,1.316.573l.027.018L167.071,48.45a1.289,1.289,0,0,1,.454,1.64L162.66,60.109a1.285,1.285,0,0,1-1.883.5c-.036-.023-3.57-2.305-5.862-3.716a2.737,2.737,0,0,0-4.17,2.329V96.916a1.786,1.786,0,0,1-1.784,1.784h-39.6a1.786,1.786,0,0,1-1.784-1.784V72.833a1.465,1.465,0,0,0-2.93,0V96.916a4.719,4.719,0,0,0,4.713,4.713h39.6a4.719,4.719,0,0,0,4.713-4.713V59.572c2.261,1.4,5.478,3.477,5.5,3.49a4.218,4.218,0,0,0,6.122-1.673l4.866-10.019A4.225,4.225,0,0,0,168.672,46Zm-51.419-7.68c.342-1.873.615-3.459.678-3.709a1.408,1.408,0,0,1,.566-.774l1.152-.771,4.611,11.056-5.7-3.078a2.571,2.571,0,0,1-1.311-2.724Zm11.261,8.39-6-14.387H135.8L129.771,46.7a1.782,1.782,0,0,1-1.256,0Zm11.562-5.863-6.041,3.267,4.631-11.045,2.033,1.368a1.419,1.419,0,0,1,.618,1.11l.108,2.939A2.56,2.56,0,0,1,140.077,40.842Z" transform="translate(-70.584 -28.032)" fill="#504d4d"/>
        </g>
      </g>
      <g id="tela" transform="translate(743.334 2336.108)">
        <path id="Trazado_61184" data-name="Trazado 61184" d="M140.234,76.492h49.7v49.585h-49.7Zm0,0" transform="translate(-113.758 -62.051)" fill="#ffb954"/>
        <path id="Trazado_61185" data-name="Trazado 61185" d="M10.012,10.012h49.7V59.6h-49.7Zm0,0" transform="translate(-8.122 -8.122)" fill="#c9f3ff"/>
        <path id="Trazado_61186" data-name="Trazado 61186" d="M264.174,224.2H239.359L257.952,205.6h12.4v-12.38l18.578-18.612h.017v24.77Zm0,0" transform="translate(-194.168 -141.646)" fill="#ff7373"/>
        <path id="Trazado_61187" data-name="Trazado 61187" d="M395.563,330.623h-24.77l24.77-24.815Zm0,0" transform="translate(-300.787 -248.071)" fill="#ffb954"/>
        <g id="Grupo_32097" data-name="Grupo 32097" transform="translate(45.191 22.748)">
          <path id="Trazado_61188" data-name="Trazado 61188" d="M403.5,193.225V174.613h18.578Zm0,0" transform="translate(-372.507 -164.394)" fill="#c9f3ff"/>
          <path id="Trazado_61189" data-name="Trazado 61189" d="M239.359,357.355V338.762h18.593Zm0,0" transform="translate(-239.359 -297.551)" fill="#c9f3ff"/>
          <path id="Trazado_61190" data-name="Trazado 61190" d="M315.2,126.16a5.671,5.671,0,1,1-5.671-5.672A5.671,5.671,0,0,1,315.2,126.16Zm0,0" transform="translate(-291.679 -120.488)" fill="#c9f3ff"/>
        </g>
        <path id="Trazado_61191" data-name="Trazado 61191" d="M315.2,246.32a5.671,5.671,0,1,1-5.671-5.672A5.671,5.671,0,0,1,315.2,246.32Zm0,0" transform="translate(-246.488 -195.214)" fill="#ff7373"/>
        <path id="Trazado_61192" data-name="Trazado 61192" d="M189.423,277.944a5.67,5.67,0,0,1-5.658-5.3h11.316a5.67,5.67,0,0,1-5.658,5.3Zm0,0" transform="translate(-149.07 -221.166)" fill="#fff"/>
        <path id="Trazado_61193" data-name="Trazado 61193" d="M96.666,57.734V32.966a1.891,1.891,0,0,0-1.89-1.89h-16.7V14.441a1.891,1.891,0,0,0-1.89-1.891h-22.7V1.89A1.891,1.891,0,0,0,51.594,0H1.89A1.891,1.891,0,0,0,0,1.89V51.474a1.891,1.891,0,0,0,1.89,1.891H24.7V63.957a1.891,1.891,0,0,0,1.891,1.89H43.3v16.7a1.77,1.77,0,0,0,.01.187c0,.027.008.055.012.082s.009.067.015.1.015.062.023.093.013.058.022.086.021.06.031.089.02.057.031.086.025.054.038.08.027.059.042.087.029.049.044.074.032.057.051.084.038.052.057.077.035.048.053.072c.036.044.074.085.114.125l.012.013s.009.007.013.012c.04.039.081.077.125.113.024.019.048.036.072.054s.05.039.076.056.057.035.085.052.049.03.074.044.058.028.087.041.053.027.08.038.057.021.086.032l.089.031c.029.009.058.015.086.022l.093.023c.033.007.066.01.1.015s.055.009.083.012c.062.006.124.01.187.01H94.775a1.891,1.891,0,0,0,1.89-1.891V57.735h0ZM49.754,80.661,64.567,65.848H76.181a1.89,1.89,0,0,0,1.89-1.89V52.36L92.884,37.519V56.954L69.222,80.661ZM90.2,34.857,78.071,47.008V34.857ZM28.486,53.366h4.651a7.562,7.562,0,0,0,14.433,0h4.025a1.891,1.891,0,0,0,1.89-1.89V45.362a1.891,1.891,0,1,0-3.781,0v4.222H3.781V3.781H49.7V14.044a1.894,1.894,0,0,0,0,.794v15.4a1.891,1.891,0,1,0,3.781,0V16.331H74.29V51.579h0V62.067h-45.8Zm8.838,0h6.058a3.775,3.775,0,0,1-6.058,0Zm21.9,12.482L47.08,77.988V65.848ZM74.564,80.661,92.885,62.306V80.661Zm0,0" fill="#504d4d"/>
        <path id="Trazado_61194" data-name="Trazado 61194" d="M301.4,125.6a7.562,7.562,0,1,0-7.562-7.562A7.57,7.57,0,0,0,301.4,125.6Zm0-11.343a3.781,3.781,0,1,1-3.781,3.781A3.785,3.785,0,0,1,301.4,114.258Zm0,0" transform="translate(-238.363 -89.619)" fill="#504d4d"/>
        <path id="Trazado_61195" data-name="Trazado 61195" d="M301.4,245.76a7.562,7.562,0,1,0-7.562-7.562A7.57,7.57,0,0,0,301.4,245.76Zm0-11.343a3.781,3.781,0,1,1-3.781,3.781A3.785,3.785,0,0,1,301.4,234.418Zm0,0" transform="translate(-238.363 -187.092)" fill="#504d4d"/>
        <path id="Trazado_61196" data-name="Trazado 61196" d="M215.366,51.567a1.877,1.877,0,0,0-.174-.327,1.833,1.833,0,0,0-.235-.287,1.89,1.89,0,0,0-2.673,0,1.833,1.833,0,0,0-.235.287,1.874,1.874,0,0,0-.173.327,1.746,1.746,0,0,0-.108.353,1.827,1.827,0,0,0,0,.738,1.81,1.81,0,0,0,.108.355,1.936,1.936,0,0,0,.173.325,1.834,1.834,0,0,0,.235.287,1.89,1.89,0,0,0,2.673,0,1.834,1.834,0,0,0,.235-.287,1.94,1.94,0,0,0,.174-.325,1.859,1.859,0,0,0,.108-.355,1.827,1.827,0,0,0,0-.738A1.791,1.791,0,0,0,215.366,51.567Zm0,0" transform="translate(-171.756 -40.883)"/>
        <path id="Trazado_61197" data-name="Trazado 61197" d="M215.366,91.623a1.871,1.871,0,0,0-.174-.327,1.834,1.834,0,0,0-.522-.522,1.868,1.868,0,0,0-.327-.173,1.738,1.738,0,0,0-.354-.108,1.849,1.849,0,0,0-.737,0,1.752,1.752,0,0,0-.354.108,1.87,1.87,0,0,0-.327.173,1.834,1.834,0,0,0-.522.522,1.868,1.868,0,0,0-.173.327,1.752,1.752,0,0,0-.108.354,1.827,1.827,0,0,0,0,.738,1.746,1.746,0,0,0,.108.353,1.867,1.867,0,0,0,.173.327,1.839,1.839,0,0,0,.235.288,1.8,1.8,0,0,0,.288.235,1.872,1.872,0,0,0,.327.174,1.8,1.8,0,0,0,.354.108,1.823,1.823,0,0,0,.737,0,1.785,1.785,0,0,0,.354-.108,1.871,1.871,0,0,0,.327-.174,1.8,1.8,0,0,0,.288-.235,1.9,1.9,0,0,0,.554-1.336,1.88,1.88,0,0,0-.038-.369A1.8,1.8,0,0,0,215.366,91.623Zm0,0" transform="translate(-171.756 -73.378)"/>
        <path id="Trazado_61198" data-name="Trazado 61198" d="M215.366,131.672a1.871,1.871,0,0,0-.174-.327,1.839,1.839,0,0,0-.235-.288,1.89,1.89,0,0,0-2.673,0,1.839,1.839,0,0,0-.235.288,1.868,1.868,0,0,0-.173.327,1.746,1.746,0,0,0-.108.353,1.827,1.827,0,0,0,0,.738,1.732,1.732,0,0,0,.108.353,1.882,1.882,0,0,0,.408.615,1.89,1.89,0,0,0,2.673,0,1.9,1.9,0,0,0,.409-.615,1.777,1.777,0,0,0,.108-.353,1.827,1.827,0,0,0,0-.738A1.792,1.792,0,0,0,215.366,131.672Zm0,0" transform="translate(-171.756 -105.865)"/>
        <path id="Trazado_61199" data-name="Trazado 61199" d="M215.366,171.729a1.877,1.877,0,0,0-.174-.327,1.844,1.844,0,0,0-.522-.521,1.823,1.823,0,0,0-.327-.174,1.737,1.737,0,0,0-.354-.108,1.849,1.849,0,0,0-.737,0,1.751,1.751,0,0,0-.354.108,1.824,1.824,0,0,0-.327.174,1.844,1.844,0,0,0-.522.521,1.874,1.874,0,0,0-.173.327,1.731,1.731,0,0,0-.108.353,1.827,1.827,0,0,0,0,.738,1.746,1.746,0,0,0,.108.353,1.9,1.9,0,0,0,.173.327,1.833,1.833,0,0,0,.235.287,1.8,1.8,0,0,0,.288.235,1.872,1.872,0,0,0,.327.174,1.8,1.8,0,0,0,.354.108,1.824,1.824,0,0,0,.737,0,1.786,1.786,0,0,0,.354-.108,1.871,1.871,0,0,0,.327-.174,1.8,1.8,0,0,0,.288-.235,1.833,1.833,0,0,0,.235-.287,1.9,1.9,0,0,0,.174-.327,1.792,1.792,0,0,0,.108-.353,1.827,1.827,0,0,0,0-.738A1.776,1.776,0,0,0,215.366,171.729Zm0,0" transform="translate(-171.756 -138.36)"/>
        <path id="Trazado_61200" data-name="Trazado 61200" d="M215.366,211.781a1.912,1.912,0,0,0-.174-.325,1.834,1.834,0,0,0-.522-.522,1.922,1.922,0,0,0-.327-.174,1.945,1.945,0,0,0-.354-.108,1.877,1.877,0,0,0-.737,0,1.962,1.962,0,0,0-.354.108,1.923,1.923,0,0,0-.327.174,1.834,1.834,0,0,0-.522.522,1.908,1.908,0,0,0-.173.325,1.8,1.8,0,0,0-.108.355,1.824,1.824,0,0,0,0,.737,1.753,1.753,0,0,0,.108.354,1.868,1.868,0,0,0,.173.327,1.839,1.839,0,0,0,.235.288,1.89,1.89,0,0,0,2.673,0,1.839,1.839,0,0,0,.235-.288,1.871,1.871,0,0,0,.174-.327,1.8,1.8,0,0,0,.108-.354,1.824,1.824,0,0,0,0-.737A1.843,1.843,0,0,0,215.366,211.781Zm0,0" transform="translate(-171.756 -170.851)"/>
        <path id="Trazado_61201" data-name="Trazado 61201" d="M175.315,51.567a1.941,1.941,0,0,0-.174-.325,1.854,1.854,0,0,0-.521-.521,1.878,1.878,0,0,0-.327-.174,1.792,1.792,0,0,0-.353-.108,1.853,1.853,0,0,0-.738,0,1.792,1.792,0,0,0-.353.108,1.879,1.879,0,0,0-.327.174,1.854,1.854,0,0,0-.521.521,1.94,1.94,0,0,0-.174.325,1.86,1.86,0,0,0-.108.355,1.826,1.826,0,0,0,0,.738,1.792,1.792,0,0,0,.108.353,1.878,1.878,0,0,0,.174.327,1.854,1.854,0,0,0,.521.521,1.878,1.878,0,0,0,.327.174,1.793,1.793,0,0,0,.353.108,1.826,1.826,0,0,0,.738,0,1.793,1.793,0,0,0,.353-.108,1.878,1.878,0,0,0,.327-.174,1.854,1.854,0,0,0,.521-.521,1.879,1.879,0,0,0,.174-.327,1.791,1.791,0,0,0,.108-.353,1.826,1.826,0,0,0,0-.738A1.859,1.859,0,0,0,175.315,51.567Zm0,0" transform="translate(-139.267 -40.886)"/>
        <path id="Trazado_61202" data-name="Trazado 61202" d="M175.315,91.623a1.872,1.872,0,0,0-.174-.327,1.8,1.8,0,0,0-.235-.288,1.835,1.835,0,0,0-.287-.235,1.875,1.875,0,0,0-.327-.173,1.745,1.745,0,0,0-.353-.108,1.853,1.853,0,0,0-.738,0,1.745,1.745,0,0,0-.353.108,1.875,1.875,0,0,0-.327.173,1.835,1.835,0,0,0-.287.235A1.8,1.8,0,0,0,172,91.3a1.871,1.871,0,0,0-.174.327,1.8,1.8,0,0,0-.108.354,1.826,1.826,0,0,0,0,.738,1.793,1.793,0,0,0,.108.353,1.871,1.871,0,0,0,.174.327,1.844,1.844,0,0,0,.521.522,1.878,1.878,0,0,0,.327.174,1.793,1.793,0,0,0,.353.108,1.826,1.826,0,0,0,.738,0,1.793,1.793,0,0,0,.353-.108,1.878,1.878,0,0,0,.327-.174,1.844,1.844,0,0,0,.521-.522,1.872,1.872,0,0,0,.174-.327,1.792,1.792,0,0,0,.108-.353,1.826,1.826,0,0,0,0-.738A1.8,1.8,0,0,0,175.315,91.623Zm0,0" transform="translate(-139.267 -73.378)"/>
        <path id="Trazado_61203" data-name="Trazado 61203" d="M175.315,131.674a1.872,1.872,0,0,0-.174-.327,1.844,1.844,0,0,0-.521-.522,1.877,1.877,0,0,0-.327-.174,1.9,1.9,0,0,0-.353-.108,1.853,1.853,0,0,0-.738,0,1.9,1.9,0,0,0-.353.108,1.878,1.878,0,0,0-.327.174,1.844,1.844,0,0,0-.521.522,1.871,1.871,0,0,0-.174.327,1.793,1.793,0,0,0-.108.353,1.826,1.826,0,0,0,0,.738,1.777,1.777,0,0,0,.108.353,1.852,1.852,0,0,0,.174.327,1.8,1.8,0,0,0,.235.288,1.9,1.9,0,0,0,.614.408,1.744,1.744,0,0,0,.353.108,1.792,1.792,0,0,0,.738,0,1.744,1.744,0,0,0,.353-.108,1.9,1.9,0,0,0,.614-.408,1.8,1.8,0,0,0,.235-.288,1.852,1.852,0,0,0,.174-.327,1.777,1.777,0,0,0,.108-.353,1.826,1.826,0,0,0,0-.738A1.792,1.792,0,0,0,175.315,131.674Zm0,0" transform="translate(-139.267 -105.867)"/>
        <path id="Trazado_61204" data-name="Trazado 61204" d="M175.315,171.729a1.878,1.878,0,0,0-.174-.327,1.762,1.762,0,0,0-.235-.287,1.794,1.794,0,0,0-.287-.235,1.829,1.829,0,0,0-.327-.174,1.744,1.744,0,0,0-.353-.108,1.853,1.853,0,0,0-.738,0,1.744,1.744,0,0,0-.353.108,1.829,1.829,0,0,0-.327.174,1.794,1.794,0,0,0-.287.235,1.76,1.76,0,0,0-.235.287,1.877,1.877,0,0,0-.174.327,1.777,1.777,0,0,0-.108.353,1.826,1.826,0,0,0,0,.738,1.86,1.86,0,0,0,.108.355,1.969,1.969,0,0,0,.174.325,1.854,1.854,0,0,0,.521.521,1.74,1.74,0,0,0,.327.174,1.961,1.961,0,0,0,.353.11,1.938,1.938,0,0,0,.738,0,1.961,1.961,0,0,0,.353-.11,1.739,1.739,0,0,0,.327-.174,1.854,1.854,0,0,0,.521-.521,1.97,1.97,0,0,0,.174-.325,1.859,1.859,0,0,0,.108-.355,1.826,1.826,0,0,0,0-.738A1.776,1.776,0,0,0,175.315,171.729Zm0,0" transform="translate(-139.267 -138.36)"/>
        <path id="Trazado_61205" data-name="Trazado 61205" d="M175.315,211.782a1.872,1.872,0,0,0-.174-.327,1.8,1.8,0,0,0-.235-.288,1.836,1.836,0,0,0-.287-.235,1.93,1.93,0,0,0-.327-.174,1.792,1.792,0,0,0-.353-.108,1.881,1.881,0,0,0-.738,0,1.791,1.791,0,0,0-.353.108,1.93,1.93,0,0,0-.327.174,1.836,1.836,0,0,0-.287.235,1.8,1.8,0,0,0-.235.288,1.871,1.871,0,0,0-.174.327,1.8,1.8,0,0,0-.108.354,1.823,1.823,0,0,0,0,.737,1.8,1.8,0,0,0,.108.354,1.871,1.871,0,0,0,.174.327,1.8,1.8,0,0,0,.235.288,1.836,1.836,0,0,0,.287.235,1.93,1.93,0,0,0,.327.174,1.791,1.791,0,0,0,.353.108,1.826,1.826,0,0,0,.738,0,1.792,1.792,0,0,0,.353-.108,1.93,1.93,0,0,0,.327-.174,1.836,1.836,0,0,0,.287-.235,1.8,1.8,0,0,0,.235-.288,1.872,1.872,0,0,0,.174-.327,1.8,1.8,0,0,0,.108-.354,1.823,1.823,0,0,0,0-.737A1.8,1.8,0,0,0,175.315,211.782Zm0,0" transform="translate(-139.267 -170.851)"/>
        <path id="Trazado_61206" data-name="Trazado 61206" d="M135.26,51.567a1.937,1.937,0,0,0-.173-.325,1.834,1.834,0,0,0-.235-.287,1.8,1.8,0,0,0-.288-.235,1.912,1.912,0,0,0-.325-.174,1.894,1.894,0,0,0-1.093-.108,1.792,1.792,0,0,0-.353.108,1.872,1.872,0,0,0-.327.174,1.844,1.844,0,0,0-.522.521,1.94,1.94,0,0,0-.174.325,2.031,2.031,0,0,0-.108.355,1.826,1.826,0,0,0,0,.738,1.953,1.953,0,0,0,.108.353,1.878,1.878,0,0,0,.174.327,1.844,1.844,0,0,0,.522.521,1.871,1.871,0,0,0,.327.174,1.962,1.962,0,0,0,.353.11,1.938,1.938,0,0,0,.738,0,2.022,2.022,0,0,0,.355-.11,1.912,1.912,0,0,0,.325-.174,1.8,1.8,0,0,0,.288-.235,1.834,1.834,0,0,0,.235-.287,1.875,1.875,0,0,0,.173-.327,1.746,1.746,0,0,0,.108-.353,1.894,1.894,0,0,0-.108-1.093Zm0,0" transform="translate(-106.774 -40.886)"/>
        <path id="Trazado_61207" data-name="Trazado 61207" d="M135.26,91.621a1.869,1.869,0,0,0-.173-.327,1.834,1.834,0,0,0-.522-.522,1.909,1.909,0,0,0-.325-.173,1.961,1.961,0,0,0-.355-.11,1.938,1.938,0,0,0-.738,0,1.9,1.9,0,0,0-.353.11,1.869,1.869,0,0,0-.327.173,1.84,1.84,0,0,0-.288.235,1.8,1.8,0,0,0-.235.288,1.871,1.871,0,0,0-.174.327,1.961,1.961,0,0,0-.108.354,1.826,1.826,0,0,0,0,.738,2,2,0,0,0,.108.355,1.911,1.911,0,0,0,.174.325,1.834,1.834,0,0,0,.522.522,1.871,1.871,0,0,0,.327.174,1.793,1.793,0,0,0,.353.108,1.826,1.826,0,0,0,.738,0,1.845,1.845,0,0,0,.355-.108,1.912,1.912,0,0,0,.325-.174,1.8,1.8,0,0,0,.288-.235,1.84,1.84,0,0,0,.235-.288,1.909,1.909,0,0,0,.173-.325,1.788,1.788,0,0,0,.108-.355,1.792,1.792,0,0,0,0-.738A1.752,1.752,0,0,0,135.26,91.621Zm0,0" transform="translate(-106.774 -73.376)"/>
        <path id="Trazado_61208" data-name="Trazado 61208" d="M135.26,131.674a1.869,1.869,0,0,0-.173-.327,1.84,1.84,0,0,0-.235-.288,1.8,1.8,0,0,0-.288-.235,1.911,1.911,0,0,0-.325-.174,1.894,1.894,0,0,0-1.093-.108,1.794,1.794,0,0,0-.353.108,1.871,1.871,0,0,0-.327.174,1.834,1.834,0,0,0-.522.522,1.871,1.871,0,0,0-.174.327,1.953,1.953,0,0,0-.108.353,1.826,1.826,0,0,0,0,.738,1.935,1.935,0,0,0,.108.353,1.851,1.851,0,0,0,.174.327,1.8,1.8,0,0,0,.235.288,1.922,1.922,0,0,0,.614.408,1.744,1.744,0,0,0,.353.108,1.792,1.792,0,0,0,.738,0,1.793,1.793,0,0,0,.355-.108,1.861,1.861,0,0,0,.325-.174,1.861,1.861,0,0,0,.7-.849,1.731,1.731,0,0,0,.108-.353,1.792,1.792,0,0,0,0-.738A1.746,1.746,0,0,0,135.26,131.674Zm0,0" transform="translate(-106.774 -105.867)"/>
        <path id="Trazado_61209" data-name="Trazado 61209" d="M135.26,171.729a1.875,1.875,0,0,0-.173-.327,1.844,1.844,0,0,0-.522-.521,1.861,1.861,0,0,0-.325-.174,1.953,1.953,0,0,0-.355-.108,1.853,1.853,0,0,0-.738,0,1.9,1.9,0,0,0-.353.108,1.823,1.823,0,0,0-.327.174,1.8,1.8,0,0,0-.288.235,1.76,1.76,0,0,0-.235.287,1.877,1.877,0,0,0-.174.327,1.935,1.935,0,0,0-.108.353,1.826,1.826,0,0,0,0,.738,1.953,1.953,0,0,0,.108.353,1.9,1.9,0,0,0,.174.327,1.844,1.844,0,0,0,.522.521,1.871,1.871,0,0,0,.327.174,1.961,1.961,0,0,0,.353.11,1.938,1.938,0,0,0,.738,0,2.021,2.021,0,0,0,.355-.11,1.911,1.911,0,0,0,.325-.174,1.8,1.8,0,0,0,.288-.235,1.834,1.834,0,0,0,.235-.287,1.9,1.9,0,0,0,.173-.327,1.746,1.746,0,0,0,.108-.353,1.792,1.792,0,0,0,0-.738A1.731,1.731,0,0,0,135.26,171.729Zm0,0" transform="translate(-106.774 -138.36)"/>
        <path id="Trazado_61210" data-name="Trazado 61210" d="M135.26,211.782a1.869,1.869,0,0,0-.173-.327,1.834,1.834,0,0,0-.522-.522,1.966,1.966,0,0,0-.325-.174,1.843,1.843,0,0,0-.355-.108,1.881,1.881,0,0,0-.738,0,1.791,1.791,0,0,0-.353.108,1.923,1.923,0,0,0-.327.174,1.842,1.842,0,0,0-.288.235,1.8,1.8,0,0,0-.235.288,1.871,1.871,0,0,0-.174.327,1.961,1.961,0,0,0-.108.354,1.823,1.823,0,0,0,0,.737,1.961,1.961,0,0,0,.108.354,1.871,1.871,0,0,0,.174.327,1.8,1.8,0,0,0,.235.288,1.842,1.842,0,0,0,.288.235,1.923,1.923,0,0,0,.327.174,1.791,1.791,0,0,0,.353.108,1.826,1.826,0,0,0,.738,0,1.843,1.843,0,0,0,.355-.108,1.966,1.966,0,0,0,.325-.174,1.834,1.834,0,0,0,.522-.522,1.869,1.869,0,0,0,.173-.327,1.753,1.753,0,0,0,.108-.354,1.789,1.789,0,0,0,0-.737A1.753,1.753,0,0,0,135.26,211.782Zm0,0" transform="translate(-106.774 -170.851)"/>
        <path id="Trazado_61211" data-name="Trazado 61211" d="M95.206,51.57a1.941,1.941,0,0,0-.174-.325,1.844,1.844,0,0,0-.522-.521,1.872,1.872,0,0,0-.327-.174,1.793,1.793,0,0,0-.353-.108,1.9,1.9,0,0,0-1.706.516,1.789,1.789,0,0,0-.234.287,1.888,1.888,0,0,0-.174.325,1.843,1.843,0,0,0-.108,1.093,1.744,1.744,0,0,0,.108.353,1.83,1.83,0,0,0,.174.327,1.829,1.829,0,0,0,.521.521,1.852,1.852,0,0,0,.327.174,1.778,1.778,0,0,0,.353.108,1.826,1.826,0,0,0,.738,0,1.792,1.792,0,0,0,.353-.108,1.872,1.872,0,0,0,.327-.174,1.844,1.844,0,0,0,.522-.521,1.879,1.879,0,0,0,.174-.327,1.793,1.793,0,0,0,.108-.353,1.894,1.894,0,0,0-.108-1.093Zm0,0" transform="translate(-74.282 -40.889)"/>
        <path id="Trazado_61212" data-name="Trazado 61212" d="M95.206,91.625a1.872,1.872,0,0,0-.174-.327,1.8,1.8,0,0,0-.235-.288,1.84,1.84,0,0,0-.288-.235,1.868,1.868,0,0,0-.327-.173,1.888,1.888,0,0,0-2.059.408,1.8,1.8,0,0,0-.234.288,1.823,1.823,0,0,0-.174.327,1.751,1.751,0,0,0-.108.354,1.792,1.792,0,0,0,0,.738,1.787,1.787,0,0,0,.108.355,1.861,1.861,0,0,0,.174.325,1.8,1.8,0,0,0,.234.288,1.906,1.906,0,0,0,1.337.554,1.884,1.884,0,0,0,.369-.038,1.793,1.793,0,0,0,.353-.108,1.871,1.871,0,0,0,.327-.174,1.834,1.834,0,0,0,.522-.522,1.912,1.912,0,0,0,.174-.325,1.836,1.836,0,0,0,.108-.355,1.826,1.826,0,0,0,0-.738,1.8,1.8,0,0,0-.108-.354Zm0,0" transform="translate(-74.282 -73.38)"/>
        <path id="Trazado_61213" data-name="Trazado 61213" d="M95.206,131.677a1.872,1.872,0,0,0-.174-.327,1.834,1.834,0,0,0-.522-.522,1.871,1.871,0,0,0-.327-.174,1.793,1.793,0,0,0-.353-.108,1.9,1.9,0,0,0-1.706.516,1.794,1.794,0,0,0-.234.288,1.823,1.823,0,0,0-.174.327,1.744,1.744,0,0,0-.108.353,1.792,1.792,0,0,0,0,.738,1.793,1.793,0,0,0,.108.355,1.861,1.861,0,0,0,.174.325,1.8,1.8,0,0,0,.234.288,1.909,1.909,0,0,0,1.337.554,1.831,1.831,0,0,0,.369-.038,1.913,1.913,0,0,0,.68-.282,1.835,1.835,0,0,0,.288-.234,1.906,1.906,0,0,0,.554-1.337,1.884,1.884,0,0,0-.038-.369,1.791,1.791,0,0,0-.108-.353Zm0,0" transform="translate(-74.282 -105.87)"/>
        <path id="Trazado_61214" data-name="Trazado 61214" d="M95.206,171.729a1.878,1.878,0,0,0-.174-.327,1.761,1.761,0,0,0-.235-.287,1.8,1.8,0,0,0-.288-.235,1.823,1.823,0,0,0-.327-.174,1.9,1.9,0,0,0-.353-.108,1.853,1.853,0,0,0-.738,0,1.88,1.88,0,0,0-.353.108,1.9,1.9,0,0,0-.615.409,1.757,1.757,0,0,0-.234.287,1.829,1.829,0,0,0-.174.327,1.73,1.73,0,0,0-.108.353,1.792,1.792,0,0,0,0,.738,1.744,1.744,0,0,0,.108.353,1.855,1.855,0,0,0,.174.327,1.789,1.789,0,0,0,.234.287,1.89,1.89,0,0,0,2.673,0,1.793,1.793,0,0,0,.235-.287,1.905,1.905,0,0,0,.174-.327,1.792,1.792,0,0,0,.108-.353,1.826,1.826,0,0,0,0-.738,1.777,1.777,0,0,0-.108-.353Zm0,0" transform="translate(-74.282 -138.36)"/>
        <path id="Trazado_61215" data-name="Trazado 61215" d="M95.206,211.783a1.872,1.872,0,0,0-.174-.327,1.8,1.8,0,0,0-.235-.288,1.841,1.841,0,0,0-.288-.235,1.913,1.913,0,0,0-.68-.282,1.9,1.9,0,0,0-1.706.516,1.8,1.8,0,0,0-.234.288,1.823,1.823,0,0,0-.174.327,1.751,1.751,0,0,0-.108.354,1.789,1.789,0,0,0,0,.737,1.751,1.751,0,0,0,.108.354,1.823,1.823,0,0,0,.174.327,1.8,1.8,0,0,0,.234.288,1.906,1.906,0,0,0,1.337.554,1.884,1.884,0,0,0,.369-.038,1.793,1.793,0,0,0,.353-.108,1.922,1.922,0,0,0,.327-.174,1.84,1.84,0,0,0,.288-.235,1.9,1.9,0,0,0,.554-1.337,1.877,1.877,0,0,0-.038-.368,1.8,1.8,0,0,0-.108-.354Zm0,0" transform="translate(-74.282 -170.852)"/>
        <path id="Trazado_61216" data-name="Trazado 61216" d="M55.155,51.569a1.83,1.83,0,0,0-.174-.327,1.794,1.794,0,0,0-.235-.287,1.762,1.762,0,0,0-.287-.235,1.878,1.878,0,0,0-.327-.174,1.778,1.778,0,0,0-.353-.108,1.853,1.853,0,0,0-.738,0,1.793,1.793,0,0,0-.353.108,1.9,1.9,0,0,0-.327.174,1.854,1.854,0,0,0-.521.521,1.878,1.878,0,0,0-.174.327,1.793,1.793,0,0,0-.108.353,1.894,1.894,0,0,0,.108,1.093,1.941,1.941,0,0,0,.174.325,1.794,1.794,0,0,0,.235.287,1.9,1.9,0,0,0,1.336.554,1.876,1.876,0,0,0,.369-.035,1.943,1.943,0,0,0,.353-.11,1.878,1.878,0,0,0,.327-.174,1.762,1.762,0,0,0,.287-.235,1.794,1.794,0,0,0,.235-.287,1.889,1.889,0,0,0,.174-.325,1.859,1.859,0,0,0,.108-.355,1.792,1.792,0,0,0,0-.738A1.792,1.792,0,0,0,55.155,51.569Zm0,0" transform="translate(-41.793 -40.886)"/>
        <path id="Trazado_61217" data-name="Trazado 61217" d="M55.155,91.625a1.823,1.823,0,0,0-.174-.327,1.844,1.844,0,0,0-.521-.522,1.875,1.875,0,0,0-.327-.173,1.73,1.73,0,0,0-.353-.108,1.9,1.9,0,0,0-1.705.516,1.8,1.8,0,0,0-.235.288,1.871,1.871,0,0,0-.174.327,1.8,1.8,0,0,0-.108.354,1.826,1.826,0,0,0,0,.738,1.793,1.793,0,0,0,.108.353,1.871,1.871,0,0,0,.174.327,1.8,1.8,0,0,0,.235.288,1.9,1.9,0,0,0,1.336.554,1.879,1.879,0,0,0,.369-.038,1.778,1.778,0,0,0,.353-.108,1.878,1.878,0,0,0,.327-.174,1.762,1.762,0,0,0,.287-.235,1.8,1.8,0,0,0,.235-.288,1.823,1.823,0,0,0,.174-.327,1.792,1.792,0,0,0,.108-.353,1.792,1.792,0,0,0,0-.738A1.8,1.8,0,0,0,55.155,91.625Zm0,0" transform="translate(-41.793 -73.38)"/>
        <path id="Trazado_61218" data-name="Trazado 61218" d="M55.155,131.674a1.823,1.823,0,0,0-.174-.327,1.8,1.8,0,0,0-.235-.288,1.762,1.762,0,0,0-.287-.235,1.964,1.964,0,0,0-.681-.283,1.908,1.908,0,0,0-1.705.518,1.8,1.8,0,0,0-.235.288,1.871,1.871,0,0,0-.174.327,1.793,1.793,0,0,0-.108.353,1.826,1.826,0,0,0,0,.737,1.844,1.844,0,0,0,.108.355,1.912,1.912,0,0,0,.174.325,1.8,1.8,0,0,0,.235.288,1.831,1.831,0,0,0,.287.234,1.856,1.856,0,0,0,.327.174,1.745,1.745,0,0,0,.353.108,1.792,1.792,0,0,0,.738,0,1.73,1.73,0,0,0,.353-.108,1.83,1.83,0,0,0,.327-.174,1.829,1.829,0,0,0,.521-.521,1.862,1.862,0,0,0,.174-.325,1.843,1.843,0,0,0,.108-.355,1.792,1.792,0,0,0,0-.737A1.792,1.792,0,0,0,55.155,131.674Zm0,0" transform="translate(-41.793 -105.867)"/>
        <path id="Trazado_61219" data-name="Trazado 61219" d="M55.155,171.732a1.83,1.83,0,0,0-.174-.327,1.854,1.854,0,0,0-.521-.521,1.83,1.83,0,0,0-.327-.174,1.73,1.73,0,0,0-.353-.108,1.9,1.9,0,0,0-1.705.516,1.763,1.763,0,0,0-.235.287,1.878,1.878,0,0,0-.174.327,1.778,1.778,0,0,0-.108.353,1.826,1.826,0,0,0,0,.737,1.793,1.793,0,0,0,.108.353,1.9,1.9,0,0,0,.174.327,1.8,1.8,0,0,0,.235.287,1.9,1.9,0,0,0,1.336.554,1.878,1.878,0,0,0,.369-.038,1.777,1.777,0,0,0,.353-.108,1.879,1.879,0,0,0,.327-.174,1.763,1.763,0,0,0,.287-.235,1.8,1.8,0,0,0,.235-.287,1.855,1.855,0,0,0,.174-.327,1.792,1.792,0,0,0,.108-.353,1.792,1.792,0,0,0,0-.737A1.777,1.777,0,0,0,55.155,171.732Zm0,0" transform="translate(-41.793 -138.363)"/>
        <path id="Trazado_61220" data-name="Trazado 61220" d="M55.155,211.782a1.823,1.823,0,0,0-.174-.327,1.844,1.844,0,0,0-.521-.522,1.923,1.923,0,0,0-.681-.282,1.881,1.881,0,0,0-.738,0,1.923,1.923,0,0,0-.681.282,1.837,1.837,0,0,0-.287.235,1.8,1.8,0,0,0-.235.288,1.871,1.871,0,0,0-.174.327,1.8,1.8,0,0,0-.108.354,1.823,1.823,0,0,0,0,.737,1.845,1.845,0,0,0,.108.355,1.912,1.912,0,0,0,.174.325,1.8,1.8,0,0,0,.235.288,1.837,1.837,0,0,0,.287.235,1.958,1.958,0,0,0,.327.174,1.792,1.792,0,0,0,.353.108,1.826,1.826,0,0,0,.738,0,1.776,1.776,0,0,0,.353-.108,1.93,1.93,0,0,0,.327-.174,1.844,1.844,0,0,0,.521-.522,1.88,1.88,0,0,0,.282-.681,1.788,1.788,0,0,0,0-.737A1.8,1.8,0,0,0,55.155,211.782Zm0,0" transform="translate(-41.793 -170.851)"/>
        <path id="Trazado_61221" data-name="Trazado 61221" d="M267.273,192.088a1.875,1.875,0,0,0-.035-.369,1.908,1.908,0,0,0-.282-.681,1.94,1.94,0,0,0-.237-.288,1.789,1.789,0,0,0-.287-.234,1.888,1.888,0,0,0-.325-.174,1.974,1.974,0,0,0-.354-.108,1.861,1.861,0,0,0-.739,0,1.881,1.881,0,0,0-.353.108,1.831,1.831,0,0,0-.327.174,1.829,1.829,0,0,0-.521.521,1.953,1.953,0,0,0-.174.327,1.9,1.9,0,0,0-.108.354,1.88,1.88,0,0,0-.038.369,1.912,1.912,0,0,0,.038.37,1.932,1.932,0,0,0,.108.353,1.911,1.911,0,0,0,.174.325,1.8,1.8,0,0,0,.235.288,1.765,1.765,0,0,0,.287.236,1.831,1.831,0,0,0,.327.174,1.9,1.9,0,0,0,.353.108,1.823,1.823,0,0,0,.369.036,1.853,1.853,0,0,0,.37-.036,1.974,1.974,0,0,0,.354-.108,1.888,1.888,0,0,0,.325-.174,1.764,1.764,0,0,0,.287-.236,1.942,1.942,0,0,0,.237-.288,1.911,1.911,0,0,0,.174-.325,1.993,1.993,0,0,0,.108-.353A1.906,1.906,0,0,0,267.273,192.088Zm0,0" transform="translate(-213.745 -154.289)"/>
      </g>
      <g id="escalable" transform="translate(955 2329.334)">
        <path id="Trazado_61222" data-name="Trazado 61222" d="M76.064,56.957h-37.6V48.279a2.9,2.9,0,0,0-2.892-2.892H24V4.892A2.9,2.9,0,0,1,26.892,2H76.064a2.9,2.9,0,0,1,2.892,2.892V54.064A2.9,2.9,0,0,1,76.064,56.957Z" transform="translate(10.263 0.446)" fill="#e6e9ed"/>
        <path id="Trazado_61223" data-name="Trazado 61223" d="M52.462,28v4.339a7.231,7.231,0,1,1-14.462,0V28H52.462Z" transform="translate(16.51 12.048)" fill="#969faa"/>
        <path id="Trazado_61224" data-name="Trazado 61224" d="M59.175,10.642A15.71,15.71,0,0,0,47.981,6h-.145A15.835,15.835,0,0,0,35.818,32.148l4.859,5.669H55.14L60,32.148a15.891,15.891,0,0,0,3.818-10.312,15.71,15.71,0,0,0-4.642-11.194Z" transform="translate(13.833 2.231)" fill="#fcd770"/>
        <path id="Trazado_61225" data-name="Trazado 61225" d="M45.387,75.387H4.892A2.9,2.9,0,0,1,2,72.494v-37.6A2.9,2.9,0,0,1,4.892,32H45.387a2.9,2.9,0,0,1,2.892,2.892v37.6A2.9,2.9,0,0,1,45.387,75.387Z" transform="translate(0.446 13.833)" fill="#f0d0b4"/>
        <path id="Trazado_61226" data-name="Trazado 61226" d="M25.57,52v2.892a5.785,5.785,0,0,1-11.57,0V52H25.57Z" transform="translate(5.801 22.758)" fill="#aab2bd"/>
        <path id="Trazado_61227" data-name="Trazado 61227" d="M21.57,59.14H15.785l-3.254-4.064A11.611,11.611,0,0,1,10,47.845V47.57a11.57,11.57,0,0,1,23.14,0v.275a11.611,11.611,0,0,1-2.531,7.231L27.355,59.14Z" transform="translate(4.016 15.618)" fill="#ffeaa7"/>
        <circle id="Elipse_570" data-name="Elipse 570" cx="3" cy="3" r="3" transform="translate(22 59.666)" fill="#fcd770"/>
        <path id="Trazado_61228" data-name="Trazado 61228" d="M48.428,5h-.148a17.28,17.28,0,0,0-13.12,28.527L39.677,38.8v3.8a8.677,8.677,0,0,0,17.355,0V38.8l4.517-5.271A17.28,17.28,0,0,0,48.428,5Zm-.074,43.387A5.791,5.791,0,0,1,42.57,42.6V39.709H54.14V42.6A5.791,5.791,0,0,1,48.355,48.387ZM45.947,23.8h4.816l-.869,13.016H46.814Zm13.407,7.846-4.433,5.17H52.793L53.661,23.8h1.925a4.339,4.339,0,1,0,0-8.677H55.4a4.348,4.348,0,0,0-4.329,4.051l-.116,1.734h-5.2l-.116-1.733a4.348,4.348,0,0,0-4.329-4.052h-.187a4.339,4.339,0,0,0,0,8.677h1.925l.868,13.016H41.789l-4.433-5.17A14.39,14.39,0,0,1,48.281,7.892h.148A14.39,14.39,0,0,1,59.353,31.647Zm-5.5-10.738.1-1.543A1.448,1.448,0,0,1,55.4,18.016h.187a1.446,1.446,0,0,1,0,2.892Zm-11,0H41.124a1.446,1.446,0,1,1,0-2.892h.187a1.449,1.449,0,0,1,1.442,1.351Z" transform="translate(13.387 1.785)" fill="#504d4d"/>
        <path id="Trazado_61229" data-name="Trazado 61229" d="M86.327,1H37.156a4.344,4.344,0,0,0-4.339,4.339V44.387H5.339A4.344,4.344,0,0,0,1,48.725v37.6a4.344,4.344,0,0,0,4.339,4.339H45.833a4.344,4.344,0,0,0,4.339-4.339V58.849H86.327a4.344,4.344,0,0,0,4.339-4.339V5.339A4.344,4.344,0,0,0,86.327,1ZM47.279,86.327a1.447,1.447,0,0,1-1.446,1.446H5.339a1.447,1.447,0,0,1-1.446-1.446v-37.6a1.447,1.447,0,0,1,1.446-1.446H45.833a1.447,1.447,0,0,1,1.446,1.446ZM87.774,54.51a1.447,1.447,0,0,1-1.446,1.446H50.172V48.725a4.344,4.344,0,0,0-4.339-4.339H35.709V5.339a1.447,1.447,0,0,1,1.446-1.446H86.327a1.447,1.447,0,0,1,1.446,1.446Z" transform="translate(0 0)" fill="#504d4d"/>
        <path id="Trazado_61230" data-name="Trazado 61230" d="M22.016,35A13.03,13.03,0,0,0,9,48.016V48.3a13.067,13.067,0,0,0,2.852,8.132l2.933,3.666v2.385a7.231,7.231,0,1,0,14.462,0V60.093l2.933-3.665A13.071,13.071,0,0,0,35.032,48.3v-.279A13.03,13.03,0,0,0,22.016,35Zm0,31.817a4.344,4.344,0,0,1-4.339-4.339V61.032h8.677v1.446A4.344,4.344,0,0,1,22.016,66.817Zm-1.446-18.8a1.446,1.446,0,1,1,1.446,1.446A1.447,1.447,0,0,1,20.57,48.016Zm11.57.279a10.162,10.162,0,0,1-2.219,6.324l-2.816,3.52H23.462V52.089a4.339,4.339,0,1,0-2.892,0V58.14H16.927l-2.814-3.52a10.155,10.155,0,0,1-2.22-6.324v-.279a10.124,10.124,0,0,1,20.247,0Z" transform="translate(3.57 15.172)" fill="#504d4d"/>
        <path id="Trazado_61231" data-name="Trazado 61231" d="M66.555,53.124a4.344,4.344,0,0,1-4.339,4.339H35.586l9.7,9.7,2.045-2.045-4.762-4.762H62.217a7.239,7.239,0,0,0,7.231-7.231V43H66.555Z" transform="translate(15.433 18.741)" fill="#504d4d"/>
        <path id="Trazado_61232" data-name="Trazado 61232" d="M37,49h2.892v2.892H37Z" transform="translate(16.064 21.419)" fill="#504d4d"/>
        <path id="Trazado_61233" data-name="Trazado 61233" d="M41,49h2.892v2.892H41Z" transform="translate(17.849 21.419)" fill="#504d4d"/>
        <path id="Trazado_61234" data-name="Trazado 61234" d="M59.462,51.677V43H56.57v8.677H45V54.57H56.57A2.9,2.9,0,0,0,59.462,51.677Z" transform="translate(19.634 18.741)" fill="#504d4d"/>
        <path id="Trazado_61235" data-name="Trazado 61235" d="M3.892,24.332a4.344,4.344,0,0,1,4.339-4.339H31.969l-9.7-9.7-2.045,2.045L24.987,17.1H8.231A7.239,7.239,0,0,0,1,24.332V34.455H3.892Z" transform="translate(0 4.147)" fill="#504d4d"/>
        <path id="Trazado_61236" data-name="Trazado 61236" d="M19,19h2.892v2.892H19Z" transform="translate(8.032 8.032)" fill="#504d4d"/>
        <path id="Trazado_61237" data-name="Trazado 61237" d="M15,19h2.892v2.892H15Z" transform="translate(6.247 8.032)" fill="#504d4d"/>
        <path id="Trazado_61238" data-name="Trazado 61238" d="M5,21.892V30.57H7.892V21.892H16.57V19H7.892A2.9,2.9,0,0,0,5,21.892Z" transform="translate(1.785 8.032)" fill="#504d4d"/>
        <path id="Trazado_61239" data-name="Trazado 61239" d="M5,57H7.892v2.892H5Z" transform="translate(1.785 24.989)" fill="#504d4d"/>
        <path id="Trazado_61240" data-name="Trazado 61240" d="M5,53H7.892v2.892H5Z" transform="translate(1.785 23.204)" fill="#504d4d"/>
        <path id="Trazado_61241" data-name="Trazado 61241" d="M5,49H7.892v2.892H5Z" transform="translate(1.785 21.419)" fill="#504d4d"/>
        <path id="Trazado_61242" data-name="Trazado 61242" d="M29,43h2.892v2.892H29Z" transform="translate(12.494 18.741)" fill="#504d4d"/>
        <path id="Trazado_61243" data-name="Trazado 61243" d="M29,39h2.892v2.892H29Z" transform="translate(12.494 16.957)" fill="#504d4d"/>
        <path id="Trazado_61244" data-name="Trazado 61244" d="M29,35h2.892v2.892H29Z" transform="translate(12.494 15.172)" fill="#504d4d"/>
        <path id="Trazado_61245" data-name="Trazado 61245" d="M57,27h2.892v2.892H57Z" transform="translate(24.989 11.602)" fill="#504d4d"/>
        <path id="Trazado_61246" data-name="Trazado 61246" d="M57,35h2.892v2.892H57Z" transform="translate(24.989 15.172)" fill="#504d4d"/>
        <path id="Trazado_61247" data-name="Trazado 61247" d="M57,31h2.892v2.892H57Z" transform="translate(24.989 13.387)" fill="#504d4d"/>
        <path id="Trazado_61248" data-name="Trazado 61248" d="M27,9h2.892v2.892H27Z" transform="translate(11.602 3.57)" fill="#504d4d"/>
        <path id="Trazado_61249" data-name="Trazado 61249" d="M27,13h2.892v2.892H27Z" transform="translate(11.602 5.355)" fill="#504d4d"/>
        <path id="Trazado_61250" data-name="Trazado 61250" d="M27,5h2.892V7.892H27Z" transform="translate(11.602 1.785)" fill="#504d4d"/>
      </g>
      <path id="Trazado_61251" data-name="Trazado 61251" d="M21635,2241v40h-170v38" transform="translate(-21078 -17)" fill="none" stroke="#673ab7" stroke-width="3"/>
      <path id="Trazado_61253" data-name="Trazado 61253" d="M21508,2241v40.941h131v38.894" transform="translate(-20636.998 -17.229)" fill="none" stroke="#673ab7" stroke-width="3"/>
      <path id="Trazado_61252" data-name="Trazado 61252" d="M21656,2241v58h-82v281" transform="translate(-21078 -17)" fill="none" stroke="#673ab7" stroke-width="3"/>
      <path id="Trazado_61254" data-name="Trazado 61254" d="M21927,2240.771V2299h60v286" transform="translate(-21078 -17)" fill="none" stroke="#673ab7" stroke-width="3"/>
      <path id="Trazado_61255" data-name="Trazado 61255" d="M21675,2241v81" transform="translate(-21083 -17)" fill="none" stroke="#673ab7" stroke-width="3"/>
      <path id="Trazado_61256" data-name="Trazado 61256" d="M21675,2241v81" transform="translate(-20880 -17)" fill="none" stroke="#673ab7" stroke-width="3"/>
      <path id="Trazado_61257" data-name="Trazado 61257" d="M21675,2241v342" transform="translate(-20974 -17)" fill="none" stroke="#673ab7" stroke-width="3"/>
      <g id="cortar" transform="matrix(0.899, -0.438, 0.438, 0.899, 433.489, 2623.557)">
        <path id="Trazado_61258" data-name="Trazado 61258" d="M37.227,231.734a14.716,14.716,0,1,0-4.052,20.414,14.717,14.717,0,0,0,4.052-20.414Zm0,0" transform="translate(-8.249 -180.773)" fill="#88c9f7" fill-rule="evenodd"/>
        <path id="Trazado_61259" data-name="Trazado 61259" d="M32.936,12.528a14.718,14.718,0,1,0,3.951,20.436,14.717,14.717,0,0,0-3.951-20.436Zm0,0" transform="translate(-8.006 -8.029)" fill="#88c9f7" fill-rule="evenodd"/>
        <path id="Trazado_61260" data-name="Trazado 61260" d="M63.9,55.746a5.894,5.894,0,1,0,1.582,8.184A5.895,5.895,0,0,0,63.9,55.746Zm0,0" transform="translate(-43.915 -43.937)" fill="#49aaee" fill-rule="evenodd"/>
        <path id="Trazado_61261" data-name="Trazado 61261" d="M64.216,270.932a5.894,5.894,0,1,0,1.583,8.184,5.894,5.894,0,0,0-1.583-8.184Zm0,0" transform="translate(-44.167 -216.675)" fill="#49aaee" fill-rule="evenodd"/>
        <path id="Trazado_61262" data-name="Trazado 61262" d="M130.734,74.37,177.161,38.6c8.421-6.488,20.9-3.515,26.811,5.322l-66.857,39.99Zm0,0" transform="translate(-104.945 -28.178)" fill="#a4b0c0" fill-rule="evenodd"/>
        <path id="Trazado_61263" data-name="Trazado 61263" d="M130.094,111.8l46.247,36c8.388,6.531,20.884,3.619,26.838-5.188l-66.656-40.323Zm0,0" transform="translate(-104.431 -82.114)" fill="#d0d7df" fill-rule="evenodd"/>
        <path id="Trazado_61264" data-name="Trazado 61264" d="M56.965,46.081A7.867,7.867,0,1,0,59.077,57a7.824,7.824,0,0,0-2.112-10.923Zm-1.157,8.714a3.922,3.922,0,1,1-1.053-5.445,3.923,3.923,0,0,1,1.053,5.445Zm0,0" transform="translate(-35.874 -35.907)" fill="#504d4d" fill-rule="evenodd"/>
        <path id="Trazado_61265" data-name="Trazado 61265" d="M57.3,261.291a7.864,7.864,0,1,0,3.319,5.024A7.826,7.826,0,0,0,57.3,261.291ZM56.139,270a3.92,3.92,0,1,1,.6-2.94,3.921,3.921,0,0,1-.6,2.94Zm0,0" transform="translate(-36.144 -208.664)" fill="#504d4d" fill-rule="evenodd"/>
        <path id="Trazado_61266" data-name="Trazado 61266" d="M100.952,16.177a1.973,1.973,0,0,0-.285-1.53A21.954,21.954,0,0,0,86.013,5.227a19.2,19.2,0,0,0-15,3.633L47.34,27.1,33.261,18.581a16.682,16.682,0,1,0-8.642,12.795l8.54,6.648-8.4,6.476a16.7,16.7,0,1,0,8.577,12.839L47.264,49,70.7,67.247a18.9,18.9,0,0,0,11.708,3.969,20.863,20.863,0,0,0,3.275-.261,21.955,21.955,0,0,0,14.7-9.348,1.974,1.974,0,0,0-.613-2.793L88.884,52.23a1.973,1.973,0,0,0-2.042,3.376l9,5.447a18.015,18.015,0,0,1-10.783,6.005,15.3,15.3,0,0,1-11.941-2.924L28.331,29.265l4.344-6.427,40.661,24.6a1.973,1.973,0,1,0,2.043-3.376l-9.868-5.969,34.528-20.653a1.975,1.975,0,0,0,.912-1.261ZM23.831,69.738A12.745,12.745,0,1,1,27.341,52.06a12.678,12.678,0,0,1-3.509,17.678Zm8.936-16.66-4.313-6.449,7.92-6.1,7.55,5.877Zm-16.1-23.641a12.745,12.745,0,1,1,10.572-5.608,12.681,12.681,0,0,1-10.572,5.608ZM61.69,35.779l-10.729-6.49,22.458-17.3A15.3,15.3,0,0,1,85.375,9.12a18.021,18.021,0,0,1,10.753,6.06Zm0,0" transform="translate(0)" fill="#504d4d" fill-rule="evenodd"/>
        <path id="Trazado_61267" data-name="Trazado 61267" d="M230.988,185.465a1.973,1.973,0,1,0,1.973-1.973A1.977,1.977,0,0,0,230.988,185.465Zm0,0" transform="translate(-185.422 -147.295)" fill-rule="evenodd"/>
        <path id="Trazado_61268" data-name="Trazado 61268" d="M401.172,244.587a1.973,1.973,0,1,0,1.973-1.973A1.976,1.976,0,0,0,401.172,244.587Zm0,0" transform="translate(-322.035 -194.754)" fill-rule="evenodd"/>
      </g>
      <g id="maniqui" transform="translate(612.277 2584)">
        <g id="Grupo_32099" data-name="Grupo 32099" transform="translate(54.317 1.568)">
          <path id="Trazado_61269" data-name="Trazado 61269" d="M62.069,58.52l1.41-3.453a31.361,31.361,0,0,0-.957-25.823l-1.846-3.71a3.136,3.136,0,0,1,1.47-4.233L72.7,16.325a3.136,3.136,0,0,0,1.8-2.836v-3.9A2.091,2.091,0,0,1,76.586,7.5H89.357a2.091,2.091,0,0,1,2.091,2.091v3.9a3.136,3.136,0,0,0,1.8,2.836L103.8,21.3a3.136,3.136,0,0,1,1.47,4.233l-1.846,3.71a31.36,31.36,0,0,0-.957,25.823l1.41,3.453a3.136,3.136,0,0,1-2.9,4.322h-36A3.136,3.136,0,0,1,62.069,58.52Z" transform="translate(-60.348 -7.5)" fill="#e29a6c"/>
          <path id="Trazado_61270" data-name="Trazado 61270" d="M189.437,29.246a31.36,31.36,0,0,0-.958,25.823l1.409,3.452a3.136,3.136,0,0,1-2.9,4.322h-6.272a3.136,3.136,0,0,0,2.9-4.322l-1.409-3.452a31.36,31.36,0,0,1,.958-25.823l1.844-3.711a3.135,3.135,0,0,0-1.47-4.234l-10.55-4.976a3.137,3.137,0,0,1-1.8-2.837v-3.9A2.091,2.091,0,0,0,169.1,7.5h6.272a2.092,2.092,0,0,1,2.091,2.091v3.9a3.137,3.137,0,0,0,1.8,2.837l10.55,4.976a3.135,3.135,0,0,1,1.47,4.234Z" transform="translate(-146.363 -7.5)" fill="#ce845c"/>
          <path id="Trazado_61271" data-name="Trazado 61271" d="M106.59,236.45h-36a3.136,3.136,0,0,1-2.9-4.322l1.409-3.452q.339-.831.629-1.677h37.727q.292.847.629,1.677l1.409,3.452A3.136,3.136,0,0,1,106.59,236.45Z" transform="translate(-65.966 -181.108)" fill="#ce845c"/>
          <path id="Trazado_61272" data-name="Trazado 61272" d="M230.922,236.45H224.65a3.136,3.136,0,0,0,2.9-4.322l-1.409-3.452q-.339-.831-.629-1.677h6.272q.292.847.629,1.677l1.409,3.452A3.136,3.136,0,0,1,230.922,236.45Z" transform="translate(-190.299 -181.108)" fill="#be785a"/>
          <path id="Trazado_61273" data-name="Trazado 61273" d="M138.649,278.473h9.2a2.091,2.091,0,0,0,2.091-2.091V272.2H136.558v4.181A2.091,2.091,0,0,0,138.649,278.473Z" transform="translate(-120.624 -216.859)" fill="#fcf1f2"/>
          <path id="Trazado_61274" data-name="Trazado 61274" d="M168.923,272.2v4.181a2.091,2.091,0,0,1-2.091,2.091H160.56a2.091,2.091,0,0,0,2.091-2.091V272.2Z" transform="translate(-139.608 -216.858)" fill="#f4e5e0"/>
          <path id="Trazado_61275" data-name="Trazado 61275" d="M97.1,480.772h28.225a1.045,1.045,0,0,0,1.045-1.045v-2.091a3.136,3.136,0,0,0-3.136-3.136H99.194a3.136,3.136,0,0,0-3.136,3.136v2.091A1.045,1.045,0,0,0,97.1,480.772Z" transform="translate(-88.592 -376.863)" fill="#736572"/>
          <path id="Trazado_61276" data-name="Trazado 61276" d="M205.468,477.636v2.091a1.046,1.046,0,0,1-1.045,1.045h-6.272a1.046,1.046,0,0,0,1.045-1.045v-2.091a3.137,3.137,0,0,0-3.136-3.136h6.272A3.137,3.137,0,0,1,205.468,477.636Z" transform="translate(-167.686 -376.863)" fill="#615260"/>
          <path id="Trazado_61277" data-name="Trazado 61277" d="M136.058,450.772h13.59v-4.181a2.091,2.091,0,0,0-2.091-2.091h-9.408a2.091,2.091,0,0,0-2.091,2.091Z" transform="translate(-120.229 -353.135)" fill="#fcf1f2"/>
          <path id="Trazado_61278" data-name="Trazado 61278" d="M0,0H7.318V29.751H0Z" transform="translate(26.282 91.365) rotate(180)" fill="#736572"/>
          <g id="Grupo_32098" data-name="Grupo 32098" transform="translate(23.876 24.88)">
            <path id="Trazado_61279" data-name="Trazado 61279" d="M186.027,126.5H175.593a1.045,1.045,0,0,0-1,1.358l3.345,10.663a1.045,1.045,0,0,0,1,.732h11.426Z" transform="translate(-174.547 -126.5)" fill="#ffc263"/>
            <path id="Trazado_61280" data-name="Trazado 61280" d="M378.85,126.5h10.5a1.045,1.045,0,0,1,1,1.358L387,138.521a1.045,1.045,0,0,1-1,.732H374.2Z" transform="translate(-332.46 -126.5)" fill="#ffc263"/>
            <path id="Trazado_61281" data-name="Trazado 61281" d="M272.282,126.5h12.753l3.167,6.83-6.184,9.013H272.43l-2.771-9.924Z" transform="translate(-249.774 -126.5)" fill="#ffc263"/>
          </g>
          <path id="Trazado_61282" data-name="Trazado 61282" d="M233.78,145.767l-4.8-19.267h11.128v1.861a6.377,6.377,0,1,0,12.753-.127V126.5h11.128l-4.8,19.266a25.089,25.089,0,0,0-.48,9.708L263.78,190.1a1.241,1.241,0,0,1-1.227,1.421H230.414a1.241,1.241,0,0,1-1.227-1.42l5.074-34.628A25.092,25.092,0,0,0,233.78,145.767Z" transform="translate(-193.721 -101.62)" fill="#ffe077"/>
          <path id="Trazado_61283" data-name="Trazado 61283" d="M351.5,190.1a1.239,1.239,0,0,1-1.227,1.42H344a1.239,1.239,0,0,0,1.227-1.42l-5.076-34.627a25.111,25.111,0,0,1,.479-9.709l4.8-19.266h6.272l-4.8,19.266a25.111,25.111,0,0,0-.479,9.709Z" transform="translate(-281.445 -101.62)" fill="#ffd05b"/>
          <path id="Trazado_61284" data-name="Trazado 61284" d="M169.423,446.591v4.181h-6.272v-4.181a2.091,2.091,0,0,0-2.091-2.091h6.272A2.092,2.092,0,0,1,169.423,446.591Z" transform="translate(-140.004 -353.135)" fill="#f4e5e0"/>
        </g>
        <path id="Trazado_61285" data-name="Trazado 61285" d="M135.059,24.88h-36.7c.134-.292.27-.582.412-.868l1.846-3.71a4.7,4.7,0,0,0-2.2-6.35L87.86,8.975a1.574,1.574,0,0,1-.9-1.418v-3.9A3.663,3.663,0,0,0,83.3,0H70.531a3.663,3.663,0,0,0-3.659,3.659v3.9a1.575,1.575,0,0,1-.9,1.418l-10.55,4.977a4.7,4.7,0,0,0-2.2,6.35l1.846,3.71a29.8,29.8,0,0,1,.909,24.531L54.563,52a4.7,4.7,0,0,0,4.355,6.482h9.74v2.613a3.663,3.663,0,0,0,3.659,3.659h6.69V91.365H74.826V70.5a1.568,1.568,0,1,0-3.136,0V91.407a3.661,3.661,0,0,0-3.136,3.617v2.613H64.895a4.709,4.709,0,0,0-4.7,4.7v2.091a2.616,2.616,0,0,0,2.613,2.613H91.029a2.616,2.616,0,0,0,2.613-2.613v-2.091a4.709,4.709,0,0,0-4.7-4.7H85.28V95.024a3.661,3.661,0,0,0-3.136-3.617V64.692a3.662,3.662,0,0,0,3.032-3.6V58.478H92.8L88.207,89.822a2.826,2.826,0,0,0,2.779,3.216H111.2a1.568,1.568,0,0,0,0-3.136H91.365l5.019-34.253a26.531,26.531,0,0,0-.51-10.313l-4.318-17.32h7.553v.293a7.87,7.87,0,0,0,2.787,6.006A7.95,7.95,0,0,0,115,28.182v-.166h7.553l-4.318,17.319a26.53,26.53,0,0,0-.51,10.315L122.746,89.9h-4.224a1.568,1.568,0,1,0,0,3.136h4.6a2.826,2.826,0,0,0,2.779-3.216l-5.077-34.627a23.407,23.407,0,0,1,.45-9.1l1.327-5.324h9.109a2.6,2.6,0,0,0,2.494-1.831l3.345-10.663a2.446,2.446,0,0,0-2.494-3.4ZM90.507,102.341v1.568H63.327v-1.568a1.57,1.57,0,0,1,1.568-1.568H88.939A1.57,1.57,0,0,1,90.507,102.341Zm-18.817-4.7V95.024a.523.523,0,0,1,.523-.523h9.408a.523.523,0,0,1,.523.523v2.613ZM82.039,61.091a.523.523,0,0,1-.523.523h-9.2a.523.523,0,0,1-.523-.523V58.478H82.039Zm-23.121-5.75a1.575,1.575,0,0,1-1.452-2.161l1.41-3.453c.095-.233.186-.466.275-.7H93.369a23.415,23.415,0,0,1-.087,6.166l-.022.148ZM88.324,28.016l2.4,9.617H82.945l-3.017-9.617ZM79.215,24.88a2.632,2.632,0,0,0-2.494,3.4l3.345,10.663a2.6,2.6,0,0,0,2.494,1.831H91.5l1.277,5.122H60.171a32.938,32.938,0,0,0-2.3-23.277L56.026,18.9a1.575,1.575,0,0,1,.735-2.117l10.551-4.977a4.724,4.724,0,0,0,2.7-4.255v-3.9a.523.523,0,0,1,.523-.523H83.3a.523.523,0,0,1,.523.523v3.9a4.724,4.724,0,0,0,2.7,4.255l10.55,4.977a1.576,1.576,0,0,1,.735,2.117l-1.846,3.71c-.368.739-.709,1.5-1.021,2.265ZM107.889,33a4.816,4.816,0,0,1-3.963-1.076,4.74,4.74,0,0,1-1.681-3.615v-.293h9.617v.166A4.869,4.869,0,0,1,107.889,33Zm23.441,4.633h-7.943l2.4-9.617h8.563Z" fill="#504d4d"/>
      </g>
      <g id="dentro" transform="translate(858.999 2591.001)">
        <path id="Trazado_61286" data-name="Trazado 61286" d="M64,219.644l35.625,15.215,35.625-15.215v-30.43L99.625,174,64,189.215Zm0,0" transform="translate(-52.124 -141.715)" fill="#ffc15a"/>
        <path id="Trazado_61287" data-name="Trazado 61287" d="M291.533,256.013v30.42l-35.625,15.215-.021-.009V271.219L291.512,256Zm0,0" transform="translate(-208.407 -208.504)" fill="#ffcb7c"/>
        <path id="Trazado_61288" data-name="Trazado 61288" d="M135.25,189.215h0L99.625,204.43,64,189.215h0L99.625,174Zm0,0" transform="translate(-52.124 -141.715)" fill="#8690a6"/>
        <path id="Trazado_61289" data-name="Trazado 61289" d="M291.625,256h0L256,271.216,266.019,281.3l35.625-15.957Zm0,0" transform="translate(-208.5 -208.5)" fill="#ffedd1"/>
        <path id="Trazado_61290" data-name="Trazado 61290" d="M20.019,256h0l35.625,15.215L45.625,281.3,10,265.34Zm0,0" transform="translate(-8.144 -208.5)" fill="#ffedd1"/>
        <path id="Trazado_61291" data-name="Trazado 61291" d="M291.625,144.964h0L256,129.748l10.019-10.08,35.625,15.957Zm0,0" transform="translate(-208.5 -97.464)" fill="#ffc15a"/>
        <path id="Trazado_61292" data-name="Trazado 61292" d="M20.273,144.964h0L55.9,129.748l-10.019-10.08L10.254,135.625Zm0,0" transform="translate(-8.351 -97.464)" fill="#ffc15a"/>
        <path id="Trazado_61293" data-name="Trazado 61293" d="M190.917,43.669V10h-17.07V43.669h-8.265l16.8,16.8,16.8-16.8Zm0,0" transform="translate(-134.858 -8.144)" fill="#91def5"/>
        <path id="Trazado_61294" data-name="Trazado 61294" d="M85.847,47.5l8.563-7.982a1.856,1.856,0,0,0-.508-3.051l-35.988-16.1V1.856A1.855,1.855,0,0,0,56.059,0H38.988a1.856,1.856,0,0,0-1.855,1.855v18.51L1.145,36.467a1.855,1.855,0,0,0-.507,3.051l8.54,7.96-8.587,8A1.856,1.856,0,0,0,1.1,58.533l8.922,4v15.4a1.854,1.854,0,0,0,1.126,1.706L46.771,94.85a1.853,1.853,0,0,0,1.458,0L59.2,90.166a1.855,1.855,0,0,0-1.457-3.413l-8.385,3.581V67.214L56.2,74.1a1.857,1.857,0,0,0,2.074.386l22.992-10.3V76.7l-9.875,4.218a1.855,1.855,0,1,0,1.458,3.412l11-4.7a1.855,1.855,0,0,0,1.127-1.706v-15.4l8.922-4a1.855,1.855,0,0,0,.507-3.051ZM46.212,53.636a1.856,1.856,0,0,0,2.624,0L61.985,40.488,78.4,47.5,47.5,60.7,16.622,47.509l16.441-7.022ZM89.833,38.712l-7.088,6.607L64.812,37.66l.824-.824a1.855,1.855,0,0,0-1.312-3.167h-6.41V24.431ZM40.844,35.524V3.711h5.949V21.06a1.855,1.855,0,0,0,3.711,0V3.711h3.7V35.524a1.856,1.856,0,0,0,1.855,1.855h3.786L47.524,49.7,35.2,37.38h3.786a1.856,1.856,0,0,0,1.855-1.855ZM37.133,24.431v9.237H30.724a1.856,1.856,0,0,0-1.313,3.167l.825.824L12.3,45.319,5.216,38.712ZM12.257,49.681l32,13.667-7.187,7.231-31.9-14.29Zm1.474,14.51,22.991,10.3A1.857,1.857,0,0,0,38.8,74.1l6.849-6.89v23.12L13.731,76.7ZM82.4,59.617h0L57.932,70.579l-7.187-7.231,32-13.667,7.089,6.608Zm0,0" fill="#504d4d"/>
        <path id="Trazado_61295" data-name="Trazado 61295" d="M343.8,451.109a1.858,1.858,0,1,0,1.311.544A1.867,1.867,0,0,0,343.8,451.109Zm0,0" transform="translate(-278.495 -367.407)"/>
        <path id="Trazado_61296" data-name="Trazado 61296" d="M254.046,147.211a1.856,1.856,0,1,0-1.312-.544A1.869,1.869,0,0,0,254.046,147.211Zm0,0" transform="translate(-205.397 -116.874)" fill="#504d4d"/>
      </g>
    </g>
  </g>
</svg>
