<svg xmlns="http://www.w3.org/2000/svg" width="163.336" height="163.336" viewBox="0 0 163.336 163.336">
  <g id="Grupo_1076883" data-name="Grupo 1076883" transform="translate(-264.332 -953.332)">
    <circle id="Elipse_5614" data-name="Elipse 5614" cx="81.668" cy="81.668" r="81.668" transform="translate(264.332 953.332)" fill="#63503e"/>
    <g id="Grupo_1076887" data-name="Grupo 1076887" transform="translate(295.332 985.276)">
      <path id="Trazado_838705" data-name="Trazado 838705" d="M120.665,97.09A23.575,23.575,0,1,1,97.09,73.516,23.575,23.575,0,0,1,120.665,97.09Zm0,0" transform="translate(-58.682 -58.682)" fill="#f6cb43"/>
      <path id="Trazado_838706" data-name="Trazado 838706" d="M122.5,98.923A23.577,23.577,0,0,1,75.813,103.6,23.591,23.591,0,0,0,103.6,75.813a23.582,23.582,0,0,1,18.9,23.11Zm0,0" transform="translate(-60.515 -60.515)" fill="#fab03c"/>
      <g id="Grupo_1076886" data-name="Grupo 1076886" transform="translate(0 0)">
        <path id="Trazado_838707" data-name="Trazado 838707" d="M184.27,8.149a1.536,1.536,0,0,1-1.535-1.536V1.535a1.536,1.536,0,0,1,3.072,0V6.613A1.536,1.536,0,0,1,184.27,8.149Zm0,0" transform="translate(-145.861 0)" fill="#f8e98e"/>
        <path id="Trazado_838708" data-name="Trazado 838708" d="M95.441,31.95a1.535,1.535,0,0,1-1.331-.768l-2.539-4.4a1.536,1.536,0,0,1,2.66-1.535l2.539,4.4a1.536,1.536,0,0,1-1.329,2.3Zm0,0" transform="translate(-72.929 -19.541)" fill="#f8e98e"/>
        <path id="Trazado_838709" data-name="Trazado 838709" d="M30.412,96.977a1.531,1.531,0,0,1-.767-.206l-4.4-2.539a1.536,1.536,0,0,1,1.536-2.66l4.4,2.539a1.536,1.536,0,0,1-.769,2.866Zm0,0" transform="translate(-19.54 -72.929)" fill="#f8e98e"/>
        <path id="Trazado_838710" data-name="Trazado 838710" d="M6.613,185.806H1.535a1.536,1.536,0,0,1,0-3.072H6.613a1.536,1.536,0,1,1,0,3.072Zm0,0" transform="translate(0 -145.861)" fill="#f8e98e"/>
        <path id="Trazado_838711" data-name="Trazado 838711" d="M320.73,96.977a1.536,1.536,0,0,1-.769-2.866l4.4-2.539a1.536,1.536,0,0,1,1.536,2.66l-4.4,2.539A1.53,1.53,0,0,1,320.73,96.977Zm0,0" transform="translate(-254.784 -72.929)" fill="#f8e98e"/>
        <path id="Trazado_838712" data-name="Trazado 838712" d="M26.017,267.127a1.536,1.536,0,0,1-.77-2.866l4.4-2.539a1.536,1.536,0,1,1,1.536,2.66l-4.4,2.539a1.53,1.53,0,0,1-.766.206Zm0,0" transform="translate(-19.539 -208.746)" fill="#f8e98e"/>
        <path id="Trazado_838713" data-name="Trazado 838713" d="M263.052,31.95a1.536,1.536,0,0,1-1.328-2.3l2.539-4.4a1.536,1.536,0,0,1,2.66,1.535l-2.539,4.4a1.536,1.536,0,0,1-1.332.768Zm0,0" transform="translate(-208.747 -19.541)" fill="#f8e98e"/>
      </g>
      <path id="Trazado_838714" data-name="Trazado 838714" d="M183.117,188.776a25.632,25.632,0,0,0-49.586-7.422,17.312,17.312,0,0,0,.212,34.624h48.9a13.6,13.6,0,0,0,.475-27.2Zm0,0" transform="translate(-92.935 -131.48)" fill="#a0ecff"/>
      <path id="Trazado_838715" data-name="Trazado 838715" d="M285.788,202.374a13.609,13.609,0,0,1-13.608,13.608h-1.054a13.608,13.608,0,0,0-11.587-19.9,25.65,25.65,0,0,0-30.937-23.5,25.628,25.628,0,0,1,44.054,16.193,13.6,13.6,0,0,1,13.132,13.594Zm0,0" transform="translate(-182.473 -131.483)" fill="#60daff"/>
      <path id="Trazado_838716" data-name="Trazado 838716" d="M403.1,252.339a1.537,1.537,0,0,1-1.492-1.178,17.607,17.607,0,0,0-.96-2.877,1.536,1.536,0,0,1,2.819-1.219,20.725,20.725,0,0,1,1.128,3.378,1.539,1.539,0,0,1-1.5,1.9Zm0,0" transform="translate(-319.699 -196.471)" fill="#a0ecff"/>
      <path id="Trazado_838717" data-name="Trazado 838717" d="M328.026,197.34a1.53,1.53,0,0,1-1.108-.473,17.66,17.66,0,0,0-12.847-5.487,1.536,1.536,0,1,1,0-3.072,20.7,20.7,0,0,1,15.062,6.432,1.536,1.536,0,0,1-1.107,2.6Zm0,0" transform="translate(-249.47 -150.31)" fill="#a0ecff"/>
      <path id="Trazado_838718" data-name="Trazado 838718" d="M60.814,254.337a18.325,18.325,0,0,1,35.45-5.306,12.377,12.377,0,0,1-.151,24.753H61.154a9.726,9.726,0,0,1-.34-19.446Zm0,0" transform="translate(-41.049 -189.286)" fill="#f0f5f7"/>
      <path id="Trazado_838719" data-name="Trazado 838719" d="M171.772,261.409a12.379,12.379,0,0,1-12.208,12.375,12.375,12.375,0,0,0-8.966-20.746,18.341,18.341,0,0,0-19.894-11.69,18.322,18.322,0,0,1,28.84,7.687A12.376,12.376,0,0,1,171.772,261.409Zm0,0" transform="translate(-104.329 -189.289)" fill="#dde9ed"/>
    </g>
  </g>
</svg>
