<svg id="Grupo_1078422" data-name="Grupo 1078422" xmlns="http://www.w3.org/2000/svg" xmlns:xlink="http://www.w3.org/1999/xlink" width="356.049" height="259.535" viewBox="0 0 356.049 259.535">
  <defs>
    <clipPath id="clip-path">
      <rect id="Rectángulo_381239" data-name="Rectángulo 381239" width="356.049" height="259.536" fill="none"/>
    </clipPath>
    <clipPath id="clip-path-3">
      <rect id="Rectángulo_381179" data-name="Rectángulo 381179" width="66.399" height="57.965" transform="translate(0)" fill="none"/>
    </clipPath>
    <clipPath id="clip-path-4">
      <rect id="Rectángulo_381180" data-name="Rectángulo 381180" width="116.98" height="39.717" fill="none"/>
    </clipPath>
    <clipPath id="clip-path-5">
      <rect id="Rectángulo_381181" data-name="Rectángulo 381181" width="134.69" height="154.997" transform="translate(0)" fill="#d1bcff"/>
    </clipPath>
    <clipPath id="clip-path-6">
      <rect id="Rectángulo_381182" data-name="Rectángulo 381182" width="7.102" height="25.033" transform="translate(0)" fill="none"/>
    </clipPath>
    <clipPath id="clip-path-7">
      <rect id="Rectángulo_381183" data-name="Rectángulo 381183" width="15.384" height="40.494" transform="translate(0)" fill="none"/>
    </clipPath>
    <clipPath id="clip-path-8">
      <rect id="Rectángulo_381184" data-name="Rectángulo 381184" width="20.116" height="28.192" transform="translate(0)" fill="none"/>
    </clipPath>
    <clipPath id="clip-path-9">
      <rect id="Rectángulo_381185" data-name="Rectángulo 381185" width="6.922" height="19.871" transform="translate(0)" fill="none"/>
    </clipPath>
    <clipPath id="clip-path-10">
      <rect id="Rectángulo_381187" data-name="Rectángulo 381187" width="117.696" height="93.156" fill="none"/>
    </clipPath>
    <clipPath id="clip-path-11">
      <rect id="Rectángulo_381188" data-name="Rectángulo 381188" width="23.616" height="78.511" transform="translate(0)" fill="none"/>
    </clipPath>
    <clipPath id="clip-path-12">
      <rect id="Rectángulo_381189" data-name="Rectángulo 381189" width="14.799" height="72.317" transform="translate(0)" fill="none"/>
    </clipPath>
    <clipPath id="clip-path-13">
      <rect id="Rectángulo_381190" data-name="Rectángulo 381190" width="6.108" height="42.504" transform="translate(0)" fill="none"/>
    </clipPath>
    <clipPath id="clip-path-14">
      <rect id="Rectángulo_381191" data-name="Rectángulo 381191" width="6.867" height="6.363" transform="translate(0)" fill="none"/>
    </clipPath>
    <clipPath id="clip-path-15">
      <rect id="Rectángulo_381192" data-name="Rectángulo 381192" width="100.912" height="86.011" transform="translate(0)" fill="none"/>
    </clipPath>
    <clipPath id="clip-path-16">
      <rect id="Rectángulo_381193" data-name="Rectángulo 381193" width="10.417" height="5.449" transform="translate(0)" fill="none"/>
    </clipPath>
    <clipPath id="clip-path-17">
      <rect id="Rectángulo_381194" data-name="Rectángulo 381194" width="8.106" height="7.154" transform="translate(0)" fill="none"/>
    </clipPath>
    <clipPath id="clip-path-18">
      <rect id="Rectángulo_381199" data-name="Rectángulo 381199" width="356.049" height="7.901" fill="none"/>
    </clipPath>
    <clipPath id="clip-path-20">
      <rect id="Rectángulo_381201" data-name="Rectángulo 381201" width="15.156" height="24.927" transform="translate(0)" fill="none"/>
    </clipPath>
    <clipPath id="clip-path-21">
      <rect id="Rectángulo_381202" data-name="Rectángulo 381202" width="15.22" height="24.885" transform="translate(0)" fill="none"/>
    </clipPath>
    <clipPath id="clip-path-22">
      <rect id="Rectángulo_381203" data-name="Rectángulo 381203" width="2.914" height="28.962" transform="translate(0)" fill="none"/>
    </clipPath>
    <clipPath id="clip-path-23">
      <rect id="Rectángulo_381204" data-name="Rectángulo 381204" width="12.259" height="26.467" transform="translate(0)" fill="none"/>
    </clipPath>
    <clipPath id="clip-path-24">
      <rect id="Rectángulo_381206" data-name="Rectángulo 381206" width="50.937" height="23.856" transform="translate(0)" fill="none"/>
    </clipPath>
    <clipPath id="clip-path-25">
      <rect id="Rectángulo_381207" data-name="Rectángulo 381207" width="6.023" height="26.296" transform="translate(0)" fill="none"/>
    </clipPath>
    <clipPath id="clip-path-26">
      <rect id="Rectángulo_381208" data-name="Rectángulo 381208" width="7.185" height="26.122" transform="translate(0)" fill="none"/>
    </clipPath>
    <clipPath id="clip-path-28">
      <rect id="Rectángulo_381210" data-name="Rectángulo 381210" width="11.852" height="51.973" transform="translate(0)" fill="none"/>
    </clipPath>
    <clipPath id="clip-path-29">
      <rect id="Rectángulo_381213" data-name="Rectángulo 381213" width="13.467" height="51.5" transform="translate(0)" fill="none"/>
    </clipPath>
    <clipPath id="clip-path-30">
      <rect id="Rectángulo_381214" data-name="Rectángulo 381214" width="3.206" height="3.206" transform="translate(0)" fill="none"/>
    </clipPath>
    <clipPath id="clip-path-31">
      <rect id="Rectángulo_381215" data-name="Rectángulo 381215" width="27.987" height="39.132" transform="translate(0)" fill="#727997"/>
    </clipPath>
    <clipPath id="clip-path-33">
      <rect id="Rectángulo_381219" data-name="Rectángulo 381219" width="20.219" height="32.03" transform="translate(0)" fill="none"/>
    </clipPath>
    <clipPath id="clip-path-35">
      <rect id="Rectángulo_381221" data-name="Rectángulo 381221" width="36.468" height="25.926" transform="translate(0)" fill="none"/>
    </clipPath>
    <clipPath id="clip-path-36">
      <rect id="Rectángulo_381222" data-name="Rectángulo 381222" width="36.807" height="26.163" fill="none"/>
    </clipPath>
    <clipPath id="clip-path-37">
      <rect id="Rectángulo_381223" data-name="Rectángulo 381223" width="36.643" height="26.056" fill="none"/>
    </clipPath>
    <clipPath id="clip-path-38">
      <rect id="Rectángulo_381224" data-name="Rectángulo 381224" width="35.956" height="25.585" fill="none"/>
    </clipPath>
    <clipPath id="clip-path-39">
      <rect id="Rectángulo_381225" data-name="Rectángulo 381225" width="34.68" height="24.716" fill="none"/>
    </clipPath>
    <clipPath id="clip-path-40">
      <rect id="Rectángulo_381226" data-name="Rectángulo 381226" width="15.192" height="18.026" transform="translate(0)" fill="none"/>
    </clipPath>
    <clipPath id="clip-path-41">
      <rect id="Rectángulo_381227" data-name="Rectángulo 381227" width="15.388" height="18.287" transform="translate(0)" fill="none"/>
    </clipPath>
    <clipPath id="clip-path-42">
      <rect id="Rectángulo_381228" data-name="Rectángulo 381228" width="15.396" height="18.354" fill="none"/>
    </clipPath>
    <clipPath id="clip-path-43">
      <rect id="Rectángulo_381229" data-name="Rectángulo 381229" width="15.291" height="18.228" transform="translate(0)" fill="none"/>
    </clipPath>
    <clipPath id="clip-path-44">
      <rect id="Rectángulo_381230" data-name="Rectángulo 381230" width="14.998" height="17.862" fill="none"/>
    </clipPath>
    <clipPath id="clip-path-45">
      <rect id="Rectángulo_381231" data-name="Rectángulo 381231" width="14.456" height="17.28" transform="translate(0)" fill="none"/>
    </clipPath>
    <clipPath id="clip-path-46">
      <rect id="Rectángulo_381232" data-name="Rectángulo 381232" width="6.659" height="7.179" transform="translate(0)" fill="none"/>
    </clipPath>
    <clipPath id="clip-path-47">
      <rect id="Rectángulo_381233" data-name="Rectángulo 381233" width="6.354" height="6.647" transform="translate(0)" fill="none"/>
    </clipPath>
    <clipPath id="clip-path-48">
      <rect id="Rectángulo_381234" data-name="Rectángulo 381234" width="5.875" height="5.963" transform="translate(0)" fill="none"/>
    </clipPath>
    <clipPath id="clip-path-49">
      <rect id="Rectángulo_381235" data-name="Rectángulo 381235" width="5.266" height="5.211" transform="translate(0)" fill="none"/>
    </clipPath>
    <clipPath id="clip-path-50">
      <rect id="Rectángulo_381236" data-name="Rectángulo 381236" width="6.872" height="7.59" fill="none"/>
    </clipPath>
    <clipPath id="clip-path-51">
      <rect id="Rectángulo_381237" data-name="Rectángulo 381237" width="15.798" height="9.483" transform="translate(0)" fill="none"/>
    </clipPath>
  </defs>
  <g id="Grupo_1078421" data-name="Grupo 1078421" clip-path="url(#clip-path)">
    <g id="Grupo_1078319" data-name="Grupo 1078319">
      <g id="Grupo_1078318" data-name="Grupo 1078318" clip-path="url(#clip-path)">
        <path id="Trazado_840940" data-name="Trazado 840940" d="M164.869,83.546c9.342-1.427,17.792,7.554,23.947,5.619a24.919,24.919,0,0,1,17.649-.771c4.79,2.889,10.367,4.056,16.339,4.357-1.167-4.548-1.14-10.078-.445-16.155,2.658-1.484,4.823-5.622,6.718-11.22-1.954-5.526.158-18.127,2.191-30.591H166.077Z" transform="translate(-40.088 0)" fill="#263238"/>
        <g id="Grupo_1078269" data-name="Grupo 1078269" transform="translate(124.781 34.785)" opacity="0.4">
          <g id="Grupo_1078268" data-name="Grupo 1078268" transform="translate(0)">
            <g id="Grupo_1078267" data-name="Grupo 1078267" transform="translate(0)" clip-path="url(#clip-path-3)">
              <path id="Trazado_840941" data-name="Trazado 840941" d="M164.869,83.546c9.342-1.427,17.792,7.554,23.947,5.619a24.919,24.919,0,0,1,17.649-.771c4.79,2.889,10.367,4.056,16.339,4.357-1.167-4.548-1.14-10.078-.445-16.155,2.658-1.484,4.823-5.622,6.718-11.22-1.954-5.526.158-18.127,2.191-30.591H166.077Z" transform="translate(-164.869 -34.785)" fill="#fff"/>
            </g>
          </g>
        </g>
        <path id="Trazado_840942" data-name="Trazado 840942" d="M291.226,256.809H175.752l11.731-39.717h105.25Z" transform="translate(-112.435 0)" fill="#407bff"/>
        <g id="Grupo_1078272" data-name="Grupo 1078272" transform="translate(63.317 217.092)" opacity="0.2" style="isolation: isolate">
          <g id="Grupo_1078271" data-name="Grupo 1078271">
            <g id="Grupo_1078270" data-name="Grupo 1078270" clip-path="url(#clip-path-4)">
              <path id="Trazado_840943" data-name="Trazado 840943" d="M291.226,256.809H175.752l11.731-39.717h105.25Z" transform="translate(-175.752 -217.092)"/>
            </g>
          </g>
        </g>
        <path id="Trazado_840944" data-name="Trazado 840944" d="M276.5,97.7c-22.563-8.7-40.388-7.424-63.579-2.7-14.989,3.052-29.358,18.042-31.115,37.179-5.626,61.286-7.105,70.887-16.067,112.078L271.916,246.3c8.907-44.428,25.406-76.7,28.458-118.188,1.093-14.861-13.184-26.287-23.87-30.409" transform="translate(-110.127 0)" fill="#407bff"/>
        <g id="Grupo_1078275" data-name="Grupo 1078275" transform="translate(55.616 91.303)" opacity="0.7">
          <g id="Grupo_1078274" data-name="Grupo 1078274" transform="translate(0)">
            <g id="Grupo_1078273" data-name="Grupo 1078273" transform="translate(0)" clip-path="url(#clip-path-5)">
              <path id="Trazado_840945" data-name="Trazado 840945" d="M276.5,97.7c-22.563-8.7-40.388-7.424-63.579-2.7-14.989,3.052-29.358,18.042-31.115,37.179-5.626,61.286-7.105,70.887-16.067,112.078L271.916,246.3c8.907-44.428,25.406-76.7,28.458-118.188,1.093-14.861-13.184-26.287-23.87-30.409" transform="translate(-165.743 -91.303)" fill="#d1bcff"/>
            </g>
          </g>
        </g>
        <path id="Trazado_840946" data-name="Trazado 840946" d="M139.675,112l46.02,78.717-25.851,14.314-37.916-62.7Z" transform="translate(48.427 0)" fill="#673ab7"/>
        <g id="Grupo_1078278" data-name="Grupo 1078278" transform="translate(212.977 158.193)" opacity="0.2">
          <g id="Grupo_1078277" data-name="Grupo 1078277" transform="translate(0)">
            <g id="Grupo_1078276" data-name="Grupo 1078276" transform="translate(0)" clip-path="url(#clip-path-6)">
              <path id="Trazado_840947" data-name="Trazado 840947" d="M143.072,166.7l-4.973-8.507-2.129,25.033Z" transform="translate(-135.97 -158.193)"/>
            </g>
          </g>
        </g>
        <path id="Trazado_840948" data-name="Trazado 840948" d="M149.071,149.977l-17.247,46.954c-2.105,7.153-9.984,16.6-19.239,11.932s-5.791-11.621-2.825-19.742L131.188,144.4Z" transform="translate(100.392 0)" fill="#673ab7"/>
        <g id="Grupo_1078281" data-name="Grupo 1078281" transform="translate(180.54 141.888)" opacity="0.2">
          <g id="Grupo_1078280" data-name="Grupo 1078280" transform="translate(0)">
            <g id="Grupo_1078279" data-name="Grupo 1078279" transform="translate(0)" clip-path="url(#clip-path-7)">
              <path id="Trazado_840949" data-name="Trazado 840949" d="M169.5,141.888c1.506,2.215,9.031,28.864,4.656,40.5,0,0-9.346-16.25-13.272-21.95s8.616-18.545,8.616-18.545" transform="translate(-160.126 -141.888)"/>
            </g>
          </g>
        </g>
        <path id="Trazado_840950" data-name="Trazado 840950" d="M194.267,95.026s13.169,23.882,31.249,31.779c11.1-4.791,9.582-23.112,9.582-23.112a7.787,7.787,0,0,1-2.167-2.431c-2.239-3.973.385-8.956,4.357-13L218.1,73.07l-4.31-3.4c-3.1,9.221-11.989,20.777-19.524,25.351" transform="translate(-75.506 0)" fill="#eec1bb"/>
        <g id="Grupo_1078284" data-name="Grupo 1078284" transform="translate(141.667 73.07)" opacity="0.2">
          <g id="Grupo_1078283" data-name="Grupo 1078283" transform="translate(0)">
            <g id="Grupo_1078282" data-name="Grupo 1078282" transform="translate(0)" clip-path="url(#clip-path-8)">
              <path id="Trazado_840951" data-name="Trazado 840951" d="M194.688,87.587c1.2,4.43,6.356,12.4,15.336,13.674-2.24-3.972.385-8.955,4.357-13L195.193,73.07c-.505,2.022-1.493,11-.505,14.517" transform="translate(-194.265 -73.07)"/>
            </g>
          </g>
        </g>
        <path id="Trazado_840952" data-name="Trazado 840952" d="M161.651,98.758c-.6-1.254,2.311-3.034,3.529-2.548,21.267,8.486,27.677,25.973,26.111,40.143-3.343,30.243-14.9,36.468-11.25,120.455h-13.7c-14.667-94.576,9.9-127.364-4.694-158.05" transform="translate(3.057 0)" fill="#673ab7"/>
        <path id="Trazado_840953" data-name="Trazado 840953" d="M140.653,150.533a4.056,4.056,0,0,0,3.953-4.423,4.672,4.672,0,0,0-1.491-3.788,3.41,3.41,0,0,1-1.159-2.814c0-3.389,2.944-6.228,2.974-6.256l-.583-.614c-.132.125-3.237,3.113-3.237,6.87a4.247,4.247,0,0,0,1.391,3.4,3.867,3.867,0,0,1,1.258,3.205c0,3.515-2.98,3.576-3.107,3.577Z" transform="translate(70.467 0)" fill="#263238"/>
        <path id="Trazado_840954" data-name="Trazado 840954" d="M138.889,144.45s-8.115-11.411-10.751-13.98c-4.9-4.778-6.093,3.713-6.093,3.713l-6.331-1.651-5.2-2.062-4.762.7,8.676,4.475,8.443,3.556,3.714,5.777Z" transform="translate(111.409 0)" fill="#ffc3bd"/>
        <path id="Trazado_840955" data-name="Trazado 840955" d="M135.352,132.632c-.183.512-.5.868-.707.794-.189-.068-.22-.468-.086-.926v0l.013-.036c.01-.033.018-.065.03-.1s.03-.075.046-.112l6.752-18.686Zm-.665-.093c-.109.32-.087.618.049.663s.334-.176.442-.5.087-.617-.049-.663-.334.177-.442.5" transform="translate(80.173 0)" fill="#263238"/>
        <g id="Grupo_1078287" data-name="Grupo 1078287" transform="translate(214.65 113.564)" opacity="0.4">
          <g id="Grupo_1078286" data-name="Grupo 1078286" transform="translate(0)">
            <g id="Grupo_1078285" data-name="Grupo 1078285" transform="translate(0)" clip-path="url(#clip-path-9)">
              <path id="Trazado_840956" data-name="Trazado 840956" d="M135.352,132.632c-.183.512-.5.868-.707.794-.189-.068-.22-.468-.086-.926v0l.013-.036c.01-.033.018-.065.03-.1s.03-.075.046-.112l6.752-18.686Zm-.665-.093c-.109.32-.087.618.049.663s.334-.176.442-.5.087-.617-.049-.663-.334.177-.442.5" transform="translate(-134.477 -113.564)" fill="#fff"/>
            </g>
          </g>
        </g>
        <path id="Trazado_840957" data-name="Trazado 840957" d="M131.627,144.45l-13.975-18.075-11.946,23.169a33.153,33.153,0,0,0,15.613,5.847,9.456,9.456,0,0,0,10.348-9.674Z" transform="translate(118.671 0)" fill="#ffc3bd"/>
        <path id="Trazado_840958" data-name="Trazado 840958" d="M124.139,141.023c-.383.7,1.271,3.6,2.144,4.159l3.394,3.129,1.337,1.233,1.373-2.577,6.218-11.672-12.783-3.959c-1.74,2.71-1.683,9.687-1.683,9.687" transform="translate(93.362 0)" fill="#ffc3bd"/>
        <path id="Trazado_840959" data-name="Trazado 840959" d="M140.4,126.375l-7.413-5.549-9.553,2.271-3.711,3.659c1.791,1.961,3.539,1.511,5.268,0,1.916-.113,4.511-.441,5.759-1.146a48.207,48.207,0,0,0,7.448,5.646Z" transform="translate(95.92 0)" fill="#ffc3bd"/>
        <path id="Trazado_840960" data-name="Trazado 840960" d="M139.245,135.295l-9.56-3.746a13.756,13.756,0,0,1-3.712-.3c-2.1.37-3.6-.155-4.045-2.258l4.125-1.776,6.452.481,8.894,3.553Z" transform="translate(92.722 0)" fill="#ffc3bd"/>
        <line id="Línea_894" data-name="Línea 894" x2="3.223" y2="40.865" transform="translate(215.105 132.842)" fill="#263238"/>
        <rect id="Rectángulo_381186" data-name="Rectángulo 381186" width="40.993" height="0.847" transform="translate(217.892 173.742) rotate(-94.471)" fill="#263238"/>
        <path id="Trazado_840961" data-name="Trazado 840961" d="M283.677,246.3l1.109,10.509-91.635-.395,3.051-11.8Z" transform="translate(-121.888 0)" fill="#263238"/>
        <path id="Trazado_840962" data-name="Trazado 840962" d="M245.661,256.809h49.311s1.28-18.284,7.535-58.287c1.277-8.047,2.52-16.211,3.693-24.317,4.869-33.825,8.521-66.066,6.773-78.072a3.571,3.571,0,0,0-3.827-3.37c-20.915,1.727-39.555,20.485-44.537,49.693-.469,2.809-1.009,6-1.569,9.452-2.294,14.4-5.256,33.74-8.428,52.821-4.349,25.987-4.731,40.3-8.951,52.08" transform="translate(-203.029 0)" fill="#673ab7"/>
        <g id="Grupo_1078290" data-name="Grupo 1078290" transform="translate(69.227 121.261)" opacity="0.2" style="isolation: isolate">
          <g id="Grupo_1078289" data-name="Grupo 1078289">
            <g id="Grupo_1078288" data-name="Grupo 1078288" clip-path="url(#clip-path-10)">
              <path id="Trazado_840963" data-name="Trazado 840963" d="M286.822,172.133s-2.53-.883-10.816,1.187c-4.627,1.156-10.784-.254-17.9-.372-49.02-.815-46.922-19.673-63.3-51.686l-25.676,17.151s8.469,63.889,36.724,73.2,77.035-7.509,77.035-7.509a310.881,310.881,0,0,1,3.937-31.967" transform="translate(-169.126 -121.261)"/>
            </g>
          </g>
        </g>
        <path id="Trazado_840964" data-name="Trazado 840964" d="M161.739,129.317l.355,1.816.3,1.408.624,2.624c.455,1.7.921,3.343,1.414,4.951.97,3.24,2.012,6.356,3.088,9.463,2.227,6.164,4.67,12.134,7.268,18.009,2.558,5.9,5.38,11.613,8.186,17.328l4.391,8.463a25.389,25.389,0,0,0,6.792,8.33,28.808,28.808,0,0,0,7.8,4.421,44.113,44.113,0,0,0,13.277,2.626,72.669,72.669,0,0,0,11.235-.257,135.6,135.6,0,0,0,20.132-3.59,217.014,217.014,0,0,0,36.819-12.917,9.97,9.97,0,0,0-6.286-18.811l-.354.081c-11.52,2.572-23.558,5.06-35.063,6.636a138.323,138.323,0,0,1-16.784,1.362,57.213,57.213,0,0,1-7.386-.366,15.38,15.38,0,0,1-4.878-1.257c-.392-.218-.471-.345-.241-.213a3.3,3.3,0,0,1,.984,1.137l-3.71-8.321c-2.474-5.532-4.886-11.085-7.218-16.613s-4.609-11.057-6.707-16.542c-1.061-2.726-2.128-5.454-3.056-8.131-.48-1.342-.921-2.671-1.328-3.954l-.619-1.867-.266-.85-.111-.358c-.031-.1-.074-.26-.051-.1a14.566,14.566,0,0,0-28.611,5.49" transform="translate(-94.704 0)" fill="#673ab7"/>
        <path id="Trazado_840965" data-name="Trazado 840965" d="M127.717,251.953c6.729-7.253,20.061,3.984,20.061-6.194L144.1,180.994l-11.117-7.552c-2.733-.015-5.827,7.293-8.817,12.5Z" transform="translate(84.109 0)" fill="#ffd54f"/>
        <g id="Grupo_1078293" data-name="Grupo 1078293" transform="translate(208.219 173.442)" opacity="0.2">
          <g id="Grupo_1078292" data-name="Grupo 1078292" transform="translate(0)">
            <g id="Grupo_1078291" data-name="Grupo 1078291" transform="translate(0)" clip-path="url(#clip-path-11)">
              <path id="Trazado_840966" data-name="Trazado 840966" d="M127.717,251.953c6.729-7.253,20.061,3.984,20.061-6.194L144.1,180.994l-11.117-7.552c-2.733-.015-5.827,7.293-8.817,12.5Z" transform="translate(-124.162 -173.442)"/>
            </g>
          </g>
        </g>
        <path id="Trazado_840967" data-name="Trazado 840967" d="M150.615,173.889l22.717-1.756-9.8,24.8a33.161,33.161,0,0,1-14.572-8.1,9.457,9.457,0,0,1,.66-14.15Z" transform="translate(36.619 0)" fill="#ffc3bd"/>
        <path id="Trazado_840968" data-name="Trazado 840968" d="M155.895,188.095l-3.767,6.912-11.308,3.921-8.617-2,9.8-24.8,7.138,9.877Z" transform="translate(67.951 0)" fill="#ffc3bd"/>
        <path id="Trazado_840969" data-name="Trazado 840969" d="M129.893,172.133l10.382,3.147,6.73,6.475-1.9,4.19-6.983-4.951-9.13,1.388Z" transform="translate(80.058 0)" fill="#ffc3bd"/>
        <path id="Trazado_840970" data-name="Trazado 840970" d="M124.162,173.442s4.483,4.06,4.642,6.663-.572,2.222-1.4,3.555-1.345,59.518-1.345,59.518c6.328,2.581,11.365-1.9,12.9,2.581,0,0-3.651-62.811-3.682-64.765s-4.6-6.053-7.872-6.856Z" transform="translate(92.926 0)" fill="#ffd54f"/>
        <g id="Grupo_1078296" data-name="Grupo 1078296" transform="translate(217.053 173.442)" opacity="0.3">
          <g id="Grupo_1078295" data-name="Grupo 1078295" transform="translate(0)">
            <g id="Grupo_1078294" data-name="Grupo 1078294" transform="translate(0)" clip-path="url(#clip-path-12)">
              <path id="Trazado_840971" data-name="Trazado 840971" d="M124.162,173.442s4.483,4.06,4.642,6.663-.572,2.222-1.4,3.555-1.345,59.518-1.345,59.518c6.328,2.581,11.365-1.9,12.9,2.581,0,0-3.651-62.811-3.682-64.765s-4.6-6.053-7.872-6.856Z" transform="translate(-124.162 -173.442)" fill="#fff"/>
            </g>
          </g>
        </g>
        <g id="Grupo_1078299" data-name="Grupo 1078299" transform="translate(221.179 201.532)" opacity="0.2">
          <g id="Grupo_1078298" data-name="Grupo 1078298" transform="translate(0)">
            <g id="Grupo_1078297" data-name="Grupo 1078297" transform="translate(0)" clip-path="url(#clip-path-13)">
              <path id="Trazado_840972" data-name="Trazado 840972" d="M134.645,243.774s1.016-40.878-1.27-42.212-4.613,42.261-4.613,42.261a18.472,18.472,0,0,0,5.883-.049" transform="translate(-128.762 -201.532)"/>
            </g>
          </g>
        </g>
        <g id="Grupo_1078302" data-name="Grupo 1078302" transform="translate(220.027 180.446)" opacity="0.2">
          <g id="Grupo_1078301" data-name="Grupo 1078301" transform="translate(0)">
            <g id="Grupo_1078300" data-name="Grupo 1078300" transform="translate(0)" clip-path="url(#clip-path-14)">
              <path id="Trazado_840973" data-name="Trazado 840973" d="M130.877,180.9s5.758-1.238,5.091.381-6.813,5.529-6.813,5.529a23.931,23.931,0,0,1,.275-3.068,3.545,3.545,0,0,1,.6-.812,2.165,2.165,0,0,0,.846-2.03" transform="translate(-129.155 -180.446)"/>
            </g>
          </g>
        </g>
        <path id="Trazado_840974" data-name="Trazado 840974" d="M203.03,16.44c19.808,5.366,23.311,17.7,19.233,38.5-.106.539-.324,1.6-.324,1.6,6.94,15.344-12.435,40.559-38.63,28.831C150.742,70.8,170.134,7.529,203.03,16.44" transform="translate(-34.264 0)" fill="#eec1bb"/>
        <path id="Trazado_840975" data-name="Trazado 840975" d="M179.307,50.368a43.381,43.381,0,0,0,3.538,9.776,5.64,5.64,0,0,1-5.828.827Z" transform="translate(-3.813 0)" fill="#d4827d"/>
        <path id="Trazado_840976" data-name="Trazado 840976" d="M196.194,45.464c-.4,1.638-1.614,2.747-2.706,2.479s-1.65-1.814-1.247-3.451,1.614-2.747,2.706-2.479,1.65,1.814,1.247,3.451" transform="translate(-32.386 0)" fill="#263238"/>
        <path id="Trazado_840977" data-name="Trazado 840977" d="M190.058,41.98l3.9-.521s-2.51,2.561-3.9.521" transform="translate(-27.972 0)" fill="#263238"/>
        <path id="Trazado_840978" data-name="Trazado 840978" d="M175.755,50.129c-.4,1.637-1.614,2.747-2.706,2.479s-1.65-1.814-1.247-3.451,1.614-2.747,2.705-2.479,1.65,1.814,1.248,3.451" transform="translate(8.493 0)" fill="#263238"/>
        <path id="Trazado_840979" data-name="Trazado 840979" d="M169.618,46.645l3.9-.521s-2.51,2.561-3.9.521" transform="translate(12.908 0)" fill="#263238"/>
        <path id="Trazado_840980" data-name="Trazado 840980" d="M194.623,52.2a4.116,4.116,0,0,0,2.26-.147c2.483-.9,3.416-4.042,3.454-4.175a.6.6,0,0,0-.41-.744.61.61,0,0,0-.746.408c-.008.028-.807,2.69-2.714,3.381a4.1,4.1,0,0,1-3.668-.835.6.6,0,0,0-.67,1,7.059,7.059,0,0,0,2.494,1.113" transform="translate(-36.174 0)" fill="#d4827d"/>
        <path id="Trazado_840981" data-name="Trazado 840981" d="M174.992,57.545a8.706,8.706,0,0,0,1.984.152.6.6,0,0,0-.034-1.2,4.754,4.754,0,0,1-3.886-1.3,4.821,4.821,0,0,1-.906-3.542.6.6,0,0,0-1.189-.194,5.984,5.984,0,0,0,1.184,4.522,4.958,4.958,0,0,0,2.847,1.564" transform="translate(7.584 0)" fill="#d4827d"/>
        <path id="Trazado_840982" data-name="Trazado 840982" d="M190.155,63.621a.6.6,0,0,0,.6-.229c4.28-5.718,12.5-5.153,12.585-5.147a.6.6,0,0,0,.646-.554.593.593,0,0,0-.554-.646c-.364-.028-8.969-.617-13.642,5.626a.6.6,0,0,0,.363.95" transform="translate(-37.613 0)" fill="#d4827d"/>
        <path id="Trazado_840983" data-name="Trazado 840983" d="M183.473,21.965s.143-.385.229-.578C189.221,9.06,200.018,7.51,200.018,7.51c3.261-7.4,10.474-8.077,17.634-7.22,7.181.868,10.978,7,19.916,6.833,8.947-.189,17.328,17.013,18.936,23.536s1.1,9.8-1.466,12.347c-2.552,2.577-1.2,3.709-.762,7.968.3,2.929-6.058,5.587-7.007-1.182-.486,1.734-.9,2.765-.9,2.765q.327-1.437.528-2.771c6.281-37.36-35.278-32.2-35.278-32.2-2,12.952-15.659,26.726-15.659,26.726C189.923,50.444,190,59.686,190.9,64.5a23.278,23.278,0,0,0,1.052,3.717c-.8-1.151-3.7,5.614-3.7,5.614l-5.587,9.718a42.5,42.5,0,0,1-18.283,2.217c-4.07-.589-6.357-3.5-7.872-8.126,4.15-4.839,7.647-10.285,8.713-17.991,1.273-7.38,3.993-14.211,9.652-19.929,4.621-6.429,8.341-12.6,8.6-17.752" transform="translate(-57.885 0)" fill="#263238"/>
        <g id="Grupo_1078305" data-name="Grupo 1078305" transform="translate(98.626)" opacity="0.4">
          <g id="Grupo_1078304" data-name="Grupo 1078304" transform="translate(0)">
            <g id="Grupo_1078303" data-name="Grupo 1078303" transform="translate(0)" clip-path="url(#clip-path-15)">
              <path id="Trazado_840984" data-name="Trazado 840984" d="M183.473,21.965s.143-.385.229-.578C189.221,9.06,200.018,7.51,200.018,7.51c3.261-7.4,10.474-8.077,17.634-7.22,7.181.868,10.978,7,19.916,6.833,8.947-.189,17.328,17.013,18.936,23.536s1.1,9.8-1.466,12.347c-2.552,2.577-1.2,3.709-.762,7.968.3,2.929-6.058,5.587-7.007-1.182-.486,1.734-.9,2.765-.9,2.765q.327-1.437.528-2.771c6.281-37.36-35.278-32.2-35.278-32.2-2,12.952-15.659,26.726-15.659,26.726C189.923,50.444,190,59.686,190.9,64.5a23.278,23.278,0,0,0,1.052,3.717c-.8-1.151-3.7,5.614-3.7,5.614l-5.587,9.718a42.5,42.5,0,0,1-18.283,2.217c-4.07-.589-6.357-3.5-7.872-8.126,4.15-4.839,7.647-10.285,8.713-17.991,1.273-7.38,3.993-14.211,9.652-19.929,4.621-6.429,8.341-12.6,8.6-17.752" transform="translate(-156.511 0)" fill="#fff"/>
            </g>
          </g>
        </g>
        <path id="Trazado_840985" data-name="Trazado 840985" d="M229.908,49.018c.732-3.225-1.1-9.514-7.2-10.474-6.319-.993-12.658,10.816,1.789,17.981,2.073,1.029,3.889-.778,5.415-7.507" transform="translate(-89.732 0)" fill="#eec1bb"/>
        <path id="Trazado_840986" data-name="Trazado 840986" d="M189.021,34.781a.871.871,0,0,0,.791-.365c2.557-3.617,7.852-3.332,7.9-3.328a.872.872,0,0,0,.132-1.739l-.023,0c-.257-.016-6.326-.339-9.439,4.063a.872.872,0,0,0,.634,1.372" transform="translate(-30.822 0)" fill="#263238"/>
        <g id="Grupo_1078308" data-name="Grupo 1078308" transform="translate(157.405 29.336)" opacity="0.2">
          <g id="Grupo_1078307" data-name="Grupo 1078307" transform="translate(0)">
            <g id="Grupo_1078306" data-name="Grupo 1078306" transform="translate(0)" clip-path="url(#clip-path-16)">
              <path id="Trazado_840987" data-name="Trazado 840987" d="M189.021,34.781a.871.871,0,0,0,.791-.365c2.557-3.617,7.852-3.332,7.9-3.328a.872.872,0,0,0,.132-1.739l-.023,0c-.257-.016-6.326-.339-9.439,4.063a.872.872,0,0,0,.634,1.372" transform="translate(-188.227 -29.336)" fill="#fff"/>
            </g>
          </g>
        </g>
        <path id="Trazado_840988" data-name="Trazado 840988" d="M173.1,40.028a.873.873,0,0,0,1.306-1.1c-2.713-5.179-6.834-5.843-7.008-5.867a.872.872,0,0,0-.259,1.724c.151.025,3.443.608,5.721,4.952a.871.871,0,0,0,.24.286" transform="translate(15.135 0)" fill="#263238"/>
        <g id="Grupo_1078311" data-name="Grupo 1078311" transform="translate(181.539 33.056)" opacity="0.2">
          <g id="Grupo_1078310" data-name="Grupo 1078310" transform="translate(0)">
            <g id="Grupo_1078309" data-name="Grupo 1078309" transform="translate(0)" clip-path="url(#clip-path-17)">
              <path id="Trazado_840989" data-name="Trazado 840989" d="M173.1,40.028a.873.873,0,0,0,1.306-1.1c-2.713-5.179-6.834-5.843-7.008-5.867a.872.872,0,0,0-.259,1.724c.151.025,3.443.608,5.721,4.952a.871.871,0,0,0,.24.286" transform="translate(-166.404 -33.056)" fill="#fff"/>
            </g>
          </g>
        </g>
        <path id="Trazado_840990" data-name="Trazado 840990" d="M194.27,69.134c.533,0,1.081-.019,1.645-.06a.212.212,0,0,0-.03-.422c-11.145.8-16.037-6.858-16.085-6.936a.212.212,0,0,0-.36.223c.048.076,4.59,7.2,14.83,7.2" transform="translate(-19.471 0)" fill="#263238"/>
        <path id="Trazado_840991" data-name="Trazado 840991" d="M171.67,58.79a6.8,6.8,0,1,0-6.8-6.8,6.809,6.809,0,0,0,6.8,6.8m0-12.756a5.955,5.955,0,1,1-5.955,5.955,5.961,5.961,0,0,1,5.955-5.955" transform="translate(12.709 0)" fill="#263238"/>
        <path id="Trazado_840992" data-name="Trazado 840992" d="M190.963,53.58a6.8,6.8,0,1,0-6.8-6.8,6.809,6.809,0,0,0,6.8,6.8m0-12.756a5.955,5.955,0,1,1-5.955,5.955,5.961,5.961,0,0,1,5.955-5.955" transform="translate(-25.877 0)" fill="#263238"/>
        <path id="Trazado_840993" data-name="Trazado 840993" d="M184.047,50.45l.831-.16c-.013-.071-.356-1.763-2.918-2.705a6.242,6.242,0,0,0-4.544.014l.359.767a5.492,5.492,0,0,1,3.893.013c2.081.765,2.368,2.018,2.379,2.071" transform="translate(-6.245 0)" fill="#263238"/>
        <rect id="Rectángulo_381195" data-name="Rectángulo 381195" width="20.628" height="0.846" transform="translate(158.601 46.023) rotate(-165.356)" fill="#263238"/>
        <path id="Trazado_841052" data-name="Trazado 841052" d="M0,0H338.976V15.8H0Z" transform="translate(9.019 243.733)" fill="#ffd54f"/>
        <path id="Trazado_840994" data-name="Trazado 840994" d="M3.951,243.733H352.1a3.951,3.951,0,1,1,0,7.9H3.951a3.951,3.951,0,1,1,0-7.9" transform="translate(-0.001 0)" fill="#ffd54f"/>
        <g id="Grupo_1078317" data-name="Grupo 1078317" transform="translate(0 243.73)" opacity="0.4">
          <g id="Grupo_1078316" data-name="Grupo 1078316">
            <g id="Grupo_1078315" data-name="Grupo 1078315" clip-path="url(#clip-path-18)">
              <path id="Trazado_840995" data-name="Trazado 840995" d="M3.951,243.733H352.1a3.951,3.951,0,1,1,0,7.9H3.951a3.951,3.951,0,1,1,0-7.9" transform="translate(-0.001 -243.733)" fill="#fafafa"/>
            </g>
          </g>
        </g>
      </g>
    </g>
    <g id="Grupo_1078342" data-name="Grupo 1078342">
      <g id="Grupo_1078341" data-name="Grupo 1078341" clip-path="url(#clip-path)">
        <path id="Trazado_840996" data-name="Trazado 840996" d="M241.122,202.936l0,0,.027.045c.025.04.051.078.076.12s.053.1.079.149L255.071,227.1l-14.8-23.436c-.379-.652-.473-1.3-.21-1.459.24-.139.692.185,1.058.736m-.9-.428c-.116.067-.08.349.082.631s.387.455.5.388.08-.349-.082-.63-.387-.456-.5-.389" transform="translate(-138.937 0)" fill="#263238"/>
        <g id="Grupo_1078322" data-name="Grupo 1078322" transform="translate(100.978 202.168)" opacity="0.2">
          <g id="Grupo_1078321" data-name="Grupo 1078321" transform="translate(0)">
            <g id="Grupo_1078320" data-name="Grupo 1078320" transform="translate(0)" clip-path="url(#clip-path-20)">
              <path id="Trazado_840997" data-name="Trazado 840997" d="M241.122,202.936l0,0,.027.045c.025.04.051.078.076.12s.053.1.079.149L255.071,227.1l-14.8-23.436c-.379-.652-.473-1.3-.21-1.459.24-.139.692.185,1.058.736m-.9-.428c-.116.067-.08.349.082.631s.387.455.5.388.08-.349-.082-.63-.387-.456-.5-.389" transform="translate(-239.915 -202.168)" fill="#fff"/>
            </g>
          </g>
        </g>
        <path id="Trazado_840998" data-name="Trazado 840998" d="M209.017,196.321v.005l-.028.045c-.023.041-.044.082-.07.123s-.064.093-.1.139l-14.729,23.258,13.89-23.985c.4-.638.936-1.025,1.194-.862.235.147.157.7-.16,1.277m-.04-1c-.113-.072-.346.091-.521.365s-.223.554-.11.627.346-.092.52-.366.224-.554.111-.626" transform="translate(-47.359 0)" fill="#263238"/>
        <g id="Grupo_1078325" data-name="Grupo 1078325" transform="translate(146.735 195.006)" opacity="0.2">
          <g id="Grupo_1078324" data-name="Grupo 1078324" transform="translate(0)">
            <g id="Grupo_1078323" data-name="Grupo 1078323" transform="translate(0)" clip-path="url(#clip-path-21)">
              <path id="Trazado_840999" data-name="Trazado 840999" d="M209.017,196.321v.005l-.028.045c-.023.041-.044.082-.07.123s-.064.093-.1.139l-14.729,23.258,13.89-23.985c.4-.638.936-1.025,1.194-.862.235.147.157.7-.16,1.277m-.04-1c-.113-.072-.346.091-.521.365s-.223.554-.11.627.346-.092.52-.366.224-.554.111-.626" transform="translate(-194.093 -195.006)" fill="#fff"/>
            </g>
          </g>
        </g>
        <path id="Trazado_841000" data-name="Trazado 841000" d="M224.108,194.219l0,.005-.006.052c0,.047,0,.093-.008.142s-.016.111-.024.167L221.2,221.964l1.8-27.658c.076-.75.384-1.334.687-1.3.276.028.451.556.424,1.216m-.478-.875c-.133-.014-.27.236-.3.558s.045.6.179.611.269-.236.3-.559-.045-.6-.179-.61" transform="translate(-89.258 0)" fill="#263238"/>
        <g id="Grupo_1078328" data-name="Grupo 1078328" transform="translate(131.938 193.001)" opacity="0.2">
          <g id="Grupo_1078327" data-name="Grupo 1078327" transform="translate(0)">
            <g id="Grupo_1078326" data-name="Grupo 1078326" transform="translate(0)" clip-path="url(#clip-path-22)">
              <path id="Trazado_841001" data-name="Trazado 841001" d="M224.108,194.219l0,.005-.006.052c0,.047,0,.093-.008.142s-.016.111-.024.167L221.2,221.964l1.8-27.658c.076-.75.384-1.334.687-1.3.276.028.451.556.424,1.216m-.478-.875c-.133-.014-.27.236-.3.558s.045.6.179.611.269-.236.3-.559-.045-.6-.179-.61" transform="translate(-221.196 -193.001)" fill="#fff"/>
            </g>
          </g>
        </g>
        <path id="Trazado_841002" data-name="Trazado 841002" d="M232.709,199.278l0,0,.021.048c.021.042.043.083.062.127s.041.105.061.158l10.947,25.26L231.784,199.9c-.3-.691-.321-1.35-.041-1.473.254-.111.666.263.966.852m-.846-.528c-.123.053-.119.338.009.636s.332.5.456.444.119-.338-.009-.636-.333-.5-.456-.444" transform="translate(-119.3 0)" fill="#263238"/>
        <g id="Grupo_1078331" data-name="Grupo 1078331" transform="translate(112.245 198.407)" opacity="0.2">
          <g id="Grupo_1078330" data-name="Grupo 1078330" transform="translate(0)">
            <g id="Grupo_1078329" data-name="Grupo 1078329" transform="translate(0)" clip-path="url(#clip-path-23)">
              <path id="Trazado_841003" data-name="Trazado 841003" d="M232.709,199.278l0,0,.021.048c.021.042.043.083.062.127s.041.105.061.158l10.947,25.26L231.784,199.9c-.3-.691-.321-1.35-.041-1.473.254-.111.666.263.966.852m-.846-.528c-.123.053-.119.338.009.636s.332.5.456.444.119-.338-.009-.636-.333-.5-.456-.444" transform="translate(-231.545 -198.407)" fill="#fff"/>
            </g>
          </g>
        </g>
        <rect id="Rectángulo_381205" data-name="Rectángulo 381205" width="50.933" height="7.703" transform="translate(106.602 235.528)" fill="#ffd54f"/>
        <path id="Trazado_841004" data-name="Trazado 841004" d="M198.514,235.529h50.933s.738-23.856-25.467-23.856-25.466,23.856-25.466,23.856" transform="translate(-91.912 0)" fill="#ffd54f"/>
        <g id="Grupo_1078334" data-name="Grupo 1078334" transform="translate(99 211.641)" opacity="0.5">
          <g id="Grupo_1078333" data-name="Grupo 1078333" transform="translate(8)">
            <g id="Grupo_1078332" data-name="Grupo 1078332" transform="translate(0)" clip-path="url(#clip-path-24)">
              <path id="Trazado_841005" data-name="Trazado 841005" d="M198.514,235.529h50.933s.738-23.856-25.467-23.856-25.466,23.856-25.466,23.856" transform="translate(-198.512 -211.672)" fill="#fff"/>
            </g>
          </g>
        </g>
        <path id="Trazado_841006" data-name="Trazado 841006" d="M229.617,192.413l.005.005.013.072c.014.064.031.126.043.192s.023.155.033.232l4.406,24.324-.546.009-5.4-24.286c-.19-1.03-.007-1.928.409-2,.379-.071.818.565,1.038,1.456m-.977-.981c-.184.033-.268.419-.189.863s.293.776.476.744.268-.419.189-.863-.292-.777-.476-.744" transform="translate(-106.163 0)" fill="#263238"/>
        <g id="Grupo_1078337" data-name="Grupo 1078337" transform="translate(121.932 190.952)" opacity="0.2">
          <g id="Grupo_1078336" data-name="Grupo 1078336" transform="translate(0)">
            <g id="Grupo_1078335" data-name="Grupo 1078335" transform="translate(0)" clip-path="url(#clip-path-25)">
              <path id="Trazado_841007" data-name="Trazado 841007" d="M229.617,192.413l.005.005.013.072c.014.064.031.126.043.192s.023.155.033.232l4.406,24.324-.546.009-5.4-24.286c-.19-1.03-.007-1.928.409-2,.379-.071.818.565,1.038,1.456m-.977-.981c-.184.033-.268.419-.189.863s.293.776.476.744.268-.419.189-.863-.292-.777-.476-.744" transform="translate(-228.095 -190.951)" fill="#fff"/>
            </g>
          </g>
        </g>
        <path id="Trazado_841008" data-name="Trazado 841008" d="M214.953,200.352l0,.007-.02.07c-.014.064-.025.127-.043.192s-.045.15-.069.224L208.35,224.7l-.5-.226,5.558-24.251c.271-1.012.822-1.744,1.231-1.634.372.1.495.862.311,1.761m-.461-1.306c-.18-.049-.422.263-.541.7s-.07.827.11.876.422-.263.541-.7.07-.827-.11-.876" transform="translate(-66.841 0)" fill="#263238"/>
        <g id="Grupo_1078340" data-name="Grupo 1078340" transform="translate(141.011 198.58)" opacity="0.2">
          <g id="Grupo_1078339" data-name="Grupo 1078339" transform="translate(0)">
            <g id="Grupo_1078338" data-name="Grupo 1078338" transform="translate(0)" clip-path="url(#clip-path-26)">
              <path id="Trazado_841009" data-name="Trazado 841009" d="M214.953,200.352l0,.007-.02.07c-.014.064-.025.127-.043.192s-.045.15-.069.224L208.35,224.7l-.5-.226,5.558-24.251c.271-1.012.822-1.744,1.231-1.634.372.1.495.862.311,1.761m-.461-1.306c-.18-.049-.422.263-.541.7s-.07.827.11.876.422-.263.541-.7.07-.827-.11-.876" transform="translate(-207.852 -198.58)" fill="#fff"/>
            </g>
          </g>
        </g>
      </g>
    </g>
    <path id="Trazado_841010" data-name="Trazado 841010" d="M328.933,241.19,321.569,202.6l8.181-10.727,3.671.626-3.5,8.216,1.873,43.131Z" transform="translate(-298.941 0)" fill="#407bff"/>
    <g id="Grupo_1078362" data-name="Grupo 1078362">
      <g id="Grupo_1078361" data-name="Grupo 1078361" clip-path="url(#clip-path)">
        <g id="Grupo_1078345" data-name="Grupo 1078345" transform="translate(22.628 191.871)" opacity="0.5">
          <g id="Grupo_1078344" data-name="Grupo 1078344" transform="translate(0)">
            <g id="Grupo_1078343" data-name="Grupo 1078343" transform="translate(0)" clip-path="url(#clip-path-28)">
              <path id="Trazado_841011" data-name="Trazado 841011" d="M328.933,241.19,321.569,202.6l8.181-10.727,3.671.626-3.5,8.216,1.873,43.131Z" transform="translate(-321.569 -191.871)" fill="#fff"/>
            </g>
          </g>
        </g>
        <path id="Trazado_841012" data-name="Trazado 841012" d="M316.9,192.753l-6.39-1.09s-1.361-21.165-1.109-19.39c.277,1.943-1.28-10.468,7.6-11.261,6.235-.557,11.529,2.947,10.472,12.42S317.414,188.1,316.9,192.753m7.383-18.913c.748-5.459-1.372-10.258-4.734-10.719s-6.7,3.592-7.443,9.051,1.372,10.258,4.735,10.719,6.7-3.592,7.442-9.051" transform="translate(-280.922 0)" fill="#895cd8"/>
        <path id="Trazado_841014" data-name="Trazado 841014" d="M329.684,175.951c-2.735-9.131,1.847-13.525,8.081-14.092,8.878-.808,9.566,11.681,9.491,9.72-.069-1.792,2.376,19.275,2.376,19.275l-6.091,2.216c-1.341-4.487-11.123-7.988-13.857-17.119m12.151,7.405c3.226-1.055,4.453-6.155,2.741-11.392s-5.715-8.629-8.941-7.574-4.453,6.155-2.741,11.392,5.715,8.629,8.941,7.574" transform="translate(-322.459 0)" fill="#895cd8"/>
        <path id="Trazado_841016" data-name="Trazado 841016" d="M333.2,239.656l.343-39.286-9.968-9.091-3.5,1.273,4.914,7.458,5.871,42.769Z" transform="translate(-297.568 0)" fill="#407bff"/>
        <g id="Grupo_1078354" data-name="Grupo 1078354" transform="translate(22.507 191.279)" opacity="0.7">
          <g id="Grupo_1078353" data-name="Grupo 1078353" transform="translate(0)">
            <g id="Grupo_1078352" data-name="Grupo 1078352" transform="translate(0)" clip-path="url(#clip-path-29)">
              <path id="Trazado_841017" data-name="Trazado 841017" d="M333.2,239.656l.343-39.286-9.968-9.091-3.5,1.273,4.914,7.458,5.871,42.769Z" transform="translate(-320.075 -191.279)" fill="#fff"/>
            </g>
          </g>
        </g>
        <path id="Trazado_841018" data-name="Trazado 841018" d="M326.253,202.134a1.6,1.6,0,1,0-2.267-.038,1.6,1.6,0,0,0,2.267.038" transform="translate(-294.229 0)" fill="#407bff"/>
        <g id="Grupo_1078357" data-name="Grupo 1078357" transform="translate(29.307 199.379)" opacity="0.2">
          <g id="Grupo_1078356" data-name="Grupo 1078356" transform="translate(0)">
            <g id="Grupo_1078355" data-name="Grupo 1078355" transform="translate(0)" clip-path="url(#clip-path-30)">
              <path id="Trazado_841019" data-name="Trazado 841019" d="M326.253,202.134a1.6,1.6,0,1,0-2.267-.038,1.6,1.6,0,0,0,2.267.038" transform="translate(-323.536 -199.379)" fill="#fff"/>
            </g>
          </g>
        </g>
        <path id="Trazado_841020" data-name="Trazado 841020" d="M307.307,204.331h27.986v36.738a2.189,2.189,0,0,1-2.278,2.394H309.6a2.281,2.281,0,0,1-2.29-2.287Z" transform="translate(-286.551 0)" fill="#407bff"/>
        <g id="Grupo_1078360" data-name="Grupo 1078360" transform="translate(20.756 204.331)" opacity="0.3">
          <g id="Grupo_1078359" data-name="Grupo 1078359" transform="translate(0)">
            <g id="Grupo_1078358" data-name="Grupo 1078358" transform="translate(0)" clip-path="url(#clip-path-31)">
              <path id="Trazado_841021" data-name="Trazado 841021" d="M307.307,204.331h27.986v36.738a2.189,2.189,0,0,1-2.278,2.394H309.6a2.281,2.281,0,0,1-2.29-2.287Z" transform="translate(-307.307 -204.331)" fill="#727997"/>
            </g>
          </g>
        </g>
      </g>
    </g>
    <g id="Grupo_1078367" data-name="Grupo 1078367">
      <g id="Grupo_1078366" data-name="Grupo 1078366" clip-path="url(#clip-path)">
        <path id="Trazado_841022" data-name="Trazado 841022" d="M74.82,204.822H99.4a3.346,3.346,0,1,0,0-6.691H74.82a3.346,3.346,0,1,0,0,6.691" transform="translate(181.825 0)" fill="#263238"/>
        <path id="Trazado_841023" data-name="Trazado 841023" d="M74.82,243.543H99.4a3.346,3.346,0,1,0,0-6.691H74.82a3.346,3.346,0,1,0,0,6.691" transform="translate(181.825 0)" fill="#263238"/>
        <rect id="Rectángulo_381217" data-name="Rectángulo 381217" width="20.219" height="32.03" transform="translate(258.828 204.822)" fill="#673ab7"/>
        <g id="Grupo_1078365" data-name="Grupo 1078365" transform="translate(252.602 204.822)" opacity="0.3">
          <g id="Grupo_1078364" data-name="Grupo 1078364" transform="translate(6)">
            <g id="Grupo_1078363" data-name="Grupo 1078363" transform="translate(0)" clip-path="url(#clip-path-33)">
              <rect id="Rectángulo_381218" data-name="Rectángulo 381218" width="20.219" height="32.03" transform="translate(0 0.001)" fill="#fff"/>
            </g>
          </g>
        </g>
        <path id="Trazado_841024" data-name="Trazado 841024" d="M97.221,211.662,77,216.875v.842l20.219-5.423Z" transform="translate(181.825 0)" fill="#407bff"/>
        <path id="Trazado_841025" data-name="Trazado 841025" d="M97.221,213.031,77,218.244v.842l20.219-5.423Z" transform="translate(181.825 0)" fill="#407bff"/>
        <path id="Trazado_841026" data-name="Trazado 841026" d="M97.221,214.4,77,219.613v.842l20.219-5.423Z" transform="translate(181.825 0)" fill="#407bff"/>
        <path id="Trazado_841027" data-name="Trazado 841027" d="M97.221,215.769,77,220.982v.842L97.221,216.4Z" transform="translate(181.825 0)" fill="#407bff"/>
        <path id="Trazado_841028" data-name="Trazado 841028" d="M97.221,217.19,77,222.4v.842l20.219-5.423Z" transform="translate(181.825 0)" fill="#407bff"/>
        <path id="Trazado_841029" data-name="Trazado 841029" d="M97.221,218.487,77,223.7v.842l20.219-5.423Z" transform="translate(181.825 0)" fill="#407bff"/>
        <path id="Trazado_841030" data-name="Trazado 841030" d="M85.343,223.982l-7.266-2.468L77,221.739l8.341,3.007Z" transform="translate(193.703 0)" fill="#407bff"/>
        <path id="Trazado_841031" data-name="Trazado 841031" d="M87.337,225.217l-9.222-3.252L77,222.24l10.335,3.733Z" transform="translate(191.709 0)" fill="#407bff"/>
        <path id="Trazado_841032" data-name="Trazado 841032" d="M89.152,226.384l-10.939-3.915L77,222.706l12.15,4.442Z" transform="translate(189.894 0)" fill="#407bff"/>
        <path id="Trazado_841033" data-name="Trazado 841033" d="M91.164,227.644,78.435,222.9,77,223.3l14.162,5.1Z" transform="translate(187.882 0)" fill="#407bff"/>
      </g>
    </g>
    <g id="Grupo_1078420" data-name="Grupo 1078420">
      <g id="Grupo_1078419" data-name="Grupo 1078419" clip-path="url(#clip-path)">
        <path id="Trazado_841034" data-name="Trazado 841034" d="M41.411,199.684A21.966,21.966,0,1,0,63.377,221.65a21.966,21.966,0,0,0-21.966-21.966" transform="translate(273.227 0)" fill="#895cd8"/>
        <g id="Grupo_1078370" data-name="Grupo 1078370" transform="translate(298.047 211.141)" opacity="0.7">
          <g id="Grupo_1078369" data-name="Grupo 1078369" transform="translate(0)">
            <g id="Grupo_1078368" data-name="Grupo 1078368" transform="translate(0)" clip-path="url(#clip-path-35)">
              <path id="Trazado_841035" data-name="Trazado 841035" d="M58,212.3c-15.5,3.224-27.318,11.519-35.523,24.771l-.945-1.03a56.337,56.337,0,0,1,35.885-24.9Z" transform="translate(-21.536 -211.141)" fill="#fff"/>
            </g>
          </g>
        </g>
        <g id="Grupo_1078373" data-name="Grupo 1078373" transform="translate(296.467 208.952)" opacity="0.7">
          <g id="Grupo_1078372" data-name="Grupo 1078372" transform="translate(0)">
            <g id="Grupo_1078371" data-name="Grupo 1078371" clip-path="url(#clip-path-36)">
              <path id="Trazado_841036" data-name="Trazado 841036" d="M59.581,210.018c-15.307,3.679-27.465,11.817-35.992,25.1L22.774,234c8.468-12.972,20.566-21.234,36.1-25.044Z" transform="translate(-22.773 -208.952)" fill="#fff"/>
            </g>
          </g>
        </g>
        <g id="Grupo_1078376" data-name="Grupo 1078376" transform="translate(295.148 206.948)" opacity="0.7">
          <g id="Grupo_1078375" data-name="Grupo 1078375">
            <g id="Grupo_1078374" data-name="Grupo 1078374" clip-path="url(#clip-path-37)">
              <path id="Trazado_841037" data-name="Trazado 841037" d="M60.9,207.928C44.834,212.3,32.492,220.309,24.94,233l-.682-1.212c7.757-12.832,20.133-20.636,35.81-24.844Z" transform="translate(-24.259 -206.947)" fill="#fff"/>
            </g>
          </g>
        </g>
        <g id="Grupo_1078379" data-name="Grupo 1078379" transform="translate(294.06 205.074)" opacity="0.7">
          <g id="Grupo_1078378" data-name="Grupo 1078378" transform="translate(0)">
            <g id="Grupo_1078377" data-name="Grupo 1078377" clip-path="url(#clip-path-38)">
              <path id="Trazado_841038" data-name="Trazado 841038" d="M61.989,205.966c-15.374,3.93-27.518,11.752-35.414,24.694l-.542-1.308c7.9-12.681,19.828-20.455,34.992-24.277Z" transform="translate(-26.033 -205.074)" fill="#fff"/>
            </g>
          </g>
        </g>
        <g id="Grupo_1078382" data-name="Grupo 1078382" transform="translate(293.244 203.364)" opacity="0.7">
          <g id="Grupo_1078381" data-name="Grupo 1078381" transform="translate(0)">
            <g id="Grupo_1078380" data-name="Grupo 1078380" clip-path="url(#clip-path-39)">
              <path id="Trazado_841039" data-name="Trazado 841039" d="M62.8,204.157C47.851,208.049,36.092,215.65,28.5,228.08l-.371-1.427c7.377-12.217,18.866-19.63,33.568-23.289Z" transform="translate(-28.124 -203.364)" fill="#fff"/>
            </g>
          </g>
        </g>
        <g id="Grupo_1078385" data-name="Grupo 1078385" transform="translate(309.925 223.362)" opacity="0.5">
          <g id="Grupo_1078384" data-name="Grupo 1078384" transform="translate(0)">
            <g id="Grupo_1078383" data-name="Grupo 1078383" transform="translate(0)" clip-path="url(#clip-path-40)">
              <path id="Trazado_841040" data-name="Trazado 841040" d="M30.932,224.1a60.056,60.056,0,0,1,14.36,17.284l.832-.444a74.577,74.577,0,0,0-14.3-17.582Z" transform="translate(-30.932 -223.361)" fill="#fff"/>
            </g>
          </g>
        </g>
        <g id="Grupo_1078388" data-name="Grupo 1078388" transform="translate(311.405 222.158)" opacity="0.5">
          <g id="Grupo_1078387" data-name="Grupo 1078387" transform="translate(0)">
            <g id="Grupo_1078386" data-name="Grupo 1078386" transform="translate(0)" clip-path="url(#clip-path-41)">
              <path id="Trazado_841041" data-name="Trazado 841041" d="M29.256,222.873a73.187,73.187,0,0,1,14.6,17.572l.788-.5a86.951,86.951,0,0,0-14.472-17.79Z" transform="translate(-29.256 -222.158)" fill="#fff"/>
            </g>
          </g>
        </g>
        <g id="Grupo_1078391" data-name="Grupo 1078391" transform="translate(312.938 221.015)" opacity="0.5">
          <g id="Grupo_1078390" data-name="Grupo 1078390" transform="translate(0)">
            <g id="Grupo_1078389" data-name="Grupo 1078389" clip-path="url(#clip-path-42)">
              <path id="Trazado_841042" data-name="Trazado 841042" d="M27.715,221.7A73.883,73.883,0,0,1,42.4,239.369l.712-.588a63.326,63.326,0,0,0-14.453-17.766Z" transform="translate(-27.715 -221.015)" fill="#fff"/>
            </g>
          </g>
        </g>
        <g id="Grupo_1078394" data-name="Grupo 1078394" transform="translate(314.519 219.93)" opacity="0.5">
          <g id="Grupo_1078393" data-name="Grupo 1078393" transform="translate(0)">
            <g id="Grupo_1078392" data-name="Grupo 1078392" transform="translate(0)" clip-path="url(#clip-path-43)">
              <path id="Trazado_841043" data-name="Trazado 841043" d="M26.239,220.574c6.11,5.178,11.29,11.021,14.609,17.584l.682-.625a50.089,50.089,0,0,0-14.321-17.6Z" transform="translate(-26.239 -219.93)" fill="#fff"/>
            </g>
          </g>
        </g>
        <g id="Grupo_1078397" data-name="Grupo 1078397" transform="translate(316.28 218.809)" opacity="0.5">
          <g id="Grupo_1078396" data-name="Grupo 1078396" transform="translate(0)">
            <g id="Grupo_1078395" data-name="Grupo 1078395" clip-path="url(#clip-path-44)">
              <path id="Trazado_841044" data-name="Trazado 841044" d="M24.77,219.386a46.729,46.729,0,0,1,14.36,17.285l.638-.683a41.562,41.562,0,0,0-13.976-17.179Z" transform="translate(-24.77 -218.809)" fill="#fff"/>
            </g>
          </g>
        </g>
        <g id="Grupo_1078400" data-name="Grupo 1078400" transform="translate(318.174 217.745)" opacity="0.5">
          <g id="Grupo_1078399" data-name="Grupo 1078399" transform="translate(0)">
            <g id="Grupo_1078398" data-name="Grupo 1078398" transform="translate(0)" clip-path="url(#clip-path-45)">
              <path id="Trazado_841045" data-name="Trazado 841045" d="M23.419,218.307c5.944,3.3,10.358,9.246,13.89,16.717l.566-.771c-2.8-6.671-6.359-12.815-13.43-16.509Z" transform="translate(-23.419 -217.745)" fill="#fff"/>
            </g>
          </g>
        </g>
        <g id="Grupo_1078403" data-name="Grupo 1078403" transform="translate(309.849 199.987)" opacity="0.5">
          <g id="Grupo_1078402" data-name="Grupo 1078402" transform="translate(0)">
            <g id="Grupo_1078401" data-name="Grupo 1078401" transform="translate(0)" clip-path="url(#clip-path-46)">
              <path id="Trazado_841046" data-name="Trazado 841046" d="M39.541,200.208a19.082,19.082,0,0,1,5.782,6.959l.877-.383a20.347,20.347,0,0,0-5.529-6.8Z" transform="translate(-39.541 -199.987)" fill="#fff"/>
            </g>
          </g>
        </g>
        <g id="Grupo_1078406" data-name="Grupo 1078406" transform="translate(312.038 199.726)" opacity="0.5">
          <g id="Grupo_1078405" data-name="Grupo 1078405" transform="translate(0)">
            <g id="Grupo_1078404" data-name="Grupo 1078404" transform="translate(0)" clip-path="url(#clip-path-47)">
              <path id="Trazado_841047" data-name="Trazado 841047" d="M37.657,199.806a24.678,24.678,0,0,1,5.455,6.566l.9-.357a19.624,19.624,0,0,0-5.116-6.29Z" transform="translate(-37.657 -199.726)" fill="#fff"/>
            </g>
          </g>
        </g>
        <g id="Grupo_1078409" data-name="Grupo 1078409" transform="translate(314.404 199.685)" opacity="0.5">
          <g id="Grupo_1078408" data-name="Grupo 1078408" transform="translate(0)">
            <g id="Grupo_1078407" data-name="Grupo 1078407" transform="translate(0)" clip-path="url(#clip-path-48)">
              <path id="Trazado_841048" data-name="Trazado 841048" d="M35.77,199.685a18.094,18.094,0,0,1,4.954,5.963l.921-.332a15.555,15.555,0,0,0-4.561-5.606Z" transform="translate(-35.77 -199.685)" fill="#fff"/>
            </g>
          </g>
        </g>
        <g id="Grupo_1078412" data-name="Grupo 1078412" transform="translate(316.85 199.794)" opacity="0.5">
          <g id="Grupo_1078411" data-name="Grupo 1078411" transform="translate(0)">
            <g id="Grupo_1078410" data-name="Grupo 1078410" transform="translate(0)" clip-path="url(#clip-path-49)">
              <path id="Trazado_841049" data-name="Trazado 841049" d="M33.932,199.794a16.613,16.613,0,0,1,4.33,5.211l.937-.308c-2.312-4.1-2.8-3.728-3.834-4.712Z" transform="translate(-33.932 -199.794)" fill="#fff"/>
            </g>
          </g>
        </g>
        <g id="Grupo_1078415" data-name="Grupo 1078415" transform="translate(307.766 200.462)" opacity="0.5">
          <g id="Grupo_1078414" data-name="Grupo 1078414" transform="translate(0)">
            <g id="Grupo_1078413" data-name="Grupo 1078413" clip-path="url(#clip-path-50)">
              <path id="Trazado_841050" data-name="Trazado 841050" d="M41.411,200.781a26.539,26.539,0,0,1,6.041,7.271l.831-.444a20.351,20.351,0,0,0-5.813-7.146Z" transform="translate(-41.411 -200.462)" fill="#fff"/>
            </g>
          </g>
        </g>
        <g id="Grupo_1078418" data-name="Grupo 1078418" transform="translate(301.442 230.386)" opacity="0.3">
          <g id="Grupo_1078417" data-name="Grupo 1078417" transform="translate(0)">
            <g id="Grupo_1078416" data-name="Grupo 1078416" transform="translate(0)" clip-path="url(#clip-path-51)">
              <path id="Trazado_841051" data-name="Trazado 841051" d="M53.646,230.386c-3.068,3.205-8.539,6.339-14.838,8.825l1.061.658a35.314,35.314,0,0,0,14.737-8.587Z" transform="translate(-38.808 -230.386)" fill="#fff"/>
            </g>
          </g>
        </g>
      </g>
    </g>
  </g>
</svg>
