<svg xmlns="http://www.w3.org/2000/svg" width="163.336" height="163.336" viewBox="0 0 163.336 163.336">
  <g id="Grupo_1076885" data-name="Grupo 1076885" transform="translate(-264.332 -953.332)">
    <circle id="Elipse_5614" data-name="Elipse 5614" cx="81.668" cy="81.668" r="81.668" transform="translate(264.332 953.332)" fill="#63503e"/>
    <g id="Grupo_1076939" data-name="Grupo 1076939" transform="translate(252.033 985.196)">
      <path id="Trazado_838737" data-name="Trazado 838737" d="M142.521,95.416H70.244L76.693,27.05a29.818,29.818,0,0,1,59.379,0Z" transform="translate(-13.084)" fill="#6b7680"/>
      <path id="Trazado_838738" data-name="Trazado 838738" d="M160.015,3.954A29.835,29.835,0,0,1,189.7,31l6.076,64.411H200.5L194.049,27.05a29.811,29.811,0,0,0-51.824-17.2,29.7,29.7,0,0,1,17.79-5.9Z" transform="translate(-71.061)" fill="#525e66"/>
      <path id="Trazado_838739" data-name="Trazado 838739" d="M183.328,220.1H137.042l3.738-51.6H179.59Z" transform="translate(-66.886 -135.714)" fill="#525e66"/>
      <path id="Trazado_838740" data-name="Trazado 838740" d="M132.6,342.866v7.623a1.071,1.071,0,0,1-1.071,1.071H55.071A1.071,1.071,0,0,1,54,350.489v-7.642a7.918,7.918,0,0,1,.047-.87A8.476,8.476,0,0,1,59.8,334.8l19.266-6.43s2.731-.917,2.832-.959a4.571,4.571,0,0,0,2.814-4.221v-10.38h17.181v10.471a4.573,4.573,0,0,0,2.8,4.219q.163.068.332.125l1.068.354,1.43.473,6.594,2.177,7.822,2.584,4.838,1.6a8.48,8.48,0,0,1,5.818,7.9c0,.051,0,.1,0,.152Z" transform="translate(0 -251.951)" fill="#b6c4cf"/>
      <g id="Grupo_1076934" data-name="Grupo 1076934" transform="translate(84.708 60.856)">
        <path id="Trazado_838741" data-name="Trazado 838741" d="M259.731,342.714a8.48,8.48,0,0,0-5.818-7.9l-19.254-6.361-1.43-.473-1.068-.354q-.169-.056-.332-.124a4.573,4.573,0,0,1-2.8-4.219V312.807H211.844v3.361h14.021v10.471a4.573,4.573,0,0,0,2.8,4.219c.109.046,22.084,7.312,22.084,7.312a8.48,8.48,0,0,1,5.818,7.9c0,.051,0,.1,0,.152v5.332h2.089a1.071,1.071,0,0,0,1.071-1.071v-7.623c0-.051,0-.1,0-.152Z" transform="translate(-211.844 -312.807)" fill="#9facba"/>
      </g>
      <path id="Trazado_838742" data-name="Trazado 838742" d="M206.284,272.778l1.068.354c-.525,4.729-6.053,8.448-12.795,8.448-6.784,0-12.336-3.765-12.8-8.535l1.09-.364a4.573,4.573,0,0,0,3.124-4.338v-8.283c-.233-.115-.464-.233-.691-.358a19.564,19.564,0,0,1-5.559-4.486l2.1-5.36,19.946-5.141,6,12.185a19.515,19.515,0,0,1-3.336,2.472q-.628.368-1.284.688v8.373A4.574,4.574,0,0,0,206.284,272.778Z" transform="translate(-101.259 -197.107)" fill="#fff"/>
      <path id="Trazado_838743" data-name="Trazado 838743" d="M217.87,310.978a21.67,21.67,0,0,1-9.578-2.216v2.527c.227.125.458.243.691.358v6.9a21.309,21.309,0,0,0,2.5.144A21.7,21.7,0,0,0,226.164,313v-1.356q.655-.32,1.284-.688v-2.2A21.668,21.668,0,0,1,217.87,310.978Z" transform="translate(-124.275 -248.692)" fill="#f5f8f9"/>
      <path id="Trazado_838744" data-name="Trazado 838744" d="M194.607,96.947v10.74a19.551,19.551,0,1,1-39.1,0V96.947a19.551,19.551,0,1,1,39.1,0Z" transform="translate(-81.758 -62.32)" fill="#ffcebf"/>
      <path id="Trazado_838745" data-name="Trazado 838745" d="M175.058,87.667a23.1,23.1,0,0,1,19.551,10.807V96.947a19.551,19.551,0,1,0-39.1,0v1.522a23.079,23.079,0,0,1,19.551-10.8Z" transform="translate(-81.759 -62.32)" fill="#ffb09e"/>
      <g id="Grupo_1076935" data-name="Grupo 1076935" transform="translate(80.166 33.665)">
        <path id="Trazado_838746" data-name="Trazado 838746" d="M189.978,177.594a1.483,1.483,0,0,1-1.137-2.433,5.826,5.826,0,0,1,8.987,0,1.482,1.482,0,1,1-2.271,1.9,3.081,3.081,0,0,0-2.353-1.053,3.023,3.023,0,0,0-2.089,1.05A1.477,1.477,0,0,1,189.978,177.594Z" transform="translate(-188.498 -173.042)" fill="#fe99a0"/>
      </g>
      <g id="Grupo_1076936" data-name="Grupo 1076936" transform="translate(97.347 33.665)">
        <path id="Trazado_838747" data-name="Trazado 838747" d="M278.289,177.594a1.483,1.483,0,0,1-1.137-2.433,5.826,5.826,0,0,1,8.987,0,1.482,1.482,0,1,1-2.271,1.9,3.074,3.074,0,0,0-2.353-1.053,3.023,3.023,0,0,0-2.089,1.05A1.477,1.477,0,0,1,278.289,177.594Z" transform="translate(-276.809 -173.042)" fill="#fe99a0"/>
      </g>
      <g id="Grupo_1076937" data-name="Grupo 1076937" transform="translate(86.091 49.883)">
        <path id="Trazado_838748" data-name="Trazado 838748" d="M226.158,262.137a9.078,9.078,0,0,1-6.886-3.328,1.482,1.482,0,1,1,2.319-1.845,5.829,5.829,0,0,0,9.135,0,1.482,1.482,0,1,1,2.319,1.845A9.078,9.078,0,0,1,226.158,262.137Z" transform="translate(-218.949 -256.403)" fill="#fe99a0"/>
      </g>
      <path id="Trazado_838749" data-name="Trazado 838749" d="M195.912,92.589a27.028,27.028,0,0,0-38.181.251,19.551,19.551,0,0,1,38.181-.251Z" transform="translate(-83.55 -62.32)" fill="#f5f8f9"/>
      <g id="Grupo_1076938" data-name="Grupo 1076938" transform="translate(79.062 75.458)">
        <path id="Trazado_838750" data-name="Trazado 838750" d="M211.285,388.9c-.806,5.414-6.851,9.459-14.225,9.459a17.371,17.371,0,0,1-9.594-2.729,9.982,9.982,0,0,1-4.643-6.811l1.432-.478,1.09-.364c.1-.036.209-.075.31-.117a1.455,1.455,0,0,1,.073.336c.4,4.035,5.373,7.2,11.331,7.2,5.9,0,10.879-3.132,11.323-7.13a1.372,1.372,0,0,1,.071-.314q.163.068.332.125l1.068.354Z" transform="translate(-182.824 -387.861)" fill="#fea772"/>
      </g>
      <path id="Trazado_838751" data-name="Trazado 838751" d="M237.407,432.622h-3.063V428.75a1.481,1.481,0,1,0-2.962,0v3.872h-3.063a1.483,1.483,0,0,0,0,2.966h3.063v6.043a1.481,1.481,0,1,0,2.962,0v-6.043h3.063a1.483,1.483,0,0,0,0-2.966Z" transform="translate(-139.212 -344.143)" fill="#fea772"/>
    </g>
  </g>
</svg>
