<svg xmlns="http://www.w3.org/2000/svg" width="1030" height="425.621" viewBox="0 0 1030 425.621">
  <g id="Grupo_1204747" data-name="Grupo 1204747" transform="translate(-285 -1461.333)">
    <path id="Trazado_774834" data-name="Trazado 774834" d="M0,0H1030V425.621H0V0Z" transform="translate(1315 1886.954) rotate(180)" fill="#bee8da"/>
    <path id="Trazado_1262717" data-name="Trazado 1262717" d="M11.013-10.415H7.172V0H4.087V-10.415H.316V-12.8h10.7ZM15.3,0H12.331V-9.51H15.3ZM12.155-11.962A1.322,1.322,0,0,1,12.612-13a1.724,1.724,0,0,1,1.187-.4,1.724,1.724,0,0,1,1.187.4,1.322,1.322,0,0,1,.457,1.037,1.322,1.322,0,0,1-.457,1.037,1.724,1.724,0,0,1-1.187.4,1.724,1.724,0,0,1-1.187-.4A1.322,1.322,0,0,1,12.155-11.962Zm13.8,7.277a5.735,5.735,0,0,1-1,3.538A3.2,3.2,0,0,1,22.263.176a2.742,2.742,0,0,1-2.153-.958V3.656H17.147V-9.51h2.769L20-8.631a2.742,2.742,0,0,1,2.241-1.055,3.224,3.224,0,0,1,2.733,1.3,5.805,5.805,0,0,1,.976,3.564Zm-2.962-.185q0-2.531-1.477-2.531a1.394,1.394,0,0,0-1.406.756V-2.9a1.439,1.439,0,0,0,1.424.791q1.415,0,1.459-2.443Zm3.894.026a5.613,5.613,0,0,1,.554-2.536A3.96,3.96,0,0,1,29.03-9.088a4.791,4.791,0,0,1,2.435-.6,4.373,4.373,0,0,1,3.366,1.323,5.076,5.076,0,0,1,1.23,3.6v.105a4.925,4.925,0,0,1-1.235,3.529A4.384,4.384,0,0,1,31.482.176a4.434,4.434,0,0,1-3.261-1.217,4.761,4.761,0,0,1-1.327-3.3Zm2.962.185a3.538,3.538,0,0,0,.413,1.934,1.376,1.376,0,0,0,1.222.615q1.582,0,1.617-2.435v-.3Q33.1-7.4,31.465-7.4q-1.485,0-1.608,2.206Zm12.5,1.986a.684.684,0,0,0-.4-.606,6.016,6.016,0,0,0-1.5-.475A6.853,6.853,0,0,1,38.619-4.4a3.062,3.062,0,0,1-1.1-.971,2.319,2.319,0,0,1-.378-1.31,2.628,2.628,0,0,1,1.081-2.158,4.453,4.453,0,0,1,2.83-.848,4.934,4.934,0,0,1,3.023.853A2.666,2.666,0,0,1,45.22-6.592H42.249q0-1.143-1.2-1.143a1.194,1.194,0,0,0-.782.259.8.8,0,0,0-.316.646.737.737,0,0,0,.387.642,3.654,3.654,0,0,0,1.235.4,10.671,10.671,0,0,1,1.49.378A2.706,2.706,0,0,1,45.2-2.76,2.491,2.491,0,0,1,44.046-.642a5.068,5.068,0,0,1-2.993.817,5.172,5.172,0,0,1-2.18-.439,3.645,3.645,0,0,1-1.494-1.2,2.707,2.707,0,0,1-.536-1.591h2.769a1.145,1.145,0,0,0,.439.962,1.808,1.808,0,0,0,1.081.3,1.422,1.422,0,0,0,.91-.246A.787.787,0,0,0,42.346-2.672ZM50.7-4.825a5.809,5.809,0,0,1,.976-3.56,3.211,3.211,0,0,1,2.725-1.3,2.731,2.731,0,0,1,2.145,1V-13.5h2.971V0H56.848L56.7-1.02a2.8,2.8,0,0,1-2.32,1.2,3.205,3.205,0,0,1-2.689-1.3A5.993,5.993,0,0,1,50.7-4.825Zm2.962.185q0,2.531,1.477,2.531a1.458,1.458,0,0,0,1.406-.826V-6.557A1.419,1.419,0,0,0,55.151-7.4q-1.371,0-1.485,2.215ZM65.795.176a4.889,4.889,0,0,1-3.542-1.305,4.507,4.507,0,0,1-1.354-3.4v-.246a5.84,5.84,0,0,1,.541-2.575,3.955,3.955,0,0,1,1.578-1.727,4.763,4.763,0,0,1,2.461-.611,4.117,4.117,0,0,1,3.164,1.244A4.887,4.887,0,0,1,69.8-4.975v1.151H63.914a2.135,2.135,0,0,0,.694,1.257A2.066,2.066,0,0,0,66-2.109a2.662,2.662,0,0,0,2.2-.984l1.354,1.6A3.784,3.784,0,0,1,67.979-.277,5.3,5.3,0,0,1,65.795.176ZM65.461-7.4q-1.3,0-1.547,1.723H66.9v-.229a1.467,1.467,0,0,0-.36-1.1A1.434,1.434,0,0,0,65.461-7.4ZM78.6,0H75.63V-13.5H78.6Zm5.054,0H80.675V-9.51h2.979ZM82.547-13.324h3.129l-2.443,2.76H80.815Zm5.73,3.814.1,1.116A3.225,3.225,0,0,1,91.09-9.686a2.713,2.713,0,0,1,2.219.888,4.226,4.226,0,0,1,.76,2.672V0H91.1V-6a1.6,1.6,0,0,0-.29-1.059A1.342,1.342,0,0,0,89.754-7.4a1.413,1.413,0,0,0-1.292.686V0H85.5V-9.51ZM100.31.176a4.889,4.889,0,0,1-3.542-1.305,4.507,4.507,0,0,1-1.354-3.4v-.246a5.84,5.84,0,0,1,.541-2.575,3.955,3.955,0,0,1,1.578-1.727,4.763,4.763,0,0,1,2.461-.611,4.117,4.117,0,0,1,3.164,1.244,4.887,4.887,0,0,1,1.16,3.467v1.151H98.429a2.135,2.135,0,0,0,.694,1.257,2.066,2.066,0,0,0,1.389.457,2.662,2.662,0,0,0,2.2-.984l1.354,1.6a3.784,3.784,0,0,1-1.569,1.217A5.3,5.3,0,0,1,100.31.176ZM99.976-7.4q-1.3,0-1.547,1.723h2.988v-.229a1.467,1.467,0,0,0-.36-1.1A1.434,1.434,0,0,0,99.976-7.4ZM110.865,0a3.344,3.344,0,0,1-.281-.853A2.754,2.754,0,0,1,108.3.176a3.374,3.374,0,0,1-2.285-.813,2.588,2.588,0,0,1-.94-2.043,2.66,2.66,0,0,1,1.143-2.338,5.821,5.821,0,0,1,3.322-.791h.914v-.5q0-1.31-1.134-1.31a.925.925,0,0,0-1.055,1.037H105.3a2.659,2.659,0,0,1,1.173-2.241,4.927,4.927,0,0,1,2.993-.861,4.323,4.323,0,0,1,2.874.888,3.086,3.086,0,0,1,1.081,2.435v4.21a4.311,4.311,0,0,0,.4,2V0Zm-1.854-1.934a1.652,1.652,0,0,0,.918-.237,1.487,1.487,0,0,0,.523-.536V-4.228h-.861q-1.547,0-1.547,1.389a.848.848,0,0,0,.272.655A.986.986,0,0,0,109.011-1.934Z" transform="translate(744 1527)" fill="#12263f"/>
    <path id="Trazado_1262718" data-name="Trazado 1262718" d="M-40.685-2.373h5.37V0H-43.77V-12.8h3.085ZM-30.92,0H-33.9V-9.51h2.979Zm-1.107-13.324H-28.9l-2.443,2.76h-2.417ZM-26.3-9.51l.1,1.116a3.225,3.225,0,0,1,2.716-1.292,2.713,2.713,0,0,1,2.219.888,4.226,4.226,0,0,1,.76,2.672V0h-2.971V-6a1.6,1.6,0,0,0-.29-1.059A1.342,1.342,0,0,0-24.82-7.4a1.413,1.413,0,0,0-1.292.686V0h-2.962V-9.51ZM-14.265.176a4.889,4.889,0,0,1-3.542-1.305,4.507,4.507,0,0,1-1.354-3.4v-.246a5.84,5.84,0,0,1,.541-2.575,3.955,3.955,0,0,1,1.578-1.727,4.763,4.763,0,0,1,2.461-.611,4.117,4.117,0,0,1,3.164,1.244,4.887,4.887,0,0,1,1.16,3.467v1.151h-5.889a2.135,2.135,0,0,0,.694,1.257,2.066,2.066,0,0,0,1.389.457,2.662,2.662,0,0,0,2.2-.984l1.354,1.6A3.784,3.784,0,0,1-12.081-.277,5.3,5.3,0,0,1-14.265.176ZM-14.6-7.4q-1.3,0-1.547,1.723h2.988v-.229a1.467,1.467,0,0,0-.36-1.1A1.434,1.434,0,0,0-14.6-7.4ZM-3.709,0A3.344,3.344,0,0,1-3.99-.853,2.754,2.754,0,0,1-6.275.176,3.374,3.374,0,0,1-8.561-.637,2.588,2.588,0,0,1-9.5-2.681,2.66,2.66,0,0,1-8.358-5.019,5.821,5.821,0,0,1-5.036-5.81h.914v-.5q0-1.31-1.134-1.31A.925.925,0,0,0-6.311-6.583H-9.272A2.659,2.659,0,0,1-8.1-8.824a4.927,4.927,0,0,1,2.993-.861A4.323,4.323,0,0,1-2.232-8.8,3.086,3.086,0,0,1-1.151-6.363v4.21a4.311,4.311,0,0,0,.4,2V0ZM-5.563-1.934a1.652,1.652,0,0,0,.918-.237,1.487,1.487,0,0,0,.523-.536V-4.228h-.861q-1.547,0-1.547,1.389a.848.848,0,0,0,.272.655A.986.986,0,0,0-5.563-1.934ZM4.623-4.825A6.421,6.421,0,0,1,5.1-7.374,3.821,3.821,0,0,1,6.46-9.083a3.591,3.591,0,0,1,2.065-.6,2.855,2.855,0,0,1,2.32,1l.105-.826h2.689V-.36a4.009,4.009,0,0,1-.584,2.184,3.75,3.75,0,0,1-1.692,1.424,6.219,6.219,0,0,1-2.566.5,5.365,5.365,0,0,1-2.026-.4,3.657,3.657,0,0,1-1.5-1.028L6.513.58a2.716,2.716,0,0,0,2.18.976A1.764,1.764,0,0,0,10.661-.466v-.3a2.781,2.781,0,0,1-2.153.94A3.437,3.437,0,0,1,5.7-1.156,5.517,5.517,0,0,1,4.623-4.72Zm2.971.185a3.383,3.383,0,0,0,.439,1.85,1.387,1.387,0,0,0,1.23.681,1.573,1.573,0,0,0,1.4-.642v-4a1.534,1.534,0,0,0-1.38-.65,1.4,1.4,0,0,0-1.239.708A3.858,3.858,0,0,0,7.594-4.641ZM20.988-1.028a3.054,3.054,0,0,1-2.54,1.2,3,3,0,0,1-2.369-.91,3.826,3.826,0,0,1-.8-2.615V-9.51h2.962v6.179a1.065,1.065,0,0,0,1.187,1.222,1.548,1.548,0,0,0,1.45-.729V-9.51h2.979V0H21.076ZM28.705,0H25.726V-9.51h2.979ZM27.6-13.324h3.129l-2.443,2.76H25.866ZM35.965,0a3.344,3.344,0,0,1-.281-.853A2.754,2.754,0,0,1,33.4.176a3.374,3.374,0,0,1-2.285-.813,2.588,2.588,0,0,1-.94-2.043,2.66,2.66,0,0,1,1.143-2.338,5.821,5.821,0,0,1,3.322-.791h.914v-.5q0-1.31-1.134-1.31a.925.925,0,0,0-1.055,1.037H30.4a2.659,2.659,0,0,1,1.173-2.241,4.927,4.927,0,0,1,2.993-.861,4.323,4.323,0,0,1,2.874.888,3.086,3.086,0,0,1,1.081,2.435v4.21a4.311,4.311,0,0,0,.4,2V0ZM34.11-1.934a1.652,1.652,0,0,0,.918-.237,1.487,1.487,0,0,0,.523-.536V-4.228H34.69q-1.547,0-1.547,1.389a.848.848,0,0,0,.272.655A.986.986,0,0,0,34.11-1.934ZM42-2.874a1.686,1.686,0,0,1,1.169.417,1.37,1.37,0,0,1,.466,1.068,1.37,1.37,0,0,1-.466,1.068A1.686,1.686,0,0,1,42,.1,1.672,1.672,0,0,1,40.83-.325a1.379,1.379,0,0,1-.461-1.063,1.379,1.379,0,0,1,.461-1.063A1.672,1.672,0,0,1,42-2.874Zm0-7.014a1.686,1.686,0,0,1,1.169.417A1.37,1.37,0,0,1,43.638-8.4a1.37,1.37,0,0,1-.466,1.068A1.686,1.686,0,0,1,42-6.917a1.672,1.672,0,0,1-1.173-.422A1.379,1.379,0,0,1,40.368-8.4a1.379,1.379,0,0,1,.461-1.063A1.672,1.672,0,0,1,42-9.888ZM-54.839,19.085h-5.546V23.62h6.442V25h-8.13V12.2h8.042v1.389h-6.354v4.113h5.546Zm4.421-3.595V26.1q0,2.742-2.487,2.742a3.017,3.017,0,0,1-.993-.158v-1.3a3.144,3.144,0,0,0,.738.07,1.105,1.105,0,0,0,.831-.294,1.455,1.455,0,0,0,.286-1.024V15.49Zm-1.793-2.522a.975.975,0,0,1,.242-.664.889.889,0,0,1,.708-.277.922.922,0,0,1,.721.272.96.96,0,0,1,.246.668.929.929,0,0,1-.246.659.938.938,0,0,1-.721.264.909.909,0,0,1-.712-.264A.949.949,0,0,1-52.211,12.968Zm8.358,12.208A4.155,4.155,0,0,1-47,23.906a4.714,4.714,0,0,1-1.213-3.4v-.3a5.707,5.707,0,0,1,.541-2.527,4.217,4.217,0,0,1,1.512-1.74,3.8,3.8,0,0,1,2.1-.628,3.562,3.562,0,0,1,2.883,1.222,5.289,5.289,0,0,1,1.028,3.5v.677h-6.442a3.38,3.38,0,0,0,.822,2.272,2.583,2.583,0,0,0,2,.866,2.832,2.832,0,0,0,1.459-.352,3.666,3.666,0,0,0,1.046-.932l.993.773A3.993,3.993,0,0,1-43.853,25.176Zm-.2-8.525a2.169,2.169,0,0,0-1.652.716,3.482,3.482,0,0,0-.826,2.008h4.764v-.123a3.1,3.1,0,0,0-.668-1.92A2.042,2.042,0,0,0-44.055,16.65Zm11.329,5.827a1.2,1.2,0,0,0-.5-1.024,4.78,4.78,0,0,0-1.731-.628,8.186,8.186,0,0,1-1.96-.633,2.788,2.788,0,0,1-1.072-.879,2.1,2.1,0,0,1-.347-1.213,2.467,2.467,0,0,1,.989-1.978,3.861,3.861,0,0,1,2.527-.809,3.974,3.974,0,0,1,2.624.835,2.652,2.652,0,0,1,1.006,2.136h-1.635a1.468,1.468,0,0,0-.567-1.151,2.124,2.124,0,0,0-1.428-.483,2.223,2.223,0,0,0-1.389.387,1.217,1.217,0,0,0-.5,1.011.986.986,0,0,0,.466.888,5.731,5.731,0,0,0,1.683.571,8.77,8.77,0,0,1,1.973.65,2.878,2.878,0,0,1,1.121.91,2.237,2.237,0,0,1,.365,1.3,2.434,2.434,0,0,1-1.02,2.043,4.277,4.277,0,0,1-2.646.769,4.789,4.789,0,0,1-2.021-.4,3.288,3.288,0,0,1-1.375-1.129,2.722,2.722,0,0,1-.5-1.569h1.626a1.683,1.683,0,0,0,.655,1.3,2.54,2.54,0,0,0,1.613.479,2.622,2.622,0,0,0,1.481-.374A1.148,1.148,0,0,0-32.726,22.478Zm7.8-2.312a5.571,5.571,0,0,1,1.037-3.52,3.28,3.28,0,0,1,2.716-1.332,3.3,3.3,0,0,1,2.646,1.143V11.5H-16.9V25h-1.494l-.079-1.02a3.311,3.311,0,0,1-2.716,1.2,3.248,3.248,0,0,1-2.694-1.354,5.634,5.634,0,0,1-1.042-3.533Zm1.626.185a4.218,4.218,0,0,0,.668,2.531,2.159,2.159,0,0,0,1.846.914,2.372,2.372,0,0,0,2.259-1.389V18.039a2.39,2.39,0,0,0-2.241-1.345,2.17,2.17,0,0,0-1.863.923A4.644,4.644,0,0,0-23.3,20.351Zm12.867,4.825a4.155,4.155,0,0,1-3.146-1.27,4.714,4.714,0,0,1-1.213-3.4v-.3a5.707,5.707,0,0,1,.541-2.527,4.217,4.217,0,0,1,1.512-1.74,3.8,3.8,0,0,1,2.1-.628,3.562,3.562,0,0,1,2.883,1.222,5.289,5.289,0,0,1,1.028,3.5v.677h-6.442a3.38,3.38,0,0,0,.822,2.272,2.583,2.583,0,0,0,2,.866A2.832,2.832,0,0,0-8.881,23.5a3.666,3.666,0,0,0,1.046-.932l.993.773A3.993,3.993,0,0,1-10.428,25.176Zm-.2-8.525a2.169,2.169,0,0,0-1.652.716,3.482,3.482,0,0,0-.826,2.008h4.764v-.123a3.1,3.1,0,0,0-.668-1.92A2.042,2.042,0,0,0-10.63,16.65ZM5.155,22.478a1.2,1.2,0,0,0-.5-1.024,4.78,4.78,0,0,0-1.731-.628,8.186,8.186,0,0,1-1.96-.633,2.788,2.788,0,0,1-1.072-.879A2.1,2.1,0,0,1-.453,18.1a2.467,2.467,0,0,1,.989-1.978,3.861,3.861,0,0,1,2.527-.809,3.974,3.974,0,0,1,2.624.835,2.652,2.652,0,0,1,1.006,2.136H5.058a1.468,1.468,0,0,0-.567-1.151,2.124,2.124,0,0,0-1.428-.483,2.223,2.223,0,0,0-1.389.387,1.217,1.217,0,0,0-.5,1.011.986.986,0,0,0,.466.888,5.731,5.731,0,0,0,1.683.571,8.77,8.77,0,0,1,1.973.65,2.878,2.878,0,0,1,1.121.91,2.237,2.237,0,0,1,.365,1.3,2.434,2.434,0,0,1-1.02,2.043,4.277,4.277,0,0,1-2.646.769,4.789,4.789,0,0,1-2.021-.4A3.288,3.288,0,0,1-.281,23.642a2.722,2.722,0,0,1-.5-1.569H.848a1.683,1.683,0,0,0,.655,1.3,2.54,2.54,0,0,0,1.613.479A2.622,2.622,0,0,0,4.6,23.475,1.148,1.148,0,0,0,5.155,22.478ZM10.666,25H9.04V15.49h1.626ZM8.908,12.968a.971.971,0,0,1,.242-.668.907.907,0,0,1,.716-.272.922.922,0,0,1,.721.272.96.96,0,0,1,.246.668.929.929,0,0,1-.246.659.938.938,0,0,1-.721.264.924.924,0,0,1-.716-.264A.938.938,0,0,1,8.908,12.968ZM14.8,15.49l.044,1.055a3.512,3.512,0,0,1,2.821-1.23,2.719,2.719,0,0,1,2.716,1.529,3.6,3.6,0,0,1,1.235-1.107,3.647,3.647,0,0,1,1.8-.422q3.129,0,3.182,3.313V25H24.965V18.725A2.184,2.184,0,0,0,24.5,17.2a2.051,2.051,0,0,0-1.564-.505,2.156,2.156,0,0,0-1.5.541,2.193,2.193,0,0,0-.694,1.455V25H19.1V18.769a1.814,1.814,0,0,0-2.03-2.074,2.175,2.175,0,0,0-2.188,1.362V25H13.258V15.49ZM32.99,25.176a4.155,4.155,0,0,1-3.146-1.27,4.714,4.714,0,0,1-1.213-3.4v-.3a5.707,5.707,0,0,1,.541-2.527,4.217,4.217,0,0,1,1.512-1.74,3.8,3.8,0,0,1,2.1-.628,3.562,3.562,0,0,1,2.883,1.222,5.289,5.289,0,0,1,1.028,3.5v.677H30.256a3.38,3.38,0,0,0,.822,2.272,2.583,2.583,0,0,0,2,.866,2.832,2.832,0,0,0,1.459-.352,3.666,3.666,0,0,0,1.046-.932l.993.773A3.993,3.993,0,0,1,32.99,25.176Zm-.2-8.525a2.169,2.169,0,0,0-1.652.716,3.482,3.482,0,0,0-.826,2.008h4.764v-.123a3.1,3.1,0,0,0-.668-1.92A2.042,2.042,0,0,0,32.788,16.65Zm8-3.463v2.3h1.775v1.257H40.786v5.9a1.317,1.317,0,0,0,.237.857,1,1,0,0,0,.809.286,3.937,3.937,0,0,0,.773-.105V25a4.714,4.714,0,0,1-1.248.176,2.025,2.025,0,0,1-1.644-.659,2.832,2.832,0,0,1-.554-1.872v-5.9H37.428V15.49H39.16v-2.3Zm8.271,3.762a4.873,4.873,0,0,0-.8-.062,2.143,2.143,0,0,0-2.171,1.362V25H44.459V15.49h1.582l.026,1.1a2.532,2.532,0,0,1,2.268-1.274,1.661,1.661,0,0,1,.721.123ZM52.317,25H50.682V15.49h1.635Zm.018-13.491H54.3l-2.355,2.584h-1.31ZM60.869,25a3.416,3.416,0,0,1-.229-1,3.628,3.628,0,0,1-2.707,1.178,3.357,3.357,0,0,1-2.307-.8,2.573,2.573,0,0,1-.9-2.017,2.688,2.688,0,0,1,1.129-2.307,5.325,5.325,0,0,1,3.177-.822h1.582v-.747a1.826,1.826,0,0,0-.51-1.358,2.049,2.049,0,0,0-1.5-.505,2.371,2.371,0,0,0-1.459.439,1.3,1.3,0,0,0-.589,1.063H54.918a2.244,2.244,0,0,1,.505-1.375,3.449,3.449,0,0,1,1.371-1.05,4.613,4.613,0,0,1,1.9-.387,3.759,3.759,0,0,1,2.575.822A2.964,2.964,0,0,1,62.24,18.4v4.377a5.351,5.351,0,0,0,.334,2.083V25Zm-2.7-1.239a2.858,2.858,0,0,0,1.45-.4,2.392,2.392,0,0,0,.993-1.028V20.386H59.339q-2.988,0-2.988,1.749a1.48,1.48,0,0,0,.51,1.2A1.959,1.959,0,0,0,58.17,23.761Z" transform="translate(560 1806.998)" fill="#12263f"/>
    <path id="Trazado_1262719" data-name="Trazado 1262719" d="M-47.54-2.373h5.37V0h-8.455V-12.8h3.085ZM-37.775,0h-2.979V-9.51h2.979Zm-1.107-13.324h3.129l-2.443,2.76h-2.417Zm5.73,3.814.1,1.116A3.225,3.225,0,0,1-30.34-9.686a2.713,2.713,0,0,1,2.219.888,4.226,4.226,0,0,1,.76,2.672V0h-2.971V-6a1.6,1.6,0,0,0-.29-1.059A1.342,1.342,0,0,0-31.676-7.4a1.413,1.413,0,0,0-1.292.686V0H-35.93V-9.51ZM-21.12.176a4.889,4.889,0,0,1-3.542-1.305,4.507,4.507,0,0,1-1.354-3.4v-.246a5.84,5.84,0,0,1,.541-2.575A3.955,3.955,0,0,1-23.9-9.075a4.763,4.763,0,0,1,2.461-.611,4.117,4.117,0,0,1,3.164,1.244,4.887,4.887,0,0,1,1.16,3.467v1.151H-23a2.135,2.135,0,0,0,.694,1.257,2.066,2.066,0,0,0,1.389.457,2.662,2.662,0,0,0,2.2-.984l1.354,1.6A3.784,3.784,0,0,1-18.936-.277,5.3,5.3,0,0,1-21.12.176ZM-21.454-7.4q-1.3,0-1.547,1.723h2.988v-.229a1.467,1.467,0,0,0-.36-1.1A1.434,1.434,0,0,0-21.454-7.4ZM-10.564,0a3.344,3.344,0,0,1-.281-.853A2.754,2.754,0,0,1-13.131.176a3.374,3.374,0,0,1-2.285-.813,2.588,2.588,0,0,1-.94-2.043,2.66,2.66,0,0,1,1.143-2.338,5.821,5.821,0,0,1,3.322-.791h.914v-.5q0-1.31-1.134-1.31a.925.925,0,0,0-1.055,1.037h-2.962a2.659,2.659,0,0,1,1.173-2.241,4.927,4.927,0,0,1,2.993-.861A4.323,4.323,0,0,1-9.088-8.8,3.086,3.086,0,0,1-8.007-6.363v4.21a4.311,4.311,0,0,0,.4,2V0Zm-1.854-1.934a1.652,1.652,0,0,0,.918-.237,1.487,1.487,0,0,0,.523-.536V-4.228h-.861q-1.547,0-1.547,1.389a.848.848,0,0,0,.272.655A.986.986,0,0,0-12.419-1.934ZM3.094-2.672a.684.684,0,0,0-.4-.606,6.016,6.016,0,0,0-1.5-.475A6.853,6.853,0,0,1-.633-4.4a3.062,3.062,0,0,1-1.1-.971,2.319,2.319,0,0,1-.378-1.31A2.628,2.628,0,0,1-1.028-8.837,4.453,4.453,0,0,1,1.8-9.686a4.934,4.934,0,0,1,3.023.853A2.666,2.666,0,0,1,5.968-6.592H3q0-1.143-1.2-1.143a1.194,1.194,0,0,0-.782.259.8.8,0,0,0-.316.646.737.737,0,0,0,.387.642,3.654,3.654,0,0,0,1.235.4,10.671,10.671,0,0,1,1.49.378A2.706,2.706,0,0,1,5.95-2.76,2.491,2.491,0,0,1,4.794-.642,5.068,5.068,0,0,1,1.8.176,5.172,5.172,0,0,1-.378-.264a3.645,3.645,0,0,1-1.494-1.2A2.707,2.707,0,0,1-2.408-3.05H.36A1.145,1.145,0,0,0,.8-2.087a1.808,1.808,0,0,0,1.081.3,1.422,1.422,0,0,0,.91-.246A.787.787,0,0,0,3.094-2.672ZM6.961-4.843a5.613,5.613,0,0,1,.554-2.536A3.96,3.96,0,0,1,9.105-9.088a4.791,4.791,0,0,1,2.435-.6,4.373,4.373,0,0,1,3.366,1.323,5.076,5.076,0,0,1,1.23,3.6v.105A4.925,4.925,0,0,1,14.9-1.129,4.384,4.384,0,0,1,11.558.176,4.434,4.434,0,0,1,8.3-1.042a4.761,4.761,0,0,1-1.327-3.3Zm2.962.185a3.538,3.538,0,0,0,.413,1.934,1.376,1.376,0,0,0,1.222.615q1.582,0,1.617-2.435v-.3q0-2.558-1.635-2.558-1.485,0-1.608,2.206ZM11.944-13.5h3.129L12.63-10.74H10.213ZM20.566,0H17.6V-13.5h2.971Zm4.948,0H22.544V-9.51h2.971ZM22.368-11.962A1.322,1.322,0,0,1,22.825-13a1.724,1.724,0,0,1,1.187-.4A1.724,1.724,0,0,1,25.2-13a1.322,1.322,0,0,1,.457,1.037,1.322,1.322,0,0,1-.457,1.037,1.724,1.724,0,0,1-1.187.4,1.724,1.724,0,0,1-1.187-.4A1.322,1.322,0,0,1,22.368-11.962Zm4.6,7.137a5.809,5.809,0,0,1,.976-3.56,3.211,3.211,0,0,1,2.725-1.3,2.731,2.731,0,0,1,2.145,1V-13.5H35.78V0H33.117l-.149-1.02a2.8,2.8,0,0,1-2.32,1.2,3.205,3.205,0,0,1-2.689-1.3A5.993,5.993,0,0,1,26.965-4.825Zm2.962.185q0,2.531,1.477,2.531a1.458,1.458,0,0,0,1.406-.826V-6.557A1.419,1.419,0,0,0,31.421-7.4q-1.371,0-1.485,2.215ZM42.82,0a3.344,3.344,0,0,1-.281-.853A2.754,2.754,0,0,1,40.254.176a3.374,3.374,0,0,1-2.285-.813,2.588,2.588,0,0,1-.94-2.043,2.66,2.66,0,0,1,1.143-2.338,5.821,5.821,0,0,1,3.322-.791h.914v-.5q0-1.31-1.134-1.31a.925.925,0,0,0-1.055,1.037H37.257A2.659,2.659,0,0,1,38.43-8.824a4.927,4.927,0,0,1,2.993-.861A4.323,4.323,0,0,1,44.3-8.8a3.086,3.086,0,0,1,1.081,2.435v4.21a4.311,4.311,0,0,0,.4,2V0ZM40.966-1.934a1.652,1.652,0,0,0,.918-.237,1.487,1.487,0,0,0,.523-.536V-4.228h-.861Q40-4.228,40-2.839a.848.848,0,0,0,.272.655A.986.986,0,0,0,40.966-1.934Zm7.893-.94a1.686,1.686,0,0,1,1.169.417,1.37,1.37,0,0,1,.466,1.068,1.37,1.37,0,0,1-.466,1.068A1.686,1.686,0,0,1,48.858.1a1.672,1.672,0,0,1-1.173-.422,1.379,1.379,0,0,1-.461-1.063,1.379,1.379,0,0,1,.461-1.063A1.672,1.672,0,0,1,48.858-2.874Zm0-7.014a1.686,1.686,0,0,1,1.169.417A1.37,1.37,0,0,1,50.493-8.4a1.37,1.37,0,0,1-.466,1.068,1.686,1.686,0,0,1-1.169.417,1.672,1.672,0,0,1-1.173-.422A1.379,1.379,0,0,1,47.224-8.4a1.379,1.379,0,0,1,.461-1.063A1.672,1.672,0,0,1,48.858-9.888ZM-62.051,20.939a4.708,4.708,0,0,1-1.5,3.133,4.911,4.911,0,0,1-3.353,1.1,4.509,4.509,0,0,1-3.634-1.626A6.542,6.542,0,0,1-71.9,19.2v-1.23a7.291,7.291,0,0,1,.637-3.138,4.76,4.76,0,0,1,1.806-2.079,5.029,5.029,0,0,1,2.707-.725,4.624,4.624,0,0,1,3.27,1.138,4.765,4.765,0,0,1,1.433,3.151h-1.7A3.66,3.66,0,0,0-64.7,14.1a2.891,2.891,0,0,0-2.052-.686,3.02,3.02,0,0,0-2.536,1.2,5.484,5.484,0,0,0-.918,3.4v1.239a5.637,5.637,0,0,0,.87,3.313A2.812,2.812,0,0,0-66.9,23.8a3.247,3.247,0,0,0,2.158-.637,3.536,3.536,0,0,0,1-2.219Zm6.645-3.99a4.873,4.873,0,0,0-.8-.062,2.143,2.143,0,0,0-2.171,1.362V25H-60V15.49h1.582l.026,1.1a2.532,2.532,0,0,1,2.268-1.274,1.661,1.661,0,0,1,.721.123Zm.888,3.208a5.617,5.617,0,0,1,.549-2.514,4.1,4.1,0,0,1,1.529-1.723,4.163,4.163,0,0,1,2.237-.606,4.01,4.01,0,0,1,3.142,1.345,5.174,5.174,0,0,1,1.2,3.577v.114a5.666,5.666,0,0,1-.532,2.492,4.038,4.038,0,0,1-1.521,1.718,4.211,4.211,0,0,1-2.272.615,4,4,0,0,1-3.133-1.345,5.147,5.147,0,0,1-1.2-3.56Zm1.635.193a4.068,4.068,0,0,0,.734,2.54,2.349,2.349,0,0,0,1.964.958,2.335,2.335,0,0,0,1.969-.971,4.449,4.449,0,0,0,.729-2.72,4.061,4.061,0,0,0-.743-2.536A2.361,2.361,0,0,0-50.2,16.65a2.335,2.335,0,0,0-1.942.958A4.416,4.416,0,0,0-52.884,20.351Zm8.666-.185a5.582,5.582,0,0,1,1.028-3.546,3.332,3.332,0,0,1,2.76-1.305,3.33,3.33,0,0,1,2.663,1.134l.07-.958H-36.2V28.656h-1.626V24.121a3.412,3.412,0,0,1-2.619,1.055,3.28,3.28,0,0,1-2.747-1.34,5.706,5.706,0,0,1-1.024-3.555Zm1.626.185a4.231,4.231,0,0,0,.69,2.566,2.195,2.195,0,0,0,1.859.932,2.435,2.435,0,0,0,2.215-1.283V17.907a2.442,2.442,0,0,0-2.2-1.257,2.211,2.211,0,0,0-1.872.936A4.606,4.606,0,0,0-42.592,20.351Zm14.871,3.709a3.454,3.454,0,0,1-2.786,1.116,2.956,2.956,0,0,1-2.316-.883,3.823,3.823,0,0,1-.8-2.615V15.49H-32v6.144q0,2.162,1.758,2.162a2.434,2.434,0,0,0,2.479-1.389V15.49h1.626V25h-1.547ZM-21.9,25h-1.626V15.49H-21.9ZM-23.66,12.968a.971.971,0,0,1,.242-.668.907.907,0,0,1,.716-.272.922.922,0,0,1,.721.272.96.96,0,0,1,.246.668.929.929,0,0,1-.246.659.938.938,0,0,1-.721.264.924.924,0,0,1-.716-.264A.938.938,0,0,1-23.66,12.968Zm9.9,9.51a1.2,1.2,0,0,0-.5-1.024,4.78,4.78,0,0,0-1.731-.628,8.186,8.186,0,0,1-1.96-.633,2.788,2.788,0,0,1-1.072-.879,2.1,2.1,0,0,1-.347-1.213,2.467,2.467,0,0,1,.989-1.978,3.861,3.861,0,0,1,2.527-.809,3.974,3.974,0,0,1,2.624.835,2.652,2.652,0,0,1,1.006,2.136H-13.86a1.468,1.468,0,0,0-.567-1.151,2.124,2.124,0,0,0-1.428-.483,2.223,2.223,0,0,0-1.389.387,1.217,1.217,0,0,0-.5,1.011.986.986,0,0,0,.466.888,5.731,5.731,0,0,0,1.683.571,8.77,8.77,0,0,1,1.973.65,2.878,2.878,0,0,1,1.121.91,2.237,2.237,0,0,1,.365,1.3,2.434,2.434,0,0,1-1.02,2.043,4.277,4.277,0,0,1-2.646.769,4.789,4.789,0,0,1-2.021-.4A3.288,3.288,0,0,1-19.2,23.642a2.722,2.722,0,0,1-.5-1.569h1.626a1.683,1.683,0,0,0,.655,1.3,2.54,2.54,0,0,0,1.613.479,2.622,2.622,0,0,0,1.481-.374A1.148,1.148,0,0,0-13.764,22.478Zm7.8-2.312a5.571,5.571,0,0,1,1.037-3.52,3.28,3.28,0,0,1,2.716-1.332A3.3,3.3,0,0,1,.439,16.457V11.5H2.065V25H.571L.492,23.98a3.311,3.311,0,0,1-2.716,1.2,3.248,3.248,0,0,1-2.694-1.354,5.634,5.634,0,0,1-1.042-3.533Zm1.626.185a4.218,4.218,0,0,0,.668,2.531,2.159,2.159,0,0,0,1.846.914A2.372,2.372,0,0,0,.439,22.407V18.039A2.39,2.39,0,0,0-1.8,16.694a2.17,2.17,0,0,0-1.863.923A4.644,4.644,0,0,0-4.333,20.351ZM8.534,25.176a4.155,4.155,0,0,1-3.146-1.27,4.714,4.714,0,0,1-1.213-3.4v-.3a5.707,5.707,0,0,1,.541-2.527,4.217,4.217,0,0,1,1.512-1.74,3.8,3.8,0,0,1,2.1-.628,3.562,3.562,0,0,1,2.883,1.222,5.289,5.289,0,0,1,1.028,3.5v.677H5.8a3.38,3.38,0,0,0,.822,2.272,2.583,2.583,0,0,0,2,.866,2.832,2.832,0,0,0,1.459-.352,3.666,3.666,0,0,0,1.046-.932l.993.773A3.993,3.993,0,0,1,8.534,25.176Zm-.2-8.525a2.169,2.169,0,0,0-1.652.716,3.482,3.482,0,0,0-.826,2.008h4.764v-.123a3.1,3.1,0,0,0-.668-1.92A2.042,2.042,0,0,0,8.332,16.65Zm18.281,3.7a5.694,5.694,0,0,1-.993,3.5,3.183,3.183,0,0,1-2.689,1.327,3.488,3.488,0,0,1-2.725-1.1v4.579H18.58V15.49h1.485l.079,1.055a3.35,3.35,0,0,1,2.76-1.23,3.243,3.243,0,0,1,2.711,1.292,5.756,5.756,0,0,1,1,3.595Zm-1.626-.185a4.2,4.2,0,0,0-.686-2.54,2.208,2.208,0,0,0-1.881-.932A2.39,2.39,0,0,0,20.206,18v4.544a2.4,2.4,0,0,0,2.232,1.3,2.2,2.2,0,0,0,1.859-.927A4.587,4.587,0,0,0,24.987,20.166Zm8.288-3.217a4.873,4.873,0,0,0-.8-.062A2.143,2.143,0,0,0,30.3,18.25V25H28.679V15.49h1.582l.026,1.1a2.532,2.532,0,0,1,2.268-1.274,1.661,1.661,0,0,1,.721.123Zm5.44,8.227a4.155,4.155,0,0,1-3.146-1.27,4.714,4.714,0,0,1-1.213-3.4v-.3a5.707,5.707,0,0,1,.541-2.527,4.217,4.217,0,0,1,1.512-1.74,3.8,3.8,0,0,1,2.1-.628A3.562,3.562,0,0,1,41.4,16.536a5.289,5.289,0,0,1,1.028,3.5v.677H35.982a3.38,3.38,0,0,0,.822,2.272,2.583,2.583,0,0,0,2,.866,2.832,2.832,0,0,0,1.459-.352,3.666,3.666,0,0,0,1.046-.932l.993.773A3.993,3.993,0,0,1,38.716,25.176Zm-.2-8.525a2.169,2.169,0,0,0-1.652.716,3.482,3.482,0,0,0-.826,2.008H40.8v-.123a3.1,3.1,0,0,0-.668-1.92A2.042,2.042,0,0,0,38.514,16.65Zm7.33-1.16.053,1.2a3.465,3.465,0,0,1,2.848-1.371q3.015,0,3.041,3.4V25H50.159V18.707a2.189,2.189,0,0,0-.47-1.521,1.884,1.884,0,0,0-1.437-.492,2.347,2.347,0,0,0-1.389.422,2.865,2.865,0,0,0-.932,1.107V25H44.306V15.49Zm8,4.676a5.571,5.571,0,0,1,1.037-3.52,3.529,3.529,0,0,1,5.361-.189V11.5h1.626V25H60.372l-.079-1.02a3.311,3.311,0,0,1-2.716,1.2,3.248,3.248,0,0,1-2.694-1.354,5.634,5.634,0,0,1-1.042-3.533Zm1.626.185a4.218,4.218,0,0,0,.668,2.531,2.159,2.159,0,0,0,1.846.914,2.372,2.372,0,0,0,2.259-1.389V18.039A2.39,2.39,0,0,0,58,16.694a2.17,2.17,0,0,0-1.863.923A4.644,4.644,0,0,0,55.468,20.351ZM70.26,25a3.416,3.416,0,0,1-.229-1,3.628,3.628,0,0,1-2.707,1.178,3.357,3.357,0,0,1-2.307-.8,2.573,2.573,0,0,1-.9-2.017,2.688,2.688,0,0,1,1.129-2.307,5.325,5.325,0,0,1,3.177-.822H70v-.747a1.826,1.826,0,0,0-.51-1.358,2.049,2.049,0,0,0-1.5-.505,2.371,2.371,0,0,0-1.459.439,1.3,1.3,0,0,0-.589,1.063H64.31a2.244,2.244,0,0,1,.505-1.375,3.449,3.449,0,0,1,1.371-1.05,4.613,4.613,0,0,1,1.9-.387,3.759,3.759,0,0,1,2.575.822,2.964,2.964,0,0,1,.967,2.263v4.377a5.351,5.351,0,0,0,.334,2.083V25Zm-2.7-1.239a2.858,2.858,0,0,0,1.45-.4A2.392,2.392,0,0,0,70,22.337V20.386H68.73q-2.988,0-2.988,1.749a1.48,1.48,0,0,0,.51,1.2A1.959,1.959,0,0,0,67.562,23.761Z" transform="translate(800 1806.998)" fill="#12263f"/>
    <path id="Trazado_1262720" data-name="Trazado 1262720" d="M641,0H0" transform="translate(479 1650)" fill="none" stroke="#f7c99c" stroke-linecap="round" stroke-width="3" stroke-dasharray="0 9"/>
    <g id="Grupo_161158" data-name="Grupo 161158" transform="translate(1131 1559) rotate(90)">
      <path id="Trazado_608967" data-name="Trazado 608967" d="M94.5,0A94.5,94.5,0,1,1,0,94.5,94.5,94.5,0,0,1,94.5,0Z" fill="#f7c99c"/>
    </g>
    <g id="Grupo_1071496" data-name="Grupo 1071496" transform="translate(1119.463 1570.535) rotate(90)">
      <circle id="Elipse_1142" data-name="Elipse 1142" cx="83.5" cy="83.5" r="83.5" transform="translate(-0.537 -0.537)" fill="#fff"/>
    </g>
    <g id="Grupo_161158-2" data-name="Grupo 161158" transform="translate(659 1559) rotate(90)">
      <path id="Trazado_608379" data-name="Trazado 608379" d="M94.5,0A94.5,94.5,0,1,1,0,94.5,94.5,94.5,0,0,1,94.5,0Z" fill="#f7c99c"/>
    </g>
    <g id="Grupo_1071429" data-name="Grupo 1071429" transform="translate(1946 809) rotate(90)">
      <g id="Grupo_161157" data-name="Grupo 161157" transform="translate(750 1051)">
        <path id="Trazado_608968" data-name="Trazado 608968" d="M94.5,0A94.5,94.5,0,1,1,0,94.5,94.5,94.5,0,0,1,94.5,0Z" fill="#f7c99c"/>
      </g>
    </g>
    <path id="Trazado_1262721" data-name="Trazado 1262721" d="M0,0H16V5H0Z" transform="translate(802 1747) rotate(90)" fill="#f7c99c"/>
    <path id="Trazado_1262722" data-name="Trazado 1262722" d="M0,0H16V5H0Z" transform="translate(1039 1747) rotate(90)" fill="#f7c99c"/>
    <path id="Trazado_1262723" data-name="Trazado 1262723" d="M0,0H16V5H0Z" transform="translate(567 1747) rotate(90)" fill="#f7c99c"/>
    <g id="Grupo_1071497" data-name="Grupo 1071497" transform="translate(883.463 1570.537) rotate(90)">
      <circle id="Elipse_1142-2" data-name="Elipse 1142" cx="83.5" cy="83.5" r="83.5" transform="translate(-0.537 -0.537)" fill="#fff"/>
    </g>
    <g id="Grupo_1071498" data-name="Grupo 1071498" transform="translate(649.463 1570.537) rotate(90)">
      <circle id="Elipse_1142-3" data-name="Elipse 1142" cx="83.5" cy="83.5" r="83.5" transform="translate(-0.537 -0.537)" fill="#fff"/>
    </g>
    <g id="Grupo_1077219" data-name="Grupo 1077219" transform="translate(738.979 1401.513)">
      <g id="Grupo_31812" data-name="Grupo 31812" transform="translate(266.786 193.943)">
        <g id="Grupo_31809" data-name="Grupo 31809" transform="translate(0 26.418)">
          <path id="Trazado_59917" data-name="Trazado 59917" d="M315.6,203.949H245.276a.991.991,0,0,0,0,1.98H315.6a.991.991,0,0,0,0-1.98Z" transform="translate(-244.32 -203.949)" fill="#63503e"/>
        </g>
        <g id="Grupo_31810" data-name="Grupo 31810" transform="translate(66.845 1.721)">
          <path id="Trazado_59918" data-name="Trazado 59918" d="M269.637,195.551v26.667a.991.991,0,0,0,1.98,0V195.551a.991.991,0,0,0-1.98,0Z" transform="translate(-269.637 -194.595)" fill="#63503e"/>
        </g>
        <g id="Grupo_31811" data-name="Grupo 31811" transform="translate(2.975)">
          <path id="Trazado_59919" data-name="Trazado 59919" d="M245.447,194.9v30.322a.991.991,0,0,0,1.98,0V194.9a.991.991,0,0,0-1.98,0Z" transform="translate(-245.447 -193.943)" fill="#63503e"/>
        </g>
      </g>
      <g id="Grupo_31820" data-name="Grupo 31820" transform="translate(230.624 221.445)">
        <g id="Grupo_31813" data-name="Grupo 31813" transform="translate(20.035 12.594)">
          <path id="Trazado_59920" data-name="Trazado 59920" d="M274.369,270.737l-2.794-56.721h-2.15l-8.625,55.9" transform="translate(-201.159 -201.113)" fill="#fef9e9"/>
          <path id="Trazado_59921" data-name="Trazado 59921" d="M263.873,269.155l8.87-55.189-2.384-.4-17.667,53" transform="translate(-214.459 -201.848)" fill="#fef9e9"/>
          <path id="Trazado_59922" data-name="Trazado 59922" d="M255.776,266.492l17.735-53.231-2.75-1.526L245.04,261.9" transform="translate(-227.011 -204.854)" fill="#fef9e9"/>
          <path id="Trazado_59923" data-name="Trazado 59923" d="M250.569,263.282l20.1-52.128-3.362-2.025-29.1,46.5" transform="translate(-238.212 -209.129)" fill="#fef9e9"/>
        </g>
        <g id="Grupo_31814" data-name="Grupo 31814">
          <path id="Trazado_59924" data-name="Trazado 59924" d="M336.214,224.481v61.5l.99-.99c-14.028,1.843-29.038.28-42.716-2.912-20.051-4.681-39.761-14.488-54.695-28.825a52.585,52.585,0,0,1-7.324-8.2l-.156,1.2,42.161-35.219,5.98-5h-1.4c7.359,7.953,16.819,15.916,27.679,18.073,9.9,1.964,20.42,1.9,30.472,1.357,1.267-.069,1.275-2.052,0-1.98-9.632.523-19.686.594-29.194-1.146-10.9-1.991-20.2-9.751-27.555-17.7a1.014,1.014,0,0,0-1.4,0l-42.161,35.219-5.978,4.993a.994.994,0,0,0-.156,1.2c5.946,8.8,15.33,15.826,24.149,21.442a130.573,130.573,0,0,0,65.275,19.979,101.836,101.836,0,0,0,17.022-.5,1.019,1.019,0,0,0,.99-.99v-61.5A.991.991,0,0,0,336.214,224.481Z" transform="translate(-230.624 -204.359)" fill="#63503e"/>
        </g>
        <g id="Grupo_31819" data-name="Grupo 31819" transform="translate(21.032 12.484)">
          <g id="Grupo_31815" data-name="Grupo 31815" transform="translate(58.356 12.023)">
            <path id="Trazado_59925" data-name="Trazado 59925" d="M274.547,272.341a.985.985,0,0,1-.987-.94l-.261-5.275a.99.99,0,0,1,1.978-.1l.261,5.275a.991.991,0,0,1-.94,1.038Zm-12.864-5.373a1.032,1.032,0,0,1-.153-.013.988.988,0,0,1-.826-1.127l.805-5.22a.99.99,0,0,1,1.956.3l-.805,5.22A.992.992,0,0,1,261.683,266.968Zm12.344-5.175a.989.989,0,0,1-.988-.94l-.259-5.275a.99.99,0,0,1,1.978-.1l.259,5.275a.991.991,0,0,1-.94,1.038Zm-10.733-5.262a1.033,1.033,0,0,1-.153-.013.991.991,0,0,1-.826-1.13l.805-5.217a.99.99,0,1,1,1.956.3l-.805,5.22A.992.992,0,0,1,263.294,256.531Zm10.213-5.286a.989.989,0,0,1-.988-.94l-.259-5.275a.99.99,0,1,1,1.978-.1l.259,5.275a.991.991,0,0,1-.94,1.038Zm-8.6-5.154a.964.964,0,0,1-.15-.011.99.99,0,0,1-.829-1.13l.805-5.217a1,1,0,0,1,1.13-.829.99.99,0,0,1,.826,1.13l-.805,5.22A.987.987,0,0,1,264.9,246.091Zm8.085-5.394a.991.991,0,0,1-.987-.94l-.261-5.275a.989.989,0,0,1,.94-1.038.969.969,0,0,1,1.038.94l.261,5.273a.993.993,0,0,1-.94,1.04Zm-6.474-5.043a1.02,1.02,0,0,1-.153-.011.99.99,0,0,1-.826-1.13l.805-5.217a.99.99,0,1,1,1.956.3l-.805,5.217A.987.987,0,0,1,266.515,235.653Zm5.954-5.505a.991.991,0,0,1-.987-.943l-.261-5.273a.99.99,0,0,1,.94-1.038.976.976,0,0,1,1.038.94l.261,5.273a.99.99,0,0,1-.94,1.038Zm-4.343-4.932a1.014,1.014,0,0,1-.153-.011.991.991,0,0,1-.826-1.13l.805-5.217a.99.99,0,1,1,1.956.3l-.805,5.217A.987.987,0,0,1,268.125,225.216Zm3.823-5.616a.991.991,0,0,1-.987-.943l-.148-3.036h-.356a.99.99,0,1,1,0-1.98H272.7l.243,4.919A.99.99,0,0,1,272,219.6Z" transform="translate(-260.691 -213.641)" fill="#63503e"/>
          </g>
          <g id="Grupo_31816" data-name="Grupo 31816" transform="translate(37.009 10.714)">
            <path id="Trazado_59926" data-name="Trazado 59926" d="M264.154,269.981a.806.806,0,0,1-.158-.013.987.987,0,0,1-.821-1.133l.837-5.215a.991.991,0,0,1,1.956.314l-.84,5.215A.988.988,0,0,1,264.154,269.981ZM253.6,265.96a1.082,1.082,0,0,1-.314-.05.992.992,0,0,1-.626-1.254l1.669-5.009a.991.991,0,1,1,1.88.626l-1.669,5.009A.991.991,0,0,1,253.6,265.96Zm12.23-6.405a.8.8,0,0,1-.158-.013.989.989,0,0,1-.819-1.135l.837-5.212a.989.989,0,1,1,1.954.314l-.837,5.215A.989.989,0,0,1,265.828,259.554Zm-8.89-3.615a1.015,1.015,0,0,1-.314-.05.992.992,0,0,1-.626-1.254l1.669-5.009a.991.991,0,1,1,1.88.626l-1.669,5.011A.992.992,0,0,1,256.938,255.94Zm10.567-6.812a1.071,1.071,0,0,1-.158-.013.988.988,0,0,1-.819-1.135l.837-5.215a.989.989,0,0,1,1.954.314l-.837,5.215A.993.993,0,0,1,267.5,249.128Zm-7.229-3.208a.99.99,0,0,1-.94-1.3l1.671-5.011a.991.991,0,1,1,1.88.628l-1.671,5.009A.987.987,0,0,1,260.275,245.92Zm8.906-7.221a.8.8,0,0,1-.158-.013.989.989,0,0,1-.821-1.135l.84-5.212a.989.989,0,1,1,1.954.314l-.837,5.215A.991.991,0,0,1,269.181,238.7Zm-5.563-2.8a.988.988,0,0,1-.94-1.3l1.669-5.011a.991.991,0,0,1,1.88.628l-1.671,5.009A.987.987,0,0,1,263.618,235.9Zm7.24-7.628a1.069,1.069,0,0,1-.158-.013.989.989,0,0,1-.821-1.135l.837-5.212a.991.991,0,0,1,1.956.314l-.84,5.212A.988.988,0,0,1,270.858,228.271Zm-3.9-2.389a1.013,1.013,0,0,1-.314-.05.991.991,0,0,1-.626-1.254l1.669-5.009a.991.991,0,0,1,1.88.626l-1.669,5.011A.992.992,0,0,1,266.958,225.882Zm5.574-8.037a1.094,1.094,0,0,1-.159-.013.989.989,0,0,1-.818-1.135l.2-1.22-.6-.1a1,1,0,0,1-1.167.436.99.99,0,0,1-.626-1.254l.47-1.413,4.188.7-.507,3.166A.991.991,0,0,1,272.532,217.845Z" transform="translate(-252.606 -213.145)" fill="#63503e"/>
          </g>
          <g id="Grupo_31817" data-name="Grupo 31817" transform="translate(17.722 6.056)">
            <path id="Trazado_59927" data-name="Trazado 59927" d="M255.679,267.069a1,1,0,0,1-.314-.05.988.988,0,0,1-.626-1.252l1.669-5.011a.991.991,0,0,1,1.88.628l-1.669,5.009A.992.992,0,0,1,255.679,267.069Zm-9.389-6.875a.993.993,0,0,1-.879-1.442l2.411-4.7a.99.99,0,1,1,1.761.9l-2.411,4.7A.987.987,0,0,1,246.29,260.193Zm12.726-3.142a1.067,1.067,0,0,1-.312-.05.993.993,0,0,1-.628-1.254l1.669-5.011a.991.991,0,1,1,1.88.628l-1.669,5.009A1,1,0,0,1,259.016,257.051Zm-7.905-6.258a.959.959,0,0,1-.452-.111.987.987,0,0,1-.428-1.331l2.408-4.7a.99.99,0,0,1,1.761.9l-2.408,4.7A.99.99,0,0,1,251.111,250.793Zm11.243-3.762a1.067,1.067,0,0,1-.312-.05.993.993,0,0,1-.628-1.254l1.671-5.009a.991.991,0,1,1,1.88.626l-1.671,5.009A.986.986,0,0,1,262.354,247.031Zm-6.424-5.637a.988.988,0,0,1-.879-1.442l2.408-4.7a.99.99,0,0,1,1.761.9l-2.408,4.7A.99.99,0,0,1,255.93,241.394Zm9.764-4.383a1.1,1.1,0,0,1-.314-.05.994.994,0,0,1-.626-1.254l1.669-5.009a.991.991,0,1,1,1.88.626l-1.669,5.009A.991.991,0,0,1,265.694,237.011ZM260.748,232a.99.99,0,0,1-.882-1.442l2.411-4.7a.989.989,0,0,1,1.761.9l-2.411,4.7A.983.983,0,0,1,260.748,232Zm8.283-5.006a1.069,1.069,0,0,1-.312-.05.993.993,0,0,1-.628-1.254l1.671-5.009a.989.989,0,1,1,1.877.626l-1.669,5.009A.991.991,0,0,1,269.031,226.991Zm-3.464-4.391a.959.959,0,0,1-.452-.111.986.986,0,0,1-.428-1.331l2.408-4.7a.99.99,0,1,1,1.761.9l-2.408,4.7A1,1,0,0,1,265.567,222.6Zm6.8-5.629a1.015,1.015,0,0,1-.314-.05.992.992,0,0,1-.626-1.254l.451-1.357-1.927-1.072a.989.989,0,1,1,.961-1.729l3.364,1.869-.969,2.918A.99.99,0,0,1,272.371,216.971Z" transform="translate(-245.302 -211.381)" fill="#63503e"/>
          </g>
          <g id="Grupo_31818" data-name="Grupo 31818">
            <path id="Trazado_59928" data-name="Trazado 59928" d="M249.949,264.341a.99.99,0,0,1-.924-1.347l1.9-4.927a.991.991,0,0,1,1.848.713l-1.9,4.927A.987.987,0,0,1,249.949,264.341Zm3.8-9.854a.99.99,0,0,1-.924-1.347l1.9-4.927a.99.99,0,1,1,1.848.713l-1.9,4.927A.988.988,0,0,1,253.749,254.487Zm-14.171-.982a.989.989,0,0,1-.837-1.513l2.8-4.478a.99.99,0,1,1,1.679,1.051l-2.8,4.475A.99.99,0,0,1,239.578,253.505Zm17.973-8.872a.99.99,0,0,1-.924-1.347l1.9-4.927a.99.99,0,1,1,1.848.71l-1.9,4.927A1,1,0,0,1,257.551,244.633Zm-12.367-.079a1.006,1.006,0,0,1-.525-.151.992.992,0,0,1-.314-1.365l2.8-4.475a.99.99,0,0,1,1.679,1.048l-2.8,4.478A.992.992,0,0,1,245.183,244.554Zm5.6-8.953a.99.99,0,0,1-.837-1.516l2.8-4.475a.99.99,0,0,1,1.679,1.048l-2.8,4.475A1,1,0,0,1,250.784,235.6Zm10.567-.821a.99.99,0,0,1-.924-1.347l1.9-4.927a.99.99,0,1,1,1.848.71l-1.9,4.927A1,1,0,0,1,261.35,234.78Zm-4.964-8.132a.968.968,0,0,1-.523-.151.989.989,0,0,1-.314-1.365l2.8-4.475a.99.99,0,0,1,1.679,1.051l-2.8,4.475A.993.993,0,0,1,256.386,226.648Zm8.763-1.724a.991.991,0,0,1-.927-1.344l1.9-4.927a.99.99,0,1,1,1.848.71l-1.9,4.927A.993.993,0,0,1,265.15,224.923Zm-3.161-7.229a.967.967,0,0,1-.523-.151.99.99,0,0,1-.317-1.362l2.8-4.478a.99.99,0,0,1,1.679,1.048l-2.8,4.478A.986.986,0,0,1,261.989,217.694Zm6.96-2.624a.946.946,0,0,1-.356-.066.989.989,0,0,1-.568-1.278l.8-2.083-1.188-.716a.991.991,0,0,1,1.022-1.7l2.611,1.576-1.4,3.63A.99.99,0,0,1,268.949,215.07Z" transform="translate(-238.59 -209.087)" fill="#63503e"/>
          </g>
        </g>
      </g>
    </g>
    <g id="Grupo_1077220" data-name="Grupo 1077220" transform="translate(520.552 1466.771)">
      <path id="Trazado_59902" data-name="Trazado 59902" d="M226.578,224.221h.008a275.088,275.088,0,0,1,21.485-29.262l.987-1.341c-.012-.169-.02-.34-.022-.507-.026-9.017,1.1-17.992,2.235-26.936,1.37-10.765,2.974-22.059,9.485-30.74h6.018c.012-.033.022-.065.035-.1l-.024.1h1.734l-.053-.122.055.122h17.07c.01-.029.014-.057.024-.085l-.02.085h1.773l-.088-.173H262.07a2.547,2.547,0,0,1-2.548-2.548v-2.86a2.547,2.547,0,0,1,2.548-2.548H292.78a2.547,2.547,0,0,1,2.548,2.548v2.86a2.547,2.547,0,0,1-2.548,2.548h-5.5c.039.057.071.116.11.173h5.927c6.511,8.681,8.115,19.975,9.485,30.74,1.14,8.943,2.261,17.919,2.235,26.936,0,.157-.01.316-.02.472a301.417,301.417,0,0,1,22.489,30.638h.008l-.006,0c-8.351,7.3-17.978,13.714-28.405,17.457a58.186,58.186,0,0,1-14.03,3.228,102.15,102.15,0,0,1-16.057,0c-.134-.014-.267-.041-.4-.057l0,.01,0-.01c-15.66-1.895-30.15-10.236-42.034-20.628Z" transform="translate(0.402 0.465)" fill="#fef9e9"/>
      <g id="Grupo_31807" data-name="Grupo 31807" transform="translate(226.19 126.857)">
        <g id="Grupo_31791" data-name="Grupo 31791" transform="translate(32.967)">
          <path id="Trazado_59903" data-name="Trazado 59903" d="M245.7,136.49h26.75c1.6,0,3.94.391,5.432-.358,1.787-.9,1.838-2.638,1.838-4.382,0-1.811-.1-3.668-2.037-4.48-1.492-.623-3.674-.263-5.233-.263H250.7c-1.838,0-4.51-.474-6.275.263-2.208.924-2.037,3.175-2.037,5.168,0,2.18.977,3.843,3.311,4.052.979.088.973-1.439,0-1.527-2.084-.187-1.984-3.027-1.785-4.616.179-1.447,1.221-1.775,2.416-1.814,2.078-.067,4.166,0,6.244,0h18.967a43.9,43.9,0,0,1,4.8,0c2.094.234,1.852,2.168,1.852,3.737,0,1.443-.44,2.556-2.045,2.693-1.785.153-3.649,0-5.436,0H245.7A.764.764,0,0,0,245.7,136.49Z" transform="translate(-242.387 -126.857)" fill="#63503e"/>
        </g>
        <g id="Grupo_31796" data-name="Grupo 31796" transform="translate(38.401 8.088)">
          <g id="Grupo_31792" data-name="Grupo 31792" transform="translate(22.312)">
            <path id="Trazado_59904" data-name="Trazado 59904" d="M261.486,139.027a36.751,36.751,0,0,0-4.04-7.822.783.783,0,0,0-1.044-.273.771.771,0,0,0-.275,1.044,35.061,35.061,0,0,1,3.888,7.455.784.784,0,0,0,.938.533.768.768,0,0,0,.533-.938Z" transform="translate(-256.019 -130.831)" fill="#63503e"/>
          </g>
          <g id="Grupo_31793" data-name="Grupo 31793" transform="translate(18.973 0.137)">
            <path id="Trazado_59905" data-name="Trazado 59905" d="M256.1,131.427a41.794,41.794,0,0,0-1.706,7.423.792.792,0,0,0,.533.938.771.771,0,0,0,.94-.533,41.549,41.549,0,0,1,1.706-7.421c.305-.936-1.168-1.337-1.474-.407Z" transform="translate(-254.379 -130.898)" fill="#63503e"/>
          </g>
          <g id="Grupo_31794" data-name="Grupo 31794" transform="translate(3.525 0.074)">
            <path id="Trazado_59906" data-name="Trazado 59906" d="M246.881,132.01q1.758,3.774,3.289,7.645a.788.788,0,0,0,.938.533.771.771,0,0,0,.533-.94q-1.6-4.054-3.442-8.009a.769.769,0,0,0-1.044-.273.781.781,0,0,0-.275,1.044Z" transform="translate(-246.789 -130.867)" fill="#63503e"/>
          </g>
          <g id="Grupo_31795" data-name="Grupo 31795" transform="translate(0 0.093)">
            <path id="Trazado_59907" data-name="Trazado 59907" d="M246.942,131.439a29.361,29.361,0,0,0-1.881,7.358.766.766,0,0,0,.763.763.781.781,0,0,0,.763-.763,27.9,27.9,0,0,1,1.826-6.953.768.768,0,0,0-.533-.938.782.782,0,0,0-.938.533Z" transform="translate(-245.057 -130.877)" fill="#63503e"/>
          </g>
        </g>
        <g id="Grupo_31797" data-name="Grupo 31797" transform="translate(22.473 8.231)">
          <path id="Trazado_59908" data-name="Trazado 59908" d="M241,162.453c1.1-8.636,2.282-17.606,6.322-25.446q.662-1.282,1.423-2.51a14.584,14.584,0,0,0,.987-2.021c.151-.1.535.033.712,0a24.883,24.883,0,0,1,4.176,0h26.034c1.923,0,1.292-.047,2.39,1.669a43.087,43.087,0,0,1,5.068,11.956c2.357,8.693,3.2,17.868,4.148,26.8.529,4.978.92,9.975.973,14.984.033,3.016-2.127,4.341-4.494,5.764a33.916,33.916,0,0,1-6.281,2.947c-5.609,1.96-11.349,1.919-17.219,1.852-7.358-.083-14.078-.466-20.712-4.077-2.731-1.486-5.79-3.037-5.754-6.487.031-2.837.169-5.673.379-8.5.419-5.664,1.132-11.3,1.848-16.934.122-.973-1.4-.963-1.526,0-.716,5.632-1.429,11.27-1.848,16.934-.2,2.662-.334,5.329-.375,8-.028,1.956-.226,3.446,1.3,4.816,5.449,4.895,12.894,7.164,20.06,7.567,5.892.332,12.106.639,17.976-.138a34.127,34.127,0,0,0,11.461-3.833,27.331,27.331,0,0,0,5.41-3.6c1.4-1.262,1.323-2.491,1.3-4.315-.112-10.517-1.5-21.076-3.041-31.466a80.472,80.472,0,0,0-3.1-13.914,45.592,45.592,0,0,0-2.249-5.534c-.786-1.6-2.009-4.777-3.548-5.8-.639-.427-1.681-.224-2.416-.224H251.124c-1.889,0-2.041.238-3.248,2.08-5.7,8.7-7.109,19.332-8.4,29.423C239.353,163.424,240.88,163.415,241,162.453Z" transform="translate(-237.231 -130.901)" fill="#63503e"/>
        </g>
        <g id="Grupo_31798" data-name="Grupo 31798" transform="translate(78.698 66.794)">
          <path id="Trazado_59909" data-name="Trazado 59909" d="M265.048,161.007A277.755,277.755,0,0,1,287.218,191.1c.527.826,1.85.061,1.319-.769a280.491,280.491,0,0,0-22.411-30.4c-.635-.751-1.71.334-1.079,1.079Z" transform="translate(-264.856 -159.674)" fill="#63503e"/>
        </g>
        <g id="Grupo_31804" data-name="Grupo 31804" transform="translate(42.062 79.43)">
          <g id="Grupo_31799" data-name="Grupo 31799" transform="translate(41.527 4.341)">
            <path id="Trazado_59910" data-name="Trazado 59910" d="M278.6,187.142q-4.964-9.373-9.924-18.745c-.458-.869-1.777-.1-1.317.771q4.961,9.37,9.922,18.743c.46.869,1.777.1,1.319-.769Z" transform="translate(-267.259 -168.016)" fill="#63503e"/>
          </g>
          <g id="Grupo_31800" data-name="Grupo 31800" transform="translate(27.777)">
            <path id="Trazado_59911" data-name="Trazado 59911" d="M276.246,196.037a279.84,279.84,0,0,0-14.321-29.779c-.478-.859-1.8-.09-1.319.769a276.269,276.269,0,0,1,14.168,29.415c.368.9,1.846.5,1.472-.405Z" transform="translate(-260.503 -165.883)" fill="#63503e"/>
          </g>
          <g id="Grupo_31801" data-name="Grupo 31801" transform="translate(22.357 10.55)">
            <path id="Trazado_59912" data-name="Trazado 59912" d="M257.884,172q4.152,12.261,8.119,24.589c.3.93,1.773.533,1.472-.407q-3.966-12.325-8.119-24.589c-.313-.924-1.787-.527-1.472.407Z" transform="translate(-257.84 -171.066)" fill="#63503e"/>
          </g>
          <g id="Grupo_31802" data-name="Grupo 31802" transform="translate(13.254 5.201)">
            <path id="Trazado_59913" data-name="Trazado 59913" d="M253.37,169.172q1.258,16.563,2.514,33.127c.073.973,1.6.981,1.526,0q-1.258-16.566-2.514-33.127c-.073-.975-1.6-.983-1.527,0Z" transform="translate(-253.368 -168.438)" fill="#63503e"/>
          </g>
          <g id="Grupo_31803" data-name="Grupo 31803" transform="translate(0 14.01)">
            <path id="Trazado_59914" data-name="Trazado 59914" d="M248.3,173.5c-.24,8.113-1.274,16.177-1.445,24.294a.764.764,0,0,0,1.527,0c.171-8.117,1.2-16.181,1.445-24.294a.764.764,0,0,0-1.527,0Z" transform="translate(-246.856 -172.766)" fill="#63503e"/>
          </g>
        </g>
        <g id="Grupo_31805" data-name="Grupo 31805" transform="translate(0.013 66.794)">
          <path id="Trazado_59915" data-name="Trazado 59915" d="M248.729,159.928a280.461,280.461,0,0,0-22.409,30.4c-.531.83.79,1.6,1.317.769a277.773,277.773,0,0,1,22.173-30.091c.631-.745-.444-1.83-1.081-1.079Z" transform="translate(-226.196 -159.674)" fill="#63503e"/>
        </g>
        <g id="Grupo_31806" data-name="Grupo 31806" transform="translate(0 97.09)">
          <path id="Trazado_59916" data-name="Trazado 59916" d="M327.377,174.756c-11.042,9.593-24.125,17.73-38.788,20.066a67.449,67.449,0,0,1-39.9-5.821,96.51,96.51,0,0,1-21.166-14.245c-.739-.641-1.824.436-1.079,1.081,11.553,10.03,25.332,18.281,40.664,20.6a68.175,68.175,0,0,0,39.915-6.033,99.4,99.4,0,0,0,21.436-14.571c.743-.645-.34-1.722-1.079-1.081Z" transform="translate(-226.19 -174.559)" fill="#63503e"/>
        </g>
      </g>
    </g>
    <g id="Grupo_1077221" data-name="Grupo 1077221" transform="translate(171.188 1430.894)">
      <g id="Grupo_31789" data-name="Grupo 31789" transform="translate(355.438 153.977)">
        <g id="Grupo_31783" data-name="Grupo 31783" transform="translate(1.443)">
          <g id="Grupo_31781" data-name="Grupo 31781" transform="translate(0 3.398)">
            <g id="Grupo_31777" data-name="Grupo 31777" transform="translate(51.178 44.905)">
              <path id="Trazado_59893" data-name="Trazado 59893" d="M394.8,194.979a.747.747,0,0,1-.423-.131,29.457,29.457,0,0,1-3.252-2.552.755.755,0,0,1,1.01-1.123,28.48,28.48,0,0,0,3.088,2.423.757.757,0,0,1-.423,1.383Zm-6-5.36a.752.752,0,0,1-.569-.258,40.206,40.206,0,0,1-2.546-3.227.757.757,0,0,1,1.234-.877,37.993,37.993,0,0,0,2.449,3.106.758.758,0,0,1-.568,1.256Zm-4.675-6.566a.756.756,0,0,1-.655-.377,33.757,33.757,0,0,1-1.875-3.7.756.756,0,1,1,1.4-.57,32.331,32.331,0,0,0,1.784,3.51.756.756,0,0,1-.655,1.133Z" transform="translate(-381.541 -177.939)" fill="#63503e"/>
            </g>
            <g id="Grupo_31778" data-name="Grupo 31778" transform="translate(34.042 99.822)">
              <path id="Trazado_59894" data-name="Trazado 59894" d="M408.045,206.693h-1.992a.756.756,0,0,1,0-1.512h1.992a.756.756,0,0,1,0,1.512Zm-6.023,0h-4.032a.756.756,0,1,1,0-1.512h4.032a.756.756,0,0,1,0,1.512Zm-8.065,0h-4.03a.756.756,0,1,1,0-1.512h4.03a.756.756,0,0,1,0,1.512Zm-8.061,0h-4.032a.756.756,0,1,1,0-1.512h4.032a.756.756,0,0,1,0,1.512Zm-8.066,0H373.8a.756.756,0,0,1,0-1.512h4.032a.756.756,0,1,1,0,1.512Z" transform="translate(-373.041 -205.181)" fill="#63503e"/>
            </g>
            <g id="Grupo_31779" data-name="Grupo 31779">
              <path id="Trazado_59895" data-name="Trazado 59895" d="M385.533,257H381.5a.756.756,0,1,1,0-1.512h4.032a.756.756,0,1,1,0,1.512Zm-8.063,0h-4.032a.756.756,0,0,1,0-1.512h4.032a.756.756,0,0,1,0,1.512Zm-8.064,0h-4.032a.756.756,0,1,1,0-1.512h4.032a.756.756,0,1,1,0,1.512Zm-8.063,0h-4.032a.756.756,0,0,1,0-1.512h4.032a.756.756,0,0,1,0,1.512Zm-4.433-3.631a.756.756,0,0,1-.756-.756v-4.032a.756.756,0,1,1,1.512,0v4.032A.756.756,0,0,1,356.91,253.366Zm0-8.063a.756.756,0,0,1-.756-.756v-4.032a.756.756,0,1,1,1.512,0v4.032A.756.756,0,0,1,356.91,245.3Zm0-8.063a.756.756,0,0,1-.756-.756v-4.032a.756.756,0,1,1,1.512,0v4.032A.756.756,0,0,1,356.91,237.239Zm0-8.063a.756.756,0,0,1-.756-.756v-4.032a.756.756,0,1,1,1.512,0v4.032A.756.756,0,0,1,356.91,229.176Zm0-8.063a.756.756,0,0,1-.756-.756v-4.032a.756.756,0,0,1,1.512,0v4.032A.756.756,0,0,1,356.91,221.112Zm0-8.063a.756.756,0,0,1-.756-.756v-4.032a.756.756,0,1,1,1.512,0v4.032A.756.756,0,0,1,356.91,213.049Zm3.469-5.344c-.4,0-.778-.012-1.123-.028a.758.758,0,0,1-.716-.794.733.733,0,0,1,.794-.716,22.507,22.507,0,0,0,3.883-.165.756.756,0,0,1,.2,1.5A22.7,22.7,0,0,1,360.379,207.7Zm6.864-1.1a.756.756,0,0,1-.234-1.476,21.229,21.229,0,0,0,3.564-1.544.756.756,0,1,1,.728,1.326,22.918,22.918,0,0,1-3.822,1.655A.731.731,0,0,1,367.243,206.608Zm7.042-3.838a.757.757,0,0,1-.474-1.347,24.765,24.765,0,0,0,2.836-2.683.756.756,0,0,1,1.121,1.014,26.113,26.113,0,0,1-3.012,2.848A.746.746,0,0,1,374.285,202.77Zm5.34-5.987a.753.753,0,0,1-.645-1.147,30.152,30.152,0,0,0,1.8-3.5.756.756,0,1,1,1.383.611,31.051,31.051,0,0,1-1.893,3.671A.753.753,0,0,1,379.625,196.783Zm3.3-7.348a.746.746,0,0,1-.244-.04.755.755,0,0,1-.472-.96c.421-1.234.806-2.512,1.161-3.816a.756.756,0,0,1,1.46.4c-.375,1.375-.774,2.687-1.189,3.907A.756.756,0,0,1,382.925,189.435Zm2.141-7.781a.785.785,0,0,1-.165-.018.756.756,0,0,1-.572-.9c.29-1.306.554-2.623.794-3.929a.755.755,0,1,1,1.486.274c-.242,1.322-.51,2.657-.8,3.985A.757.757,0,0,1,385.066,181.654Zm1.464-7.941a.73.73,0,0,1-.113-.008.756.756,0,0,1-.635-.861c.208-1.367.389-2.7.546-3.981a.756.756,0,1,1,1.5.185c-.159,1.294-.343,2.641-.552,4.022A.754.754,0,0,1,386.529,173.713Zm.994-8.015c-.024,0-.05,0-.075,0a.756.756,0,0,1-.679-.827c.147-1.488.26-2.842.347-4.008a.766.766,0,0,1,.81-.7.758.758,0,0,1,.7.81c-.089,1.177-.2,2.542-.349,4.046A.759.759,0,0,1,387.523,165.7Zm.593-8.068-.034,0a.752.752,0,0,1-.722-.786l.016-.448a.778.778,0,0,1,.78-.732.757.757,0,0,1,.732.78l-.018.464A.753.753,0,0,1,388.116,157.631Z" transform="translate(-356.154 -155.663)" fill="#63503e"/>
            </g>
            <g id="Grupo_31780" data-name="Grupo 31780" transform="translate(42.434 4.749)">
              <path id="Trazado_59896" data-name="Trazado 59896" d="M383.889,191.378a.754.754,0,0,1-.577-.27c-.175-.206-.343-.417-.506-.633a.756.756,0,1,1,1.205-.911c.147.194.3.385.454.57a.756.756,0,0,1-.577,1.244Zm-2.53-4.064a.756.756,0,0,1-.685-.437A29,29,0,0,1,379.22,183a.755.755,0,1,1,1.447-.433,27.286,27.286,0,0,0,1.377,3.669.76.76,0,0,1-.685,1.076Zm-2.365-7.691a.755.755,0,0,1-.742-.613c-.246-1.276-.452-2.639-.611-4.046a.757.757,0,0,1,.667-.837.747.747,0,0,1,.837.667c.153,1.369.353,2.691.593,3.929a.756.756,0,0,1-.6.885A.723.723,0,0,1,378.994,179.623Zm-.929-8.009a.754.754,0,0,1-.754-.714c-.077-1.427-.1-2.8-.107-4.074a.754.754,0,0,1,.754-.756h0a.755.755,0,0,1,.756.756c0,1.248.03,2.592.1,3.991a.756.756,0,0,1-.716.8Zm-.012-8.063h-.036a.758.758,0,0,1-.72-.792c.113-2.463.29-4.008.3-4.074a.755.755,0,0,1,1.5.173c0,.016-.177,1.564-.286,3.973A.759.759,0,0,1,378.053,163.551Z" transform="translate(-377.204 -158.019)" fill="#63503e"/>
            </g>
          </g>
          <g id="Grupo_31782" data-name="Grupo 31782" transform="translate(3.647)">
            <path id="Trazado_59897" data-name="Trazado 59897" d="M357.963,181.856v98.951a.511.511,0,0,0,.5.5h22.767a.519.519,0,0,0,.5-.5l2.631-24.418,1.863-17.3c.258-2.379,1.556-6.59.968-8.975-.347-1.4-.821,1.818-.824,1.891a34.458,34.458,0,0,0,.447,5.209l1.484,17.2,2.274,26.4a.516.516,0,0,0,.5.5h29.992a.519.519,0,0,0,.5-.5l6.634-55.386a.506.506,0,0,0-.25-.435c-8.654-6.084-15.252-14.869-14.593-26a.508.508,0,0,0-.758-.435c-8.567,4.423-17.9,11.507-22.884,19.846-.514.861-3.31,6.767-1.562,3.9,1.062-1.74,1.468-4.391,2.215-6.306,3.209-8.221,7.491-16.949,15.022-21.993a.527.527,0,0,0,.232-.57,36.338,36.338,0,0,1,3.889-25.716.51.51,0,0,0-.3-.74L377.537,154a.509.509,0,0,0-.639.486c.157,5.447.214,12.1-2.153,17.03-3,6.237-9.924,8.68-16.413,9.85-.637.115-.367,1.087.268.972,12.978-2.336,18.375-8.644,19.2-21.632.421-6.656-1.326-6.06,5.126-3.417l19.631,8.033c.853.351,5.437,1.518,5.87,2.4a85.865,85.865,0,0,0-3.677,9c-1.139,5.108,1.03,13.238-.835,17.127-.812,1.689-4.155,3.544-5.471,5.171a53.892,53.892,0,0,0-6.505,10.823,86.188,86.188,0,0,0-5.167,13.627.506.506,0,0,0,.921.387,55.557,55.557,0,0,1,12.835-15.778c2.465-2.121,7.676-7.261,11.236-7.92,2.141-.4-.155-.976.574-.177.284.31.208,3.159.294,3.814a26.517,26.517,0,0,0,5.132,13.1c2.2,2.881,6.088,4.858,8.035,7.731,1.465,2.161.857.542,1.095,3.411.524,6.328-1.659,13.859-2.413,20.157l-2.869,23.947c-.212,1.776.036,5.63-.869,7.255-1.046,1.881,1.129.413-2.07.907-7.146,1.1-15.3,0-22.527,0-5.8,0-4.546.619-5.056-5.3l-3.876-44.984a.5.5,0,0,0-1.008,0l-2.842,26.372-1.814,16.833c-.218,2.018-.754,7.015-.863,7.082-2.826,1.754-12.379,0-15.712,0-.947,0-5.471.609-6.279,0-1.161-.877.278-16.921.278-19.286V181.856A.5.5,0,0,0,357.963,181.856Z" transform="translate(-357.963 -153.977)" fill="#63503e"/>
          </g>
        </g>
        <g id="Grupo_31788" data-name="Grupo 31788" transform="translate(0 14.304)">
          <g id="Grupo_31784" data-name="Grupo 31784" transform="translate(0 3.721)">
            <path id="Trazado_59898" data-name="Trazado 59898" d="M357.053,167.58l-.708,2.139h-.907l2.312-6.8h1.058l2.32,6.8h-.937l-.728-2.139Zm2.229-.685-.667-1.957c-.149-.444-.252-.847-.353-1.24h-.018c-.1.4-.214.816-.343,1.23l-.667,1.968Z" transform="translate(-355.438 -162.919)" fill="#63503e"/>
          </g>
          <g id="Grupo_31785" data-name="Grupo 31785" transform="translate(59.295)">
            <path id="Trazado_59899" data-name="Trazado 59899" d="M384.852,161.214a8.5,8.5,0,0,1,1.6-.141,2.81,2.81,0,0,1,1.867.494,1.421,1.421,0,0,1,.566,1.2,1.616,1.616,0,0,1-1.151,1.494v.02a1.755,1.755,0,0,1,1.4,1.705,1.836,1.836,0,0,1-.575,1.363,3.421,3.421,0,0,1-2.353.635,10.254,10.254,0,0,1-1.361-.081Zm.877,2.784h.8c.929,0,1.474-.484,1.474-1.139,0-.8-.6-1.111-1.494-1.111a3.762,3.762,0,0,0-.776.06Zm0,3.258a4.434,4.434,0,0,0,.738.042c.907,0,1.744-.335,1.744-1.322,0-.927-.8-1.312-1.756-1.312h-.726Z" transform="translate(-384.852 -161.073)" fill="#63503e"/>
          </g>
          <g id="Grupo_31786" data-name="Grupo 31786" transform="translate(62.252 23.09)">
            <path id="Trazado_59900" data-name="Trazado 59900" d="M391.476,179.216a4.372,4.372,0,0,1-1.8.323,3.178,3.178,0,0,1-3.36-3.441,3.384,3.384,0,0,1,3.552-3.57,3.627,3.627,0,0,1,1.613.3l-.21.716a3.2,3.2,0,0,0-1.373-.282,2.528,2.528,0,0,0-2.653,2.806,2.471,2.471,0,0,0,2.613,2.732,3.519,3.519,0,0,0,1.433-.282Z" transform="translate(-386.319 -172.527)" fill="#63503e"/>
          </g>
          <g id="Grupo_31787" data-name="Grupo 31787" transform="translate(74.17 105.674)">
            <path id="Trazado_59901" data-name="Trazado 59901" d="M392.231,213.637a12.548,12.548,0,0,1,1.867-.143,3.891,3.891,0,0,1,2.754.849,3.135,3.135,0,0,1,.959,2.441,3.588,3.588,0,0,1-.982,2.643,4.175,4.175,0,0,1-3.006.98,14.168,14.168,0,0,1-1.593-.081Zm.877,6.013a5.546,5.546,0,0,0,.887.05,2.615,2.615,0,0,0,2.9-2.887,2.428,2.428,0,0,0-2.756-2.623,5,5,0,0,0-1.028.091Z" transform="translate(-392.231 -213.494)" fill="#63503e"/>
          </g>
        </g>
      </g>
    </g>
    <path id="Trazado_1262724" data-name="Trazado 1262724" d="M-73.318-2.373h5.37V0H-76.4V-12.8h3.085ZM-63.554,0h-2.979V-9.51h2.979Zm-1.107-13.324h3.129l-2.443,2.76h-2.417Zm5.73,3.814.1,1.116a3.225,3.225,0,0,1,2.716-1.292A2.713,2.713,0,0,1-53.9-8.8a4.226,4.226,0,0,1,.76,2.672V0h-2.971V-6a1.6,1.6,0,0,0-.29-1.059A1.342,1.342,0,0,0-57.454-7.4a1.413,1.413,0,0,0-1.292.686V0h-2.962V-9.51ZM-46.9.176A4.889,4.889,0,0,1-50.44-1.129a4.507,4.507,0,0,1-1.354-3.4v-.246a5.84,5.84,0,0,1,.541-2.575,3.955,3.955,0,0,1,1.578-1.727,4.763,4.763,0,0,1,2.461-.611,4.117,4.117,0,0,1,3.164,1.244,4.887,4.887,0,0,1,1.16,3.467v1.151h-5.889a2.135,2.135,0,0,0,.694,1.257,2.066,2.066,0,0,0,1.389.457,2.662,2.662,0,0,0,2.2-.984l1.354,1.6A3.784,3.784,0,0,1-44.714-.277,5.3,5.3,0,0,1-46.9.176ZM-47.232-7.4q-1.3,0-1.547,1.723h2.988v-.229a1.467,1.467,0,0,0-.36-1.1A1.434,1.434,0,0,0-47.232-7.4ZM-36.343,0a3.344,3.344,0,0,1-.281-.853A2.754,2.754,0,0,1-38.909.176a3.374,3.374,0,0,1-2.285-.813,2.588,2.588,0,0,1-.94-2.043,2.66,2.66,0,0,1,1.143-2.338A5.821,5.821,0,0,1-37.67-5.81h.914v-.5q0-1.31-1.134-1.31a.925.925,0,0,0-1.055,1.037h-2.962a2.659,2.659,0,0,1,1.173-2.241,4.927,4.927,0,0,1,2.993-.861,4.323,4.323,0,0,1,2.874.888,3.086,3.086,0,0,1,1.081,2.435v4.21a4.311,4.311,0,0,0,.4,2V0ZM-38.2-1.934a1.652,1.652,0,0,0,.918-.237,1.487,1.487,0,0,0,.523-.536V-4.228h-.861q-1.547,0-1.547,1.389a.848.848,0,0,0,.272.655A.986.986,0,0,0-38.2-1.934ZM-24.539,0H-27.51V-9.51h2.971Zm-3.146-11.962A1.322,1.322,0,0,1-27.229-13a1.724,1.724,0,0,1,1.187-.4,1.724,1.724,0,0,1,1.187.4,1.322,1.322,0,0,1,.457,1.037,1.322,1.322,0,0,1-.457,1.037,1.724,1.724,0,0,1-1.187.4,1.724,1.724,0,0,1-1.187-.4A1.322,1.322,0,0,1-27.686-11.962ZM-20-9.51l.1,1.116a3.225,3.225,0,0,1,2.716-1.292,2.713,2.713,0,0,1,2.219.888,4.226,4.226,0,0,1,.76,2.672V0h-2.971V-6a1.6,1.6,0,0,0-.29-1.059A1.342,1.342,0,0,0-18.519-7.4a1.413,1.413,0,0,0-1.292.686V0h-2.962V-9.51Zm10.881-2.364V-9.51H-7.55v2.057H-9.114V-3.1a1.111,1.111,0,0,0,.193.747,1.037,1.037,0,0,0,.765.211A4.345,4.345,0,0,0-7.418-2.2V-.079a5.466,5.466,0,0,1-1.67.255,3.1,3.1,0,0,1-2.259-.721,2.954,2.954,0,0,1-.729-2.188v-4.72h-1.213V-9.51h1.213v-2.364ZM-1.784.176A4.889,4.889,0,0,1-5.326-1.129a4.507,4.507,0,0,1-1.354-3.4v-.246a5.84,5.84,0,0,1,.541-2.575A3.955,3.955,0,0,1-4.562-9.075,4.763,4.763,0,0,1-2.1-9.686,4.117,4.117,0,0,1,1.063-8.442a4.887,4.887,0,0,1,1.16,3.467v1.151H-3.665a2.135,2.135,0,0,0,.694,1.257,2.066,2.066,0,0,0,1.389.457,2.662,2.662,0,0,0,2.2-.984l1.354,1.6A3.784,3.784,0,0,1,.4-.277,5.3,5.3,0,0,1-1.784.176ZM-2.118-7.4q-1.3,0-1.547,1.723H-.677v-.229a1.467,1.467,0,0,0-.36-1.1A1.434,1.434,0,0,0-2.118-7.4Zm11.285.571L8.191-6.9A1.752,1.752,0,0,0,6.4-6.021V0H3.437V-9.51H6.214l.1,1.222a2.294,2.294,0,0,1,2.083-1.4,2.888,2.888,0,0,1,.826.105ZM13.034-9.51l.1,1.116a3.27,3.27,0,0,1,2.716-1.292,2.407,2.407,0,0,1,2.435,1.433,3.165,3.165,0,0,1,2.795-1.433q2.892,0,2.971,3.5V0H21.076V-6a1.813,1.813,0,0,0-.246-1.063,1.048,1.048,0,0,0-.9-.334,1.4,1.4,0,0,0-1.31.782l.009.123V0H15.662V-5.985a1.906,1.906,0,0,0-.237-1.081A1.045,1.045,0,0,0,14.52-7.4a1.42,1.42,0,0,0-1.3.782V0H10.257V-9.51ZM28.863,0H25.893V-9.51h2.971ZM25.717-11.962A1.322,1.322,0,0,1,26.174-13a1.724,1.724,0,0,1,1.187-.4,1.724,1.724,0,0,1,1.187.4A1.322,1.322,0,0,1,29-11.962a1.322,1.322,0,0,1-.457,1.037,1.724,1.724,0,0,1-1.187.4,1.724,1.724,0,0,1-1.187-.4A1.322,1.322,0,0,1,25.717-11.962Zm8.42.088V-9.51H35.7v2.057H34.137V-3.1a1.111,1.111,0,0,0,.193.747,1.037,1.037,0,0,0,.765.211,4.345,4.345,0,0,0,.738-.053V-.079a5.466,5.466,0,0,1-1.67.255A3.1,3.1,0,0,1,31.9-.545a2.954,2.954,0,0,1-.729-2.188v-4.72H29.962V-9.51h1.213v-2.364ZM41.467.176a4.889,4.889,0,0,1-3.542-1.305,4.507,4.507,0,0,1-1.354-3.4v-.246a5.84,5.84,0,0,1,.541-2.575,3.955,3.955,0,0,1,1.578-1.727,4.763,4.763,0,0,1,2.461-.611,4.117,4.117,0,0,1,3.164,1.244,4.887,4.887,0,0,1,1.16,3.467v1.151H39.586a2.135,2.135,0,0,0,.694,1.257,2.066,2.066,0,0,0,1.389.457,2.662,2.662,0,0,0,2.2-.984l1.354,1.6A3.784,3.784,0,0,1,43.651-.277,5.3,5.3,0,0,1,41.467.176ZM41.133-7.4q-1.3,0-1.547,1.723h2.988v-.229a1.467,1.467,0,0,0-.36-1.1A1.434,1.434,0,0,0,41.133-7.4ZM49.386-9.51l.1,1.116A3.225,3.225,0,0,1,52.2-9.686a2.713,2.713,0,0,1,2.219.888,4.226,4.226,0,0,1,.76,2.672V0H52.207V-6a1.6,1.6,0,0,0-.29-1.059A1.342,1.342,0,0,0,50.862-7.4a1.413,1.413,0,0,0-1.292.686V0H46.608V-9.51Zm10.881-2.364V-9.51h1.564v2.057H60.267V-3.1a1.111,1.111,0,0,0,.193.747,1.037,1.037,0,0,0,.765.211,4.345,4.345,0,0,0,.738-.053V-.079a5.466,5.466,0,0,1-1.67.255,3.1,3.1,0,0,1-2.259-.721A2.954,2.954,0,0,1,57.3-2.733v-4.72H56.092V-9.51H57.3v-2.364ZM67.6.176a4.889,4.889,0,0,1-3.542-1.305,4.507,4.507,0,0,1-1.354-3.4v-.246a5.84,5.84,0,0,1,.541-2.575,3.955,3.955,0,0,1,1.578-1.727,4.763,4.763,0,0,1,2.461-.611,4.117,4.117,0,0,1,3.164,1.244A4.887,4.887,0,0,1,71.6-4.975v1.151H65.716a2.135,2.135,0,0,0,.694,1.257,2.066,2.066,0,0,0,1.389.457A2.662,2.662,0,0,0,70-3.094l1.354,1.6A3.784,3.784,0,0,1,69.781-.277,5.3,5.3,0,0,1,67.6.176ZM67.263-7.4q-1.3,0-1.547,1.723H68.7v-.229a1.467,1.467,0,0,0-.36-1.1A1.434,1.434,0,0,0,67.263-7.4Zm7.374,4.526a1.686,1.686,0,0,1,1.169.417,1.37,1.37,0,0,1,.466,1.068,1.37,1.37,0,0,1-.466,1.068A1.686,1.686,0,0,1,74.637.1a1.672,1.672,0,0,1-1.173-.422A1.379,1.379,0,0,1,73-1.389a1.379,1.379,0,0,1,.461-1.063A1.672,1.672,0,0,1,74.637-2.874Zm0-7.014a1.686,1.686,0,0,1,1.169.417A1.37,1.37,0,0,1,76.271-8.4a1.37,1.37,0,0,1-.466,1.068,1.686,1.686,0,0,1-1.169.417,1.672,1.672,0,0,1-1.173-.422A1.379,1.379,0,0,1,73-8.4a1.379,1.379,0,0,1,.461-1.063A1.672,1.672,0,0,1,74.637-9.888ZM-83.619,19.99V25h-1.687V12.2h4.72A4.742,4.742,0,0,1-77.3,13.275,3.635,3.635,0,0,1-76.1,16.114a3.587,3.587,0,0,1-1.165,2.87A4.954,4.954,0,0,1-80.6,19.99Zm0-1.38h3.032a3.035,3.035,0,0,0,2.074-.637,2.328,2.328,0,0,0,.721-1.841,2.4,2.4,0,0,0-.721-1.828,2.843,2.843,0,0,0-1.978-.712h-3.129Zm13.359,6.565a4.155,4.155,0,0,1-3.146-1.27,4.714,4.714,0,0,1-1.213-3.4v-.3a5.707,5.707,0,0,1,.541-2.527,4.217,4.217,0,0,1,1.512-1.74,3.8,3.8,0,0,1,2.1-.628,3.562,3.562,0,0,1,2.883,1.222,5.289,5.289,0,0,1,1.028,3.5v.677h-6.442a3.38,3.38,0,0,0,.822,2.272,2.583,2.583,0,0,0,2,.866,2.832,2.832,0,0,0,1.459-.352,3.666,3.666,0,0,0,1.046-.932l.993.773A3.993,3.993,0,0,1-70.26,25.176Zm-.2-8.525a2.169,2.169,0,0,0-1.652.716,3.482,3.482,0,0,0-.826,2.008h4.764v-.123a3.1,3.1,0,0,0-.668-1.92A2.042,2.042,0,0,0-70.462,16.65Zm11.329,5.827a1.2,1.2,0,0,0-.5-1.024,4.78,4.78,0,0,0-1.731-.628,8.186,8.186,0,0,1-1.96-.633,2.788,2.788,0,0,1-1.072-.879A2.1,2.1,0,0,1-64.74,18.1a2.467,2.467,0,0,1,.989-1.978,3.861,3.861,0,0,1,2.527-.809,3.974,3.974,0,0,1,2.624.835,2.652,2.652,0,0,1,1.006,2.136h-1.635a1.468,1.468,0,0,0-.567-1.151,2.124,2.124,0,0,0-1.428-.483,2.223,2.223,0,0,0-1.389.387,1.217,1.217,0,0,0-.5,1.011.986.986,0,0,0,.466.888,5.731,5.731,0,0,0,1.683.571,8.77,8.77,0,0,1,1.973.65,2.878,2.878,0,0,1,1.121.91,2.237,2.237,0,0,1,.365,1.3,2.434,2.434,0,0,1-1.02,2.043,4.277,4.277,0,0,1-2.646.769,4.789,4.789,0,0,1-2.021-.4,3.288,3.288,0,0,1-1.375-1.129,2.722,2.722,0,0,1-.5-1.569h1.626a1.683,1.683,0,0,0,.655,1.3,2.54,2.54,0,0,0,1.613.479,2.622,2.622,0,0,0,1.481-.374A1.148,1.148,0,0,0-59.133,22.478Zm11.777-2.127a5.694,5.694,0,0,1-.993,3.5,3.183,3.183,0,0,1-2.689,1.327,3.488,3.488,0,0,1-2.725-1.1v4.579h-1.626V15.49H-53.9l.079,1.055a3.35,3.35,0,0,1,2.76-1.23,3.243,3.243,0,0,1,2.711,1.292,5.756,5.756,0,0,1,1,3.595Zm-1.626-.185a4.2,4.2,0,0,0-.686-2.54,2.208,2.208,0,0,0-1.881-.932A2.39,2.39,0,0,0-53.763,18v4.544a2.4,2.4,0,0,0,2.232,1.3,2.2,2.2,0,0,0,1.859-.927A4.587,4.587,0,0,0-48.981,20.166Zm9.563,3.894a3.454,3.454,0,0,1-2.786,1.116,2.956,2.956,0,0,1-2.316-.883,3.823,3.823,0,0,1-.8-2.615V15.49H-43.7v6.144q0,2.162,1.758,2.162a2.434,2.434,0,0,0,2.479-1.389V15.49h1.626V25h-1.547Zm5.59-8.569.053,1.2a3.465,3.465,0,0,1,2.848-1.371q3.015,0,3.041,3.4V25h-1.626V18.707a2.189,2.189,0,0,0-.47-1.521,1.884,1.884,0,0,0-1.437-.492,2.347,2.347,0,0,0-1.389.422,2.865,2.865,0,0,0-.932,1.107V25h-1.626V15.49Zm10.6-2.3v2.3h1.775v1.257h-1.775v5.9a1.317,1.317,0,0,0,.237.857,1,1,0,0,0,.809.286,3.937,3.937,0,0,0,.773-.105V25a4.714,4.714,0,0,1-1.248.176,2.025,2.025,0,0,1-1.644-.659,2.832,2.832,0,0,1-.554-1.872v-5.9h-1.731V15.49h1.731v-2.3Zm7.62,11.988a4.155,4.155,0,0,1-3.146-1.27,4.714,4.714,0,0,1-1.213-3.4v-.3a5.707,5.707,0,0,1,.541-2.527,4.217,4.217,0,0,1,1.512-1.74,3.8,3.8,0,0,1,2.1-.628,3.562,3.562,0,0,1,2.883,1.222,5.289,5.289,0,0,1,1.028,3.5v.677h-6.442a3.38,3.38,0,0,0,.822,2.272,2.583,2.583,0,0,0,2,.866,2.832,2.832,0,0,0,1.459-.352,3.666,3.666,0,0,0,1.046-.932l.993.773A3.993,3.993,0,0,1-15.609,25.176Zm-.2-8.525a2.169,2.169,0,0,0-1.652.716,3.482,3.482,0,0,0-.826,2.008h4.764v-.123a3.1,3.1,0,0,0-.668-1.92A2.042,2.042,0,0,0-15.812,16.65Zm11.329,5.827a1.2,1.2,0,0,0-.5-1.024,4.78,4.78,0,0,0-1.731-.628,8.186,8.186,0,0,1-1.96-.633,2.788,2.788,0,0,1-1.072-.879A2.1,2.1,0,0,1-10.09,18.1,2.467,2.467,0,0,1-9.1,16.123a3.861,3.861,0,0,1,2.527-.809,3.974,3.974,0,0,1,2.624.835,2.652,2.652,0,0,1,1.006,2.136H-4.579a1.468,1.468,0,0,0-.567-1.151,2.124,2.124,0,0,0-1.428-.483,2.223,2.223,0,0,0-1.389.387,1.217,1.217,0,0,0-.5,1.011A.986.986,0,0,0-8,18.936a5.731,5.731,0,0,0,1.683.571,8.77,8.77,0,0,1,1.973.65,2.878,2.878,0,0,1,1.121.91,2.237,2.237,0,0,1,.365,1.3,2.434,2.434,0,0,1-1.02,2.043,4.277,4.277,0,0,1-2.646.769,4.789,4.789,0,0,1-2.021-.4,3.288,3.288,0,0,1-1.375-1.129,2.722,2.722,0,0,1-.5-1.569h1.626a1.683,1.683,0,0,0,.655,1.3,2.54,2.54,0,0,0,1.613.479,2.622,2.622,0,0,0,1.481-.374A1.148,1.148,0,0,0-4.482,22.478Zm7.77-2.32a5.617,5.617,0,0,1,.549-2.514,4.1,4.1,0,0,1,1.529-1.723A4.163,4.163,0,0,1,7.6,15.314a4.01,4.01,0,0,1,3.142,1.345,5.174,5.174,0,0,1,1.2,3.577v.114a5.666,5.666,0,0,1-.532,2.492,4.038,4.038,0,0,1-1.521,1.718,4.211,4.211,0,0,1-2.272.615,4,4,0,0,1-3.133-1.345,5.147,5.147,0,0,1-1.2-3.56Zm1.635.193a4.068,4.068,0,0,0,.734,2.54,2.349,2.349,0,0,0,1.964.958,2.335,2.335,0,0,0,1.969-.971,4.449,4.449,0,0,0,.729-2.72,4.061,4.061,0,0,0-.743-2.536A2.361,2.361,0,0,0,7.6,16.65a2.335,2.335,0,0,0-1.942.958A4.416,4.416,0,0,0,4.922,20.351Zm17.332,3.5a2.342,2.342,0,0,0,1.521-.527A1.855,1.855,0,0,0,24.5,22h1.538a2.949,2.949,0,0,1-.562,1.556,3.7,3.7,0,0,1-1.384,1.178,3.994,3.994,0,0,1-1.833.439,3.918,3.918,0,0,1-3.089-1.3,5.163,5.163,0,0,1-1.147-3.546v-.272a5.725,5.725,0,0,1,.51-2.47,3.883,3.883,0,0,1,1.463-1.679,4.157,4.157,0,0,1,2.254-.6,3.814,3.814,0,0,1,2.659.958,3.424,3.424,0,0,1,1.129,2.487H24.5a2.241,2.241,0,0,0-.7-1.516,2.174,2.174,0,0,0-1.551-.593,2.276,2.276,0,0,0-1.92.892,4.19,4.19,0,0,0-.681,2.58v.308a4.106,4.106,0,0,0,.677,2.531A2.287,2.287,0,0,0,22.254,23.849Zm5.177-3.691a5.617,5.617,0,0,1,.549-2.514,4.1,4.1,0,0,1,1.529-1.723,4.163,4.163,0,0,1,2.237-.606,4.01,4.01,0,0,1,3.142,1.345,5.174,5.174,0,0,1,1.2,3.577v.114a5.666,5.666,0,0,1-.532,2.492,4.038,4.038,0,0,1-1.521,1.718,4.211,4.211,0,0,1-2.272.615,4,4,0,0,1-3.133-1.345,5.147,5.147,0,0,1-1.2-3.56Zm1.635.193a4.068,4.068,0,0,0,.734,2.54,2.487,2.487,0,0,0,3.933-.013,4.449,4.449,0,0,0,.729-2.72,4.061,4.061,0,0,0-.743-2.536,2.361,2.361,0,0,0-1.973-.971,2.335,2.335,0,0,0-1.942.958A4.416,4.416,0,0,0,29.065,20.351Zm14.6,2.127a1.2,1.2,0,0,0-.5-1.024,4.78,4.78,0,0,0-1.731-.628,8.186,8.186,0,0,1-1.96-.633,2.788,2.788,0,0,1-1.072-.879,2.1,2.1,0,0,1-.347-1.213,2.467,2.467,0,0,1,.989-1.978,3.861,3.861,0,0,1,2.527-.809,3.974,3.974,0,0,1,2.624.835A2.652,2.652,0,0,1,45.2,18.285H43.567A1.468,1.468,0,0,0,43,17.134a2.124,2.124,0,0,0-1.428-.483,2.223,2.223,0,0,0-1.389.387,1.217,1.217,0,0,0-.5,1.011.986.986,0,0,0,.466.888,5.731,5.731,0,0,0,1.683.571,8.77,8.77,0,0,1,1.973.65,2.878,2.878,0,0,1,1.121.91,2.237,2.237,0,0,1,.365,1.3,2.434,2.434,0,0,1-1.02,2.043,4.277,4.277,0,0,1-2.646.769,4.789,4.789,0,0,1-2.021-.4,3.288,3.288,0,0,1-1.375-1.129,2.722,2.722,0,0,1-.5-1.569h1.626a1.683,1.683,0,0,0,.655,1.3,2.54,2.54,0,0,0,1.613.479,2.622,2.622,0,0,0,1.481-.374A1.148,1.148,0,0,0,43.664,22.478Zm5.95-9.29v2.3H51.39v1.257H49.614v5.9a1.317,1.317,0,0,0,.237.857,1,1,0,0,0,.809.286,3.937,3.937,0,0,0,.773-.105V25a4.714,4.714,0,0,1-1.248.176,2.025,2.025,0,0,1-1.644-.659,2.832,2.832,0,0,1-.554-1.872v-5.9H46.257V15.49h1.731v-2.3ZM59.159,24.06a3.454,3.454,0,0,1-2.786,1.116,2.956,2.956,0,0,1-2.316-.883,3.823,3.823,0,0,1-.8-2.615V15.49h1.626v6.144q0,2.162,1.758,2.162a2.434,2.434,0,0,0,2.479-1.389V15.49h1.626V25H59.194Zm8.648-7.11a4.873,4.873,0,0,0-.8-.062,2.143,2.143,0,0,0-2.171,1.362V25H63.211V15.49h1.582l.026,1.1a2.532,2.532,0,0,1,2.268-1.274,1.661,1.661,0,0,1,.721.123ZM74.821,25a3.416,3.416,0,0,1-.229-1,3.628,3.628,0,0,1-2.707,1.178,3.357,3.357,0,0,1-2.307-.8,2.573,2.573,0,0,1-.9-2.017,2.688,2.688,0,0,1,1.129-2.307,5.325,5.325,0,0,1,3.177-.822h1.582v-.747a1.826,1.826,0,0,0-.51-1.358,2.049,2.049,0,0,0-1.5-.505,2.371,2.371,0,0,0-1.459.439,1.3,1.3,0,0,0-.589,1.063H68.871a2.244,2.244,0,0,1,.505-1.375,3.449,3.449,0,0,1,1.371-1.05,4.613,4.613,0,0,1,1.9-.387,3.759,3.759,0,0,1,2.575.822,2.964,2.964,0,0,1,.967,2.263v4.377a5.351,5.351,0,0,0,.334,2.083V25Zm-2.7-1.239a2.858,2.858,0,0,0,1.45-.4,2.392,2.392,0,0,0,.993-1.028V20.386H73.292q-2.988,0-2.988,1.749a1.48,1.48,0,0,0,.51,1.2A1.959,1.959,0,0,0,72.123,23.761Zm12.155-1.283a1.2,1.2,0,0,0-.5-1.024,4.78,4.78,0,0,0-1.731-.628,8.186,8.186,0,0,1-1.96-.633,2.788,2.788,0,0,1-1.072-.879,2.1,2.1,0,0,1-.347-1.213,2.467,2.467,0,0,1,.989-1.978,3.861,3.861,0,0,1,2.527-.809,3.974,3.974,0,0,1,2.624.835,2.652,2.652,0,0,1,1.006,2.136H84.182a1.468,1.468,0,0,0-.567-1.151,2.124,2.124,0,0,0-1.428-.483,2.223,2.223,0,0,0-1.389.387,1.217,1.217,0,0,0-.5,1.011.986.986,0,0,0,.466.888,5.731,5.731,0,0,0,1.683.571,8.77,8.77,0,0,1,1.973.65,2.878,2.878,0,0,1,1.121.91,2.237,2.237,0,0,1,.365,1.3,2.434,2.434,0,0,1-1.02,2.043,4.277,4.277,0,0,1-2.646.769,4.789,4.789,0,0,1-2.021-.4,3.288,3.288,0,0,1-1.375-1.129,2.722,2.722,0,0,1-.5-1.569h1.626a1.683,1.683,0,0,0,.655,1.3,2.54,2.54,0,0,0,1.613.479,2.622,2.622,0,0,0,1.481-.374A1.148,1.148,0,0,0,84.278,22.478Z" transform="translate(1040 1807.514)" fill="#12263f"/>
  </g>
</svg>
